<svg version="1.1" xmlns="http://www.w3.org/2000/svg" viewBox="0 0 1321.5248461764404 616.0424496189041" width="3964.574538529321" height="1848.1273488567124">
  <!-- svg-source:excalidraw -->

  <g transform="translate(277.13849289495647 10) rotate(0 178.54190063476562 22.5)"><text x="178.54190063476562" y="0" font-family="Virgil, Segoe UI Emoji" font-size="36px" fill="#1e1e1e" text-anchor="middle" style="white-space: pre;" direction="ltr" dominant-baseline="text-before-edge">Client-side Rendering</text></g><g stroke-linecap="round" transform="translate(279.859680803081 102.03929708264991) rotate(0 94.5 33)"><path d="M16.5 0 M16.5 0 C50.71 1.29, 82.1 -0.1, 172.5 0 M16.5 0 C59.21 -0.12, 101.31 1, 172.5 0 M172.5 0 C182.41 0.06, 187.12 4.4, 189 16.5 M172.5 0 C184.6 0.72, 191.05 4.36, 189 16.5 M189 16.5 C187.6 25.19, 190.55 30.93, 189 49.5 M189 16.5 C188.17 23.89, 188.28 31.46, 189 49.5 M189 49.5 C190.49 60.86, 184.23 67.5, 172.5 66 M189 49.5 C187.56 59.01, 185.72 67.31, 172.5 66 M172.5 66 C123.83 64.24, 76.41 65.05, 16.5 66 M172.5 66 C125.45 64.59, 77.38 65.85, 16.5 66 M16.5 66 C6.13 65.98, -0.38 62.18, 0 49.5 M16.5 66 C7.2 63.9, -0.98 61, 0 49.5 M0 49.5 C-0.28 39.85, -0.45 35.42, 0 16.5 M0 49.5 C1.02 38.52, -0.17 27.09, 0 16.5 M0 16.5 C-1.21 4.59, 3.83 0.7, 16.5 0 M0 16.5 C-0.08 3.41, 5.1 0.9, 16.5 0" stroke="#1e1e1e" stroke-width="4" fill="none"></path></g><g transform="translate(309.2597281053271 122.53929708264991) rotate(0 65.0999526977539 12.5)"><text x="65.0999526977539" y="0" font-family="Virgil, Segoe UI Emoji" font-size="20px" fill="#1e1e1e" text-anchor="middle" style="white-space: pre;" direction="ltr" dominant-baseline="text-before-edge">Пользователь</text></g><g stroke-linecap="round" transform="translate(707.0696270456057 94.31206371525582) rotate(0 94.5 33)"><path d="M16.5 0 M16.5 0 C78.06 -0.69, 140.16 -2.87, 172.5 0 M16.5 0 C78.41 -0.82, 139.3 -1.13, 172.5 0 M172.5 0 C184.49 1.05, 188.12 4.87, 189 16.5 M172.5 0 C182.47 -1.51, 190.65 7.55, 189 16.5 M189 16.5 C189.58 28.98, 187.62 38.69, 189 49.5 M189 16.5 C188 29.5, 188.04 41.11, 189 49.5 M189 49.5 C188.99 59.66, 184.59 65.86, 172.5 66 M189 49.5 C189.43 60.53, 183.87 66.67, 172.5 66 M172.5 66 C135.55 63.48, 98.77 64.67, 16.5 66 M172.5 66 C111.86 68.29, 49.71 67.14, 16.5 66 M16.5 66 C4.26 66.35, -1.11 60.94, 0 49.5 M16.5 66 C6.97 64.57, -1.38 61.56, 0 49.5 M0 49.5 C-0.03 42.91, 0 31.39, 0 16.5 M0 49.5 C0.54 42.42, 0.11 35.74, 0 16.5 M0 16.5 C-0.36 4.2, 3.52 1.35, 16.5 0 M0 16.5 C1.48 4.91, 4.52 -0.04, 16.5 0" stroke="#1e1e1e" stroke-width="4" fill="none"></path></g><g transform="translate(765.3296520700197 114.81206371525582) rotate(0 36.23997497558594 12.5)"><text x="36.23997497558594" y="0" font-family="Virgil, Segoe UI Emoji" font-size="20px" fill="#1e1e1e" text-anchor="middle" style="white-space: pre;" direction="ltr" dominant-baseline="text-before-edge">Браузер</text></g><g stroke-linecap="round" transform="translate(1122.5248461764404 87.56081030126074) rotate(0 94.5 33)"><path d="M16.5 0 M16.5 0 C73.66 0.13, 131.31 1.16, 172.5 0 M16.5 0 C56.59 1.49, 95.72 -0.24, 172.5 0 M172.5 0 C185.41 -0.03, 189.15 5.47, 189 16.5 M172.5 0 C184.74 -0.61, 190.31 3.3, 189 16.5 M189 16.5 C189.32 28.18, 188.84 40.93, 189 49.5 M189 16.5 C188.41 23.57, 189.91 29.86, 189 49.5 M189 49.5 C189.74 62.48, 182.96 66.97, 172.5 66 M189 49.5 C191.13 62.26, 185.58 68.22, 172.5 66 M172.5 66 C133.12 68.08, 90.88 69.13, 16.5 66 M172.5 66 C125.49 68.09, 77.41 66.49, 16.5 66 M16.5 66 C6.2 64.76, -0.5 61.44, 0 49.5 M16.5 66 C6.88 66.66, 1.81 61.77, 0 49.5 M0 49.5 C-0.97 37.97, -1.44 22.43, 0 16.5 M0 49.5 C-0.86 40.3, 0.47 31.02, 0 16.5 M0 16.5 C0.64 3.6, 7.3 -1.64, 16.5 0 M0 16.5 C-2.16 5.42, 7.48 0.02, 16.5 0" stroke="#1e1e1e" stroke-width="4" fill="none"></path></g><g transform="translate(1184.1748782198974 108.06081030126074) rotate(0 32.84996795654297 12.5)"><text x="32.84996795654297" y="0" font-family="Virgil, Segoe UI Emoji" font-size="20px" fill="#1e1e1e" text-anchor="middle" style="white-space: pre;" direction="ltr" dominant-baseline="text-before-edge">Сервер</text></g><g stroke-linecap="round"><g transform="translate(372.7066793886778 169.7317934731011) rotate(0 1.585559571448286 213.89307095762706)"><path d="M-0.44 0.85 C-0.02 72.04, 0.69 355.59, 1.31 426.62 M1.53 0.25 C2.43 71.58, 3.34 356.26, 3.61 427.53" stroke="#1e1e1e" stroke-width="4" fill="none"></path></g></g><mask></mask><g stroke-linecap="round"><g transform="translate(801.7151295704844 160.56207401106076) rotate(0 0.21439552230580716 218.3779007478821)"><path d="M0.33 -1.02 C0.06 71.8, -0.79 363.34, -0.92 436.34 M-0.96 1.06 C-0.91 74.11, 1.46 365.47, 1.39 437.77" stroke="#1e1e1e" stroke-width="4" fill="none"></path></g></g><mask></mask><g stroke-linecap="round"><g transform="translate(1221.6528043014632 159.10812059570162) rotate(0 0.09797789848988714 222.7130316381108)"><path d="M-0.62 -0.3 C-0.66 73.88, -0.31 371.22, -0.17 445.71 M1.25 -1.51 C1.06 72.77, -0.81 372, -1.06 446.93" stroke="#1e1e1e" stroke-width="4" fill="none"></path></g></g><mask></mask><g stroke-linecap="round"><g transform="translate(376.43872851865547 253.4205399173709) rotate(0 209.97855984465116 -0.5189047937379883)"><path d="M-0.11 -0.97 C70.01 -1.22, 351.26 -0.44, 421.58 -0.53 M-1.62 1.14 C68.33 1.08, 350.5 -1.95, 421.02 -2.18" stroke="#1e1e1e" stroke-width="4" fill="none"></path></g><g transform="translate(376.43872851865547 253.4205399173709) rotate(0 209.97855984465116 -0.5189047937379883)"><path d="M391.3 9.55 C404.79 6, 413.62 1.28, 422.53 -2.32 M393.13 8.93 C403.05 3.49, 414.55 0.95, 420.84 -1.78" stroke="#1e1e1e" stroke-width="4" fill="none"></path></g><g transform="translate(376.43872851865547 253.4205399173709) rotate(0 209.97855984465116 -0.5189047937379883)"><path d="M391.15 -10.98 C404.86 -6.88, 413.75 -3.98, 422.53 -2.32 M392.98 -11.59 C402.98 -9.42, 414.53 -4.34, 420.84 -1.78" stroke="#1e1e1e" stroke-width="4" fill="none"></path></g></g><mask></mask><g transform="translate(452.43631148753207 267.2315769937687) rotate(0 79.56993865966797 25)"><text x="79.56993865966797" y="0" font-family="Virgil, Segoe UI Emoji" font-size="20px" fill="#1e1e1e" text-anchor="middle" style="white-space: pre;" direction="ltr" dominant-baseline="text-before-edge">Хочу посмотреть</text><text x="79.56993865966797" y="25" font-family="Virgil, Segoe UI Emoji" font-size="20px" fill="#1e1e1e" text-anchor="middle" style="white-space: pre;" direction="ltr" dominant-baseline="text-before-edge">на сайт</text></g><g stroke-linecap="round"><g transform="translate(804.8325456737122 286.9107702679604) rotate(0 206.85518268702 0.8272649935996697)"><path d="M-0.78 -1.03 C67.75 -0.46, 343.35 2.36, 412.13 2.69 M1.01 1.04 C69.86 1.33, 345.6 0.83, 414.49 0.95" stroke="#1e1e1e" stroke-width="4" fill="none"></path></g><g transform="translate(804.8325456737122 286.9107702679604) rotate(0 206.85518268702 0.8272649935996697)"><path d="M384.58 10.09 C398.2 6.09, 405.92 5.44, 413.51 0.09 M386.36 11.27 C397.4 8.01, 407.38 3.22, 415.03 0.14" stroke="#1e1e1e" stroke-width="4" fill="none"></path></g><g transform="translate(804.8325456737122 286.9107702679604) rotate(0 206.85518268702 0.8272649935996697)"><path d="M384.57 -10.43 C398.07 -6.7, 405.79 0.38, 413.51 0.09 M386.36 -9.25 C397.5 -4.94, 407.48 -2.15, 415.03 0.14" stroke="#1e1e1e" stroke-width="4" fill="none"></path></g></g><mask></mask><g transform="translate(911.1886367717153 303.01137037969) rotate(0 104.55992889404297 37.5)"><text x="104.55992889404297" y="0" font-family="Virgil, Segoe UI Emoji" font-size="20px" fill="#1e1e1e" text-anchor="middle" style="white-space: pre;" direction="ltr" dominant-baseline="text-before-edge">Пользователь хочет</text><text x="104.55992889404297" y="25" font-family="Virgil, Segoe UI Emoji" font-size="20px" fill="#1e1e1e" text-anchor="middle" style="white-space: pre;" direction="ltr" dominant-baseline="text-before-edge">посмотреть на сайт</text><text x="104.55992889404297" y="50" font-family="Virgil, Segoe UI Emoji" font-size="20px" fill="#1e1e1e" text-anchor="middle" style="white-space: pre;" direction="ltr" dominant-baseline="text-before-edge">дай мне все что есть</text></g><g stroke-linecap="round"><g transform="translate(1219.396911036269 415.4577651363703) rotate(0 -205.40945760924902 -0.687459110343525)"><path d="M-0.45 0.19 C-68.89 -0.02, -342.82 -1.24, -411.52 -1.57 M1.52 -0.75 C-66.99 -0.78, -343.71 -0.32, -412.34 -0.34" stroke="#1e1e1e" stroke-width="4" fill="none"></path></g><g transform="translate(1219.396911036269 415.4577651363703) rotate(0 -205.40945760924902 -0.687459110343525)"><path d="M-383.84 -10.21 C-391.66 -9.87, -398.47 -6.49, -411.24 -1.27 M-383.33 -10.02 C-395.6 -7.2, -405.23 -1.87, -413.06 0.22" stroke="#1e1e1e" stroke-width="4" fill="none"></path></g><g transform="translate(1219.396911036269 415.4577651363703) rotate(0 -205.40945760924902 -0.687459110343525)"><path d="M-383.82 10.32 C-391.59 5.93, -398.41 4.6, -411.24 -1.27 M-383.31 10.5 C-395.62 5.29, -405.25 2.6, -413.06 0.22" stroke="#1e1e1e" stroke-width="4" fill="none"></path></g></g><mask></mask><g transform="translate(918.5148615169977 432.87808656873347) rotate(0 93.86994934082031 37.5)"><text x="93.86994934082031" y="0" font-family="Virgil, Segoe UI Emoji" font-size="20px" fill="#1e1e1e" text-anchor="middle" style="white-space: pre;" direction="ltr" dominant-baseline="text-before-edge">У меня есть только</text><text x="93.86994934082031" y="25" font-family="Virgil, Segoe UI Emoji" font-size="20px" fill="#1e1e1e" text-anchor="middle" style="white-space: pre;" direction="ltr" dominant-baseline="text-before-edge">пустая страница,</text><text x="93.86994934082031" y="50" font-family="Virgil, Segoe UI Emoji" font-size="20px" fill="#1e1e1e" text-anchor="middle" style="white-space: pre;" direction="ltr" dominant-baseline="text-before-edge">держи index.html</text></g><g stroke-linecap="round"><g transform="translate(800.9462355105175 464.6126225072501) rotate(0 -211.33996981667426 0.08162137225269817)"><path d="M0.01 -0.19 C-70.42 -0.2, -351.69 -0.09, -422.04 -0.02 M-1.44 -1.34 C-72.03 -1.14, -352.5 1, -422.69 1.51" stroke="#1e1e1e" stroke-width="4" fill="none"></path></g><g transform="translate(800.9462355105175 464.6126225072501) rotate(0 -211.33996981667426 0.08162137225269817)"><path d="M-394.9 -8.02 C-404.33 -4.51, -413.63 -3.48, -423.35 2.52 M-395.44 -8.17 C-405.49 -5.86, -414.22 -2.07, -423.45 1.39" stroke="#1e1e1e" stroke-width="4" fill="none"></path></g><g transform="translate(800.9462355105175 464.6126225072501) rotate(0 -211.33996981667426 0.08162137225269817)"><path d="M-394.75 12.5 C-404.23 8.92, -413.59 2.85, -423.35 2.52 M-395.28 12.35 C-405.42 7.23, -414.21 3.59, -423.45 1.39" stroke="#1e1e1e" stroke-width="4" fill="none"></path></g></g><mask></mask><g transform="translate(494.4162944958441 478.87479708799117) rotate(0 93.59992218017578 25)"><text x="93.59992218017578" y="0" font-family="Virgil, Segoe UI Emoji" font-size="20px" fill="#1e1e1e" text-anchor="middle" style="white-space: pre;" direction="ltr" dominant-baseline="text-before-edge">Мне отдали</text><text x="93.59992218017578" y="25" font-family="Virgil, Segoe UI Emoji" font-size="20px" fill="#1e1e1e" text-anchor="middle" style="white-space: pre;" direction="ltr" dominant-baseline="text-before-edge">пустой index.html :(</text></g><g stroke-linecap="round" transform="translate(120.25801904996581 440.5936905100792) rotate(0 43.258988338714175 33.58127891188059)"><path d="M16.79 0 M16.79 0 C38.32 0.64, 57.41 2.07, 69.73 0 M16.79 0 C37.37 1.08, 56.14 0.07, 69.73 0 M69.73 0 C80.11 -0.09, 85.75 5.44, 86.52 16.79 M69.73 0 C78.83 -0.21, 86.82 5.61, 86.52 16.79 M86.52 16.79 C87.31 29.17, 85.8 40.98, 86.52 50.37 M86.52 16.79 C85.97 25.72, 86.39 34.91, 86.52 50.37 M86.52 50.37 C86.6 60.68, 82 66.77, 69.73 67.16 M86.52 50.37 C85.77 59.5, 81.43 65.04, 69.73 67.16 M69.73 67.16 C54.69 68.79, 39.87 66.85, 16.79 67.16 M69.73 67.16 C50.13 66.81, 30.4 67.2, 16.79 67.16 M16.79 67.16 C6.38 66.74, -0.05 63, 0 50.37 M16.79 67.16 C5.73 66.65, 0.83 62.4, 0 50.37 M0 50.37 C1.51 43.54, -0.66 34.91, 0 16.79 M0 50.37 C-0.79 42.54, 0.1 36.77, 0 16.79 M0 16.79 C-1.83 5.98, 6.2 -0.32, 16.79 0 M0 16.79 C1.5 6, 5.78 -1.03, 16.79 0" stroke="#1e1e1e" stroke-width="4" fill="none"></path></g><g stroke-linecap="round" transform="translate(134.06110891520308 450.9828912372873) rotate(0 10.91032646226509 9.879972839983566)"><path d="M11.78 0.6 C14.21 0.69, 17.83 1.28, 19.4 2.64 C20.97 3.99, 21.03 6.61, 21.2 8.76 C21.37 10.9, 21.61 13.71, 20.43 15.5 C19.25 17.29, 16.58 18.84, 14.11 19.48 C11.64 20.12, 7.76 20.23, 5.61 19.33 C3.46 18.43, 2.23 16.04, 1.21 14.07 C0.19 12.1, -1 9.4, -0.52 7.51 C-0.05 5.61, 1.82 3.78, 4.08 2.7 C6.34 1.62, 11.43 1.53, 13.03 1.04 C14.63 0.55, 13.93 -0.34, 13.67 -0.24 M10.84 -1.06 C13.06 -1.06, 14.11 0.59, 15.92 2.01 C17.73 3.43, 21 5.54, 21.68 7.45 C22.37 9.36, 20.99 11.77, 20.02 13.47 C19.05 15.17, 17.82 16.58, 15.85 17.68 C13.89 18.78, 10.55 20.52, 8.26 20.07 C5.96 19.61, 3.51 17.04, 2.07 14.95 C0.62 12.87, -0.58 9.37, -0.44 7.55 C-0.29 5.73, 1.16 5.37, 2.94 4.05 C4.71 2.73, 9.1 0.4, 10.2 -0.37 C11.3 -1.15, 9.47 -0.69, 9.55 -0.61" stroke="#1e1e1e" stroke-width="4" fill="none"></path></g><g stroke-linecap="round" transform="translate(170.63646136731109 451.7711037893969) rotate(0 10.91032646226509 9.879972839983566)"><path d="M6.66 -0.11 C8.75 -0.89, 11.83 -0.62, 14.09 0.18 C16.35 0.98, 18.91 2.94, 20.22 4.71 C21.52 6.47, 22.39 8.82, 21.91 10.76 C21.43 12.71, 19.02 15.05, 17.35 16.39 C15.67 17.72, 14.14 18.58, 11.87 18.77 C9.6 18.96, 5.69 18.62, 3.7 17.52 C1.72 16.42, 0.31 14.15, -0.03 12.16 C-0.37 10.18, 0.29 7.74, 1.66 5.62 C3.04 3.5, 6.59 0.33, 8.19 -0.56 C9.79 -1.44, 11.06 -0.02, 11.27 0.31 M6.67 2.36 C8.29 1.64, 10.15 0.97, 12.55 1.34 C14.95 1.72, 19.54 2.96, 21.05 4.61 C22.56 6.26, 22.06 9.4, 21.59 11.26 C21.12 13.11, 19.82 14.18, 18.22 15.71 C16.62 17.25, 14.24 20.22, 11.98 20.47 C9.71 20.72, 6.6 18.33, 4.63 17.2 C2.66 16.08, 0.66 15.86, 0.16 13.7 C-0.35 11.54, 0.44 6.4, 1.61 4.23 C2.77 2.06, 6.19 0.96, 7.14 0.66 C8.09 0.36, 7.35 2.41, 7.3 2.44" stroke="#1e1e1e" stroke-width="4" fill="none"></path></g><g stroke-linecap="round" transform="translate(134.00241286589676 482.94526965411274) rotate(0 30.516393310267233 7.545615095276503)"><path d="M3.77 0 M3.77 0 C21.54 -2.05, 42.06 -0.97, 57.26 0 M3.77 0 C15.91 0.24, 26.92 -0.13, 57.26 0 M57.26 0 C61.75 -1.97, 61.91 3.19, 61.03 3.77 M57.26 0 C58.12 -1.84, 61.2 1.38, 61.03 3.77 M61.03 3.77 C61.05 4.98, 61.57 7.49, 61.03 11.32 M61.03 3.77 C61.3 6.38, 61.35 8.35, 61.03 11.32 M61.03 11.32 C59.69 14.07, 58.1 16.66, 57.26 15.09 M61.03 11.32 C62.96 13.2, 61.78 15.17, 57.26 15.09 M57.26 15.09 C43.87 14.22, 32.58 16.96, 3.77 15.09 M57.26 15.09 C43.81 15.24, 29.35 15.39, 3.77 15.09 M3.77 15.09 C1.08 16.32, 0.39 11.85, 0 11.32 M3.77 15.09 C2.54 15.37, 1.67 11.63, 0 11.32 M0 11.32 C-0.59 7.97, -0.69 6.17, 0 3.77 M0 11.32 C0.16 8.26, -0.27 5.44, 0 3.77 M0 3.77 C0.89 1.5, 1.71 0.72, 3.77 0 M0 3.77 C-1.88 2.74, 2.51 0.58, 3.77 0" stroke="#1e1e1e" stroke-width="4" fill="none"></path></g><g stroke-linecap="round"><g transform="translate(144.09178782772977 485.5707280757848) rotate(0 0.003878420114290293 5.45848802782308)"><path d="M0.53 -0.2 C0.66 2.04, 0.69 10.5, 0.62 12.26 M-0.65 -1.35 C-0.59 0.65, 0.12 8.46, 0.15 10.54" stroke="#1e1e1e" stroke-width="4" fill="none"></path></g></g><mask></mask><g stroke-linecap="round"><g transform="translate(156.96208642291055 485.5120320264783) rotate(0 -0.36763098307562814 5.791642212990382)"><path d="M0.25 -0.39 C0.2 1.47, 0.46 9.61, 0.37 11.73 M-1.08 -1.65 C-1.32 0.38, -0.43 11.24, -0.48 13.23" stroke="#1e1e1e" stroke-width="4" fill="none"></path></g></g><mask></mask><g stroke-linecap="round"><g transform="translate(167.8890698721408 485.12971451613237) rotate(0 0.4722486107042698 5.586803095794096)"><path d="M-0.5 -0.83 C-0.23 0.85, 0.56 8.6, 0.83 10.77 M1.44 1.35 C1.59 3.13, -0.13 10.52, -0.31 12" stroke="#1e1e1e" stroke-width="4" fill="none"></path></g></g><mask></mask><g stroke-linecap="round"><g transform="translate(178.51305479657412 485.2217245393691) rotate(0 0.13177884165344267 6.461094337908776)"><path d="M-1.07 -1.08 C-1.31 1.09, -1 10.25, -0.72 12.39 M0.56 0.97 C0.62 3.41, 1.51 12.03, 1.41 14" stroke="#1e1e1e" stroke-width="4" fill="none"></path></g></g><mask></mask><g stroke-linecap="round"><g transform="translate(187.6157015781775 483.94786163145216) rotate(0 0.47453236475837457 7.014159752197543)"><path d="M-0.52 0.28 C-0.38 2.52, 1.09 11.03, 1.47 13.36 M1.41 -0.62 C1.38 1.8, 0.78 12.53, 0.78 14.65" stroke="#1e1e1e" stroke-width="4" fill="none"></path></g></g><mask></mask><g stroke-linecap="round" transform="translate(139.24698419039663 419.22832856260015) rotate(0 4.428378963200714 10.590670950502613)"><path d="M2.21 0 M2.21 0 C3.38 -0.18, 5.14 -0.23, 6.64 0 M2.21 0 C4.04 0.07, 5.5 -0.02, 6.64 0 M6.64 0 C7.44 -0.02, 9.72 0.74, 8.86 2.21 M6.64 0 C6.31 -1.31, 8.68 -0.09, 8.86 2.21 M8.86 2.21 C10.53 9.25, 8.17 13.89, 8.86 18.97 M8.86 2.21 C9.83 6.47, 8.53 11.38, 8.86 18.97 M8.86 18.97 C8.54 18.9, 6.81 22.55, 6.64 21.18 M8.86 18.97 C10.2 18.41, 9.75 22.79, 6.64 21.18 M6.64 21.18 C5.33 21.07, 4.92 21.56, 2.21 21.18 M6.64 21.18 C5.24 21.25, 3.89 21.19, 2.21 21.18 M2.21 21.18 C1.55 19.55, -0.96 21.17, 0 18.97 M2.21 21.18 C2.39 19.96, 1.36 22.23, 0 18.97 M0 18.97 C-0.48 15.82, 0.07 8.72, 0 2.21 M0 18.97 C-0.36 14.44, -0.3 8, 0 2.21 M0 2.21 C-1.75 -0.96, 1.88 -1.66, 2.21 0 M0 2.21 C1.06 2.02, 0.88 -0.08, 2.21 0" stroke="#1e1e1e" stroke-width="4" fill="none"></path></g><g stroke-linecap="round" transform="translate(177.04089442478465 419.5027722525997) rotate(0 4.579878225599344 9.77606496891434)"><path d="M2.29 0 M2.29 0 C4.15 0.11, 6.19 -0.16, 6.87 0 M2.29 0 C3.8 -0.16, 5.84 -0.15, 6.87 0 M6.87 0 C9.32 1.11, 9.29 0.69, 9.16 2.29 M6.87 0 C7.08 2.08, 9.99 1.39, 9.16 2.29 M9.16 2.29 C7.69 6.03, 9.07 11.23, 9.16 17.26 M9.16 2.29 C9.38 8.02, 8.47 13.01, 9.16 17.26 M9.16 17.26 C7.34 18.6, 9.42 21.26, 6.87 19.55 M9.16 17.26 C8.99 17.71, 9.15 17.67, 6.87 19.55 M6.87 19.55 C5.79 20, 3.63 19.72, 2.29 19.55 M6.87 19.55 C5.96 19.74, 4.63 19.41, 2.29 19.55 M2.29 19.55 C1.68 21.27, -1.24 18.56, 0 17.26 M2.29 19.55 C0.27 19.7, -2.07 17.15, 0 17.26 M0 17.26 C1.53 11.49, 0.54 6.24, 0 2.29 M0 17.26 C-0.39 11.31, -0.36 6.82, 0 2.29 M0 2.29 C0.33 0.6, 1.36 -0.67, 2.29 0 M0 2.29 C-2.06 -0.75, 2.22 1.7, 2.29 0" stroke="#1e1e1e" stroke-width="4" fill="none"></path></g><g transform="translate(10 528.0437775678196) rotate(0 162.49989318847656 25)"><text x="162.49989318847656" y="0" font-family="Virgil, Segoe UI Emoji" font-size="20px" fill="#1e1e1e" text-anchor="middle" style="white-space: pre;" direction="ltr" dominant-baseline="text-before-edge">Нет, спасибо, я пустой index.html</text><text x="162.49989318847656" y="25" font-family="Virgil, Segoe UI Emoji" font-size="20px" fill="#1e1e1e" text-anchor="middle" style="white-space: pre;" direction="ltr" dominant-baseline="text-before-edge">индексировать не буду</text></g></svg>
