<svg version="1.1" xmlns="http://www.w3.org/2000/svg" viewBox="0 0 1925.3295658863262 665.5974458894781" width="5775.988697658979" height="1996.7923376684344">
  <!-- svg-source:excalidraw -->

  <g stroke-linecap="round" transform="translate(11.873347321767142 227.39846941170936) rotate(0 240.4920418799004 22.5)"><path d="M11.25 0 M11.25 0 C122.98 0.61, 232.94 -0.32, 469.73 0 M11.25 0 C190.25 -1.37, 370.27 -1.16, 469.73 0 M469.73 0 C477.34 1.2, 479.76 4.39, 480.98 11.25 M469.73 0 C478.18 -2.15, 482.71 5.67, 480.98 11.25 M480.98 11.25 C482.26 16.39, 479.68 24.57, 480.98 33.75 M480.98 11.25 C481.49 16.46, 480.71 22.16, 480.98 33.75 M480.98 33.75 C481.67 42.13, 476.07 46.7, 469.73 45 M480.98 33.75 C482.98 39.93, 478.25 43.21, 469.73 45 M469.73 45 C323.28 42.2, 176.53 42.15, 11.25 45 M469.73 45 C297.2 44.03, 123.94 44.65, 11.25 45 M11.25 45 C2 45.76, 1.99 39.73, 0 33.75 M11.25 45 C2.72 43.88, 1.67 41.78, 0 33.75 M0 33.75 C1 24.73, 1.41 18.03, 0 11.25 M0 33.75 C0.56 28.18, -0.38 22.65, 0 11.25 M0 11.25 C-0.82 3.35, 4.95 -1.02, 11.25 0 M0 11.25 C2.11 4.34, 5.41 0.06, 11.25 0" stroke="#1e1e1e" stroke-width="4" fill="none"></path></g><g transform="translate(206.62739786865973 232.39846941170936) rotate(0 45.73799133300781 17.5)"><text x="45.73799133300781" y="0" font-family="Virgil, Segoe UI Emoji" font-size="28px" fill="#1e1e1e" text-anchor="middle" style="white-space: pre;" direction="ltr" dominant-baseline="text-before-edge">GET /</text></g><g stroke-linecap="round" transform="translate(497.29097256238856 282.2381332456921) rotate(0 235 23)"><path d="M11.5 0 M11.5 0 C115.35 1.64, 218.04 1.25, 458.5 0 M11.5 0 C119.48 -2.05, 227.38 -2.1, 458.5 0 M458.5 0 C467.31 -0.61, 468.26 4.37, 470 11.5 M458.5 0 C465.57 0.32, 470.38 5.81, 470 11.5 M470 11.5 C470.37 17.07, 470.74 24.77, 470 34.5 M470 11.5 C469.31 17.34, 470.44 22.21, 470 34.5 M470 34.5 C468.17 41.2, 464.21 47.87, 458.5 46 M470 34.5 C471.32 43.28, 465.03 48.02, 458.5 46 M458.5 46 C347.02 47.98, 234.23 46.93, 11.5 46 M458.5 46 C334.19 45.35, 210.11 45.24, 11.5 46 M11.5 46 C3.46 46.8, 1.95 41.81, 0 34.5 M11.5 46 C2.83 45.27, -1.37 43.99, 0 34.5 M0 34.5 C-1.24 25.89, 1.96 17.3, 0 11.5 M0 34.5 C-0.91 30.25, 0.58 25.93, 0 11.5 M0 11.5 C-1.93 5.22, 2.7 -1.96, 11.5 0 M0 11.5 C0.02 3.54, 5.47 -2.06, 11.5 0" stroke="#1e1e1e" stroke-width="4" fill="none"></path></g><g transform="translate(619.2410152869979 287.7381332456921) rotate(0 113.04995727539062 17.5)"><text x="113.04995727539062" y="0" font-family="Virgil, Segoe UI Emoji" font-size="28px" fill="#1e1e1e" text-anchor="middle" style="white-space: pre;" direction="ltr" dominant-baseline="text-before-edge">GET JavaScript</text></g><g stroke-linecap="round" transform="translate(996.5158187993004 334.1706183388891) rotate(0 142.14376261796338 22.5)"><path d="M11.25 0 M11.25 0 C110.51 -0.47, 207.27 -1.89, 273.04 0 M11.25 0 C63.72 0.85, 117.22 0.14, 273.04 0 M273.04 0 C280.73 1.2, 283.75 2.85, 284.29 11.25 M273.04 0 C281.88 0.78, 286.15 2.61, 284.29 11.25 M284.29 11.25 C284.26 16.12, 285.38 20.9, 284.29 33.75 M284.29 11.25 C283.66 20.73, 283.64 28.19, 284.29 33.75 M284.29 33.75 C285.31 39.8, 281.43 46.11, 273.04 45 M284.29 33.75 C284.95 42.39, 280.43 42.83, 273.04 45 M273.04 45 C182.06 46.56, 88.73 46.42, 11.25 45 M273.04 45 C218.89 45.78, 165.96 47.08, 11.25 45 M11.25 45 C4.34 45.33, -1.83 42.44, 0 33.75 M11.25 45 C3.7 46.7, 1.6 43.32, 0 33.75 M0 33.75 C-1.01 27.75, 1.55 17.89, 0 11.25 M0 33.75 C-0.55 25.37, -0.02 18.11, 0 11.25 M0 11.25 C0.59 2.09, 4.57 -0.87, 11.25 0 M0 11.25 C-2.27 2.05, 3.04 -0.38, 11.25 0" stroke="#1e1e1e" stroke-width="4" fill="none"></path></g><g transform="translate(1093.3555958215607 339.1706183388891) rotate(0 45.303985595703125 17.5)"><text x="45.303985595703125" y="0" font-family="Virgil, Segoe UI Emoji" font-size="28px" fill="#1e1e1e" text-anchor="middle" style="white-space: pre;" direction="ltr" dominant-baseline="text-before-edge">Рендер</text></g><g stroke-linecap="round" transform="translate(1295.1603561015215 381.528240762477) rotate(0 142.14376261796338 22.5)"><path d="M11.25 0 M11.25 0 C97 -2.33, 185.11 -2.92, 273.04 0 M11.25 0 C72.71 -1.29, 132.46 -0.35, 273.04 0 M273.04 0 C279.61 -1.58, 284.28 4.37, 284.29 11.25 M273.04 0 C278.54 0.42, 284.89 2.72, 284.29 11.25 M284.29 11.25 C283.15 17.68, 285.31 27.14, 284.29 33.75 M284.29 11.25 C284.8 15.29, 284.83 21.62, 284.29 33.75 M284.29 33.75 C282.64 42.95, 280.47 44, 273.04 45 M284.29 33.75 C283.37 41.39, 280.73 46.67, 273.04 45 M273.04 45 C208.26 45.08, 146.94 45.23, 11.25 45 M273.04 45 C207.59 47, 142.12 47.6, 11.25 45 M11.25 45 C4.05 44.05, -0.85 40.05, 0 33.75 M11.25 45 C3.33 43.24, -0.84 40.41, 0 33.75 M0 33.75 C1.05 27.17, -1.17 19.56, 0 11.25 M0 33.75 C0.24 26.13, -0.58 17.53, 0 11.25 M0 11.25 C-0.71 4.42, 2.45 1.34, 11.25 0 M0 11.25 C0.81 4.28, 4.25 2.23, 11.25 0" stroke="#1e1e1e" stroke-width="4" fill="none"></path></g><g transform="translate(1317.856166448977 386.528240762477) rotate(0 119.44795227050781 17.5)"><text x="119.44795227050781" y="0" font-family="Virgil, Segoe UI Emoji" font-size="28px" fill="#1e1e1e" text-anchor="middle" style="white-space: pre;" direction="ltr" dominant-baseline="text-before-edge">Загрузка ассетов</text></g><g stroke-linecap="round"><g transform="translate(982.0822773184802 77.64495985727012) rotate(0 2.982288992621818 232.1456804616422)"><path d="M-0.58 -0.96 C0.26 76.45, 3.14 387.62, 4.16 465.25 M1.31 1.15 C2.63 78.17, 5.9 386.75, 6.55 463.7" stroke="#1e1e1e" stroke-width="4" fill="none"></path></g></g><mask></mask><g transform="translate(502.7658774875024 585.5974458894781) rotate(0 228.47991943359375 35)"><text x="228.47991943359375" y="0" font-family="Virgil, Segoe UI Emoji" font-size="28px" fill="#1e1e1e" text-anchor="middle" style="white-space: pre;" direction="ltr" dominant-baseline="text-before-edge">Мы должны загрузить весь бандл</text><text x="228.47991943359375" y="35" font-family="Virgil, Segoe UI Emoji" font-size="28px" fill="#1e1e1e" text-anchor="middle" style="white-space: pre;" direction="ltr" dominant-baseline="text-before-edge">Javascript</text></g><g transform="translate(1008.9668506593832 590.26996572609) rotate(0 136.80663680142436 29.441053570590157)"><text x="136.80663680142433" y="0" font-family="Virgil, Segoe UI Emoji" font-size="23.552842856472136px" fill="#1e1e1e" text-anchor="middle" style="white-space: pre;" direction="ltr" dominant-baseline="text-before-edge">Время, которое браузер</text><text x="136.80663680142433" y="29.44105357059017" font-family="Virgil, Segoe UI Emoji" font-size="23.552842856472136px" fill="#1e1e1e" text-anchor="middle" style="white-space: pre;" direction="ltr" dominant-baseline="text-before-edge">тратит на рендеринг</text></g><g transform="translate(1356.152985069761 174.09268040753045) rotate(0 120.02197265625 35)"><text x="120.02197265625" y="0" font-family="Virgil, Segoe UI Emoji" font-size="28px" fill="#1e1e1e" text-anchor="middle" style="white-space: pre;" direction="ltr" dominant-baseline="text-before-edge">Где-то тут будет</text><text x="120.02197265625" y="35" font-family="Virgil, Segoe UI Emoji" font-size="28px" fill="#1e1e1e" text-anchor="middle" style="white-space: pre;" direction="ltr" dominant-baseline="text-before-edge">FCP</text></g><g transform="translate(10 18.524813371519713) rotate(0 131.50196838378906 17.5)"><text x="131.50196838378906" y="0" font-family="Virgil, Segoe UI Emoji" font-size="28px" fill="#1e1e1e" text-anchor="middle" style="white-space: pre;" direction="ltr" dominant-baseline="text-before-edge">Работа с сервером</text></g><g transform="translate(997.6830344898406 10) rotate(0 137.7599639892578 17.5)"><text x="137.7599639892578" y="0" font-family="Virgil, Segoe UI Emoji" font-size="28px" fill="#1e1e1e" text-anchor="middle" style="white-space: pre;" direction="ltr" dominant-baseline="text-before-edge">Работа с браузером</text></g><g transform="translate(1634.3216313160137 241.93436311563892) rotate(0 140.50396728515625 17.5)"><text x="140.50396728515625" y="0" font-family="Virgil, Segoe UI Emoji" font-size="28px" fill="#1e1e1e" text-anchor="middle" style="white-space: pre;" direction="ltr" dominant-baseline="text-before-edge">А вот тут уже TTI</text></g><g stroke-linecap="round"><g transform="translate(1451.4977428332936 255.44110052115093) rotate(0 -14.8190983263122 58.018318171505484)"><path d="M1.09 -0.27 C-3.38 8.03, -21.49 29.77, -26.63 49.4 C-31.78 69.03, -29.28 106.32, -29.79 117.5 M0.2 -1.46 C-4.41 7.06, -22.26 31.29, -27.37 50.82 C-32.48 70.35, -30.14 104.6, -30.47 115.72" stroke="#1e1e1e" stroke-width="4" fill="none"></path></g><g transform="translate(1451.4977428332936 255.44110052115093) rotate(0 -14.8190983263122 58.018318171505484)"><path d="M-41.46 88.31 C-38.15 96.72, -32.6 105.76, -30.45 113.93 M-41.24 87.12 C-37.25 96.79, -32.77 107.8, -29.56 114.94" stroke="#1e1e1e" stroke-width="4" fill="none"></path></g><g transform="translate(1451.4977428332936 255.44110052115093) rotate(0 -14.8190983263122 58.018318171505484)"><path d="M-20.94 88.1 C-24.14 96.77, -25.11 105.87, -30.45 113.93 M-20.72 86.92 C-23.75 96.73, -26.29 107.81, -29.56 114.94" stroke="#1e1e1e" stroke-width="4" fill="none"></path></g></g><mask></mask><g stroke-linecap="round"><g transform="translate(1685.06363794574 289.67369360063833) rotate(0 -47.15185203252679 57.03458410354284)"><path d="M0.24 -1.01 C-3.41 8.16, -6.14 34.74, -21.76 53.85 C-37.37 72.96, -81.49 103.89, -93.45 113.64 M-1.09 1.07 C-4.81 10.03, -6.52 33.32, -22.09 52.32 C-37.67 71.32, -82.62 104.99, -94.55 115.08" stroke="#1e1e1e" stroke-width="4" fill="none"></path></g><g transform="translate(1685.06363794574 289.67369360063833) rotate(0 -47.15185203252679 57.03458410354284)"><path d="M-80.67 91.38 C-82.23 96.47, -88.6 104.4, -96.34 114.31 M-78.78 90.04 C-84.99 99.67, -89.94 108.89, -94.73 114.6" stroke="#1e1e1e" stroke-width="4" fill="none"></path></g><g transform="translate(1685.06363794574 289.67369360063833) rotate(0 -47.15185203252679 57.03458410354284)"><path d="M-67.82 107.39 C-73.27 107.48, -83.66 110.39, -96.34 114.31 M-65.93 106.05 C-77.04 109.63, -86.81 112.84, -94.73 114.6" stroke="#1e1e1e" stroke-width="4" fill="none"></path></g></g><mask></mask></svg>
