<svg version="1.1" xmlns="http://www.w3.org/2000/svg" viewBox="0 0 1053.677459216959 942.4170169637518" width="3161.032377650877" height="2827.2510508912555">
  <!-- svg-source:excalidraw -->

  <g transform="translate(10 10) rotate(0 178.54190063476562 22.5)"><text x="178.54190063476562" y="0" font-family="Virgil, Segoe UI Emoji" font-size="36px" fill="#1e1e1e" text-anchor="middle" style="white-space: pre;" direction="ltr" dominant-baseline="text-before-edge">Client-side Rendering</text></g><g stroke-linecap="round" transform="translate(12.01229384359965 102.03929708264991) rotate(0 94.5 33)"><path d="M16.5 0 M16.5 0 C50.71 1.29, 82.1 -0.1, 172.5 0 M16.5 0 C59.21 -0.12, 101.31 1, 172.5 0 M172.5 0 C182.41 0.06, 187.12 4.4, 189 16.5 M172.5 0 C184.6 0.72, 191.05 4.36, 189 16.5 M189 16.5 C187.6 25.19, 190.55 30.93, 189 49.5 M189 16.5 C188.17 23.89, 188.28 31.46, 189 49.5 M189 49.5 C190.49 60.86, 184.23 67.5, 172.5 66 M189 49.5 C187.56 59.01, 185.72 67.31, 172.5 66 M172.5 66 C123.83 64.24, 76.41 65.05, 16.5 66 M172.5 66 C125.45 64.59, 77.38 65.85, 16.5 66 M16.5 66 C6.13 65.98, -0.38 62.18, 0 49.5 M16.5 66 C7.2 63.9, -0.98 61, 0 49.5 M0 49.5 C-0.28 39.85, -0.45 35.42, 0 16.5 M0 49.5 C1.02 38.52, -0.17 27.09, 0 16.5 M0 16.5 C-1.21 4.59, 3.83 0.7, 16.5 0 M0 16.5 C-0.08 3.41, 5.1 0.9, 16.5 0" stroke="#1e1e1e" stroke-width="4" fill="none"></path></g><g transform="translate(41.412341145845744 122.53929708264991) rotate(0 65.0999526977539 12.5)"><text x="65.0999526977539" y="0" font-family="Virgil, Segoe UI Emoji" font-size="20px" fill="#1e1e1e" text-anchor="middle" style="white-space: pre;" direction="ltr" dominant-baseline="text-before-edge">Пользователь</text></g><g stroke-linecap="round" transform="translate(439.2222400861243 94.31206371525582) rotate(0 94.5 33)"><path d="M16.5 0 M16.5 0 C78.06 -0.69, 140.16 -2.87, 172.5 0 M16.5 0 C78.41 -0.82, 139.3 -1.13, 172.5 0 M172.5 0 C184.49 1.05, 188.12 4.87, 189 16.5 M172.5 0 C182.47 -1.51, 190.65 7.55, 189 16.5 M189 16.5 C189.58 28.98, 187.62 38.69, 189 49.5 M189 16.5 C188 29.5, 188.04 41.11, 189 49.5 M189 49.5 C188.99 59.66, 184.59 65.86, 172.5 66 M189 49.5 C189.43 60.53, 183.87 66.67, 172.5 66 M172.5 66 C135.55 63.48, 98.77 64.67, 16.5 66 M172.5 66 C111.86 68.29, 49.71 67.14, 16.5 66 M16.5 66 C4.26 66.35, -1.11 60.94, 0 49.5 M16.5 66 C6.97 64.57, -1.38 61.56, 0 49.5 M0 49.5 C-0.03 42.91, 0 31.39, 0 16.5 M0 49.5 C0.54 42.42, 0.11 35.74, 0 16.5 M0 16.5 C-0.36 4.2, 3.52 1.35, 16.5 0 M0 16.5 C1.48 4.91, 4.52 -0.04, 16.5 0" stroke="#1e1e1e" stroke-width="4" fill="none"></path></g><g transform="translate(497.4822651105384 114.81206371525582) rotate(0 36.23997497558594 12.5)"><text x="36.23997497558594" y="0" font-family="Virgil, Segoe UI Emoji" font-size="20px" fill="#1e1e1e" text-anchor="middle" style="white-space: pre;" direction="ltr" dominant-baseline="text-before-edge">Браузер</text></g><g stroke-linecap="round" transform="translate(854.6774592169592 87.56081030126074) rotate(0 94.5 33)"><path d="M16.5 0 M16.5 0 C73.66 0.13, 131.31 1.16, 172.5 0 M16.5 0 C56.59 1.49, 95.72 -0.24, 172.5 0 M172.5 0 C185.41 -0.03, 189.15 5.47, 189 16.5 M172.5 0 C184.74 -0.61, 190.31 3.3, 189 16.5 M189 16.5 C189.32 28.18, 188.84 40.93, 189 49.5 M189 16.5 C188.41 23.57, 189.91 29.86, 189 49.5 M189 49.5 C189.74 62.48, 182.96 66.97, 172.5 66 M189 49.5 C191.13 62.26, 185.58 68.22, 172.5 66 M172.5 66 C133.12 68.08, 90.88 69.13, 16.5 66 M172.5 66 C125.49 68.09, 77.41 66.49, 16.5 66 M16.5 66 C6.2 64.76, -0.5 61.44, 0 49.5 M16.5 66 C6.88 66.66, 1.81 61.77, 0 49.5 M0 49.5 C-0.97 37.97, -1.44 22.43, 0 16.5 M0 49.5 C-0.86 40.3, 0.47 31.02, 0 16.5 M0 16.5 C0.64 3.6, 7.3 -1.64, 16.5 0 M0 16.5 C-2.16 5.42, 7.48 0.02, 16.5 0" stroke="#1e1e1e" stroke-width="4" fill="none"></path></g><g transform="translate(916.3274912604162 108.06081030126074) rotate(0 32.84996795654297 12.5)"><text x="32.84996795654297" y="0" font-family="Virgil, Segoe UI Emoji" font-size="20px" fill="#1e1e1e" text-anchor="middle" style="white-space: pre;" direction="ltr" dominant-baseline="text-before-edge">Сервер</text></g><g stroke-linecap="round"><g transform="translate(104.85929242919644 169.7317934731011) rotate(0 2.4617822559508085 360.27825846366983)"><path d="M-0.44 0.85 C0.27 120.83, 2.15 599.57, 3.06 719.39 M1.53 0.25 C2.73 120.38, 4.8 600.23, 5.36 720.3" stroke="#1e1e1e" stroke-width="4" fill="none"></path></g></g><mask></mask><g stroke-linecap="round"><g transform="translate(533.867742611003 160.56207401106076) rotate(0 2.2130518508753454 360.3918570421397)"><path d="M0.33 -1.02 C0.72 119.14, 2.55 600.03, 3.08 720.37 M-0.96 1.06 C-0.24 121.45, 4.79 602.16, 5.39 721.8" stroke="#1e1e1e" stroke-width="4" fill="none"></path></g></g><mask></mask><g stroke-linecap="round"><g transform="translate(953.4233051938529 159.10812059570162) rotate(0 1.673530988232642 359.8517639734822)"><path d="M-0.62 -0.3 C0.03 119.59, 3.14 599.78, 3.97 719.98 M1.25 -1.51 C1.75 118.48, 2.64 600.56, 3.08 721.21" stroke="#1e1e1e" stroke-width="4" fill="none"></path></g></g><mask></mask><g stroke-linecap="round"><g transform="translate(108.59134155917411 253.4205399173709) rotate(0 209.97855984465116 -0.5189047937379883)"><path d="M-0.11 -0.97 C70.01 -1.22, 351.26 -0.44, 421.58 -0.53 M-1.62 1.14 C68.33 1.08, 350.5 -1.95, 421.02 -2.18" stroke="#1e1e1e" stroke-width="4" fill="none"></path></g><g transform="translate(108.59134155917411 253.4205399173709) rotate(0 209.97855984465116 -0.5189047937379883)"><path d="M391.3 9.55 C404.79 6, 413.62 1.28, 422.53 -2.32 M393.13 8.93 C403.05 3.49, 414.55 0.95, 420.84 -1.78" stroke="#1e1e1e" stroke-width="4" fill="none"></path></g><g transform="translate(108.59134155917411 253.4205399173709) rotate(0 209.97855984465116 -0.5189047937379883)"><path d="M391.15 -10.98 C404.86 -6.88, 413.75 -3.98, 422.53 -2.32 M392.98 -11.59 C402.98 -9.42, 414.53 -4.34, 420.84 -1.78" stroke="#1e1e1e" stroke-width="4" fill="none"></path></g></g><mask></mask><g transform="translate(184.5889245280507 267.2315769937687) rotate(0 79.56993865966797 25)"><text x="79.56993865966797" y="0" font-family="Virgil, Segoe UI Emoji" font-size="20px" fill="#1e1e1e" text-anchor="middle" style="white-space: pre;" direction="ltr" dominant-baseline="text-before-edge">Хочу посмотреть</text><text x="79.56993865966797" y="25" font-family="Virgil, Segoe UI Emoji" font-size="20px" fill="#1e1e1e" text-anchor="middle" style="white-space: pre;" direction="ltr" dominant-baseline="text-before-edge">на сайт</text></g><g stroke-linecap="round"><g transform="translate(536.9851587142308 286.9107702679604) rotate(0 206.85518268702 0.8272649935996697)"><path d="M-0.78 -1.03 C67.75 -0.46, 343.35 2.36, 412.13 2.69 M1.01 1.04 C69.86 1.33, 345.6 0.83, 414.49 0.95" stroke="#1e1e1e" stroke-width="4" fill="none"></path></g><g transform="translate(536.9851587142308 286.9107702679604) rotate(0 206.85518268702 0.8272649935996697)"><path d="M384.58 10.09 C398.2 6.09, 405.92 5.44, 413.51 0.09 M386.36 11.27 C397.4 8.01, 407.38 3.22, 415.03 0.14" stroke="#1e1e1e" stroke-width="4" fill="none"></path></g><g transform="translate(536.9851587142308 286.9107702679604) rotate(0 206.85518268702 0.8272649935996697)"><path d="M384.57 -10.43 C398.07 -6.7, 405.79 0.38, 413.51 0.09 M386.36 -9.25 C397.5 -4.94, 407.48 -2.15, 415.03 0.14" stroke="#1e1e1e" stroke-width="4" fill="none"></path></g></g><mask></mask><g transform="translate(643.341249812234 303.01137037969) rotate(0 104.55992889404297 37.5)"><text x="104.55992889404297" y="0" font-family="Virgil, Segoe UI Emoji" font-size="20px" fill="#1e1e1e" text-anchor="middle" style="white-space: pre;" direction="ltr" dominant-baseline="text-before-edge">Пользователь хочет</text><text x="104.55992889404297" y="25" font-family="Virgil, Segoe UI Emoji" font-size="20px" fill="#1e1e1e" text-anchor="middle" style="white-space: pre;" direction="ltr" dominant-baseline="text-before-edge">посмотреть на сайт</text><text x="104.55992889404297" y="50" font-family="Virgil, Segoe UI Emoji" font-size="20px" fill="#1e1e1e" text-anchor="middle" style="white-space: pre;" direction="ltr" dominant-baseline="text-before-edge">дай мне все что есть</text></g><g stroke-linecap="round"><g transform="translate(951.5495240767879 415.4577651363703) rotate(0 -205.40945760924902 -0.687459110343525)"><path d="M-0.45 0.19 C-68.89 -0.02, -342.82 -1.24, -411.52 -1.57 M1.52 -0.75 C-66.99 -0.78, -343.71 -0.32, -412.34 -0.34" stroke="#1e1e1e" stroke-width="4" fill="none"></path></g><g transform="translate(951.5495240767879 415.4577651363703) rotate(0 -205.40945760924902 -0.687459110343525)"><path d="M-383.84 -10.21 C-391.66 -9.87, -398.47 -6.49, -411.24 -1.27 M-383.33 -10.02 C-395.6 -7.2, -405.23 -1.87, -413.06 0.22" stroke="#1e1e1e" stroke-width="4" fill="none"></path></g><g transform="translate(951.5495240767879 415.4577651363703) rotate(0 -205.40945760924902 -0.687459110343525)"><path d="M-383.82 10.32 C-391.59 5.93, -398.41 4.6, -411.24 -1.27 M-383.31 10.5 C-395.62 5.29, -405.25 2.6, -413.06 0.22" stroke="#1e1e1e" stroke-width="4" fill="none"></path></g></g><mask></mask><g transform="translate(562.8575227752898 432.87808656873347) rotate(0 181.67990112304688 25)"><text x="181.67990112304688" y="0" font-family="Virgil, Segoe UI Emoji" font-size="20px" fill="#1e1e1e" text-anchor="middle" style="white-space: pre;" direction="ltr" dominant-baseline="text-before-edge">У меня есть страница, в которой</text><text x="181.67990112304688" y="25" font-family="Virgil, Segoe UI Emoji" font-size="20px" fill="#1e1e1e" text-anchor="middle" style="white-space: pre;" direction="ltr" dominant-baseline="text-before-edge">&lt;body&gt; пустой, хз что с этим делать</text></g><g stroke-linecap="round" transform="translate(552.7795064104187 800.0115917051085) rotate(0 15.122769593598264 15.122769593598264)"><path d="M7.25 2.32 C9.86 0.77, 14.08 -0.29, 17.53 0.3 C20.99 0.89, 25.84 3.33, 27.98 5.85 C30.11 8.36, 30.78 12.1, 30.34 15.4 C29.9 18.71, 27.68 23.2, 25.36 25.7 C23.03 28.2, 19.52 30.06, 16.38 30.42 C13.23 30.78, 8.97 29.52, 6.48 27.86 C3.98 26.2, 2.26 23.46, 1.42 20.48 C0.57 17.5, 0 13.14, 1.4 9.95 C2.8 6.77, 8.43 2.72, 9.82 1.36 C11.21 0.01, 9.75 1.5, 9.72 1.83 M16.25 -0.32 C19.05 0.15, 23.84 3.3, 26.38 5.68 C28.92 8.07, 31.32 10.89, 31.48 13.99 C31.65 17.1, 29.62 21.87, 27.36 24.31 C25.11 26.76, 21.21 28.22, 17.95 28.68 C14.69 29.14, 10.63 28.6, 7.81 27.06 C4.98 25.52, 2.11 22.31, 1 19.45 C-0.11 16.6, 0.02 12.86, 1.15 9.93 C2.28 7.01, 4.87 3.52, 7.76 1.93 C10.66 0.33, 17.07 0.84, 18.51 0.36 C19.96 -0.13, 16.39 -1.15, 16.44 -0.95" stroke="#1e1e1e" stroke-width="2" fill="none"></path></g><g stroke-linecap="round"><g transform="translate(567.2135046883105 800.467973355328) rotate(0 -0.06217297338503158 8.460589147840295)"><path d="M-0.92 -0.53 C-0.99 2.45, 0.24 14.41, 0.43 17.45 M0.8 1.8 C0.5 4.46, -0.26 13.3, -0.49 15.64" stroke="#1e1e1e" stroke-width="2" fill="none"></path></g></g><mask></mask><g stroke-linecap="round"><g transform="translate(567.9004995715497 817.3095221079095) rotate(0 3.935922967393168 -4.78162518259964)"><path d="M-0.12 0.45 C1.2 -1.1, 6.01 -8.36, 7.26 -10.02 M-1.64 -0.35 C0.11 -1.65, 7.6 -6.68, 9.51 -8.56" stroke="#1e1e1e" stroke-width="2" fill="none"></path></g></g><mask></mask><g stroke-linecap="round"><g transform="translate(533.0988485510361 464.6126225072501) rotate(0 -211.33996981667426 0.08162137225269817)"><path d="M0.01 -0.19 C-70.42 -0.2, -351.69 -0.09, -422.04 -0.02 M-1.44 -1.34 C-72.03 -1.14, -352.5 1, -422.69 1.51" stroke="#1e1e1e" stroke-width="4" fill="none"></path></g><g transform="translate(533.0988485510361 464.6126225072501) rotate(0 -211.33996981667426 0.08162137225269817)"><path d="M-394.9 -8.02 C-404.33 -4.51, -413.63 -3.48, -423.35 2.52 M-395.44 -8.17 C-405.49 -5.86, -414.22 -2.07, -423.45 1.39" stroke="#1e1e1e" stroke-width="4" fill="none"></path></g><g transform="translate(533.0988485510361 464.6126225072501) rotate(0 -211.33996981667426 0.08162137225269817)"><path d="M-394.75 12.5 C-404.23 8.92, -413.59 2.85, -423.35 2.52 M-395.28 12.35 C-405.42 7.23, -414.21 3.59, -423.45 1.39" stroke="#1e1e1e" stroke-width="4" fill="none"></path></g></g><mask></mask><g transform="translate(226.56890753636276 478.87479708799117) rotate(0 93.59992218017578 25)"><text x="93.59992218017578" y="0" font-family="Virgil, Segoe UI Emoji" font-size="20px" fill="#1e1e1e" text-anchor="middle" style="white-space: pre;" direction="ltr" dominant-baseline="text-before-edge">Мне отдали</text><text x="93.59992218017578" y="25" font-family="Virgil, Segoe UI Emoji" font-size="20px" fill="#1e1e1e" text-anchor="middle" style="white-space: pre;" direction="ltr" dominant-baseline="text-before-edge">пустой index.html :(</text></g><g stroke-linecap="round"><g transform="translate(110.01700748671436 598.6586953242013) rotate(0 211.55733039627117 0.2477722931707831)"><path d="M0.2 0.34 C70.72 0.15, 351.7 -0.21, 422.15 -0.1 M-1.15 -0.53 C69.81 -0.06, 353.75 0.53, 424.26 1.03" stroke="#1e1e1e" stroke-width="4" fill="none"></path></g><g transform="translate(110.01700748671436 598.6586953242013) rotate(0 211.55733039627117 0.2477722931707831)"><path d="M396.59 9.28 C400.84 8.24, 408.83 4.83, 425.37 1.22 M395.33 11.51 C402.7 8.44, 408.34 6.89, 425.03 1.38" stroke="#1e1e1e" stroke-width="4" fill="none"></path></g><g transform="translate(110.01700748671436 598.6586953242013) rotate(0 211.55733039627117 0.2477722931707831)"><path d="M396.68 -11.25 C401.08 -7.79, 409.05 -6.71, 425.37 1.22 M395.41 -9.01 C402.94 -7.7, 408.57 -4.87, 425.03 1.38" stroke="#1e1e1e" stroke-width="4" fill="none"></path></g></g><mask></mask><g transform="translate(157.0124765229492 611.6503998322817) rotate(0 169.56993103027344 12.5)"><text x="169.56993103027344" y="0" font-family="Virgil, Segoe UI Emoji" font-size="20px" fill="#1e1e1e" text-anchor="middle" style="white-space: pre;" direction="ltr" dominant-baseline="text-before-edge">Загрузи все скрипты и запусти их</text></g><g stroke-linecap="round"><g transform="translate(532.3341562522545 862.0512286303192) rotate(0 -210.98584958460637 0.5507859146755436)"><path d="M0.75 -0.65 C-69.41 -0.56, -351.42 0.15, -422.06 0.28 M-0.32 1.62 C-70.49 1.91, -352.08 1.67, -422.72 1.59" stroke="#1e1e1e" stroke-width="4" fill="none"></path></g><g transform="translate(532.3341562522545 862.0512286303192) rotate(0 -210.98584958460637 0.5507859146755436)"><path d="M-395.61 -7.72 C-401.08 -7.2, -407.15 -3.97, -421.17 2.47 M-393.7 -9.14 C-402.55 -4.39, -412.97 -1.12, -421.87 1.93" stroke="#1e1e1e" stroke-width="4" fill="none"></path></g><g transform="translate(532.3341562522545 862.0512286303192) rotate(0 -210.98584958460637 0.5507859146755436)"><path d="M-395.63 12.8 C-401.05 9.1, -407.1 8.11, -421.17 2.47 M-393.72 11.38 C-402.74 9.62, -413.15 6.38, -421.87 1.93" stroke="#1e1e1e" stroke-width="4" fill="none"></path></g></g><mask></mask><g transform="translate(170.30923087826443 882.4170169637518) rotate(0 154.76992797851562 25)"><text x="154.76992797851562" y="0" font-family="Virgil, Segoe UI Emoji" font-size="20px" fill="#1e1e1e" text-anchor="middle" style="white-space: pre;" direction="ltr" dominant-baseline="text-before-edge">Готово!</text><text x="154.76992797851562" y="25" font-family="Virgil, Segoe UI Emoji" font-size="20px" fill="#1e1e1e" text-anchor="middle" style="white-space: pre;" direction="ltr" dominant-baseline="text-before-edge">Вот загруженная версия сайта</text></g><g stroke-linecap="round" transform="translate(19.30361918141415 844.0901765950458) rotate(0 26.153913461192587 26.153913461192587)"><path d="M16.51 2.6 C21.17 0.23, 28.7 0.69, 34.01 2.06 C39.31 3.43, 45.42 6.23, 48.35 10.8 C51.29 15.37, 52.19 23.61, 51.6 29.5 C51.01 35.38, 48.76 42.32, 44.81 46.1 C40.86 49.87, 33.72 51.86, 27.9 52.15 C22.08 52.43, 14.49 51.18, 9.89 47.83 C5.29 44.48, 1.4 37.54, 0.3 32.05 C-0.8 26.56, 0.1 19.94, 3.3 14.89 C6.5 9.83, 16.4 4.19, 19.5 1.74 C22.6 -0.72, 21.91 -0.18, 21.92 0.16 M32.89 -0.5 C38.15 0.62, 43.84 6.4, 47.22 11.26 C50.59 16.13, 53.31 23.27, 53.12 28.69 C52.94 34.11, 50.06 39.72, 46.1 43.77 C42.13 47.83, 35.1 52.4, 29.33 53.03 C23.55 53.67, 16.2 50.95, 11.45 47.57 C6.7 44.19, 2.56 37.88, 0.82 32.74 C-0.91 27.6, -1.39 21.96, 1.03 16.72 C3.45 11.48, 10.31 4.01, 15.34 1.28 C20.38 -1.44, 28.31 0.45, 31.24 0.36 C34.17 0.28, 32.79 0.23, 32.91 0.78" stroke="#1e1e1e" stroke-width="4" fill="none"></path></g><g transform="translate(28.814893452327055 874.0254219325655) rotate(0 16.591265645040494 5.744279197908469)" stroke="none"><path fill="#1e1e1e" d="M 1.86,-1.50 Q 1.86,-1.50 2.86,-0.23 3.86,1.04 4.83,2.16 5.80,3.28 6.86,4.33 7.93,5.37 9.05,6.06 10.18,6.76 11.33,7.33 12.49,7.91 13.62,8.19 14.75,8.46 15.94,8.62 17.13,8.78 18.28,8.83 19.43,8.88 21.18,8.59 22.93,8.30 24.59,7.22 26.25,6.13 27.09,5.30 27.93,4.48 29.48,2.53 31.03,0.58 31.37,0.30 31.70,0.01 32.11,-0.15 32.51,-0.32 32.95,-0.35 33.39,-0.38 33.82,-0.27 34.25,-0.16 34.61,0.08 34.98,0.32 35.25,0.67 35.53,1.01 35.67,1.43 35.82,1.85 35.82,2.29 35.83,2.73 35.69,3.15 35.56,3.57 35.30,3.92 35.03,4.28 34.67,4.53 34.31,4.78 33.89,4.90 33.46,5.03 33.02,5.01 32.58,4.99 32.17,4.83 31.76,4.68 31.42,4.39 31.08,4.11 30.85,3.74 30.61,3.36 30.51,2.93 30.41,2.51 30.46,2.07 30.50,1.63 30.68,1.22 30.86,0.82 31.16,0.50 31.46,0.17 31.84,-0.03 32.23,-0.24 32.66,-0.32 33.10,-0.39 33.54,-0.33 33.97,-0.26 34.36,-0.06 34.76,0.13 35.06,0.45 35.37,0.76 35.56,1.16 35.75,1.56 35.80,2.00 35.86,2.44 35.77,2.87 35.68,3.30 35.46,3.68 35.23,4.06 35.23,4.06 35.23,4.06 33.42,6.17 31.60,8.28 30.47,9.36 29.34,10.43 28.14,11.26 26.94,12.09 25.52,12.74 24.09,13.39 22.70,13.65 21.30,13.90 20.19,13.86 19.08,13.83 17.73,13.70 16.38,13.57 14.92,13.31 13.47,13.06 11.90,12.58 10.34,12.10 9.01,11.38 7.69,10.66 6.20,9.69 4.71,8.72 3.47,7.54 2.24,6.36 1.22,5.18 0.19,3.99 -0.83,2.75 -1.86,1.50 -2.02,1.26 -2.17,1.01 -2.26,0.74 -2.35,0.46 -2.37,0.17 -2.39,-0.11 -2.35,-0.39 -2.30,-0.68 -2.18,-0.94 -2.07,-1.21 -1.89,-1.44 -1.72,-1.67 -1.49,-1.85 -1.27,-2.03 -1.00,-2.15 -0.74,-2.28 -0.46,-2.33 -0.17,-2.39 0.11,-2.38 0.39,-2.36 0.67,-2.28 0.95,-2.20 1.20,-2.05 1.45,-1.91 1.66,-1.70 1.86,-1.50 1.86,-1.50 L 1.86,-1.50 Z"></path></g><g transform="translate(38.32975192407059 855.3863828796183) rotate(0 -0.4390646017536284 6.60568213087268)" stroke="none"><path fill="#1e1e1e" d="M 2.36,0.28 Q 2.36,0.28 2.06,2.14 1.76,3.99 1.62,5.51 1.48,7.03 1.45,8.32 1.43,9.62 1.40,11.36 1.37,13.11 1.30,13.48 1.23,13.85 1.05,14.18 0.86,14.51 0.58,14.76 0.30,15.02 -0.03,15.17 -0.38,15.32 -0.76,15.35 -1.13,15.39 -1.50,15.30 -1.87,15.21 -2.19,15.01 -2.51,14.81 -2.75,14.51 -2.98,14.22 -3.12,13.87 -3.25,13.51 -3.26,13.14 -3.28,12.76 -3.17,12.40 -3.06,12.03 -2.84,11.72 -2.62,11.42 -2.32,11.19 -2.01,10.97 -1.65,10.86 -1.29,10.74 -0.91,10.75 -0.53,10.76 -0.18,10.89 0.17,11.02 0.46,11.25 0.76,11.49 0.97,11.80 1.17,12.12 1.27,12.49 1.36,12.85 1.33,13.23 1.30,13.61 1.16,13.95 1.01,14.30 0.76,14.59 0.51,14.87 0.18,15.06 -0.14,15.25 -0.51,15.32 -0.88,15.39 -1.25,15.34 -1.63,15.30 -1.97,15.13 -2.31,14.96 -2.58,14.70 -2.85,14.43 -3.02,14.10 -3.19,13.76 -3.24,13.38 -3.29,13.01 -3.29,13.01 -3.29,13.01 -3.23,11.21 -3.17,9.40 -3.07,8.00 -2.98,6.60 -2.82,5.03 -2.66,3.45 -2.51,1.58 -2.36,-0.28 -2.29,-0.56 -2.22,-0.84 -2.09,-1.09 -1.95,-1.35 -1.76,-1.56 -1.57,-1.78 -1.34,-1.94 -1.10,-2.10 -0.83,-2.20 -0.56,-2.31 -0.28,-2.34 0.00,-2.37 0.28,-2.34 0.56,-2.31 0.83,-2.20 1.10,-2.10 1.34,-1.94 1.57,-1.78 1.76,-1.56 1.95,-1.35 2.09,-1.09 2.22,-0.84 2.29,-0.56 2.36,-0.28 2.36,0.00 2.36,0.28 2.36,0.28 L 2.36,0.28 Z"></path></g><g transform="translate(50.786044544160745 855.5500613842175) rotate(0 0.25627035939088216 6.019067928257641)" stroke="none"><path fill="#1e1e1e" d="M 2.52,-0.27 Q 2.52,-0.27 2.67,1.08 2.82,2.43 2.92,3.55 3.02,4.67 3.12,8.28 3.22,11.88 3.15,12.32 3.08,12.75 2.88,13.14 2.67,13.53 2.36,13.83 2.04,14.13 1.64,14.32 1.24,14.51 0.81,14.55 0.37,14.60 -0.05,14.51 -0.48,14.42 -0.85,14.19 -1.23,13.97 -1.52,13.63 -1.80,13.30 -1.97,12.89 -2.13,12.49 -2.16,12.05 -2.18,11.61 -2.07,11.19 -1.95,10.76 -1.70,10.40 -1.46,10.04 -1.11,9.77 -0.76,9.50 -0.35,9.36 0.06,9.22 0.50,9.22 0.94,9.22 1.35,9.35 1.77,9.49 2.12,9.76 2.47,10.02 2.72,10.38 2.96,10.75 3.08,11.17 3.20,11.59 3.18,12.03 3.16,12.47 3.00,12.88 2.84,13.28 2.55,13.62 2.27,13.96 1.90,14.18 1.52,14.41 1.09,14.51 0.66,14.60 0.23,14.56 -0.20,14.51 -0.60,14.33 -1.00,14.14 -1.32,13.84 -1.64,13.54 -1.84,13.16 -2.05,12.77 -2.12,12.34 -2.20,11.90 -2.20,11.90 -2.20,11.90 -2.20,9.28 -2.21,6.65 -2.22,4.81 -2.23,2.98 -2.38,1.62 -2.52,0.27 -2.52,-0.03 -2.51,-0.33 -2.44,-0.63 -2.36,-0.93 -2.21,-1.19 -2.07,-1.46 -1.86,-1.69 -1.66,-1.92 -1.40,-2.09 -1.15,-2.26 -0.86,-2.36 -0.57,-2.47 -0.27,-2.50 0.03,-2.54 0.33,-2.49 0.63,-2.45 0.92,-2.34 1.20,-2.23 1.45,-2.05 1.70,-1.88 1.90,-1.64 2.10,-1.41 2.24,-1.14 2.38,-0.87 2.45,-0.57 2.52,-0.27 2.52,-0.27 L 2.52,-0.27 Z"></path></g><g stroke-linecap="round" transform="translate(12.43899150426904 445.2736792766601) rotate(0 26.153913461192587 26.153913461192587)"><path d="M14.25 3.31 C18.93 0.58, 26.99 -0.16, 32.6 0.93 C38.21 2.02, 44.64 5.51, 47.91 9.84 C51.18 14.18, 52.76 21.35, 52.21 26.94 C51.65 32.53, 48.32 39.32, 44.59 43.39 C40.87 47.46, 35.39 50.66, 29.87 51.37 C24.34 52.07, 16.2 50.49, 11.47 47.62 C6.74 44.75, 3.17 39.54, 1.5 34.14 C-0.17 28.74, -1.45 20.6, 1.44 15.22 C4.33 9.84, 15.37 4.24, 18.83 1.85 C22.29 -0.55, 22.23 0.58, 22.19 0.87 M35.21 1.84 C40.76 3.18, 47.09 7.26, 50.01 11.96 C52.93 16.66, 53.93 24.39, 52.71 30.03 C51.48 35.67, 47.24 42.26, 42.67 45.8 C38.1 49.34, 30.73 51.17, 25.31 51.26 C19.88 51.35, 14.42 49.52, 10.12 46.33 C5.82 43.13, 0.69 37.34, -0.49 32.08 C-1.68 26.82, 0.3 20.08, 3 14.78 C5.7 9.49, 10.57 2.51, 15.72 0.32 C20.86 -1.88, 30.97 1.31, 33.89 1.63 C36.8 1.94, 33.19 1.86, 33.19 2.19" stroke="#1e1e1e" stroke-width="4" fill="none"></path></g><g transform="translate(23.81944681515637 475.83790156593614) rotate(178.92509875493883 13.728785838263036 4.75322260462076)" stroke="none"><path fill="#1e1e1e" d="M 1.99,-1.60 Q 1.99,-1.60 2.83,-0.56 3.68,0.47 4.48,1.38 5.29,2.29 6.16,3.12 7.03,3.95 8.85,4.93 10.66,5.91 12.48,6.23 14.29,6.55 15.94,6.55 17.58,6.55 18.80,6.01 20.03,5.46 21.32,4.32 22.60,3.18 23.86,1.60 25.12,0.02 25.49,-0.28 25.85,-0.60 26.29,-0.78 26.74,-0.97 27.22,-1.00 27.70,-1.03 28.17,-0.91 28.63,-0.79 29.03,-0.52 29.44,-0.26 29.73,0.11 30.03,0.49 30.19,0.95 30.35,1.40 30.35,1.88 30.36,2.36 30.21,2.82 30.06,3.28 29.78,3.67 29.49,4.06 29.10,4.33 28.70,4.61 28.24,4.74 27.78,4.88 27.30,4.86 26.81,4.84 26.36,4.66 25.91,4.49 25.54,4.18 25.17,3.88 24.92,3.47 24.67,3.06 24.56,2.59 24.45,2.12 24.49,1.64 24.54,1.16 24.74,0.72 24.93,0.28 25.26,-0.06 25.59,-0.42 26.01,-0.65 26.43,-0.88 26.90,-0.96 27.38,-1.05 27.85,-0.97 28.33,-0.90 28.76,-0.68 29.19,-0.46 29.52,-0.12 29.86,0.22 30.07,0.65 30.27,1.09 30.33,1.57 30.39,2.04 30.29,2.52 30.20,2.99 29.95,3.40 29.71,3.82 29.71,3.82 29.71,3.82 28.18,5.60 26.66,7.37 25.68,8.30 24.70,9.22 23.65,9.93 22.61,10.65 21.35,11.21 20.10,11.78 17.91,11.97 15.73,12.16 14.59,12.05 13.44,11.94 12.19,11.72 10.95,11.49 9.59,11.07 8.23,10.64 7.11,10.03 5.99,9.42 4.70,8.56 3.42,7.71 2.39,6.70 1.36,5.68 0.52,4.69 -0.31,3.70 -1.15,2.65 -1.99,1.60 -2.15,1.34 -2.32,1.08 -2.41,0.79 -2.51,0.49 -2.53,0.18 -2.55,-0.11 -2.50,-0.42 -2.45,-0.72 -2.33,-1.01 -2.21,-1.29 -2.02,-1.54 -1.83,-1.78 -1.59,-1.98 -1.35,-2.17 -1.07,-2.30 -0.79,-2.43 -0.49,-2.49 -0.19,-2.55 0.11,-2.54 0.42,-2.52 0.72,-2.43 1.01,-2.35 1.28,-2.19 1.55,-2.03 1.77,-1.82 1.99,-1.60 1.99,-1.60 L 1.99,-1.60 Z"></path></g><g transform="translate(31.465124246925484 456.5698855612326) rotate(0 -0.43906460175361417 6.605682130872651)" stroke="none"><path fill="#1e1e1e" d="M 2.36,0.28 Q 2.36,0.28 2.06,2.14 1.76,3.99 1.62,5.51 1.48,7.03 1.45,8.32 1.43,9.62 1.40,11.36 1.37,13.11 1.30,13.48 1.23,13.85 1.05,14.18 0.86,14.51 0.58,14.76 0.30,15.02 -0.03,15.17 -0.38,15.32 -0.76,15.35 -1.13,15.39 -1.50,15.30 -1.87,15.21 -2.19,15.01 -2.51,14.81 -2.75,14.51 -2.98,14.22 -3.12,13.87 -3.25,13.51 -3.26,13.14 -3.28,12.76 -3.17,12.40 -3.06,12.03 -2.84,11.72 -2.62,11.42 -2.32,11.19 -2.01,10.97 -1.65,10.86 -1.29,10.74 -0.91,10.75 -0.53,10.76 -0.18,10.89 0.17,11.02 0.46,11.25 0.76,11.49 0.97,11.80 1.17,12.12 1.27,12.49 1.36,12.85 1.33,13.23 1.30,13.61 1.16,13.95 1.01,14.30 0.76,14.59 0.51,14.87 0.18,15.06 -0.14,15.25 -0.51,15.32 -0.88,15.39 -1.25,15.34 -1.63,15.30 -1.97,15.13 -2.31,14.96 -2.58,14.70 -2.85,14.43 -3.02,14.10 -3.19,13.76 -3.24,13.38 -3.29,13.01 -3.29,13.01 -3.29,13.01 -3.23,11.21 -3.17,9.40 -3.07,8.00 -2.98,6.60 -2.82,5.03 -2.66,3.45 -2.51,1.58 -2.36,-0.28 -2.29,-0.56 -2.22,-0.84 -2.09,-1.09 -1.95,-1.35 -1.76,-1.56 -1.57,-1.78 -1.34,-1.94 -1.10,-2.10 -0.83,-2.20 -0.56,-2.31 -0.28,-2.34 0.00,-2.37 0.28,-2.34 0.56,-2.31 0.83,-2.20 1.10,-2.10 1.34,-1.94 1.57,-1.78 1.76,-1.56 1.95,-1.35 2.09,-1.09 2.22,-0.84 2.29,-0.56 2.36,-0.28 2.36,0.00 2.36,0.28 2.36,0.28 L 2.36,0.28 Z"></path></g><g transform="translate(43.92141686701564 456.73356406583196) rotate(0 0.25627035939088216 6.019067928257641)" stroke="none"><path fill="#1e1e1e" d="M 2.52,-0.27 Q 2.52,-0.27 2.67,1.08 2.82,2.43 2.92,3.55 3.02,4.67 3.12,8.28 3.22,11.88 3.15,12.32 3.08,12.75 2.88,13.14 2.67,13.53 2.36,13.83 2.04,14.13 1.64,14.32 1.24,14.51 0.81,14.55 0.37,14.60 -0.05,14.51 -0.48,14.42 -0.85,14.19 -1.23,13.97 -1.52,13.63 -1.80,13.30 -1.97,12.89 -2.13,12.49 -2.16,12.05 -2.18,11.61 -2.07,11.19 -1.95,10.76 -1.70,10.40 -1.46,10.04 -1.11,9.77 -0.76,9.50 -0.35,9.36 0.06,9.22 0.50,9.22 0.94,9.22 1.35,9.35 1.77,9.49 2.12,9.76 2.47,10.02 2.72,10.38 2.96,10.75 3.08,11.17 3.20,11.59 3.18,12.03 3.16,12.47 3.00,12.88 2.84,13.28 2.55,13.62 2.27,13.96 1.90,14.18 1.52,14.41 1.09,14.51 0.66,14.60 0.23,14.56 -0.20,14.51 -0.60,14.33 -1.00,14.14 -1.32,13.84 -1.64,13.54 -1.84,13.16 -2.05,12.77 -2.12,12.34 -2.20,11.90 -2.20,11.90 -2.20,11.90 -2.20,9.28 -2.21,6.65 -2.22,4.81 -2.23,2.98 -2.38,1.62 -2.52,0.27 -2.52,-0.03 -2.51,-0.33 -2.44,-0.63 -2.36,-0.93 -2.21,-1.19 -2.07,-1.46 -1.86,-1.69 -1.66,-1.92 -1.40,-2.09 -1.15,-2.26 -0.86,-2.36 -0.57,-2.47 -0.27,-2.50 0.03,-2.54 0.33,-2.49 0.63,-2.45 0.92,-2.34 1.20,-2.23 1.45,-2.05 1.70,-1.88 1.90,-1.64 2.10,-1.41 2.24,-1.14 2.38,-0.87 2.45,-0.57 2.52,-0.27 2.52,-0.27 L 2.52,-0.27 Z"></path></g><g stroke-linecap="round"><g transform="translate(537.2899835404464 649.3977159428431) rotate(0 208.9059657672263 0.6504984369444173)"><path d="M-0.89 -0.35 C68.91 0.07, 348.78 1.29, 418.7 1.46 M0.85 -1.58 C70.6 -0.88, 348.78 2.37, 418.37 2.88" stroke="#1e1e1e" stroke-width="4" fill="none"></path></g><g transform="translate(537.2899835404464 649.3977159428431) rotate(0 208.9059657672263 0.6504984369444173)"><path d="M389.5 14.85 C398.06 11.99, 405.02 7.97, 417.61 1.22 M389.65 12.61 C397.64 11.02, 405.71 6.94, 417.59 2.96" stroke="#1e1e1e" stroke-width="4" fill="none"></path></g><g transform="translate(537.2899835404464 649.3977159428431) rotate(0 208.9059657672263 0.6504984369444173)"><path d="M389.7 -5.67 C398.01 -2.55, 404.92 -0.59, 417.61 1.22 M389.85 -7.91 C397.72 -4.08, 405.73 -2.73, 417.59 2.96" stroke="#1e1e1e" stroke-width="4" fill="none"></path></g></g><mask></mask><g transform="translate(571.1655994868374 667.3511624910576) rotate(0 171.94989013671875 12.5)"><text x="171.94989013671875" y="0" font-family="Virgil, Segoe UI Emoji" font-size="20px" fill="#1e1e1e" text-anchor="middle" style="white-space: pre;" direction="ltr" dominant-baseline="text-before-edge">Отдавай сюда JavaScript файлы!!!</text></g><g stroke-linecap="round"><g transform="translate(955.7666443765355 763.8706636930382) rotate(0 -208.27058097691406 -3.1864124794925033)"><path d="M0.68 0.02 C-68.78 -0.64, -346.8 -3.78, -416.4 -4.53 M-0.42 -1.01 C-70.04 -1.99, -347.66 -5.47, -417.22 -6.4" stroke="#1e1e1e" stroke-width="4" fill="none"></path></g><g transform="translate(955.7666443765355 763.8706636930382) rotate(0 -208.27058097691406 -3.1864124794925033)"><path d="M-388.86 -15.89 C-397.45 -13.32, -406.73 -9.31, -415.84 -5.62 M-388.28 -16.89 C-398.34 -13.84, -407.77 -9.87, -416.96 -5.52" stroke="#1e1e1e" stroke-width="4" fill="none"></path></g><g transform="translate(955.7666443765355 763.8706636930382) rotate(0 -208.27058097691406 -3.1864124794925033)"><path d="M-389.13 4.62 C-397.54 0.45, -406.73 -2.3, -415.84 -5.62 M-388.54 3.63 C-398.67 0.1, -408.02 -2.51, -416.96 -5.52" stroke="#1e1e1e" stroke-width="4" fill="none"></path></g></g><mask></mask><g transform="translate(707.3840449681026 774.9248300136843) rotate(0 25.46997833251953 12.5)"><text x="25.46997833251953" y="0" font-family="Virgil, Segoe UI Emoji" font-size="20px" fill="#1e1e1e" text-anchor="middle" style="white-space: pre;" direction="ltr" dominant-baseline="text-before-edge">Лови!</text></g><g transform="translate(557.3525328622146 846.6070480220351) rotate(0 170.7899169921875 37.50391991713491)"><text x="0" y="0" font-family="Virgil, Segoe UI Emoji" font-size="20.00209062247195px" fill="#1e1e1e" text-anchor="start" style="white-space: pre;" direction="ltr" dominant-baseline="text-before-edge">Браузер парсит скрипт и рендерит</text><text x="0" y="25.00261327808994" font-family="Virgil, Segoe UI Emoji" font-size="20.00209062247195px" fill="#1e1e1e" text-anchor="start" style="white-space: pre;" direction="ltr" dominant-baseline="text-before-edge">верстку, которая прописана</text><text x="0" y="50.00522655617988" font-family="Virgil, Segoe UI Emoji" font-size="20.00209062247195px" fill="#1e1e1e" text-anchor="start" style="white-space: pre;" direction="ltr" dominant-baseline="text-before-edge">в фреймворке (Vue, React, ...)</text></g></svg>
