<svg version="1.1" xmlns="http://www.w3.org/2000/svg" viewBox="0 0 2405.264272824203 989.5363957222087" width="7215.79281847261" height="2968.609187166626">
  <!-- svg-source:excalidraw -->

  <g stroke-linecap="round" transform="translate(673.0839059952859 95.73415067802443) rotate(0 602.9201496696121 441.9011225220921)"><path d="M32 0 M32 0 C349.05 -2.7, 666.95 -3.04, 1173.84 0 M32 0 C459.66 -0.33, 886.51 -0.22, 1173.84 0 M1173.84 0 C1195.77 0.25, 1203.94 9.99, 1205.84 32 M1173.84 0 C1196.01 1, 1204.85 10.83, 1205.84 32 M1205.84 32 C1206.46 278.68, 1206.17 524.69, 1205.84 851.8 M1205.84 32 C1208.17 323.39, 1207.75 615.21, 1205.84 851.8 M1205.84 851.8 C1207.67 871.63, 1196.11 884.87, 1173.84 883.8 M1205.84 851.8 C1203.59 872.29, 1197.16 883.54, 1173.84 883.8 M1173.84 883.8 C865.9 883.24, 559.77 883.42, 32 883.8 M1173.84 883.8 C909.37 880.84, 645.23 881.32, 32 883.8 M32 883.8 C11.09 882.23, -0.01 871.94, 0 851.8 M32 883.8 C10.82 883.8, 0.35 871.07, 0 851.8 M0 851.8 C0.38 623.47, -0.68 396.46, 0 32 M0 851.8 C1.5 550.85, 1.31 250.25, 0 32 M0 32 C0.97 11.58, 10.98 1.48, 32 0 M0 32 C0.99 11.61, 10.5 0.78, 32 0" stroke="#1e1e1e" stroke-width="2" fill="none"></path></g><g stroke-linecap="round" transform="translate(707.1873478656253 119.19725074967482) rotate(0 568.0694212244246 35.186158214579564)"><path d="M7.11 2.2 C7.11 2.2, 7.11 2.2, 7.11 2.2 M7.11 2.2 C7.11 2.2, 7.11 2.2, 7.11 2.2 M6.58 15 C7.68 10.81, 11.48 7.26, 19.05 0.66 M6.58 15 C11.53 9.61, 14.5 6.19, 19.05 0.66 M6.72 27.04 C9.98 22.19, 17.59 15.99, 29.02 1.38 M6.72 27.04 C12.74 19.89, 18.47 14.43, 29.02 1.38 M6.19 39.84 C18.19 27.95, 25.24 16.53, 39.65 1.35 M6.19 39.84 C13.29 32.06, 21.04 22.78, 39.65 1.35 M3.05 55.65 C19.82 36.26, 33.86 16.18, 50.28 1.31 M3.05 55.65 C20.3 35.63, 38.07 13.28, 50.28 1.31 M4.49 66.18 C17.1 54.79, 26.26 39.65, 60.91 1.28 M4.49 66.18 C24.21 43.91, 45.54 19.99, 60.91 1.28 M11.19 70.68 C27.74 54.69, 41.06 34.88, 71.54 1.24 M11.19 70.68 C32.7 44.36, 56.72 18.88, 71.54 1.24 M19.85 72.9 C37.92 53.96, 56.02 31.9, 82.17 1.21 M19.85 72.9 C39.37 50.99, 60.42 26.51, 82.17 1.21 M30.48 72.87 C52.25 46.17, 72.95 21.09, 92.8 1.17 M30.48 72.87 C51.53 49.63, 70.52 27.25, 92.8 1.17 M41.11 72.84 C63.49 48.87, 83.76 25.73, 103.43 1.14 M41.11 72.84 C56.69 55.7, 70.78 37.13, 103.43 1.14 M51.74 72.8 C68.63 55.51, 81.18 36.23, 114.06 1.1 M51.74 72.8 C74.51 47.38, 95.35 23.02, 114.06 1.1 M62.37 72.77 C83.29 50.37, 98.96 30.65, 124.69 1.07 M62.37 72.77 C80.72 50.74, 100.09 30.69, 124.69 1.07 M73 72.73 C86.9 59.21, 98.75 41.75, 135.32 1.03 M73 72.73 C86.36 57.67, 101.05 40.23, 135.32 1.03 M83.63 72.7 C105.79 48.34, 124.81 22.5, 145.95 1 M83.63 72.7 C107.52 44.54, 132.22 17.54, 145.95 1 M94.26 72.66 C116.66 48.79, 139.78 21.7, 156.58 0.97 M94.26 72.66 C116.96 44.45, 142.16 17.03, 156.58 0.97 M104.89 72.63 C126.78 44.87, 148.53 19, 167.21 0.93 M104.89 72.63 C119.68 54.82, 134.87 37.64, 167.21 0.93 M115.52 72.59 C127.19 56.53, 141.01 43.68, 177.85 0.9 M115.52 72.59 C129.06 56.03, 144.34 39.07, 177.85 0.9 M126.15 72.56 C145.27 47.58, 168.01 23.63, 188.48 0.86 M126.15 72.56 C147.28 48.02, 170.57 21.38, 188.48 0.86 M136.78 72.53 C159.53 45.37, 179.79 18.86, 199.11 0.83 M136.78 72.53 C154.81 51.35, 173.88 29.33, 199.11 0.83 M147.41 72.49 C168.51 47.34, 187.03 24.13, 209.74 0.79 M147.41 72.49 C160.18 56.75, 173.1 42.94, 209.74 0.79 M158.04 72.46 C170.45 55.26, 186.74 41.26, 220.37 0.76 M158.04 72.46 C174.54 53.61, 189.99 35.9, 220.37 0.76 M168.67 72.42 C183.63 53.69, 204.26 33.45, 231 0.72 M168.67 72.42 C185.65 52.22, 203.41 32.51, 231 0.72 M179.3 72.39 C195.01 53.1, 215.67 32.75, 241.63 0.69 M179.3 72.39 C197.18 51.43, 214.27 31.93, 241.63 0.69 M189.93 72.35 C204.86 55.64, 219.09 37.05, 252.26 0.66 M189.93 72.35 C203.77 55.26, 217.2 39.15, 252.26 0.66 M200.56 72.32 C226.29 43.79, 249.05 16.31, 262.23 1.38 M200.56 72.32 C222.44 48.91, 243.03 24.18, 262.23 1.38 M211.19 72.28 C234.58 49.02, 254.28 23.65, 272.86 1.34 M211.19 72.28 C229.2 52.15, 247.43 31.72, 272.86 1.34 M221.82 72.25 C243.44 48.3, 262.31 25, 283.49 1.31 M221.82 72.25 C238.51 52.05, 256.15 31.16, 283.49 1.31 M232.45 72.21 C245.31 57.09, 259.81 40.59, 294.12 1.27 M232.45 72.21 C250.61 51.49, 270.46 29.29, 294.12 1.27 M242.42 72.93 C259.15 55.39, 273.02 35.56, 304.75 1.24 M242.42 72.93 C264.72 47.73, 285.64 21.77, 304.75 1.24 M253.05 72.9 C276.12 45.62, 296.65 21.48, 315.38 1.2 M253.05 72.9 C271.52 51.22, 289.11 31.44, 315.38 1.2 M263.68 72.87 C277.29 59.37, 287.74 45.53, 326.01 1.17 M263.68 72.87 C279.83 55.18, 296.15 34.89, 326.01 1.17 M274.31 72.83 C296.51 45.62, 319.63 21.79, 336.64 1.13 M274.31 72.83 C290.21 55.99, 304.28 38.93, 336.64 1.13 M284.94 72.8 C310.83 44.72, 335.49 15.39, 347.27 1.1 M284.94 72.8 C305.19 50.19, 325.47 27.86, 347.27 1.1 M295.57 72.76 C315.69 52.02, 336 28.08, 357.9 1.07 M295.57 72.76 C315.14 49.25, 335.61 25.33, 357.9 1.07 M306.2 72.73 C327.58 48.39, 352.64 20.31, 368.53 1.03 M306.2 72.73 C325.43 50.39, 345.93 27.38, 368.53 1.03 M316.84 72.69 C328.58 58.28, 343.75 40.96, 379.16 1 M316.84 72.69 C339.29 48.33, 359.9 22.9, 379.16 1 M327.47 72.66 C352.85 43.97, 375.23 14.51, 389.79 0.96 M327.47 72.66 C341.98 56.43, 355.78 38.38, 389.79 0.96 M338.1 72.62 C357.79 51.54, 372.48 32.58, 400.42 0.93 M338.1 72.62 C354.29 54.25, 368.54 36.42, 400.42 0.93 M348.73 72.59 C366.88 50.19, 387.37 28.96, 411.05 0.89 M348.73 72.59 C368.99 48.48, 391.28 25.32, 411.05 0.89 M359.36 72.56 C379.3 47.01, 401.46 23.2, 421.68 0.86 M359.36 72.56 C382.84 44.13, 408.69 15.94, 421.68 0.86 M369.99 72.52 C387.58 51.05, 404.12 31.07, 432.31 0.82 M369.99 72.52 C387.79 53.13, 403.11 33.57, 432.31 0.82 M380.62 72.49 C400.83 48.06, 425.54 19.12, 442.94 0.79 M380.62 72.49 C398.25 52.7, 415.74 31.61, 442.94 0.79 M391.25 72.45 C414.16 44.55, 439.88 17.15, 453.57 0.75 M391.25 72.45 C415.65 44.79, 438.14 17.66, 453.57 0.75 M401.88 72.42 C420.39 49.44, 439.12 25.36, 464.2 0.72 M401.88 72.42 C417.84 53.86, 434.71 33.31, 464.2 0.72 M412.51 72.38 C433.66 50.81, 452.31 30.1, 474.83 0.69 M412.51 72.38 C436.47 45.79, 461.12 16.58, 474.83 0.69 M423.14 72.35 C438.13 57.93, 450.13 39.19, 485.46 0.65 M423.14 72.35 C436.18 56.22, 450.44 39.38, 485.46 0.65 M433.77 72.31 C458.56 47.35, 480.2 20.14, 495.44 1.37 M433.77 72.31 C451.25 51.93, 470.98 30.97, 495.44 1.37 M444.4 72.28 C468.85 45.78, 491.06 18.32, 506.07 1.34 M444.4 72.28 C460.56 53.97, 476.51 35.56, 506.07 1.34 M455.03 72.25 C474.94 47.31, 495.6 22.98, 516.7 1.3 M455.03 72.25 C474.32 50.93, 491.7 29.94, 516.7 1.3 M465.66 72.21 C480.07 59.95, 489.08 42.06, 527.33 1.27 M465.66 72.21 C479.67 56.11, 493.51 39.18, 527.33 1.27 M475.63 72.93 C491.24 57.3, 503.37 38.79, 537.96 1.23 M475.63 72.93 C494.34 52.43, 511.1 31.94, 537.96 1.23 M486.26 72.9 C508.62 44.28, 532.16 18.76, 548.59 1.2 M486.26 72.9 C499.43 57.24, 513.01 41.26, 548.59 1.2 M496.89 72.86 C513.04 54.93, 529.97 36.57, 559.22 1.16 M496.89 72.86 C516.55 50.84, 536.26 27.84, 559.22 1.16 M507.52 72.83 C522.65 55.03, 539.99 33.44, 569.85 1.13 M507.52 72.83 C522.28 54.52, 538.41 36.74, 569.85 1.13 M518.15 72.79 C540.58 47.68, 562.72 19.73, 580.48 1.1 M518.15 72.79 C538.33 48.86, 561.44 24.78, 580.48 1.1 M528.78 72.76 C550.03 48.92, 572.24 24.68, 591.11 1.06 M528.78 72.76 C552.13 45.62, 576.71 18.46, 591.11 1.06 M539.41 72.72 C553.08 55.78, 567.6 38.84, 601.74 1.03 M539.41 72.72 C558.69 52.03, 576.91 30.5, 601.74 1.03 M550.04 72.69 C572.26 45.03, 595.64 19.06, 612.37 0.99 M550.04 72.69 C564.05 56.84, 576.56 41.88, 612.37 0.99 M560.67 72.65 C575.78 56.38, 588.55 38.98, 623 0.96 M560.67 72.65 C575.76 56.26, 588.9 39.41, 623 0.96 M571.3 72.62 C585.87 60.4, 597.65 46.19, 633.63 0.92 M571.3 72.62 C594.18 46.79, 615.69 20.95, 633.63 0.92 M581.93 72.59 C604.3 48.73, 627.27 19.77, 644.26 0.89 M581.93 72.59 C600.7 49.73, 621.8 27.42, 644.26 0.89 M592.56 72.55 C613.2 46.63, 636.34 23.42, 654.89 0.85 M592.56 72.55 C616.78 43.05, 641.16 15.42, 654.89 0.85 M603.19 72.52 C619.11 52.93, 639.92 31.01, 665.52 0.82 M603.19 72.52 C619.83 52.78, 636.61 33.88, 665.52 0.82 M613.82 72.48 C630.01 54.08, 646.08 37.9, 676.15 0.78 M613.82 72.48 C634.63 49.77, 653.21 26.83, 676.15 0.78 M624.45 72.45 C638.81 54, 654.52 40.13, 686.78 0.75 M624.45 72.45 C648.9 45.59, 671.77 18.53, 686.78 0.75 M635.08 72.41 C648.01 58.59, 658.5 45.13, 697.41 0.72 M635.08 72.41 C653.15 54.07, 668.7 34.45, 697.41 0.72 M645.71 72.38 C668.71 44.69, 695.89 17.31, 708.04 0.68 M645.71 72.38 C670.48 43.97, 696 16.07, 708.04 0.68 M656.34 72.34 C671.06 56.15, 686.1 38.44, 718.67 0.65 M656.34 72.34 C669.44 56.89, 683.44 41.64, 718.67 0.65 M666.97 72.31 C682.49 55.68, 699.94 37.61, 728.64 1.37 M666.97 72.31 C685.48 52.26, 703.26 31.12, 728.64 1.37 M677.6 72.28 C701.13 43.1, 726.68 16.05, 739.27 1.33 M677.6 72.28 C694.79 53.33, 711.2 32.87, 739.27 1.33 M688.23 72.24 C704.75 51.87, 722.46 33.01, 749.9 1.3 M688.23 72.24 C706.35 52.89, 722.95 31.74, 749.9 1.3 M698.86 72.21 C716.72 49.64, 735.67 29.07, 760.53 1.26 M698.86 72.21 C710.85 57.48, 723.57 43.52, 760.53 1.26 M708.84 72.93 C723.67 54.19, 741.41 38.67, 771.16 1.23 M708.84 72.93 C722.75 57.31, 734.99 41.64, 771.16 1.23 M719.47 72.89 C733.25 58.78, 745.51 43.51, 781.79 1.19 M719.47 72.89 C735.65 54.12, 752.82 36.4, 781.79 1.19 M730.1 72.86 C748.63 54.11, 762.58 35.01, 792.42 1.16 M730.1 72.86 C754.83 45.31, 779.19 16.94, 792.42 1.16 M740.73 72.82 C756.56 53.89, 776.07 33.29, 803.05 1.13 M740.73 72.82 C763.18 46.73, 785.9 21.68, 803.05 1.13 M751.36 72.79 C767.89 55.52, 783.03 36.38, 813.68 1.09 M751.36 72.79 C772.65 48.54, 792.61 25.85, 813.68 1.09 M761.99 72.75 C781.68 49.65, 803.47 23.9, 824.31 1.06 M761.99 72.75 C786.87 45.73, 809.11 17.16, 824.31 1.06 M772.62 72.72 C794.97 49.55, 815.91 22.84, 834.94 1.02 M772.62 72.72 C796.25 47.35, 818.81 20.49, 834.94 1.02 M783.25 72.69 C804.26 48, 829.93 21.32, 845.57 0.99 M783.25 72.69 C807.82 44.08, 832.46 16.93, 845.57 0.99 M793.88 72.65 C812.65 51.22, 835.06 26.82, 856.2 0.95 M793.88 72.65 C813.77 48.52, 834.67 25.9, 856.2 0.95 M804.51 72.62 C822.96 48.17, 844.09 25.05, 866.83 0.92 M804.51 72.62 C817.73 56.87, 831.62 40.63, 866.83 0.92 M815.14 72.58 C829.92 56.87, 847.49 36.3, 877.46 0.88 M815.14 72.58 C828.88 56.8, 843.95 39.15, 877.46 0.88 M825.77 72.55 C851.47 43.64, 875.31 17.86, 888.09 0.85 M825.77 72.55 C846.71 49.66, 867.76 25.3, 888.09 0.85 M836.4 72.51 C859.57 46.43, 884.83 16.36, 898.72 0.82 M836.4 72.51 C856.33 50.54, 876.57 26.01, 898.72 0.82 M847.03 72.48 C866.96 49.87, 886.91 29.38, 909.35 0.78 M847.03 72.48 C868.3 49.18, 887.19 25.56, 909.35 0.78 M857.66 72.44 C870.26 53.84, 887.27 40.02, 919.98 0.75 M857.66 72.44 C879.16 47.18, 900.17 22.74, 919.98 0.75 M868.29 72.41 C882.11 56.99, 895.89 42.6, 930.61 0.71 M868.29 72.41 C882.84 56.2, 897.67 41.36, 930.61 0.71 M878.92 72.37 C899.19 50.06, 922.17 25.41, 941.24 0.68 M878.92 72.37 C904.22 44.38, 929.78 14.63, 941.24 0.68 M889.55 72.34 C908.58 51.17, 925.63 32.75, 951.87 0.64 M889.55 72.34 C902.49 57.72, 914.71 41.58, 951.87 0.64 M900.18 72.31 C921.33 48.38, 938.69 25.53, 961.85 1.36 M900.18 72.31 C918.04 52.78, 935.85 31.2, 961.85 1.36 M910.81 72.27 C934.48 45.54, 956.46 20, 972.48 1.33 M910.81 72.27 C928.01 53.25, 945.57 32.14, 972.48 1.33 M921.44 72.24 C942.4 47.8, 967.03 23.21, 983.11 1.29 M921.44 72.24 C945.1 44.62, 969.29 15.47, 983.11 1.29 M932.07 72.2 C946.11 57.71, 958.7 38.6, 993.74 1.26 M932.07 72.2 C953.14 46.31, 976.45 19.47, 993.74 1.26 M942.04 72.92 C963.99 47.8, 986.58 23.39, 1004.37 1.23 M942.04 72.92 C966.62 45.39, 990.64 17.54, 1004.37 1.23 M952.67 72.89 C972.7 49.96, 995.8 26.47, 1015 1.19 M952.67 72.89 C969.08 53.89, 986.16 35.88, 1015 1.19 M963.3 72.85 C986.29 44.09, 1011.55 17.33, 1025.63 1.16 M963.3 72.85 C984.84 48.76, 1006.22 23.43, 1025.63 1.16 M973.93 72.82 C998.63 43.66, 1024.01 18.09, 1036.26 1.12 M973.93 72.82 C990.14 54.07, 1006.83 33.68, 1036.26 1.12 M984.56 72.78 C998.5 57.17, 1015.52 41.53, 1046.89 1.09 M984.56 72.78 C1006.25 45.25, 1030.31 19.37, 1046.89 1.09 M995.19 72.75 C1010.87 55.05, 1028.19 35.43, 1057.52 1.05 M995.19 72.75 C1015.81 47.97, 1037.33 23.91, 1057.52 1.05 M1005.82 72.72 C1020.12 53.44, 1035.81 39.46, 1068.15 1.02 M1005.82 72.72 C1019.41 56.29, 1034.7 40.97, 1068.15 1.02 M1016.45 72.68 C1030.52 57.63, 1043.54 41.42, 1078.78 0.98 M1016.45 72.68 C1038.74 48.03, 1060.98 20.32, 1078.78 0.98 M1027.08 72.65 C1043.27 55.49, 1059.55 34.39, 1089.41 0.95 M1027.08 72.65 C1047.95 49.58, 1066.47 27.48, 1089.41 0.95 M1037.71 72.61 C1056.49 48.11, 1075.83 27.89, 1100.04 0.91 M1037.71 72.61 C1053.16 54.66, 1068.4 38.54, 1100.04 0.91 M1048.34 72.58 C1067.91 48.02, 1090.47 25.14, 1110.67 0.88 M1048.34 72.58 C1062.23 54.62, 1078.22 36.75, 1110.67 0.88 M1058.97 72.54 C1084.83 44.1, 1106.64 18.42, 1120.64 1.6 M1058.97 72.54 C1075.67 54.34, 1090.86 36.89, 1120.64 1.6 M1069.6 72.51 C1093.06 46.6, 1116.71 17.23, 1129.96 3.08 M1069.6 72.51 C1085.45 52.38, 1103.08 32.11, 1129.96 3.08 M1080.23 72.47 C1095.56 54.9, 1109.6 37.01, 1134.69 9.83 M1080.23 72.47 C1096.03 54.33, 1110.07 36.8, 1134.69 9.83 M1090.86 72.44 C1107.09 54.66, 1123.14 36.9, 1140.72 15.08 M1090.86 72.44 C1108.45 54.48, 1123.72 35.77, 1140.72 15.08 M1101.49 72.41 C1109.69 63.41, 1118.01 54.04, 1140.86 27.12 M1101.49 72.41 C1115.23 56.32, 1128.73 41.17, 1140.86 27.12 M1112.12 72.37 C1123.94 59.21, 1131.18 48.3, 1141.65 38.41 M1112.12 72.37 C1122.03 62.75, 1130.04 51.72, 1141.65 38.41 M1122.1 73.09 C1128.19 67.53, 1136.23 57.92, 1138.5 54.22 M1122.1 73.09 C1127.26 66.62, 1132.37 60.5, 1138.5 54.22" stroke="#a5d8ff" stroke-width="1" fill="none"></path><path d="M17.59 0 M17.59 0 C301.3 -3.72, 585.6 -4.12, 1118.55 0 M17.59 0 C242.81 1.79, 468.08 2.07, 1118.55 0 M1118.55 0 C1128.47 -0.29, 1135.62 7.07, 1136.14 17.59 M1118.55 0 C1129.17 -0.37, 1134.67 3.79, 1136.14 17.59 M1136.14 17.59 C1136.91 24.95, 1137.27 33.82, 1136.14 52.78 M1136.14 17.59 C1136.81 30.34, 1136.2 43.42, 1136.14 52.78 M1136.14 52.78 C1134.36 63.95, 1129.36 70.06, 1118.55 70.37 M1136.14 52.78 C1136.31 66.8, 1129.35 69.07, 1118.55 70.37 M1118.55 70.37 C854.67 71.48, 590.27 71.98, 17.59 70.37 M1118.55 70.37 C787.25 68.02, 456.46 68.69, 17.59 70.37 M17.59 70.37 C7.55 69.57, -1.35 66.31, 0 52.78 M17.59 70.37 C7.56 72.23, 0.91 62.93, 0 52.78 M0 52.78 C0.69 41.47, 0.31 27.77, 0 17.59 M0 52.78 C-0.29 40.98, -0.94 28.12, 0 17.59 M0 17.59 C1.73 6.12, 7.68 -1.07, 17.59 0 M0 17.59 C1.67 6.67, 4.77 1.29, 17.59 0" stroke="#1e1e1e" stroke-width="2" fill="none"></path></g><g transform="translate(1228.9027880719834 136.8834089642544) rotate(0 46.353981018066406 17.5)"><text x="46.353981018066406" y="0" font-family="Virgil, Segoe UI Emoji" font-size="28px" fill="#1e1e1e" text-anchor="middle" style="white-space: pre;" direction="ltr" dominant-baseline="text-before-edge">Header</text></g><g stroke-linecap="round" transform="translate(719.8402682806666 679.2036196693466) rotate(0 121.82469548602808 33.30095799166736)"><path d="M16.65 0 M16.65 0 C97.02 -0.51, 179.27 0.58, 227 0 M16.65 0 C91.71 0.93, 167.09 0.26, 227 0 M227 0 C239.72 1.36, 244.51 4.45, 243.65 16.65 M227 0 C236.66 2.07, 241.95 7.02, 243.65 16.65 M243.65 16.65 C241.57 23.64, 241.8 33.42, 243.65 49.95 M243.65 16.65 C244.26 25.97, 244.56 35.23, 243.65 49.95 M243.65 49.95 C241.79 60.98, 236.38 65.15, 227 66.6 M243.65 49.95 C242.92 61.44, 236.64 67.31, 227 66.6 M227 66.6 C165.46 67.71, 105.97 67.91, 16.65 66.6 M227 66.6 C144.8 65.61, 62.26 65.68, 16.65 66.6 M16.65 66.6 C6.59 64.87, 1.59 62.42, 0 49.95 M16.65 66.6 C3.65 68.02, 0.84 61.29, 0 49.95 M0 49.95 C-1.57 39.06, 0.82 27.92, 0 16.65 M0 49.95 C-0.91 40.77, 0 31.58, 0 16.65 M0 16.65 C0.75 4.1, 4.5 -1.28, 16.65 0 M0 16.65 C-2.04 4.77, 5.78 -1.49, 16.65 0" stroke="#1e1e1e" stroke-width="2" fill="none"></path></g><g transform="translate(793.4209909883743 695.004577661014) rotate(0 48.24397277832031 17.5)"><text x="48.24397277832031" y="0" font-family="Virgil, Segoe UI Emoji" font-size="28px" fill="#1e1e1e" text-anchor="middle" style="white-space: pre;" direction="ltr" dominant-baseline="text-before-edge">Button</text></g><g stroke-linecap="round" transform="translate(712.4523214611459 413.56022609664797) rotate(0 271.9189024228431 119.95223310245996)"><path d="M32 0 M32 0 C157.25 -0.9, 283.31 -1.59, 511.84 0 M32 0 C213.14 2.14, 393.93 1.67, 511.84 0 M511.84 0 C531.6 -0.6, 541.98 9.8, 543.84 32 M511.84 0 C531.99 -0.44, 543.3 9.71, 543.84 32 M543.84 32 C543.79 88.79, 541.75 145.32, 543.84 207.9 M543.84 32 C545.61 101.52, 544.54 171.62, 543.84 207.9 M543.84 207.9 C545.57 228.8, 534.8 238.22, 511.84 239.9 M543.84 207.9 C544.81 227.68, 535.34 240.26, 511.84 239.9 M511.84 239.9 C366.04 238.64, 219.79 237.84, 32 239.9 M511.84 239.9 C334.87 239.93, 157.68 239.61, 32 239.9 M32 239.9 C11.68 240.75, 0.39 228.7, 0 207.9 M32 239.9 C11.78 238.25, -2.13 230.82, 0 207.9 M0 207.9 C0.2 146.98, 0.7 86.38, 0 32 M0 207.9 C0.12 142.17, -0.74 78.33, 0 32 M0 32 C-0.34 8.95, 10.94 -0.28, 32 0 M0 32 C0.04 9.84, 8.5 -0.27, 32 0" stroke="#1e1e1e" stroke-width="2" fill="none"></path></g><g transform="translate(949.6792378000046 516.012459199108) rotate(0 34.691986083984375 17.5)"><text x="34.691986083984375" y="0" font-family="Virgil, Segoe UI Emoji" font-size="28px" fill="#1e1e1e" text-anchor="middle" style="white-space: pre;" direction="ltr" dominant-baseline="text-before-edge">Text</text></g><g stroke-linecap="round" transform="translate(712.8344566414657 304.36297534697314) rotate(0 188.33320064750683 39.07544516094799)"><path d="M19.54 0 M19.54 0 C94.24 0.07, 171 -0.58, 357.13 0 M19.54 0 C144.17 1.61, 268.43 1.38, 357.13 0 M357.13 0 C370.88 -0.05, 375.21 5.26, 376.67 19.54 M357.13 0 C368.62 0.43, 376.04 6.76, 376.67 19.54 M376.67 19.54 C376.22 32.42, 375.75 47.13, 376.67 58.61 M376.67 19.54 C375.8 29.9, 376.36 41.5, 376.67 58.61 M376.67 58.61 C375.68 69.86, 369.21 78.3, 357.13 78.15 M376.67 58.61 C376.77 69.46, 369.01 77.08, 357.13 78.15 M357.13 78.15 C250.24 78.68, 142.69 78.72, 19.54 78.15 M357.13 78.15 C234.45 79.37, 111.51 78.47, 19.54 78.15 M19.54 78.15 C7.12 76.95, 1.85 72.7, 0 58.61 M19.54 78.15 C7.87 76.8, 0.16 73.5, 0 58.61 M0 58.61 C-1.71 47.04, -1.72 34.22, 0 19.54 M0 58.61 C0.06 50.75, 0.28 40.31, 0 19.54 M0 19.54 C0.42 7.64, 6.56 1.6, 19.54 0 M0 19.54 C-2.3 8.4, 7.08 -1.99, 19.54 0" stroke="#1e1e1e" stroke-width="2" fill="none"></path></g><g transform="translate(867.5956739515702 325.93842050792114) rotate(0 33.571983337402344 17.5)"><text x="33.571983337402344" y="0" font-family="Virgil, Segoe UI Emoji" font-size="28px" fill="#1e1e1e" text-anchor="middle" style="white-space: pre;" direction="ltr" dominant-baseline="text-before-edge">Title</text></g><g stroke-linecap="round" transform="translate(705.2599800870514 901.9704906721863) rotate(0 571.5 28.5)"><path d="M14.25 0 M14.25 0 C308.15 -1.1, 601.98 -1.97, 1128.75 0 M14.25 0 C243.23 2.14, 472.94 2.59, 1128.75 0 M1128.75 0 C1138.22 0.29, 1143.44 3.97, 1143 14.25 M1128.75 0 C1137.16 1.1, 1140.73 4.04, 1143 14.25 M1143 14.25 C1141.74 26.07, 1142.75 35.98, 1143 42.75 M1143 14.25 C1144.03 23.74, 1142.93 34.66, 1143 42.75 M1143 42.75 C1141.55 53.54, 1138.63 57.63, 1128.75 57 M1143 42.75 C1141.45 51.36, 1137.76 58.49, 1128.75 57 M1128.75 57 C775.08 61.25, 420.84 61.21, 14.25 57 M1128.75 57 C718.98 57.79, 309.1 58.49, 14.25 57 M14.25 57 C3.74 56.33, 0.24 53.31, 0 42.75 M14.25 57 C3.21 57.98, -0.74 53.8, 0 42.75 M0 42.75 C-0.21 34.36, -0.47 21.58, 0 14.25 M0 42.75 C0.16 35.38, -0.71 29.95, 0 14.25 M0 14.25 C1.2 5.66, 6.75 -1.46, 14.25 0 M0 14.25 C1.61 2.55, 5.18 -1.49, 14.25 0" stroke="#1e1e1e" stroke-width="2" fill="none"></path></g><g transform="translate(1231.624001388321 912.9704906721863) rotate(0 45.13597869873047 17.5)"><text x="45.13597869873047" y="0" font-family="Virgil, Segoe UI Emoji" font-size="28px" fill="#1e1e1e" text-anchor="middle" style="white-space: pre;" direction="ltr" dominant-baseline="text-before-edge">Footer</text></g><g stroke-linecap="round" transform="translate(1296.635109455732 299.0470503940767) rotate(0 268.83209935514685 251.06281347026504)"><path d="M7.86 8.16 C7.86 8.16, 7.86 8.16, 7.86 8.16 M7.86 8.16 C7.86 8.16, 7.86 8.16, 7.86 8.16 M6.68 21.71 C12.9 16.15, 13.31 11.24, 21.12 5.11 M6.68 21.71 C13.2 15.26, 17.82 8.66, 21.12 5.11 M4.85 36.01 C11.26 25.8, 20.49 17.81, 34.37 2.05 M4.85 36.01 C11.28 26.98, 19.88 18.13, 34.37 2.05 M4.98 48.06 C13.69 36.2, 26.55 26.07, 45 2.02 M4.98 48.06 C19.66 31.43, 35.21 13.12, 45 2.02 M4.46 60.85 C21.59 41.05, 38.3 21.92, 55.63 1.98 M4.46 60.85 C20.36 41.74, 37.38 23.42, 55.63 1.98 M4.59 72.89 C20.08 54.22, 37.52 36.75, 66.26 1.95 M4.59 72.89 C28.58 45.74, 51.19 17.04, 66.26 1.95 M4.72 84.93 C33.16 51.73, 61.02 18.93, 76.89 1.91 M4.72 84.93 C26.74 59.34, 48.29 34.67, 76.89 1.91 M4.86 96.97 C32.24 62.77, 60.75 30.96, 87.52 1.88 M4.86 96.97 C37.69 60.18, 70.06 22.79, 87.52 1.88 M4.99 109.01 C27.08 84.27, 47.73 58.48, 98.15 1.85 M4.99 109.01 C29.92 81.59, 53.87 54.98, 98.15 1.85 M4.47 121.81 C38.91 81.1, 75.32 41.6, 108.78 1.81 M4.47 121.81 C30.03 89.98, 56.8 60.52, 108.78 1.81 M4.6 133.85 C44.61 88.69, 81.48 48.55, 119.41 1.78 M4.6 133.85 C38.2 97.21, 69.64 59.14, 119.41 1.78 M4.73 145.89 C31.63 113.29, 59.41 81.62, 130.04 1.74 M4.73 145.89 C41.05 103.31, 77.91 59.6, 130.04 1.74 M4.87 157.93 C59.38 96.67, 114.39 32.44, 140.67 1.71 M4.87 157.93 C43.6 112.42, 82.27 67.12, 140.67 1.71 M5 169.97 C36.01 132.67, 68.29 96.86, 150.65 2.43 M5 169.97 C60.76 105.07, 115.32 41.49, 150.65 2.43 M4.48 182.77 C37.75 145.41, 72.78 106.52, 161.28 2.39 M4.48 182.77 C43.87 139.51, 81.12 95.08, 161.28 2.39 M4.61 194.81 C52.73 138.08, 100.97 82.56, 171.91 2.36 M4.61 194.81 C66.71 122.51, 131.81 48.85, 171.91 2.36 M4.74 206.85 C67.17 136.76, 127.24 67.99, 182.54 2.32 M4.74 206.85 C64.34 138.66, 121.72 73.05, 182.54 2.32 M4.88 218.89 C49.05 167.34, 92.99 115.36, 193.17 2.29 M4.88 218.89 C69.32 144.86, 131.27 73.52, 193.17 2.29 M5.01 230.93 C54.68 175.02, 101.83 122.49, 203.8 2.26 M5.01 230.93 C82.73 142.38, 161.24 53, 203.8 2.26 M4.49 243.73 C86.51 150.17, 171.24 51.76, 214.43 2.22 M4.49 243.73 C68.39 173.19, 130.14 100.97, 214.43 2.22 M4.62 255.77 C80.36 166.46, 159.53 79.2, 225.06 2.19 M4.62 255.77 C67.46 183.58, 129.32 114.25, 225.06 2.19 M4.75 267.81 C85.32 175.12, 163.25 81.65, 235.69 2.15 M4.75 267.81 C66.1 197.69, 128.16 127.15, 235.69 2.15 M4.89 279.85 C56.72 221.3, 108.81 161.04, 246.32 2.12 M4.89 279.85 C80.03 190.97, 156.09 104.64, 246.32 2.12 M5.02 291.89 C56.55 230.72, 107.89 172.37, 256.95 2.08 M5.02 291.89 C73.56 212.86, 142.39 133.16, 256.95 2.08 M4.5 304.69 C99.08 197.79, 191.06 91.32, 267.58 2.05 M4.5 304.69 C62.19 240.07, 118.61 175.1, 267.58 2.05 M4.63 316.73 C93.58 214.29, 183.29 111.47, 278.21 2.01 M4.63 316.73 C86.13 223.2, 166.57 131.5, 278.21 2.01 M4.76 328.77 C110.7 206.25, 217.85 82.17, 288.84 1.98 M4.76 328.77 C111.69 206.56, 219.18 83.76, 288.84 1.98 M4.9 340.81 C66.28 271.28, 126.68 203.13, 299.47 1.94 M4.9 340.81 C100.05 232.54, 195.16 123.48, 299.47 1.94 M5.03 352.85 C92.16 251.31, 180.86 149.18, 310.1 1.91 M5.03 352.85 C122.48 216.25, 239.92 80.92, 310.1 1.91 M4.51 365.65 C122.18 229.61, 239.64 95.16, 320.73 1.88 M4.51 365.65 C100.46 255.43, 196.91 144.36, 320.73 1.88 M4.64 377.69 C129.23 233.55, 254.45 88.39, 331.36 1.84 M4.64 377.69 C107.26 260.03, 209.2 142.28, 331.36 1.84 M4.77 389.73 C108.46 270.86, 213.7 150.1, 341.99 1.81 M4.77 389.73 C79.25 306.39, 152.98 221.45, 341.99 1.81 M4.91 401.77 C121.76 265.5, 240.45 129.73, 352.62 1.77 M4.91 401.77 C80.49 315.53, 155.94 229.81, 352.62 1.77 M5.04 413.81 C119.4 280.2, 236.06 148.04, 363.25 1.74 M5.04 413.81 C138.57 259.18, 272.72 105.38, 363.25 1.74 M4.52 426.6 C124.18 289.33, 243.46 151.56, 373.88 1.7 M4.52 426.6 C92.65 324.95, 180.01 224.1, 373.88 1.7 M4.65 438.65 C105.16 323.36, 206.57 207.21, 383.85 2.42 M4.65 438.65 C125.06 298.02, 246.18 157.57, 383.85 2.42 M4.78 450.69 C119.31 320.09, 232.63 187.36, 394.48 2.39 M4.78 450.69 C122.59 312.48, 242 175.89, 394.48 2.39 M4.92 462.73 C92.95 357.41, 184.08 254, 405.11 2.35 M4.92 462.73 C141.32 305.79, 278.11 148.76, 405.11 2.35 M5.05 474.77 C128.6 334.7, 250.51 192.58, 415.74 2.32 M5.05 474.77 C102.76 363.26, 199.99 251.16, 415.74 2.32 M5.18 486.81 C103.79 373.91, 201.93 260.09, 426.37 2.29 M5.18 486.81 C158.21 313.5, 309.48 139.73, 426.37 2.29 M8.6 495.08 C170.86 310.29, 331.34 125.72, 437 2.25 M8.6 495.08 C105.86 379.63, 204.21 265.88, 437 2.25 M15.94 498.82 C171.76 320.03, 326.14 141.99, 447.63 2.22 M15.94 498.82 C114.51 386.34, 213.18 272.7, 447.63 2.22 M21.98 504.06 C131.42 378.21, 241.25 253.1, 458.26 2.18 M21.98 504.06 C185.35 317.87, 348.49 130.4, 458.26 2.18 M33.27 503.27 C123.98 399.82, 214.51 296.17, 468.89 2.15 M33.27 503.27 C137.39 382.06, 242.26 261.64, 468.89 2.15 M43.9 503.24 C146.24 384.9, 247.02 267.64, 479.52 2.11 M43.9 503.24 C190.94 331.79, 338.56 161.86, 479.52 2.11 M54.53 503.21 C154.58 389.75, 253.22 277.23, 490.15 2.08 M54.53 503.21 C154.25 388.55, 251.66 276.56, 490.15 2.08 M65.16 503.17 C207.92 335.6, 354.23 168.2, 500.78 2.04 M65.16 503.17 C188.65 358.97, 313.35 215.34, 500.78 2.04 M75.79 503.14 C163.42 402.68, 251.86 301.46, 510.1 3.52 M75.79 503.14 C182.32 380.14, 288.44 257.98, 510.1 3.52 M86.42 503.1 C232.79 334.49, 379.23 163.88, 520.73 3.48 M86.42 503.1 C241.06 325.86, 396.55 147.97, 520.73 3.48 M97.05 503.07 C249.76 325.17, 404.33 147.11, 528.08 7.22 M97.05 503.07 C228.28 352.44, 358.41 202.86, 528.08 7.22 M107.68 503.03 C250.43 338.67, 392.85 174.36, 534.12 12.47 M107.68 503.03 C272.67 313.32, 436.1 124.95, 534.12 12.47 M118.31 503 C227.53 376.5, 337.34 250.15, 538.19 19.98 M118.31 503 C212.98 391.98, 309.83 281.44, 538.19 19.98 M128.94 502.96 C288.27 320.12, 447.6 136.75, 538.32 32.03 M128.94 502.96 C285.48 324, 442.72 142.82, 538.32 32.03 M139.57 502.93 C262.52 361.22, 385.05 220.26, 537.8 44.82 M139.57 502.93 C220.03 409.58, 300.59 317.04, 537.8 44.82 M150.2 502.9 C251.18 384.16, 353.17 266.81, 537.93 56.86 M150.2 502.9 C248.38 389.1, 347.95 274.92, 537.93 56.86 M160.17 503.62 C252.17 397.07, 344.18 290.63, 538.06 68.9 M160.17 503.62 C244.47 406.59, 329.85 308.31, 538.06 68.9 M170.8 503.58 C285.52 372.9, 397.91 242.69, 538.2 80.94 M170.8 503.58 C278.88 379.83, 386.37 255.9, 538.2 80.94 M181.43 503.55 C269.41 401.24, 359.44 298.52, 538.33 92.98 M181.43 503.55 C268.07 403.52, 355.19 303.05, 538.33 92.98 M192.06 503.51 C314.42 361.98, 436.87 220.76, 537.81 105.78 M192.06 503.51 C283.23 397.47, 375.33 292.11, 537.81 105.78 M202.69 503.48 C285.91 409.66, 369.27 315.49, 537.94 117.82 M202.69 503.48 C282.09 412.42, 362.27 321.08, 537.94 117.82 M213.32 503.44 C291 413.77, 368.59 325.7, 538.07 129.86 M213.32 503.44 C322.39 377.95, 431.62 252.29, 538.07 129.86 M223.95 503.41 C345.56 361.77, 468.48 220.07, 538.21 141.9 M223.95 503.41 C325.12 387.24, 426.23 270.33, 538.21 141.9 M234.58 503.37 C315.81 411.3, 396.84 317.29, 538.34 153.94 M234.58 503.37 C338.78 381.09, 445.28 259.49, 538.34 153.94 M245.21 503.34 C358.54 375.14, 471 246.79, 537.82 166.74 M245.21 503.34 C316.83 418.14, 389.18 333.9, 537.82 166.74 M255.84 503.31 C354.45 388.09, 454.97 272.91, 537.95 178.78 M255.84 503.31 C349.21 392.97, 445.21 282.63, 537.95 178.78 M266.47 503.27 C364.01 390.72, 460.7 278.45, 538.08 190.82 M266.47 503.27 C350.09 407.85, 433.12 311.9, 538.08 190.82 M277.1 503.24 C350.89 417.98, 425.52 331.86, 538.22 202.86 M277.1 503.24 C332.68 436.05, 390.23 370.56, 538.22 202.86 M287.73 503.2 C385.56 391.11, 484.71 276.19, 538.35 214.9 M287.73 503.2 C342.02 440.94, 395.59 379.72, 538.35 214.9 M298.36 503.17 C357.53 434.29, 420.54 365.69, 537.83 227.7 M298.36 503.17 C369.75 422.76, 441.27 340.72, 537.83 227.7 M309 503.13 C357.23 448.82, 405.79 393.69, 537.96 239.74 M309 503.13 C364.27 440.11, 417.85 378.22, 537.96 239.74 M319.63 503.1 C390.81 423.49, 461.18 343.12, 538.09 251.78 M319.63 503.1 C397.89 413.38, 476.19 323.39, 538.09 251.78 M330.26 503.06 C382.54 444.39, 434.54 384.32, 538.23 263.82 M330.26 503.06 C385.91 439.17, 441.29 376.18, 538.23 263.82 M340.89 503.03 C412.33 419.76, 483.44 340.68, 538.36 275.86 M340.89 503.03 C416.84 415.05, 494.11 327.69, 538.36 275.86 M351.52 502.99 C391.48 457.78, 429.78 411.17, 537.84 288.66 M351.52 502.99 C411.53 430.48, 473.37 360.34, 537.84 288.66 M362.15 502.96 C417.88 438.81, 469.65 378.97, 537.97 300.7 M362.15 502.96 C405.01 454.33, 445.98 405.66, 537.97 300.7 M372.78 502.93 C427.55 440.68, 480.93 378.3, 538.1 312.74 M372.78 502.93 C423.63 446.72, 474.2 388.34, 538.1 312.74 M383.41 502.89 C434.84 445.06, 480.19 389.53, 538.24 324.78 M383.41 502.89 C438.58 437.61, 495.08 372.69, 538.24 324.78 M393.38 503.61 C433.22 455.21, 473.6 409.11, 538.37 336.82 M393.38 503.61 C449.37 438.02, 506.24 373.61, 538.37 336.82 M404.01 503.58 C430.3 473.95, 456.4 443.17, 537.85 349.62 M404.01 503.58 C443.16 458.95, 482.18 414.19, 537.85 349.62 M414.64 503.54 C450.4 467.73, 479.66 428.7, 537.98 361.66 M414.64 503.54 C442.3 472.04, 468.49 439.95, 537.98 361.66 M425.27 503.51 C467.66 451.98, 514.44 401.11, 538.11 373.7 M425.27 503.51 C463.83 458.59, 503.3 412.73, 538.11 373.7 M435.9 503.47 C470.73 464.89, 503.73 424.21, 538.25 385.74 M435.9 503.47 C472.32 458.45, 510.92 416.04, 538.25 385.74 M446.53 503.44 C485.18 463.14, 518.58 420.92, 538.38 397.78 M446.53 503.44 C477.38 468.28, 506.16 433.84, 538.38 397.78 M457.16 503.4 C477.85 477, 501.35 451.76, 537.86 410.58 M457.16 503.4 C477.35 478.84, 499.22 455.03, 537.86 410.58 M467.79 503.37 C487.87 478.44, 507.88 454.91, 537.99 422.62 M467.79 503.37 C483.24 484.63, 499.94 464.72, 537.99 422.62 M478.42 503.34 C498.86 479.81, 517.56 456.16, 538.12 434.66 M478.42 503.34 C492.22 488.67, 506.14 471.6, 538.12 434.66 M489.05 503.3 C502.73 488.24, 517.54 469.17, 538.25 446.7 M489.05 503.3 C505.32 484.03, 523.17 465.16, 538.25 446.7 M499.68 503.27 C508.22 492.92, 519.9 480.57, 537.73 459.49 M499.68 503.27 C510.09 492.86, 520.02 481.31, 537.73 459.49 M509 504.74 C520.68 494, 529.87 480.93, 538.52 470.78 M509 504.74 C517.79 494.7, 527.29 484.28, 538.52 470.78 M521.6 502.44 C526.79 499.28, 530.84 494.81, 536.69 485.08 M521.6 502.44 C525.06 496.94, 530.19 492.19, 536.69 485.08" stroke="#a5d8ff" stroke-width="1" fill="none"></path><path d="M32 0 M32 0 C183.24 0.15, 334.93 0.18, 505.66 0 M32 0 C165.67 -2.36, 299.63 -2.28, 505.66 0 M505.66 0 C526.55 -0.59, 537.18 12.36, 537.66 32 M505.66 0 C528.64 -1.91, 536.74 8.99, 537.66 32 M537.66 32 C538.82 149, 538.43 265.28, 537.66 470.13 M537.66 32 C537.91 183.87, 537.05 334.92, 537.66 470.13 M537.66 470.13 C538.37 490.7, 527.19 500.39, 505.66 502.13 M537.66 470.13 C538.14 493.69, 527.07 499.88, 505.66 502.13 M505.66 502.13 C334.5 501.4, 161.43 501.99, 32 502.13 M505.66 502.13 C404.66 503.3, 304.21 503, 32 502.13 M32 502.13 C10.42 503.5, 0.74 491.44, 0 470.13 M32 502.13 C9.05 502.1, 1.98 493.47, 0 470.13 M0 470.13 C-0.77 364.75, -1.66 259.66, 0 32 M0 470.13 C-0.35 357.95, -0.66 245.28, 0 32 M0 32 C-0.87 10.02, 10.64 -1.39, 32 0 M0 32 C-0.63 9.65, 9.14 2.23, 32 0" stroke="#1e1e1e" stroke-width="2" fill="none"></path></g><g transform="translate(1534.7932204685935 532.6098638643416) rotate(0 30.673988342285156 17.5)"><text x="30.673988342285156" y="0" font-family="Virgil, Segoe UI Emoji" font-size="28px" fill="#1e1e1e" text-anchor="middle" style="white-space: pre;" direction="ltr" dominant-baseline="text-before-edge">Form</text></g><g transform="translate(1960.3964139374843 10) rotate(0 217.43392944335938 35)"><text x="217.43392944335938" y="0" font-family="Virgil, Segoe UI Emoji" font-size="28px" fill="#1e1e1e" text-anchor="middle" style="white-space: pre;" direction="ltr" dominant-baseline="text-before-edge">Компоненты выделенные цветом</text><text x="217.43392944335938" y="35" font-family="Virgil, Segoe UI Emoji" font-size="28px" fill="#1e1e1e" text-anchor="middle" style="white-space: pre;" direction="ltr" dominant-baseline="text-before-edge">гидрируются с помощью JS</text></g><g stroke-linecap="round"><g transform="translate(1944.9401807080208 31.730753920866164) rotate(0 -320.96128497909217 38.07650878411653)"><path d="M-0.66 0.23 C-56.06 0.99, -224.81 -9.83, -331.73 3.41 C-438.66 16.66, -590.68 66.86, -642.22 79.67 M1.2 -0.7 C-54.4 -0.14, -225.16 -11.73, -332.55 1.87 C-439.94 15.48, -591.84 68.24, -643.12 80.93" stroke="#1e1e1e" stroke-width="2" fill="none"></path></g><g transform="translate(1944.9401807080208 31.730753920866164) rotate(0 -320.96128497909217 38.07650878411653)"><path d="M-618.52 63.64 C-625.88 68.99, -636.58 77.33, -642.33 82.46 M-619.86 62.5 C-624.33 67.84, -631.89 71.49, -644.11 81.21" stroke="#1e1e1e" stroke-width="2" fill="none"></path></g><g transform="translate(1944.9401807080208 31.730753920866164) rotate(0 -320.96128497909217 38.07650878411653)"><path d="M-612.81 83.35 C-622.02 81.63, -634.75 82.93, -642.33 82.46 M-614.15 82.21 C-620.15 82.62, -629.14 81.32, -644.11 81.21" stroke="#1e1e1e" stroke-width="2" fill="none"></path></g></g><mask></mask><g stroke-linecap="round"><g transform="translate(2115.8055576684537 92.16755566170423) rotate(0 -132.3122375455149 195.75377837043175)"><path d="M-1.09 -0.4 C-15.35 34.92, -41.43 145.44, -85.31 210.87 C-129.2 276.3, -234.45 362.03, -264.38 392.18 M0.54 -1.65 C-13.79 33.41, -41.36 143.32, -85.64 209.12 C-129.93 274.93, -235.28 362.63, -265.16 393.16" stroke="#1e1e1e" stroke-width="2" fill="none"></path></g><g transform="translate(2115.8055576684537 92.16755566170423) rotate(0 -132.3122375455149 195.75377837043175)"><path d="M-252.25 368.38 C-254.97 374.77, -261.58 382.48, -266.93 395.06 M-252.22 366.96 C-255.57 374.84, -258.57 382.15, -265.81 392.25" stroke="#1e1e1e" stroke-width="2" fill="none"></path></g><g transform="translate(2115.8055576684537 92.16755566170423) rotate(0 -132.3122375455149 195.75377837043175)"><path d="M-238.23 383.36 C-245.3 384.83, -256.4 387.76, -266.93 395.06 M-238.2 381.94 C-245.74 385.28, -252.88 388.17, -265.81 392.25" stroke="#1e1e1e" stroke-width="2" fill="none"></path></g></g><mask></mask><g transform="translate(10 585.9371599925694) rotate(0 277.1018981933594 17.5)"><text x="277.1018981933594" y="0" font-family="Virgil, Segoe UI Emoji" font-size="28px" fill="#1e1e1e" text-anchor="middle" style="white-space: pre;" direction="ltr" dominant-baseline="text-before-edge">Статические компоненты (без гидрации)</text></g><g stroke-linecap="round"><g transform="translate(324.279405292051 578.9992834965367) rotate(0 189.37218628772249 -118.16186688718778)"><path d="M0.97 0.66 C30.83 -25.27, 116.01 -115.28, 178.97 -154.89 C241.93 -194.5, 345.51 -223.3, 378.72 -236.99 M0.02 -0.04 C30.24 -26.34, 118 -117.12, 181.07 -156.49 C244.14 -195.85, 345.51 -222.9, 378.46 -236.24" stroke="#1e1e1e" stroke-width="2" fill="none"></path></g><g transform="translate(324.279405292051 578.9992834965367) rotate(0 189.37218628772249 -118.16186688718778)"><path d="M356.28 -219.26 C363.42 -221.34, 366.65 -227.58, 376.6 -235.64 M355.48 -216.73 C361.93 -221.67, 368.18 -228.22, 378.05 -235.84" stroke="#1e1e1e" stroke-width="2" fill="none"></path></g><g transform="translate(324.279405292051 578.9992834965367) rotate(0 189.37218628772249 -118.16186688718778)"><path d="M349.57 -238.65 C358.75 -235.22, 363.9 -235.89, 376.6 -235.64 M348.77 -236.12 C357.15 -235.7, 365.26 -236.89, 378.05 -235.84" stroke="#1e1e1e" stroke-width="2" fill="none"></path></g></g><mask></mask><g stroke-linecap="round"><g transform="translate(445.57760341852713 574.014542366584) rotate(0 126.7004791669136 -48.76858600983496)"><path d="M-1.17 -0.54 C17.8 -12.55, 71.12 -55.31, 113.74 -71.45 C156.37 -87.58, 231.25 -92.73, 254.57 -97.34 M0.42 1.8 C19.75 -10.05, 73.65 -52.99, 115.93 -69.84 C158.21 -86.7, 231.12 -94.53, 254.08 -99.34" stroke="#1e1e1e" stroke-width="2" fill="none"></path></g><g transform="translate(445.57760341852713 574.014542366584) rotate(0 126.7004791669136 -48.76858600983496)"><path d="M227.06 -86.27 C235.81 -87.82, 244.45 -93.67, 252.18 -99.82 M227.85 -85.54 C235.71 -87.97, 242.95 -92.73, 254.42 -99.03" stroke="#1e1e1e" stroke-width="2" fill="none"></path></g><g transform="translate(445.57760341852713 574.014542366584) rotate(0 126.7004791669136 -48.76858600983496)"><path d="M223.7 -106.51 C233.55 -102.04, 243.19 -101.9, 252.18 -99.82 M224.49 -105.78 C233.2 -102.69, 241.36 -101.93, 254.42 -99.03" stroke="#1e1e1e" stroke-width="2" fill="none"></path></g></g><mask></mask><g stroke-linecap="round"><g transform="translate(576.3527540169403 606.5130164795794) rotate(0 65.5719102602852 47.89346335761036)"><path d="M-1.19 0.52 C10.05 10.45, 45.45 42.98, 67.7 58.78 C89.95 74.57, 121.76 88.93, 132.33 95.3 M0.39 -0.25 C11.47 9.9, 44.98 43.99, 66.9 60.04 C88.82 76.09, 121.22 90.25, 131.93 96.04" stroke="#1e1e1e" stroke-width="2" fill="none"></path></g><g transform="translate(576.3527540169403 606.5130164795794) rotate(0 65.5719102602852 47.89346335761036)"><path d="M102.99 93.11 C110.82 95.18, 119.46 94.29, 132.92 95.85 M102.92 92.71 C110.26 94.49, 117.71 94.48, 131.19 95.6" stroke="#1e1e1e" stroke-width="2" fill="none"></path></g><g transform="translate(576.3527540169403 606.5130164795794) rotate(0 65.5719102602852 47.89346335761036)"><path d="M112.15 74.74 C116.91 82.63, 122.6 87.66, 132.92 95.85 M112.08 74.35 C117.03 81.04, 121.99 86.01, 131.19 95.6" stroke="#1e1e1e" stroke-width="2" fill="none"></path></g></g><mask></mask><g stroke-linecap="round"><g transform="translate(378.9587036494005 631.7339383807019) rotate(0 160.77474834475316 146.3991275491066)"><path d="M-0.27 -0.07 C16.73 36.76, 48.91 172.7, 102.17 221.56 C155.43 270.42, 282.93 281.06, 319.29 293.09 M1.79 -1.16 C18.65 35.32, 48.09 170.82, 101.43 220.01 C154.76 269.19, 285.26 281.49, 321.82 293.96" stroke="#1e1e1e" stroke-width="2" fill="none"></path></g><g transform="translate(378.9587036494005 631.7339383807019) rotate(0 160.77474834475316 146.3991275491066)"><path d="M291.93 298.38 C303.27 295.43, 309.44 295.99, 321.51 292.1 M291.51 298.14 C303.14 296.22, 313.24 294.16, 321.74 293.06" stroke="#1e1e1e" stroke-width="2" fill="none"></path></g><g transform="translate(378.9587036494005 631.7339383807019) rotate(0 160.77474834475316 146.3991275491066)"><path d="M296.47 278.37 C306.46 281.74, 311.2 288.63, 321.51 292.1 M296.05 278.13 C306.27 283.27, 314.76 288.28, 321.74 293.06" stroke="#1e1e1e" stroke-width="2" fill="none"></path></g></g><mask></mask></svg>
