<svg version="1.1" xmlns="http://www.w3.org/2000/svg" viewBox="0 0 1283.7875016550329 658.9728929180502" width="3851.3625049650987" height="1976.9186787541507">
  <!-- svg-source:excalidraw -->

  <g stroke-linecap="round" transform="translate(27.86679831253923 10) rotate(0 130.7114262633516 45.10331209047661)"><path d="M22.55 0 M22.55 0 C95.94 -0.14, 167.67 1.17, 238.87 0 M22.55 0 C67.01 2.23, 109.98 0.68, 238.87 0 M238.87 0 C252.46 0.16, 260.24 5.89, 261.42 22.55 M238.87 0 C253.74 1.28, 259.65 5.27, 261.42 22.55 M261.42 22.55 C262.76 34.61, 260.4 44.35, 261.42 67.65 M261.42 22.55 C261.8 36.72, 261.15 48.94, 261.42 67.65 M261.42 67.65 C263.37 82.2, 255.74 92, 238.87 90.21 M261.42 67.65 C260.75 80.94, 252.41 91.53, 238.87 90.21 M238.87 90.21 C179.95 89.16, 121.99 91.06, 22.55 90.21 M238.87 90.21 C189.29 88.45, 138.93 88.14, 22.55 90.21 M22.55 90.21 C7.6 88.58, -1.1 81.27, 0 67.65 M22.55 90.21 C7.87 91.1, -0.43 82, 0 67.65 M0 67.65 C-1.92 58.13, 0.93 50.87, 0 22.55 M0 67.65 C-0.23 52.3, 0.19 37.69, 0 22.55 M0 22.55 C-0.6 5.85, 9.37 -1.21, 22.55 0 M0 22.55 C-1.76 6.21, 9.78 -1.4, 22.55 0" stroke="#1e1e1e" stroke-width="4" fill="none"></path></g><g transform="translate(41.62828866280489 30.103312090476493) rotate(0 116.94993591308594 25)"><text x="116.94993591308594" y="0" font-family="Virgil, Segoe UI Emoji" font-size="20px" fill="#1e1e1e" text-anchor="middle" style="white-space: pre;" direction="ltr" dominant-baseline="text-before-edge">Переменные окружения </text><text x="116.94993591308594" y="25" font-family="Virgil, Segoe UI Emoji" font-size="20px" fill="#1e1e1e" text-anchor="middle" style="white-space: pre;" direction="ltr" dominant-baseline="text-before-edge">(env)</text></g><g stroke-linecap="round" transform="translate(10 169.68566555964435) rotate(0 130.7114262633516 45.10331209047661)"><path d="M22.55 0 M22.55 0 C71.05 0.1, 124.33 -0.31, 238.87 0 M22.55 0 C85.19 1.82, 147.01 1.32, 238.87 0 M238.87 0 C252.46 0.04, 259.7 7.02, 261.42 22.55 M238.87 0 C254.31 -0.79, 261.57 8.11, 261.42 22.55 M261.42 22.55 C261.43 32.99, 262.82 49.01, 261.42 67.65 M261.42 22.55 C260.7 38.72, 262.02 54.89, 261.42 67.65 M261.42 67.65 C261.94 81.26, 253.05 89.44, 238.87 90.21 M261.42 67.65 C260.63 84.1, 254.44 92.34, 238.87 90.21 M238.87 90.21 C158.79 90.35, 76.73 91.52, 22.55 90.21 M238.87 90.21 C194.77 91.3, 151.67 90.74, 22.55 90.21 M22.55 90.21 C5.53 89.37, -1.91 83.03, 0 67.65 M22.55 90.21 C5.98 88.87, -2.05 83.01, 0 67.65 M0 67.65 C-0.54 51.79, 0.76 35.42, 0 22.55 M0 67.65 C-0.91 55.23, -1.06 43.94, 0 22.55 M0 22.55 C-0.38 9.11, 8.35 1.02, 22.55 0 M0 22.55 C-0.45 6.89, 5.69 1.01, 22.55 0" stroke="#1e1e1e" stroke-width="4" fill="none"></path></g><g transform="translate(25.89148760368363 189.78897765012084) rotate(0 114.81993865966797 25)"><text x="114.81993865966797" y="0" font-family="Virgil, Segoe UI Emoji" font-size="20px" fill="#1e1e1e" text-anchor="middle" style="white-space: pre;" direction="ltr" dominant-baseline="text-before-edge">Данные полученные по </text><text x="114.81993865966797" y="25" font-family="Virgil, Segoe UI Emoji" font-size="20px" fill="#1e1e1e" text-anchor="middle" style="white-space: pre;" direction="ltr" dominant-baseline="text-before-edge">сети во время сборки</text></g><g stroke-linecap="round" transform="translate(25.646889866259755 351.02827394309304) rotate(0 130.7114262633516 45.10331209047655)"><path d="M22.55 0 M22.55 0 C83.34 -0.11, 145.24 0.12, 238.87 0 M22.55 0 C101.39 -0.48, 180.93 -1.54, 238.87 0 M238.87 0 C252.1 0.26, 261 7.76, 261.42 22.55 M238.87 0 C252.62 1.98, 262.83 6.19, 261.42 22.55 M261.42 22.55 C263.26 33.12, 263.7 41.49, 261.42 67.65 M261.42 22.55 C261.7 33.49, 261.62 45.58, 261.42 67.65 M261.42 67.65 C259.89 82.2, 253.53 91.4, 238.87 90.21 M261.42 67.65 C262.45 83.42, 253.22 89.41, 238.87 90.21 M238.87 90.21 C159.73 91.22, 75.76 90.29, 22.55 90.21 M238.87 90.21 C193.9 92.16, 149.53 90.78, 22.55 90.21 M22.55 90.21 C6.08 90.23, 1.61 83.92, 0 67.65 M22.55 90.21 C7.57 89.25, -0.02 83.45, 0 67.65 M0 67.65 C-1.29 51.04, -0.94 35.46, 0 22.55 M0 67.65 C-0.51 58.03, -0.71 49.01, 0 22.55 M0 22.55 C0.67 9.51, 8.85 1.54, 22.55 0 M0 22.55 C-2.23 7.7, 8.55 -2.2, 22.55 0" stroke="#1e1e1e" stroke-width="4" fill="none"></path></g><g transform="translate(69.37835091965042 371.13158603356965) rotate(0 86.97996520996094 25)"><text x="86.97996520996094" y="0" font-family="Virgil, Segoe UI Emoji" font-size="20px" fill="#1e1e1e" text-anchor="middle" style="white-space: pre;" direction="ltr" dominant-baseline="text-before-edge">Данные заданые </text><text x="86.97996520996094" y="25" font-family="Virgil, Segoe UI Emoji" font-size="20px" fill="#1e1e1e" text-anchor="middle" style="white-space: pre;" direction="ltr" dominant-baseline="text-before-edge">пользователем</text></g><g stroke-linecap="round" transform="translate(470.6047931065434 163.71259312449502) rotate(0 122.5 47.5)"><path d="M23.75 0 M23.75 0 C74.4 2.41, 124.89 -1.05, 221.25 0 M23.75 0 C73.3 -1.2, 123.01 0.2, 221.25 0 M221.25 0 C235.18 -2, 246.02 8.15, 245 23.75 M221.25 0 C238.83 -1.6, 244.66 8.83, 245 23.75 M245 23.75 C245.35 42.76, 246.06 59.24, 245 71.25 M245 23.75 C245.04 37.97, 244.83 50.54, 245 71.25 M245 71.25 C245.07 88.29, 237.09 96.36, 221.25 95 M245 71.25 C244.96 87.7, 236.96 93.7, 221.25 95 M221.25 95 C179.35 95.06, 133.9 97.37, 23.75 95 M221.25 95 C177.81 94.26, 132.36 93.75, 23.75 95 M23.75 95 C6.55 93.53, 0.2 85.32, 0 71.25 M23.75 95 C9.36 96.79, 0.62 88.48, 0 71.25 M0 71.25 C1.09 62.53, -1.09 49.28, 0 23.75 M0 71.25 C0.24 57.93, -0.34 44.81, 0 23.75 M0 23.75 C-1.97 6.11, 8.69 -0.29, 23.75 0 M0 23.75 C2.08 10.11, 7.48 0.12, 23.75 0" stroke="#1e1e1e" stroke-width="4" fill="none"></path></g><g transform="translate(511.20482209824263 193.71259312449502) rotate(0 81.89997100830078 17.5)"><text x="81.89997100830078" y="0" font-family="Virgil, Segoe UI Emoji" font-size="28px" fill="#1e1e1e" text-anchor="middle" style="white-space: pre;" direction="ltr" dominant-baseline="text-before-edge">Приложение</text></g><g stroke-linecap="round" transform="translate(955.7362893815637 162.67157346737258) rotate(0 122.5 47.5)"><path d="M23.75 0 M23.75 0 C94.45 -1.96, 166.63 0.21, 221.25 0 M221.25 0 C236.36 -1.34, 243.71 8.54, 245 23.75 M245 23.75 C246.52 40.59, 246.22 57.67, 245 71.25 M245 71.25 C243.16 88.19, 238.88 95.41, 221.25 95 M221.25 95 C156.35 93.83, 93.64 95.61, 23.75 95 M23.75 95 C8.25 95.99, 0.95 87.25, 0 71.25 M0 71.25 C0.63 58.38, 0.67 44.05, 0 23.75 M0 23.75 C-0.69 9.41, 7.95 1.12, 23.75 0" stroke="#1e1e1e" stroke-width="4.5" fill="none" stroke-dasharray="8 12"></path></g><g transform="translate(1000.3963235612512 175.17157346737258) rotate(0 77.8399658203125 35)"><text x="77.8399658203125" y="0" font-family="Virgil, Segoe UI Emoji" font-size="28px" fill="#1e1e1e" text-anchor="middle" style="white-space: pre;" direction="ltr" dominant-baseline="text-before-edge">Собранное </text><text x="77.8399658203125" y="35" font-family="Virgil, Segoe UI Emoji" font-size="28px" fill="#1e1e1e" text-anchor="middle" style="white-space: pre;" direction="ltr" dominant-baseline="text-before-edge">приложение</text></g><g stroke-linecap="round"><g transform="translate(306.67839511713487 66.71591419082665) rotate(0 75.29240682188033 59.75591616586928)"><path d="M-0.28 -0.58 C24.9 19.33, 125.49 98.87, 150.86 118.69 M1.77 1.72 C26.79 21.89, 124.78 100.5, 149.75 120.1" stroke="#1e1e1e" stroke-width="4" fill="none"></path></g><g transform="translate(306.67839511713487 66.71591419082665) rotate(0 75.29240682188033 59.75591616586928)"><path d="M148.86 119.17 L135.42 118.29 L142.3 106.8 L149.09 118.3" stroke="none" stroke-width="0" fill="#1e1e1e" fill-rule="evenodd"></path><path d="M149.02 119.69 C145.38 120.06, 140.82 116.92, 134.91 116.79 M150.27 119.4 C145.23 118.39, 140.22 117.07, 135.26 116.06 M135.07 117.06 C139.01 113.54, 140.47 109.48, 142.67 106.04 M134.74 116.19 C137.77 113.96, 140.25 110.78, 143.48 106.44 M143.88 108.02 C145.64 111.82, 147.7 116.53, 148.83 118.91 M143.42 107.03 C145.05 110.26, 147.57 113.99, 150.14 120.01 M149.75 120.1 C149.75 120.1, 149.75 120.1, 149.75 120.1 M149.75 120.1 C149.75 120.1, 149.75 120.1, 149.75 120.1" stroke="#1e1e1e" stroke-width="4" fill="none"></path></g></g><mask></mask><g stroke-linecap="round"><g transform="translate(288.31307782066233 216.7749753163987) rotate(0 83.07186452786273 -0.5596402494695667)"><path d="M-0.97 -0.34 C27 -0.63, 139.43 -0.73, 167.11 -0.95 M0.72 -1.57 C28.7 -1.75, 138.98 0.34, 166.79 0.46" stroke="#1e1e1e" stroke-width="4" fill="none"></path></g><g transform="translate(288.31307782066233 216.7749753163987) rotate(0 83.07186452786273 -0.5596402494695667)"><path d="M167.62 0.36 L152.1 5.45 L153.78 -4.55 L166.03 -0.48" stroke="none" stroke-width="0" fill="#1e1e1e" fill-rule="evenodd"></path><path d="M166.37 1.95 C163.23 0.85, 159.02 4.2, 152.18 5.24 M166.54 0.23 C162.7 2.67, 157.56 5.17, 153.23 6.72 M153.91 7.37 C154.34 1.85, 153.72 -1.97, 153.75 -6.64 M152.81 6.81 C152.92 2.33, 153.34 -2.98, 153.1 -6.12 M153.58 -6.69 C155.14 -5.11, 159.24 -3.83, 166.25 -0.34 M153.53 -6.8 C156.98 -3.8, 159.51 -3.04, 166.85 0.32 M166.79 0.46 C166.79 0.46, 166.79 0.46, 166.79 0.46 M166.79 0.46 C166.79 0.46, 166.79 0.46, 166.79 0.46" stroke="#1e1e1e" stroke-width="4" fill="none"></path></g></g><mask></mask><g stroke-linecap="round"><g transform="translate(303.4901714388295 393.06363881159666) rotate(0 76.48649367684433 -74.45428044570212)"><path d="M0.26 -1.12 C25.89 -25.88, 128.39 -123.59, 154.04 -148.16 M-1.07 0.9 C24.47 -24.21, 127.74 -124.55, 153.58 -149.81" stroke="#1e1e1e" stroke-width="4" fill="none"></path></g><g transform="translate(303.4901714388295 393.06363881159666) rotate(0 76.48649367684433 -74.45428044570212)"><path d="M153.41 -150.46 L147.61 -137.34 L139.17 -144.99 L154.29 -151.08" stroke="none" stroke-width="0" fill="#1e1e1e" fill-rule="evenodd"></path><path d="M152.17 -148.65 C153.06 -143.99, 150.86 -139.47, 149.73 -136 M153.64 -149.5 C151.63 -145.29, 149.37 -139.83, 148.82 -136.07 M147.26 -137.05 C146.4 -136.87, 142.71 -140.01, 139.46 -145.73 M148.45 -136.01 C146.37 -138.2, 143.54 -140.09, 139.08 -144.79 M138.49 -143.84 C143.61 -146.89, 146.56 -145.63, 153.09 -150 M138.77 -144.64 C143.12 -146.38, 148.17 -147.94, 153.9 -149.16 M153.58 -149.81 C153.58 -149.81, 153.58 -149.81, 153.58 -149.81 M153.58 -149.81 C153.58 -149.81, 153.58 -149.81, 153.58 -149.81" stroke="#1e1e1e" stroke-width="4" fill="none"></path></g></g><mask></mask><g mask="url(#mask-xXw4iWlvMW_RMDWt-oXjL)" stroke-linecap="round"><g transform="translate(673.031146216677 150.17843999640968) rotate(0 175.8782881147896 -18.719592748613763)"><path d="M0.69 -0.24 C28.64 -6.22, 108.4 -36.71, 166.98 -36.5 C225.55 -36.3, 321.64 -5.21, 352.16 1.01 M-0.4 -1.41 C27.97 -7.72, 110.5 -38.53, 169.21 -38.45 C227.92 -38.36, 321.77 -7.08, 351.85 -0.92" stroke="#1e1e1e" stroke-width="4" fill="none"></path></g><g transform="translate(673.031146216677 150.17843999640968) rotate(0 175.8782881147896 -18.719592748613763)"><path d="M321.59 0.4 C329.83 2.52, 337.82 -1.6, 352.82 -1.06 M322.63 1.1 C329.79 1.6, 336.95 0.42, 352.38 -1.51" stroke="#1e1e1e" stroke-width="4" fill="none"></path></g><g transform="translate(673.031146216677 150.17843999640968) rotate(0 175.8782881147896 -18.719592748613763)"><path d="M326.75 -19.46 C333.63 -12.49, 340.38 -11.79, 352.82 -1.06 M327.79 -18.76 C333.55 -13.34, 339.45 -9.62, 352.38 -1.51" stroke="#1e1e1e" stroke-width="4" fill="none"></path></g></g><mask id="mask-xXw4iWlvMW_RMDWt-oXjL"><rect x="0" y="0" fill="#fff" width="1124.315950094246" height="287.24225832510547"></rect><rect x="793.0832919449576" y="95.8271699129341" fill="#000" width="95.67597961425781" height="35" opacity="1"></rect></mask><g transform="translate(793.0832919449576 95.8271699129341) rotate(0 55.82614238650888 35.63167733486182)"><text x="47.837989807128906" y="0" font-family="Virgil, Segoe UI Emoji" font-size="28px" fill="#1e1e1e" text-anchor="middle" style="white-space: pre;" direction="ltr" dominant-baseline="text-before-edge">Сборка</text></g><g stroke-linecap="round"><g transform="translate(825.0720761152498 529.8527959788169) rotate(0 -1.9827054174002967 -185.12376602410086)"><path d="M0.12 -0.53 C-1.59 -33.46, -12.25 -135.68, -11.07 -197.6 C-9.89 -259.52, 4.17 -343.07, 7.19 -372.05 M-1.28 1.8 C-2.55 -31.01, -10.22 -134.54, -8.85 -196.6 C-7.48 -258.67, 4.18 -341.09, 6.95 -370.59" stroke="#1e1e1e" stroke-width="4" fill="none"></path></g><g transform="translate(825.0720761152498 529.8527959788169) rotate(0 -1.9827054174002967 -185.12376602410086)"><path d="M13.11 -343 C10.66 -346.52, 11.18 -353.49, 8.32 -369.53 M13.78 -342.31 C11.18 -350.64, 8.97 -360.33, 7.69 -371.32" stroke="#1e1e1e" stroke-width="4" fill="none"></path></g><g transform="translate(825.0720761152498 529.8527959788169) rotate(0 -1.9827054174002967 -185.12376602410086)"><path d="M-7.29 -345.29 C-5 -348.3, 0.25 -354.74, 8.32 -369.53 M-6.62 -344.61 C-2.89 -352.22, 1.2 -361.2, 7.69 -371.32" stroke="#1e1e1e" stroke-width="4" fill="none"></path></g></g><mask></mask><g transform="translate(386.7198136667515 543.9728929180502) rotate(0 443.5338439941406 52.5)"><text x="443.5338439941406" y="0" font-family="Virgil, Segoe UI Emoji" font-size="28px" fill="#1e1e1e" text-anchor="middle" style="white-space: pre;" direction="ltr" dominant-baseline="text-before-edge">При сборке все переменные окружения, пользовательски данные,</text><text x="443.5338439941406" y="35" font-family="Virgil, Segoe UI Emoji" font-size="28px" fill="#1e1e1e" text-anchor="middle" style="white-space: pre;" direction="ltr" dominant-baseline="text-before-edge">а также данные полученные по сети на момент сборки</text><text x="443.5338439941406" y="70" font-family="Virgil, Segoe UI Emoji" font-size="28px" fill="#1e1e1e" text-anchor="middle" style="white-space: pre;" direction="ltr" dominant-baseline="text-before-edge">зашиваются прямо внутрь (становятся статичными)</text></g></svg>
