<svg version="1.1" xmlns="http://www.w3.org/2000/svg" viewBox="0 0 1478.2857172775066 556.0161695828515" width="4434.85715183252" height="1668.0485087485545">
  <!-- svg-source:excalidraw -->

  <g stroke-linecap="round" transform="translate(10 226.09920979862113) rotate(0 162.5 22.5)"><path d="M11.25 0 M11.25 0 C85.42 0.7, 156.84 -0.73, 313.75 0 M11.25 0 C128.96 -1.31, 248.26 -0.99, 313.75 0 M313.75 0 C321.36 1.2, 323.78 4.39, 325 11.25 M313.75 0 C322.19 -2.15, 326.73 5.67, 325 11.25 M325 11.25 C326.27 16.39, 323.7 24.57, 325 33.75 M325 11.25 C325.51 16.46, 324.72 22.16, 325 33.75 M325 33.75 C325.68 42.13, 320.08 46.7, 313.75 45 M325 33.75 C326.99 39.93, 322.27 43.21, 313.75 45 M313.75 45 C217.09 41.76, 119.97 41.69, 11.25 45 M313.75 45 C200.23 43.8, 85.57 44.76, 11.25 45 M11.25 45 C2 45.76, 1.99 39.73, 0 33.75 M11.25 45 C2.72 43.88, 1.67 41.78, 0 33.75 M0 33.75 C1 24.73, 1.41 18.03, 0 11.25 M0 33.75 C0.56 28.18, -0.38 22.65, 0 11.25 M0 11.25 C-0.82 3.35, 4.95 -1.02, 11.25 0 M0 11.25 C2.11 4.34, 5.41 0.06, 11.25 0" stroke="#1e1e1e" stroke-width="4" fill="none"></path></g><g transform="translate(126.76200866699219 231.09920979862113) rotate(0 45.73799133300781 17.5)"><text x="45.73799133300781" y="0" font-family="Virgil, Segoe UI Emoji" font-size="28px" fill="#1e1e1e" text-anchor="middle" style="white-space: pre;" direction="ltr" dominant-baseline="text-before-edge">GET /</text></g><g stroke-linecap="round" transform="translate(343.44670997379035 282.722171140764) rotate(0 161 23.5)"><path d="M11.75 0 M11.75 0 C81.61 2.13, 149.73 1.54, 310.25 0 M310.25 0 C316.92 -0.66, 323.99 3.55, 322 11.75 M322 11.75 C323.02 18.76, 320.14 27.54, 322 35.25 M322 35.25 C321.48 43.36, 318.42 48.72, 310.25 47 M310.25 47 C223.49 47.89, 136.69 48.62, 11.75 47 M11.75 47 C2.74 47.65, -0.27 41.55, 0 35.25 M0 35.25 C-1.91 26.53, -2.04 21.62, 0 11.75 M0 11.75 C1.14 4.88, 2.92 1.76, 11.75 0" stroke="#1e1e1e" stroke-width="4.5" fill="none" stroke-dasharray="8 12"></path></g><g transform="translate(395.80674110172004 288.722171140764) rotate(0 108.63996887207031 17.5)"><text x="108.63996887207031" y="0" font-family="Virgil, Segoe UI Emoji" font-size="28px" fill="#1e1e1e" text-anchor="middle" style="white-space: pre;" direction="ltr" dominant-baseline="text-before-edge">Готовая сборка</text></g><g stroke-linecap="round" transform="translate(713.8665247641613 335.81804556071336) rotate(0 121.5 22)"><path d="M11 0 M11 0 C95.02 -0.42, 176.34 -1.96, 232 0 M11 0 C55.16 0.76, 100.44 0, 232 0 M232 0 C239.52 1.2, 242.47 2.76, 243 11 M232 0 C240.67 0.78, 244.86 2.53, 243 11 M243 11 C242.97 15.74, 244.09 20.4, 243 33 M243 11 C242.37 20.29, 242.35 27.55, 243 33 M243 33 C244.03 38.89, 240.23 45.11, 232 44 M243 33 C243.67 41.48, 239.23 41.83, 232 44 M232 44 C155.49 45.41, 76.42 45.25, 11 44 M232 44 C186.2 44.61, 141.74 46.02, 11 44 M11 44 C4.26 44.33, -1.83 41.52, 0 33 M11 44 C3.61 45.7, 1.6 42.4, 0 33 M0 33 C-1.01 27.17, 1.55 17.47, 0 11 M0 33 C-0.55 24.8, -0.02 17.73, 0 11 M0 11 C0.59 2.01, 4.48 -0.87, 11 0 M0 11 C-2.27 1.97, 2.96 -0.38, 11 0" stroke="#1e1e1e" stroke-width="4" fill="none"></path></g><g transform="translate(722.7359858237317 341.0505252100676) rotate(0 112.63053894042969 16.767520350645782)"><text x="112.63053894042969" y="0" font-family="Virgil, Segoe UI Emoji" font-size="26.828032561033215px" fill="#1e1e1e" text-anchor="middle" style="white-space: pre;" direction="ltr" dominant-baseline="text-before-edge">Отрисовка HTML</text></g><g stroke-linecap="round"><g transform="translate(685.7270681491957 80.7614845501023) rotate(0 2.982288992621818 232.1456804616422)"><path d="M-0.58 -0.96 C0.26 76.45, 3.14 387.62, 4.16 465.25 M1.31 1.15 C2.63 78.17, 5.9 386.75, 6.55 463.7" stroke="#1e1e1e" stroke-width="4" fill="none"></path></g></g><mask></mask><g transform="translate(947.534951815345 156.09835936090462) rotate(0 120.02197265625 35)"><text x="120.02197265625" y="0" font-family="Virgil, Segoe UI Emoji" font-size="28px" fill="#1e1e1e" text-anchor="middle" style="white-space: pre;" direction="ltr" dominant-baseline="text-before-edge">Где-то тут будет</text><text x="120.02197265625" y="35" font-family="Virgil, Segoe UI Emoji" font-size="28px" fill="#1e1e1e" text-anchor="middle" style="white-space: pre;" direction="ltr" dominant-baseline="text-before-edge">FCP</text></g><g transform="translate(16.54211853816969 19.05131073107168) rotate(0 131.50196838378906 17.5)"><text x="131.50196838378906" y="0" font-family="Virgil, Segoe UI Emoji" font-size="28px" fill="#1e1e1e" text-anchor="middle" style="white-space: pre;" direction="ltr" dominant-baseline="text-before-edge">Работа с сервером</text></g><g transform="translate(698.9585872025721 10) rotate(0 137.7599639892578 17.5)"><text x="137.7599639892578" y="0" font-family="Virgil, Segoe UI Emoji" font-size="28px" fill="#1e1e1e" text-anchor="middle" style="white-space: pre;" direction="ltr" dominant-baseline="text-before-edge">Работа с браузером</text></g><g transform="translate(1187.277782707194 212.98550023317193) rotate(0 140.50396728515625 17.5)"><text x="140.50396728515625" y="0" font-family="Virgil, Segoe UI Emoji" font-size="28px" fill="#1e1e1e" text-anchor="middle" style="white-space: pre;" direction="ltr" dominant-baseline="text-before-edge">А вот тут уже TTI</text></g><g stroke-linecap="round"><g transform="translate(1048.803603350697 229.81261592659735) rotate(0 -42.12818651383304 51.7714607252276)"><path d="M1.09 -0.27 C-2.3 8.66, -5.83 35.64, -20.12 53.19 C-34.42 70.73, -73.92 96.54, -84.66 105 M0.2 -1.46 C-3.33 7.69, -6.6 37.15, -20.86 54.6 C-35.12 72.05, -74.79 94.82, -85.35 103.23" stroke="#1e1e1e" stroke-width="4" fill="none"></path></g><g transform="translate(1048.803603350697 229.81261592659735) rotate(0 -42.12818651383304 51.7714607252276)"><path d="M-68.37 79.48 C-73.92 86.98, -77.25 94.86, -85.32 101.43 M-68.14 78.3 C-73.74 86.81, -78.83 96.56, -84.43 102.45" stroke="#1e1e1e" stroke-width="4" fill="none"></path></g><g transform="translate(1048.803603350697 229.81261592659735) rotate(0 -42.12818651383304 51.7714607252276)"><path d="M-56.75 96.4 C-65.93 98.63, -72.96 101.14, -85.32 101.43 M-56.52 95.21 C-66.19 97.98, -75.25 101.95, -84.43 102.45" stroke="#1e1e1e" stroke-width="4" fill="none"></path></g></g><mask></mask><g stroke-linecap="round"><g transform="translate(1339.8564622782392 260.72483071817135) rotate(0 -187.43459438203627 49.248907559494285)"><path d="M0.24 -1.01 C-17.36 10.37, -43.11 50.65, -105.48 67.16 C-167.86 83.67, -329.25 93.13, -374.02 98.07 M-1.09 1.07 C-18.77 12.25, -43.48 49.22, -105.82 65.63 C-168.15 82.03, -330.38 94.23, -375.11 99.51" stroke="#1e1e1e" stroke-width="4" fill="none"></path></g><g transform="translate(1339.8564622782392 260.72483071817135) rotate(0 -187.43459438203627 49.248907559494285)"><path d="M-349.76 88.47 C-354.8 89.61, -364.77 93.57, -376.9 98.74 M-347.86 87.13 C-358.44 91.97, -367.7 96.44, -375.29 99.03" stroke="#1e1e1e" stroke-width="4" fill="none"></path></g><g transform="translate(1339.8564622782392 260.72483071817135) rotate(0 -187.43459438203627 49.248907559494285)"><path d="M-347.73 108.89 C-353.22 103.63, -363.82 101.18, -376.9 98.74 M-345.84 107.55 C-357.27 104.72, -367.28 101.53, -375.29 99.03" stroke="#1e1e1e" stroke-width="4" fill="none"></path></g></g><mask></mask></svg>
