<svg version="1.1" xmlns="http://www.w3.org/2000/svg" viewBox="0 0 1478.2857172775066 665.6229215681659" width="4434.85715183252" height="1996.8687647044976">
  <!-- svg-source:excalidraw -->

  <g stroke-linecap="round" transform="translate(10 226.09920979862113) rotate(0 162.5 22.5)"><path d="M11.25 0 M11.25 0 C85.42 0.7, 156.84 -0.73, 313.75 0 M11.25 0 C128.96 -1.31, 248.26 -0.99, 313.75 0 M313.75 0 C321.36 1.2, 323.78 4.39, 325 11.25 M313.75 0 C322.19 -2.15, 326.73 5.67, 325 11.25 M325 11.25 C326.27 16.39, 323.7 24.57, 325 33.75 M325 11.25 C325.51 16.46, 324.72 22.16, 325 33.75 M325 33.75 C325.68 42.13, 320.08 46.7, 313.75 45 M325 33.75 C326.99 39.93, 322.27 43.21, 313.75 45 M313.75 45 C217.09 41.76, 119.97 41.69, 11.25 45 M313.75 45 C200.23 43.8, 85.57 44.76, 11.25 45 M11.25 45 C2 45.76, 1.99 39.73, 0 33.75 M11.25 45 C2.72 43.88, 1.67 41.78, 0 33.75 M0 33.75 C1 24.73, 1.41 18.03, 0 11.25 M0 33.75 C0.56 28.18, -0.38 22.65, 0 11.25 M0 11.25 C-0.82 3.35, 4.95 -1.02, 11.25 0 M0 11.25 C2.11 4.34, 5.41 0.06, 11.25 0" stroke="#1e1e1e" stroke-width="4" fill="none"></path></g><g transform="translate(126.76200866699219 231.09920979862113) rotate(0 45.73799133300781 17.5)"><text x="45.73799133300781" y="0" font-family="Virgil, Segoe UI Emoji" font-size="28px" fill="#1e1e1e" text-anchor="middle" style="white-space: pre;" direction="ltr" dominant-baseline="text-before-edge">GET /</text></g><g stroke-linecap="round" transform="translate(343.94773165465426 283.2231928216281) rotate(0 161 23.5)"><path d="M11.75 0 M11.75 0 C81.61 2.13, 149.73 1.54, 310.25 0 M11.75 0 C83.78 -2.01, 155.69 -2.07, 310.25 0 M310.25 0 C319.23 -0.61, 320.26 4.46, 322 11.75 M310.25 0 C317.48 0.32, 322.38 5.9, 322 11.75 M322 11.75 C322.37 17.47, 322.74 25.31, 322 35.25 M322 11.75 C321.31 17.71, 322.44 22.7, 322 35.25 M322 35.25 C320.17 42.12, 316.13 48.87, 310.25 47 M322 35.25 C323.32 44.19, 316.94 49.02, 310.25 47 M310.25 47 C236.04 49.18, 159.86 47.61, 11.75 47 M310.25 47 C227.1 46.29, 144.3 46.11, 11.75 47 M11.75 47 C3.54 47.8, 1.95 42.73, 0 35.25 M11.75 47 C2.91 46.27, -1.37 44.9, 0 35.25 M0 35.25 C-1.24 26.47, 1.96 17.71, 0 11.75 M0 35.25 C-0.91 30.9, 0.58 26.48, 0 11.75 M0 11.75 C-1.93 5.3, 2.78 -1.96, 11.75 0 M0 11.75 C0.02 3.62, 5.55 -2.06, 11.75 0" stroke="#1e1e1e" stroke-width="4" fill="none"></path></g><g transform="translate(459.64374605895114 289.2231928216281) rotate(0 45.303985595703125 17.5)"><text x="45.303985595703125" y="0" font-family="Virgil, Segoe UI Emoji" font-size="28px" fill="#1e1e1e" text-anchor="middle" style="white-space: pre;" direction="ltr" dominant-baseline="text-before-edge">Рендер</text></g><g stroke-linecap="round" transform="translate(713.3739949761932 335.32551577274523) rotate(0 142.14376261796338 22.5)"><path d="M11.25 0 M11.25 0 C110.51 -0.47, 207.27 -1.89, 273.04 0 M11.25 0 C63.72 0.85, 117.22 0.14, 273.04 0 M273.04 0 C280.73 1.2, 283.75 2.85, 284.29 11.25 M273.04 0 C281.88 0.78, 286.15 2.61, 284.29 11.25 M284.29 11.25 C284.26 16.12, 285.38 20.9, 284.29 33.75 M284.29 11.25 C283.66 20.73, 283.64 28.19, 284.29 33.75 M284.29 33.75 C285.31 39.8, 281.43 46.11, 273.04 45 M284.29 33.75 C284.95 42.39, 280.43 42.83, 273.04 45 M273.04 45 C182.06 46.56, 88.73 46.42, 11.25 45 M273.04 45 C218.89 45.78, 165.96 47.08, 11.25 45 M11.25 45 C4.34 45.33, -1.83 42.44, 0 33.75 M11.25 45 C3.7 46.7, 1.6 43.32, 0 33.75 M0 33.75 C-1.01 27.75, 1.55 17.89, 0 11.25 M0 33.75 C-0.55 25.37, -0.02 18.11, 0 11.25 M0 11.25 C0.59 2.09, 4.57 -0.87, 11.25 0 M0 11.25 C-2.27 2.05, 3.04 -0.38, 11.25 0" stroke="#1e1e1e" stroke-width="4" fill="none"></path></g><g transform="translate(737.931797205973 340.32551577274523) rotate(0 117.5859603881836 17.5)"><text x="117.5859603881836" y="0" font-family="Virgil, Segoe UI Emoji" font-size="28px" fill="#1e1e1e" text-anchor="middle" style="white-space: pre;" direction="ltr" dominant-baseline="text-before-edge">Отрисовка HTML</text></g><g stroke-linecap="round"><g transform="translate(685.7270681491957 80.7614845501023) rotate(0 2.982288992621818 232.1456804616422)"><path d="M-0.58 -0.96 C0.26 76.45, 3.14 387.62, 4.16 465.25 M1.31 1.15 C2.63 78.17, 5.9 386.75, 6.55 463.7" stroke="#1e1e1e" stroke-width="4" fill="none"></path></g></g><mask></mask><g transform="translate(316.4504723731766 585.6229215681659) rotate(0 188.2859344482422 35)"><text x="188.2859344482422" y="0" font-family="Virgil, Segoe UI Emoji" font-size="28px" fill="#1e1e1e" text-anchor="middle" style="white-space: pre;" direction="ltr" dominant-baseline="text-before-edge">Сервер должен зарендерить</text><text x="188.2859344482422" y="35" font-family="Virgil, Segoe UI Emoji" font-size="28px" fill="#1e1e1e" text-anchor="middle" style="white-space: pre;" direction="ltr" dominant-baseline="text-before-edge">часть приложения</text></g><g transform="translate(947.534951815345 156.09835936090462) rotate(0 120.02197265625 35)"><text x="120.02197265625" y="0" font-family="Virgil, Segoe UI Emoji" font-size="28px" fill="#1e1e1e" text-anchor="middle" style="white-space: pre;" direction="ltr" dominant-baseline="text-before-edge">Где-то тут будет</text><text x="120.02197265625" y="35" font-family="Virgil, Segoe UI Emoji" font-size="28px" fill="#1e1e1e" text-anchor="middle" style="white-space: pre;" direction="ltr" dominant-baseline="text-before-edge">FCP</text></g><g transform="translate(16.54211853816969 19.05131073107168) rotate(0 131.50196838378906 17.5)"><text x="131.50196838378906" y="0" font-family="Virgil, Segoe UI Emoji" font-size="28px" fill="#1e1e1e" text-anchor="middle" style="white-space: pre;" direction="ltr" dominant-baseline="text-before-edge">Работа с сервером</text></g><g transform="translate(698.9585872025721 10) rotate(0 137.7599639892578 17.5)"><text x="137.7599639892578" y="0" font-family="Virgil, Segoe UI Emoji" font-size="28px" fill="#1e1e1e" text-anchor="middle" style="white-space: pre;" direction="ltr" dominant-baseline="text-before-edge">Работа с браузером</text></g><g transform="translate(1187.277782707194 212.98550023317193) rotate(0 140.50396728515625 17.5)"><text x="140.50396728515625" y="0" font-family="Virgil, Segoe UI Emoji" font-size="28px" fill="#1e1e1e" text-anchor="middle" style="white-space: pre;" direction="ltr" dominant-baseline="text-before-edge">А вот тут уже TTI</text></g><g stroke-linecap="round"><g transform="translate(1048.803603350697 229.81261592659735) rotate(0 -69.81949442121947 47.131687396043844)"><path d="M1.09 -0.27 C-8.96 11.55, -36.58 54.55, -60.1 70.55 C-83.63 86.55, -126.73 91.71, -140.04 95.72 M0.2 -1.46 C-9.99 10.59, -37.35 56.07, -60.84 71.97 C-84.33 87.87, -127.6 89.99, -140.73 93.95" stroke="#1e1e1e" stroke-width="4" fill="none"></path></g><g transform="translate(1048.803603350697 229.81261592659735) rotate(0 -69.81949442121947 47.131687396043844)"><path d="M-115.36 79.34 C-123.55 84.01, -129.55 88.99, -140.7 92.15 M-115.14 78.15 C-123.66 83.56, -131.61 90.2, -139.81 93.17" stroke="#1e1e1e" stroke-width="4" fill="none"></path></g><g transform="translate(1048.803603350697 229.81261592659735) rotate(0 -69.81949442121947 47.131687396043844)"><path d="M-111.58 99.51 C-120.9 97.81, -128.1 96.38, -140.7 92.15 M-111.35 98.32 C-121.28 96.85, -130.53 96.58, -139.81 93.17" stroke="#1e1e1e" stroke-width="4" fill="none"></path></g></g><mask></mask><g stroke-linecap="round"><g transform="translate(1339.8564622782392 260.72483071817135) rotate(0 -167.03709665805695 48.16253490658988)"><path d="M0.24 -1.01 C-17.36 10.37, -49.9 51.01, -105.48 67.16 C-161.06 83.31, -295.26 91.32, -333.22 95.89 M-1.09 1.07 C-18.77 12.25, -50.28 49.58, -105.82 65.63 C-161.36 81.67, -296.39 92.42, -334.32 97.34" stroke="#1e1e1e" stroke-width="4" fill="none"></path></g><g transform="translate(1339.8564622782392 260.72483071817135) rotate(0 -167.03709665805695 48.16253490658988)"><path d="M-309.07 86.06 C-314.09 87.28, -324.02 91.31, -336.11 96.57 M-307.18 84.72 C-317.72 89.65, -326.93 94.21, -334.5 96.86" stroke="#1e1e1e" stroke-width="4" fill="none"></path></g><g transform="translate(1339.8564622782392 260.72483071817135) rotate(0 -167.03709665805695 48.16253490658988)"><path d="M-306.88 106.47 C-312.38 101.28, -323 98.91, -336.11 96.57 M-304.98 105.13 C-316.43 102.39, -326.47 99.29, -334.5 96.86" stroke="#1e1e1e" stroke-width="4" fill="none"></path></g></g><mask></mask></svg>
