<svg version="1.1" xmlns="http://www.w3.org/2000/svg" viewBox="0 0 1282.9326653524686 787.011472550203" width="3848.7979960574057" height="2361.034417650609">
  <!-- svg-source:excalidraw -->

  <g transform="translate(10 10) rotate(0 321.2279052734375 22.5)"><text x="321.2279052734375" y="0" font-family="Virgil, Segoe UI Emoji" font-size="36px" fill="#1e1e1e" text-anchor="middle" style="white-space: pre;" direction="ltr" dominant-baseline="text-before-edge">Server-side Rendering (без гидрации)</text></g><g stroke-linecap="round" transform="translate(14.131618755938462 104.42977394511308) rotate(0 94.5 33)"><path d="M16.5 0 M16.5 0 C50.71 1.29, 82.1 -0.1, 172.5 0 M16.5 0 C59.21 -0.12, 101.31 1, 172.5 0 M172.5 0 C182.41 0.06, 187.12 4.4, 189 16.5 M172.5 0 C184.6 0.72, 191.05 4.36, 189 16.5 M189 16.5 C187.6 25.19, 190.55 30.93, 189 49.5 M189 16.5 C188.17 23.89, 188.28 31.46, 189 49.5 M189 49.5 C190.49 60.86, 184.23 67.5, 172.5 66 M189 49.5 C187.56 59.01, 185.72 67.31, 172.5 66 M172.5 66 C123.83 64.24, 76.41 65.05, 16.5 66 M172.5 66 C125.45 64.59, 77.38 65.85, 16.5 66 M16.5 66 C6.13 65.98, -0.38 62.18, 0 49.5 M16.5 66 C7.2 63.9, -0.98 61, 0 49.5 M0 49.5 C-0.28 39.85, -0.45 35.42, 0 16.5 M0 49.5 C1.02 38.52, -0.17 27.09, 0 16.5 M0 16.5 C-1.21 4.59, 3.83 0.7, 16.5 0 M0 16.5 C-0.08 3.41, 5.1 0.9, 16.5 0" stroke="#1e1e1e" stroke-width="4" fill="none"></path></g><g transform="translate(43.531666058184555 124.92977394511308) rotate(0 65.0999526977539 12.5)"><text x="65.0999526977539" y="0" font-family="Virgil, Segoe UI Emoji" font-size="20px" fill="#1e1e1e" text-anchor="middle" style="white-space: pre;" direction="ltr" dominant-baseline="text-before-edge">Пользователь</text></g><g stroke-linecap="round" transform="translate(441.3415649984631 96.70254057771899) rotate(0 94.5 33)"><path d="M16.5 0 M16.5 0 C78.06 -0.69, 140.16 -2.87, 172.5 0 M16.5 0 C78.41 -0.82, 139.3 -1.13, 172.5 0 M172.5 0 C184.49 1.05, 188.12 4.87, 189 16.5 M172.5 0 C182.47 -1.51, 190.65 7.55, 189 16.5 M189 16.5 C189.58 28.98, 187.62 38.69, 189 49.5 M189 16.5 C188 29.5, 188.04 41.11, 189 49.5 M189 49.5 C188.99 59.66, 184.59 65.86, 172.5 66 M189 49.5 C189.43 60.53, 183.87 66.67, 172.5 66 M172.5 66 C135.55 63.48, 98.77 64.67, 16.5 66 M172.5 66 C111.86 68.29, 49.71 67.14, 16.5 66 M16.5 66 C4.26 66.35, -1.11 60.94, 0 49.5 M16.5 66 C6.97 64.57, -1.38 61.56, 0 49.5 M0 49.5 C-0.03 42.91, 0 31.39, 0 16.5 M0 49.5 C0.54 42.42, 0.11 35.74, 0 16.5 M0 16.5 C-0.36 4.2, 3.52 1.35, 16.5 0 M0 16.5 C1.48 4.91, 4.52 -0.04, 16.5 0" stroke="#1e1e1e" stroke-width="4" fill="none"></path></g><g transform="translate(499.6015900228772 117.20254057771899) rotate(0 36.23997497558594 12.5)"><text x="36.23997497558594" y="0" font-family="Virgil, Segoe UI Emoji" font-size="20px" fill="#1e1e1e" text-anchor="middle" style="white-space: pre;" direction="ltr" dominant-baseline="text-before-edge">Браузер</text></g><g stroke-linecap="round" transform="translate(856.796784129298 89.95128716372392) rotate(0 94.5 33)"><path d="M16.5 0 M16.5 0 C73.66 0.13, 131.31 1.16, 172.5 0 M16.5 0 C56.59 1.49, 95.72 -0.24, 172.5 0 M172.5 0 C185.41 -0.03, 189.15 5.47, 189 16.5 M172.5 0 C184.74 -0.61, 190.31 3.3, 189 16.5 M189 16.5 C189.32 28.18, 188.84 40.93, 189 49.5 M189 16.5 C188.41 23.57, 189.91 29.86, 189 49.5 M189 49.5 C189.74 62.48, 182.96 66.97, 172.5 66 M189 49.5 C191.13 62.26, 185.58 68.22, 172.5 66 M172.5 66 C133.12 68.08, 90.88 69.13, 16.5 66 M172.5 66 C125.49 68.09, 77.41 66.49, 16.5 66 M16.5 66 C6.2 64.76, -0.5 61.44, 0 49.5 M16.5 66 C6.88 66.66, 1.81 61.77, 0 49.5 M0 49.5 C-0.97 37.97, -1.44 22.43, 0 16.5 M0 49.5 C-0.86 40.3, 0.47 31.02, 0 16.5 M0 16.5 C0.64 3.6, 7.3 -1.64, 16.5 0 M0 16.5 C-2.16 5.42, 7.48 0.02, 16.5 0" stroke="#1e1e1e" stroke-width="4" fill="none"></path></g><g transform="translate(918.446816172755 110.45128716372392) rotate(0 32.84996795654297 12.5)"><text x="32.84996795654297" y="0" font-family="Virgil, Segoe UI Emoji" font-size="20px" fill="#1e1e1e" text-anchor="middle" style="white-space: pre;" direction="ltr" dominant-baseline="text-before-edge">Сервер</text></g><g stroke-linecap="round"><g transform="translate(106.97861734153526 172.12227033556428) rotate(0 2.8236738920736997 295.6125392272914)"><path d="M-0.44 0.85 C0.39 99.28, 2.76 491.79, 3.79 590.06 M1.53 0.25 C2.85 98.82, 5.41 492.46, 6.08 590.97" stroke="#1e1e1e" stroke-width="4" fill="none"></path></g></g><mask></mask><g stroke-linecap="round"><g transform="translate(535.9870675233418 162.95255087352393) rotate(0 0.32411305883209707 300.03563637170157)"><path d="M0.33 -1.02 C0.09 99.02, -0.6 499.44, -0.7 599.66 M-0.96 1.06 C-0.87 101.33, 1.64 501.57, 1.61 601.09" stroke="#1e1e1e" stroke-width="4" fill="none"></path></g></g><mask></mask><g stroke-linecap="round"><g transform="translate(955.5426301061917 161.4985974581648) rotate(0 2.301031164629194 307.0023046725287)"><path d="M-0.62 -0.3 C0.24 101.97, 4.18 511.7, 5.22 614.29 M1.25 -1.51 C1.96 100.87, 3.69 512.48, 4.33 615.51" stroke="#1e1e1e" stroke-width="4" fill="none"></path></g></g><mask></mask><g stroke-linecap="round"><g transform="translate(110.71066647151292 255.81101677983406) rotate(0 209.97855984465116 -0.5189047937379883)"><path d="M-0.11 -0.97 C70.01 -1.22, 351.26 -0.44, 421.58 -0.53 M-1.62 1.14 C68.33 1.08, 350.5 -1.95, 421.02 -2.18" stroke="#1e1e1e" stroke-width="4" fill="none"></path></g><g transform="translate(110.71066647151292 255.81101677983406) rotate(0 209.97855984465116 -0.5189047937379883)"><path d="M391.3 9.55 C404.79 6, 413.62 1.28, 422.53 -2.32 M393.13 8.93 C403.05 3.49, 414.55 0.95, 420.84 -1.78" stroke="#1e1e1e" stroke-width="4" fill="none"></path></g><g transform="translate(110.71066647151292 255.81101677983406) rotate(0 209.97855984465116 -0.5189047937379883)"><path d="M391.15 -10.98 C404.86 -6.88, 413.75 -3.98, 422.53 -2.32 M392.98 -11.59 C402.98 -9.42, 414.53 -4.34, 420.84 -1.78" stroke="#1e1e1e" stroke-width="4" fill="none"></path></g></g><mask></mask><g transform="translate(186.70824944038952 269.6220538562319) rotate(0 79.56993865966797 25)"><text x="79.56993865966797" y="0" font-family="Virgil, Segoe UI Emoji" font-size="20px" fill="#1e1e1e" text-anchor="middle" style="white-space: pre;" direction="ltr" dominant-baseline="text-before-edge">Хочу посмотреть</text><text x="79.56993865966797" y="25" font-family="Virgil, Segoe UI Emoji" font-size="20px" fill="#1e1e1e" text-anchor="middle" style="white-space: pre;" direction="ltr" dominant-baseline="text-before-edge">на сайт</text></g><g stroke-linecap="round"><g transform="translate(539.1044836265696 289.3012471304236) rotate(0 206.85518268702 0.8272649935996697)"><path d="M-0.78 -1.03 C67.75 -0.46, 343.35 2.36, 412.13 2.69 M1.01 1.04 C69.86 1.33, 345.6 0.83, 414.49 0.95" stroke="#1e1e1e" stroke-width="4" fill="none"></path></g><g transform="translate(539.1044836265696 289.3012471304236) rotate(0 206.85518268702 0.8272649935996697)"><path d="M384.58 10.09 C398.2 6.09, 405.92 5.44, 413.51 0.09 M386.36 11.27 C397.4 8.01, 407.38 3.22, 415.03 0.14" stroke="#1e1e1e" stroke-width="4" fill="none"></path></g><g transform="translate(539.1044836265696 289.3012471304236) rotate(0 206.85518268702 0.8272649935996697)"><path d="M384.57 -10.43 C398.07 -6.7, 405.79 0.38, 413.51 0.09 M386.36 -9.25 C397.5 -4.94, 407.48 -2.15, 415.03 0.14" stroke="#1e1e1e" stroke-width="4" fill="none"></path></g></g><mask></mask><g transform="translate(645.4605747245728 305.40184724215317) rotate(0 104.55992889404297 37.5)"><text x="104.55992889404297" y="0" font-family="Virgil, Segoe UI Emoji" font-size="20px" fill="#1e1e1e" text-anchor="middle" style="white-space: pre;" direction="ltr" dominant-baseline="text-before-edge">Пользователь хочет</text><text x="104.55992889404297" y="25" font-family="Virgil, Segoe UI Emoji" font-size="20px" fill="#1e1e1e" text-anchor="middle" style="white-space: pre;" direction="ltr" dominant-baseline="text-before-edge">посмотреть на сайт</text><text x="104.55992889404297" y="50" font-family="Virgil, Segoe UI Emoji" font-size="20px" fill="#1e1e1e" text-anchor="middle" style="white-space: pre;" direction="ltr" dominant-baseline="text-before-edge">дай мне все что есть</text></g><g stroke-linecap="round"><g transform="translate(949.339429782666 549.9752103579706) rotate(0 -205.40945760924902 -0.687459110343525)"><path d="M-0.45 0.19 C-68.89 -0.02, -342.82 -1.24, -411.52 -1.57 M1.52 -0.75 C-66.99 -0.78, -343.71 -0.32, -412.34 -0.34" stroke="#1e1e1e" stroke-width="4" fill="none"></path></g><g transform="translate(949.339429782666 549.9752103579706) rotate(0 -205.40945760924902 -0.687459110343525)"><path d="M-383.84 -10.21 C-391.66 -9.87, -398.47 -6.49, -411.24 -1.27 M-383.33 -10.02 C-395.6 -7.2, -405.23 -1.87, -413.06 0.22" stroke="#1e1e1e" stroke-width="4" fill="none"></path></g><g transform="translate(949.339429782666 549.9752103579706) rotate(0 -205.40945760924902 -0.687459110343525)"><path d="M-383.82 10.32 C-391.59 5.93, -398.41 4.6, -411.24 -1.27 M-383.31 10.5 C-395.62 5.29, -405.25 2.6, -413.06 0.22" stroke="#1e1e1e" stroke-width="4" fill="none"></path></g></g><mask></mask><g transform="translate(581.4632673310768 561.5070390718752) rotate(0 163.5198974609375 12.5)"><text x="163.5198974609375" y="0" font-family="Virgil, Segoe UI Emoji" font-size="20px" fill="#1e1e1e" text-anchor="middle" style="white-space: pre;" direction="ltr" dominant-baseline="text-before-edge">Я отрендерил все что мог, держи</text></g><g stroke-linecap="round"><g transform="translate(534.3018239994308 605.9628474273906) rotate(0 -211.33996981667426 0.08162137225269817)"><path d="M0.01 -0.19 C-70.42 -0.2, -351.69 -0.09, -422.04 -0.02 M-1.44 -1.34 C-72.03 -1.14, -352.5 1, -422.69 1.51" stroke="#1e1e1e" stroke-width="4" fill="none"></path></g><g transform="translate(534.3018239994308 605.9628474273906) rotate(0 -211.33996981667426 0.08162137225269817)"><path d="M-394.9 -8.02 C-404.33 -4.51, -413.63 -3.48, -423.35 2.52 M-395.44 -8.17 C-405.49 -5.86, -414.22 -2.07, -423.45 1.39" stroke="#1e1e1e" stroke-width="4" fill="none"></path></g><g transform="translate(534.3018239994308 605.9628474273906) rotate(0 -211.33996981667426 0.08162137225269817)"><path d="M-394.75 12.5 C-404.23 8.92, -413.59 2.85, -423.35 2.52 M-395.28 12.35 C-405.42 7.23, -414.21 3.59, -423.45 1.39" stroke="#1e1e1e" stroke-width="4" fill="none"></path></g></g><mask></mask><g transform="translate(250.10183903944494 620.2250220081316) rotate(0 71.26996612548828 12.5)"><text x="71.26996612548828" y="0" font-family="Virgil, Segoe UI Emoji" font-size="20px" fill="#1e1e1e" text-anchor="middle" style="white-space: pre;" direction="ltr" dominant-baseline="text-before-edge">Держи сайт :)</text></g><g stroke-linecap="round" transform="translate(21.960801387807123 584.9890455580808) rotate(0 26.153913461192587 26.153913461192587)"><path d="M16.51 2.6 C21.17 0.23, 28.7 0.69, 34.01 2.06 C39.31 3.43, 45.42 6.23, 48.35 10.8 C51.29 15.37, 52.19 23.61, 51.6 29.5 C51.01 35.38, 48.76 42.32, 44.81 46.1 C40.86 49.87, 33.72 51.86, 27.9 52.15 C22.08 52.43, 14.49 51.18, 9.89 47.83 C5.29 44.48, 1.4 37.54, 0.3 32.05 C-0.8 26.56, 0.1 19.94, 3.3 14.89 C6.5 9.83, 16.4 4.19, 19.5 1.74 C22.6 -0.72, 21.91 -0.18, 21.92 0.16 M32.89 -0.5 C38.15 0.62, 43.84 6.4, 47.22 11.26 C50.59 16.13, 53.31 23.27, 53.12 28.69 C52.94 34.11, 50.06 39.72, 46.1 43.77 C42.13 47.83, 35.1 52.4, 29.33 53.03 C23.55 53.67, 16.2 50.95, 11.45 47.57 C6.7 44.19, 2.56 37.88, 0.82 32.74 C-0.91 27.6, -1.39 21.96, 1.03 16.72 C3.45 11.48, 10.31 4.01, 15.34 1.28 C20.38 -1.44, 28.31 0.45, 31.24 0.36 C34.17 0.28, 32.79 0.23, 32.91 0.78" stroke="#1e1e1e" stroke-width="4" fill="none"></path></g><g transform="translate(31.47207565872003 614.9242908956004) rotate(0 16.591265645040494 5.744279197908497)" stroke="none"><path fill="#1e1e1e" d="M 1.86,-1.50 Q 1.86,-1.50 2.86,-0.23 3.86,1.04 4.83,2.16 5.80,3.28 6.86,4.33 7.93,5.37 9.05,6.06 10.18,6.76 11.33,7.33 12.49,7.91 13.62,8.19 14.75,8.46 15.94,8.62 17.13,8.78 18.28,8.83 19.43,8.88 21.18,8.59 22.93,8.30 24.59,7.22 26.25,6.13 27.09,5.30 27.93,4.48 29.48,2.53 31.03,0.58 31.37,0.30 31.70,0.01 32.11,-0.15 32.51,-0.32 32.95,-0.35 33.39,-0.38 33.82,-0.27 34.25,-0.16 34.61,0.08 34.98,0.32 35.25,0.67 35.53,1.01 35.67,1.43 35.82,1.85 35.82,2.29 35.83,2.73 35.69,3.15 35.56,3.57 35.30,3.92 35.03,4.28 34.67,4.53 34.31,4.78 33.89,4.90 33.46,5.03 33.02,5.01 32.58,4.99 32.17,4.83 31.76,4.68 31.42,4.39 31.08,4.11 30.85,3.74 30.61,3.36 30.51,2.93 30.41,2.51 30.46,2.07 30.50,1.63 30.68,1.22 30.86,0.82 31.16,0.50 31.46,0.17 31.84,-0.03 32.23,-0.24 32.66,-0.32 33.10,-0.39 33.54,-0.33 33.97,-0.26 34.36,-0.06 34.76,0.13 35.06,0.45 35.37,0.76 35.56,1.16 35.75,1.56 35.80,2.00 35.86,2.44 35.77,2.87 35.68,3.30 35.46,3.68 35.23,4.06 35.23,4.06 35.23,4.06 33.42,6.17 31.60,8.28 30.47,9.36 29.34,10.43 28.14,11.26 26.94,12.09 25.52,12.74 24.09,13.39 22.70,13.65 21.30,13.90 20.19,13.86 19.08,13.83 17.73,13.70 16.38,13.57 14.92,13.31 13.47,13.06 11.90,12.58 10.34,12.10 9.01,11.38 7.69,10.66 6.20,9.69 4.71,8.72 3.47,7.54 2.24,6.36 1.22,5.18 0.19,3.99 -0.83,2.75 -1.86,1.50 -2.02,1.26 -2.17,1.01 -2.26,0.74 -2.35,0.46 -2.37,0.17 -2.39,-0.11 -2.35,-0.39 -2.30,-0.68 -2.18,-0.94 -2.07,-1.21 -1.89,-1.44 -1.72,-1.67 -1.49,-1.85 -1.27,-2.03 -1.00,-2.15 -0.74,-2.28 -0.46,-2.33 -0.17,-2.39 0.11,-2.38 0.39,-2.36 0.67,-2.28 0.95,-2.20 1.20,-2.05 1.45,-1.91 1.66,-1.70 1.86,-1.50 1.86,-1.50 L 1.86,-1.50 Z"></path></g><g transform="translate(40.98693413046357 596.2852518426532) rotate(0 -0.4390646017536284 6.605682130872651)" stroke="none"><path fill="#1e1e1e" d="M 2.36,0.28 Q 2.36,0.28 2.06,2.14 1.76,3.99 1.62,5.51 1.48,7.03 1.45,8.32 1.43,9.62 1.40,11.36 1.37,13.11 1.30,13.48 1.23,13.85 1.05,14.18 0.86,14.51 0.58,14.76 0.30,15.02 -0.03,15.17 -0.38,15.32 -0.76,15.35 -1.13,15.39 -1.50,15.30 -1.87,15.21 -2.19,15.01 -2.51,14.81 -2.75,14.51 -2.98,14.22 -3.12,13.87 -3.25,13.51 -3.26,13.14 -3.28,12.76 -3.17,12.40 -3.06,12.03 -2.84,11.72 -2.62,11.42 -2.32,11.19 -2.01,10.97 -1.65,10.86 -1.29,10.74 -0.91,10.75 -0.53,10.76 -0.18,10.89 0.17,11.02 0.46,11.25 0.76,11.49 0.97,11.80 1.17,12.12 1.27,12.49 1.36,12.85 1.33,13.23 1.30,13.61 1.16,13.95 1.01,14.30 0.76,14.59 0.51,14.87 0.18,15.06 -0.14,15.25 -0.51,15.32 -0.88,15.39 -1.25,15.34 -1.63,15.30 -1.97,15.13 -2.31,14.96 -2.58,14.70 -2.85,14.43 -3.02,14.10 -3.19,13.76 -3.24,13.38 -3.29,13.01 -3.29,13.01 -3.29,13.01 -3.23,11.21 -3.17,9.40 -3.07,8.00 -2.98,6.60 -2.82,5.03 -2.66,3.45 -2.51,1.58 -2.36,-0.28 -2.29,-0.56 -2.22,-0.84 -2.09,-1.09 -1.95,-1.35 -1.76,-1.56 -1.57,-1.78 -1.34,-1.94 -1.10,-2.10 -0.83,-2.20 -0.56,-2.31 -0.28,-2.34 0.00,-2.37 0.28,-2.34 0.56,-2.31 0.83,-2.20 1.10,-2.10 1.34,-1.94 1.57,-1.78 1.76,-1.56 1.95,-1.35 2.09,-1.09 2.22,-0.84 2.29,-0.56 2.36,-0.28 2.36,0.00 2.36,0.28 2.36,0.28 L 2.36,0.28 Z"></path></g><g transform="translate(53.44322675055372 596.4489303472525) rotate(0 0.25627035939088216 6.019067928257641)" stroke="none"><path fill="#1e1e1e" d="M 2.52,-0.27 Q 2.52,-0.27 2.67,1.08 2.82,2.43 2.92,3.55 3.02,4.67 3.12,8.28 3.22,11.88 3.15,12.32 3.08,12.75 2.88,13.14 2.67,13.53 2.36,13.83 2.04,14.13 1.64,14.32 1.24,14.51 0.81,14.55 0.37,14.60 -0.05,14.51 -0.48,14.42 -0.85,14.19 -1.23,13.97 -1.52,13.63 -1.80,13.30 -1.97,12.89 -2.13,12.49 -2.16,12.05 -2.18,11.61 -2.07,11.19 -1.95,10.76 -1.70,10.40 -1.46,10.04 -1.11,9.77 -0.76,9.50 -0.35,9.36 0.06,9.22 0.50,9.22 0.94,9.22 1.35,9.35 1.77,9.49 2.12,9.76 2.47,10.02 2.72,10.38 2.96,10.75 3.08,11.17 3.20,11.59 3.18,12.03 3.16,12.47 3.00,12.88 2.84,13.28 2.55,13.62 2.27,13.96 1.90,14.18 1.52,14.41 1.09,14.51 0.66,14.60 0.23,14.56 -0.20,14.51 -0.60,14.33 -1.00,14.14 -1.32,13.84 -1.64,13.54 -1.84,13.16 -2.05,12.77 -2.12,12.34 -2.20,11.90 -2.20,11.90 -2.20,11.90 -2.20,9.28 -2.21,6.65 -2.22,4.81 -2.23,2.98 -2.38,1.62 -2.52,0.27 -2.52,-0.03 -2.51,-0.33 -2.44,-0.63 -2.36,-0.93 -2.21,-1.19 -2.07,-1.46 -1.86,-1.69 -1.66,-1.92 -1.40,-2.09 -1.15,-2.26 -0.86,-2.36 -0.57,-2.47 -0.27,-2.50 0.03,-2.54 0.33,-2.49 0.63,-2.45 0.92,-2.34 1.20,-2.23 1.45,-2.05 1.70,-1.88 1.90,-1.64 2.10,-1.41 2.24,-1.14 2.38,-0.87 2.45,-0.57 2.52,-0.27 2.52,-0.27 L 2.52,-0.27 Z"></path></g><g stroke-linecap="round" transform="translate(947.3238726837246 419.8464355059191) rotate(0 11.104959128065389 64.24414168937324)"><path d="M5.76 -1.1 L17.91 0.48 L21.39 6.14 L20.74 124.09 L19.41 128.31 L15.34 127.97 L3.96 127.04 L-1.09 122.44 L-0.25 4.87 L1.66 0.59 L6.16 -0.27" stroke="none" stroke-width="0" fill="#ffffff"></path><path d="M5.55 0 M5.55 0 C10.09 0.98, 14.28 -0.87, 16.66 0 M5.55 0 C8.24 -0.33, 11.51 0.18, 16.66 0 M16.66 0 C21.65 -1.32, 23.75 0.48, 22.21 5.55 M16.66 0 C19.55 -1.96, 22.59 2.96, 22.21 5.55 M22.21 5.55 C22.75 37.4, 20.73 66.04, 22.21 122.94 M22.21 5.55 C23.15 37.05, 22.51 69.73, 22.21 122.94 M22.21 122.94 C22.12 124.74, 18.69 127.49, 16.66 128.49 M22.21 122.94 C20.45 124.73, 20.15 128.48, 16.66 128.49 M16.66 128.49 C14.87 129.02, 11.31 128.88, 5.55 128.49 M16.66 128.49 C13.38 128.84, 10.39 128.62, 5.55 128.49 M5.55 128.49 C2.05 129.3, 0.51 126.97, 0 122.94 M5.55 128.49 C0.11 129.31, -0.58 126.94, 0 122.94 M0 122.94 C-0.94 96.38, 1.05 71.75, 0 5.55 M0 122.94 C0.27 98.91, 0.68 74.5, 0 5.55 M0 5.55 C1.71 3.46, 1.57 1.16, 5.55 0 M0 5.55 C0.53 2.2, 1.03 1.92, 5.55 0" stroke="#1e1e1e" stroke-width="4" fill="none"></path></g><g transform="translate(991.2928338094999 452.2831553934957) rotate(0 140.81991577148438 25)"><text x="140.81991577148438" y="0" font-family="Virgil, Segoe UI Emoji" font-size="20px" fill="#1e1e1e" text-anchor="middle" style="white-space: pre;" direction="ltr" dominant-baseline="text-before-edge">Погоди, дай мне зарендерить</text><text x="140.81991577148438" y="25" font-family="Virgil, Segoe UI Emoji" font-size="20px" fill="#1e1e1e" text-anchor="middle" style="white-space: pre;" direction="ltr" dominant-baseline="text-before-edge">все что могу самому</text></g></svg>
