<svg version="1.1" xmlns="http://www.w3.org/2000/svg" viewBox="0 0 765.6712217286629 288.22742531619815" width="2297.0136651859884" height="864.6822759485945">
  <!-- svg-source:excalidraw -->
  <g stroke-linecap="round"><g transform="translate(251.06066257502286 73.47699298090924) rotate(0 0.0101751835350683 72.56227419318805)"><path d="M-0.85 0.64 C-1.06 24.65, -0.01 120.14, -0.16 144 M0.9 -0.08 C0.5 24.1, -0.75 121.08, -0.81 145.2" stroke="#1e1e1e" stroke-width="4" fill="none"></path></g></g><mask></mask><g stroke-linecap="round"><g transform="translate(511.7839340815842 75.42572310196306) rotate(0 0.21936145452215783 72.13037414619873)"><path d="M1.05 -0.88 C1.19 23.24, 0.3 120.94, -0.04 145.14 M0.15 1.27 C0.25 24.99, -0.29 119.25, -0.63 143.28" stroke="#1e1e1e" stroke-width="4" fill="none"></path></g></g><mask></mask><g stroke-linecap="round" transform="translate(10 105.39452714387426) rotate(0 111.95279915906548 45.42131497745078)"><path d="M5.39 6.01 C5.39 6.01, 5.39 6.01, 5.39 6.01 M5.39 6.01 C5.39 6.01, 5.39 6.01, 5.39 6.01 M9.59 25.56 C14.4 17.32, 24.34 10.47, 27.96 4.43 M9.59 25.56 C13.5 20.24, 19.24 15.45, 27.96 4.43 M9.86 49.64 C21.14 37.31, 33.17 25.08, 49.22 4.36 M9.86 49.64 C23.32 35.34, 35.1 19.99, 49.22 4.36 M6.19 78.25 C21.27 60.87, 36.73 42.16, 70.48 4.29 M6.19 78.25 C25.18 57.16, 44.79 34.78, 70.48 4.29 M15.64 91.77 C40.17 61.56, 64.81 35.3, 91.74 4.22 M15.64 91.77 C34.97 69.18, 53.44 48.23, 91.74 4.22 M30.99 98.49 C54.82 70.96, 80.46 41.19, 113 4.16 M30.99 98.49 C56.54 69.11, 83.95 38.92, 113 4.16 M52.25 98.42 C78.51 68.88, 107.71 38.08, 133.61 4.84 M52.25 98.42 C71.79 73.53, 94.17 50.9, 133.61 4.84 M73.52 98.36 C99.01 70.81, 123.59 39.93, 154.87 4.77 M73.52 98.36 C98.21 68.05, 124.36 40.8, 154.87 4.77 M94.78 98.29 C110.95 79.77, 128.24 57.77, 176.13 4.7 M94.78 98.29 C127.88 61.36, 158.81 25.68, 176.13 4.7 M116.04 98.22 C149.8 60.45, 179.01 22.87, 201.32 0.11 M116.04 98.22 C146.71 62.36, 178.47 26.97, 201.32 0.11 M137.3 98.15 C159.14 74.16, 179.82 50.78, 216.68 6.83 M137.3 98.15 C167.99 62.66, 200.27 25.65, 216.68 6.83 M158.56 98.08 C179.32 70.55, 201.38 45.72, 226.79 19.59 M158.56 98.08 C177.41 76.52, 196.55 52.51, 226.79 19.59 M179.82 98.01 C197.83 77.55, 216.75 57.87, 226.4 44.43 M179.82 98.01 C188.43 87.85, 198.61 77.01, 226.4 44.43 M204.36 94.17 C209.71 88.22, 217.49 80.66, 225.35 70.02 M204.36 94.17 C212.57 85.89, 219.93 75.46, 225.35 70.02" stroke="#b2f2bb" stroke-width="2" fill="none"></path><path d="M22.71 0 M22.71 0 C84.69 -0.03, 147.79 1.01, 201.19 0 M22.71 0 C69.43 1.12, 118.85 1.93, 201.19 0 M201.19 0 C216.69 -0.7, 225.7 6.42, 223.91 22.71 M201.19 0 C217.76 -2.26, 224.15 6.61, 223.91 22.71 M223.91 22.71 C222.7 36.13, 223.33 46.94, 223.91 68.13 M223.91 22.71 C222.84 36.64, 223.55 51.17, 223.91 68.13 M223.91 68.13 C224.78 82.09, 215.65 89.83, 201.19 90.84 M223.91 68.13 C224.83 84.02, 214.9 90.42, 201.19 90.84 M201.19 90.84 C134.75 88.89, 63.73 88.21, 22.71 90.84 M201.19 90.84 C161.91 92.21, 123 93.3, 22.71 90.84 M22.71 90.84 C7.01 90.2, 0.41 82.06, 0 68.13 M22.71 90.84 C8.75 89.12, 1.28 81.28, 0 68.13 M0 68.13 C-1.6 52.19, -0.86 33.47, 0 22.71 M0 68.13 C0.19 57.27, -0.31 46.21, 0 22.71 M0 22.71 C-1.37 6.59, 9.16 -1.41, 22.71 0 M0 22.71 C-1.72 6.37, 7.83 0.33, 22.71 0" stroke="#2f9e44" stroke-width="4" fill="none"></path></g><g transform="translate(75.69681771375298 133.31584212132498) rotate(0 46.2559814453125 17.5)"><text x="46.2559814453125" y="0" font-family="Virgil, Segoe UI Emoji" font-size="28px" fill="#2f9e44" text-anchor="middle" style="white-space: pre;" direction="ltr" dominant-baseline="text-before-edge">Хорошо</text></g><g stroke-linecap="round" transform="translate(531.7656234105319 103.93611610321796) rotate(0 111.95279915906548 45.42131497745078)"><path d="M5.39 6.01 C5.39 6.01, 5.39 6.01, 5.39 6.01 M5.39 6.01 C5.39 6.01, 5.39 6.01, 5.39 6.01 M9.59 25.56 C15.08 21.24, 21.59 12.83, 27.96 4.43 M9.59 25.56 C16.09 17.96, 22.35 11.33, 27.96 4.43 M9.86 49.64 C25.37 30.09, 41.05 15.33, 49.22 4.36 M9.86 49.64 C21.27 34.98, 34.45 21.32, 49.22 4.36 M6.19 78.25 C26.81 56.52, 42.04 36.31, 70.48 4.29 M6.19 78.25 C19.8 63.44, 32.56 48.74, 70.48 4.29 M15.64 91.77 C42.19 62.95, 67.17 34.37, 91.74 4.22 M15.64 91.77 C44.87 56.47, 75.26 21.86, 91.74 4.22 M30.99 98.49 C53.69 73.63, 75.02 47.49, 113 4.16 M30.99 98.49 C52.95 76.08, 72.45 51.5, 113 4.16 M52.25 98.42 C82.51 61.69, 115.32 24.63, 133.61 4.84 M52.25 98.42 C83.07 64.19, 112.01 30.44, 133.61 4.84 M73.52 98.36 C88.89 79.66, 105.57 61.05, 154.87 4.77 M73.52 98.36 C93.84 76.55, 112.41 53.49, 154.87 4.77 M94.78 98.29 C127.2 63.32, 155.01 27.05, 176.13 4.7 M94.78 98.29 C113.39 76.69, 132.13 57.02, 176.13 4.7 M116.04 98.22 C138.34 72.38, 161.25 45.78, 201.32 0.11 M116.04 98.22 C134.58 76.72, 152.06 56.17, 201.32 0.11 M137.3 98.15 C155.11 78.53, 172.45 57.44, 216.68 6.83 M137.3 98.15 C157.98 75.68, 175.7 53.7, 216.68 6.83 M158.56 98.08 C179.2 75.14, 199.2 51.85, 226.79 19.59 M158.56 98.08 C181.83 71.14, 204.45 44.72, 226.79 19.59 M179.82 98.01 C191.1 85.33, 204.61 70.41, 226.4 44.43 M179.82 98.01 C194.15 80.24, 208.78 63.75, 226.4 44.43 M204.36 94.17 C210.46 84.39, 217.77 76.67, 225.35 70.02 M204.36 94.17 C209.39 87.2, 215.41 81.08, 225.35 70.02" stroke="#ffc9c9" stroke-width="2" fill="none"></path><path d="M22.71 0 M22.71 0 C85.65 -1.35, 144.16 -2.13, 201.19 0 M22.71 0 C67.61 1.79, 112.47 0.82, 201.19 0 M201.19 0 C215.46 -1.46, 223.53 6.82, 223.91 22.71 M201.19 0 C217.66 1.33, 225.15 8.36, 223.91 22.71 M223.91 22.71 C224.07 37.17, 222.9 52.49, 223.91 68.13 M223.91 22.71 C222.96 33.34, 224.47 44.26, 223.91 68.13 M223.91 68.13 C225.91 82.46, 218.01 89.38, 201.19 90.84 M223.91 68.13 C221.65 83.64, 216.74 89.09, 201.19 90.84 M201.19 90.84 C139.38 89.48, 75.22 89.94, 22.71 90.84 M201.19 90.84 C156.55 91.84, 111.78 90.98, 22.71 90.84 M22.71 90.84 C6.72 91.54, 0.4 81.73, 0 68.13 M22.71 90.84 C9.35 91.77, -1.95 85.15, 0 68.13 M0 68.13 C-0.51 55.75, 1.34 45.82, 0 22.71 M0 68.13 C-0.93 51.57, -0.4 35.69, 0 22.71 M0 22.71 C-1.22 9.11, 9.5 -0.28, 22.71 0 M0 22.71 C2.22 5.68, 9.27 -0.26, 22.71 0" stroke="#e03131" stroke-width="4" fill="none"></path></g><g transform="translate(601.8304373401052 131.85743108066868) rotate(0 41.88798522949219 17.5)"><text x="41.88798522949219" y="0" font-family="Virgil, Segoe UI Emoji" font-size="28px" fill="#e03131" text-anchor="middle" style="white-space: pre;" direction="ltr" dominant-baseline="text-before-edge">Плохо</text></g><g stroke-linecap="round" transform="translate(267.3496999084466 106.49791461801897) rotate(0 111.95279915906548 45.42131497745078)"><path d="M5.39 6.01 C5.39 6.01, 5.39 6.01, 5.39 6.01 M5.39 6.01 C5.39 6.01, 5.39 6.01, 5.39 6.01 M9.59 25.56 C17.3 17.74, 22.07 9.97, 27.96 4.43 M9.59 25.56 C16.6 17.88, 24.28 9.46, 27.96 4.43 M9.86 49.64 C17.54 42.26, 25.74 31.57, 49.22 4.36 M9.86 49.64 C26.28 31.53, 40.92 14.52, 49.22 4.36 M6.19 78.25 C21.45 59.25, 39.26 36.23, 70.48 4.29 M6.19 78.25 C27.41 54.03, 49.38 28.27, 70.48 4.29 M15.64 91.77 C42.89 61.64, 69.56 31.72, 91.74 4.22 M15.64 91.77 C46.7 56.28, 76.32 21.87, 91.74 4.22 M30.99 98.49 C52.57 72.52, 74.51 45.06, 113 4.16 M30.99 98.49 C56.28 67.49, 82.94 37.42, 113 4.16 M52.25 98.42 C81.8 64.06, 113.45 29.36, 133.61 4.84 M52.25 98.42 C69.55 78.02, 87.48 56.92, 133.61 4.84 M73.52 98.36 C91.85 77.09, 111.36 53.44, 154.87 4.77 M73.52 98.36 C92.8 74.56, 114.53 51.35, 154.87 4.77 M94.78 98.29 C108.73 78.72, 125.19 60.25, 176.13 4.7 M94.78 98.29 C126.76 63.37, 156.77 26.11, 176.13 4.7 M116.04 98.22 C142.46 67.45, 169.56 36.17, 201.32 0.11 M116.04 98.22 C138 72.4, 159.56 46.2, 201.32 0.11 M137.3 98.15 C167.93 62.32, 198.07 25.21, 216.68 6.83 M137.3 98.15 C155.73 75.29, 176.49 53.05, 216.68 6.83 M158.56 98.08 C170.84 83.87, 187.2 66.58, 226.79 19.59 M158.56 98.08 C185.12 67.35, 212.26 34.36, 226.79 19.59 M179.82 98.01 C196.2 79.74, 211.1 63.34, 226.4 44.43 M179.82 98.01 C195.33 80.09, 212.56 60.37, 226.4 44.43 M204.36 94.17 C211.35 84.29, 219.63 76.94, 225.35 70.02 M204.36 94.17 C210.82 86.7, 216.7 80.04, 225.35 70.02" stroke="#ffec99" stroke-width="2" fill="none"></path><path d="M22.71 0 M22.71 0 C91.46 -0.75, 161.85 0.5, 201.19 0 M22.71 0 C65.7 -1.53, 107.64 -2, 201.19 0 M201.19 0 C215.96 -0.75, 225.06 8.72, 223.91 22.71 M201.19 0 C217.58 0.79, 224.11 6.53, 223.91 22.71 M223.91 22.71 C223.19 41.91, 222.9 56.28, 223.91 68.13 M223.91 22.71 C224.51 34.15, 224.62 46.68, 223.91 68.13 M223.91 68.13 C225.58 81.81, 214.38 91.16, 201.19 90.84 M223.91 68.13 C224.31 81.52, 217.44 89.79, 201.19 90.84 M201.19 90.84 C142.6 88.1, 86.54 90.43, 22.71 90.84 M201.19 90.84 C142.7 91.13, 81.98 91.93, 22.71 90.84 M22.71 90.84 C7.97 89.3, 1.55 84.08, 0 68.13 M22.71 90.84 C5.62 92.72, -0.99 83.63, 0 68.13 M0 68.13 C1.52 54.65, 1.28 38.95, 0 22.71 M0 68.13 C0.01 56.18, -0.17 44.65, 0 22.71 M0 22.71 C1.93 7.29, 9.5 -1.64, 22.71 0 M0 22.71 C1.7 7.31, 7.3 -1.11, 22.71 0" stroke="#f08c00" stroke-width="4" fill="none"></path></g><g transform="translate(278.7825329420238 134.4192295954697) rotate(0 100.51996612548828 17.5)"><text x="100.51996612548828" y="0" font-family="Virgil, Segoe UI Emoji" font-size="28px" fill="#f08c00" text-anchor="middle" style="white-space: pre;" direction="ltr" dominant-baseline="text-before-edge">Можно и лучше</text></g><g transform="translate(15.053921032879884 10) rotate(0 211.32989501953125 17.5)"><text x="0" y="0" font-family="Virgil, Segoe UI Emoji" font-size="28px" fill="#1e1e1e" text-anchor="start" style="white-space: pre;" direction="ltr" dominant-baseline="text-before-edge">CLS (Cumulative Layout Shift)</text></g><g transform="translate(233.37006382959828 241.72357668441214) rotate(0 17.261993408203125 17.5)"><text x="17.261993408203125" y="0" font-family="Virgil, Segoe UI Emoji" font-size="28px" fill="#1e1e1e" text-anchor="middle" style="white-space: pre;" direction="ltr" dominant-baseline="text-before-edge">0.1</text></g><g transform="translate(486.2552335491491 243.22742531619815) rotate(0 32.087989807128906 17.5)"><text x="32.087989807128906" y="0" font-family="Virgil, Segoe UI Emoji" font-size="28px" fill="#1e1e1e" text-anchor="middle" style="white-space: pre;" direction="ltr" dominant-baseline="text-before-edge">0.25</text></g></svg>
