<svg version="1.1" xmlns="http://www.w3.org/2000/svg" viewBox="0 0 1357.6492942811865 450.134040893832" width="4072.9478828435595" height="1350.402122681496">
  <!-- svg-source:excalidraw -->

  <g stroke-linecap="round" transform="translate(11.387881048455256 54.6693906615576) rotate(0 214.5 69)"><path d="M32 0 M32 0 C162.23 -0.16, 292.38 -0.68, 397 0 M32 0 C136.4 2.14, 241.22 1.22, 397 0 M397 0 C419.44 -0.98, 427.9 9.09, 429 32 M397 0 C418.07 0.53, 430.26 9.93, 429 32 M429 32 C428.1 50.35, 430.14 66, 429 106 M429 32 C428.01 49.6, 428.71 69.51, 429 106 M429 106 C427.29 127.67, 420.29 139.93, 397 138 M429 106 C428.02 127.27, 419.88 138.72, 397 138 M397 138 C291.55 137.19, 185.33 138.55, 32 138 M397 138 C277.13 139.21, 158.66 138.99, 32 138 M32 138 C11.05 136.43, 0.18 126.16, 0 106 M32 138 C11.9 136.1, 1.23 129.41, 0 106 M0 106 C0.96 79.09, 2.01 53.99, 0 32 M0 106 C-0.47 89.95, -0.46 75.06, 0 32 M0 32 C1.62 12.07, 8.76 -1.73, 32 0 M0 32 C-0.95 10.74, 10.44 -1.44, 32 0" stroke="#1e1e1e" stroke-width="4" fill="none"></path></g><g transform="translate(31.39798236681463 86.1693906615576) rotate(0 194.48989868164062 37.5)"><text x="194.48989868164062" y="0" font-family="Virgil, Segoe UI Emoji" font-size="20px" fill="#1e1e1e" text-anchor="middle" style="white-space: pre;" direction="ltr" dominant-baseline="text-before-edge">Время, которое нужно для того чтобы </text><text x="194.48989868164062" y="25" font-family="Virgil, Segoe UI Emoji" font-size="20px" fill="#1e1e1e" text-anchor="middle" style="white-space: pre;" direction="ltr" dominant-baseline="text-before-edge">получить первый байт контента для </text><text x="194.48989868164062" y="50" font-family="Virgil, Segoe UI Emoji" font-size="20px" fill="#1e1e1e" text-anchor="middle" style="white-space: pre;" direction="ltr" dominant-baseline="text-before-edge">страницы</text></g><g stroke-linecap="round" transform="translate(10 301.44399986436497) rotate(0 214.5 69)"><path d="M32 0 M32 0 C134.88 -0.69, 239.02 -1.12, 397 0 M32 0 C159.96 1.69, 287.88 1.68, 397 0 M397 0 C418.75 1.26, 428.85 11.69, 429 32 M397 0 C419.1 -0.5, 428.98 11.34, 429 32 M429 32 C430.99 47.44, 430.45 60.35, 429 106 M429 32 C429.37 61.99, 428.7 91.86, 429 106 M429 106 C429.57 128.23, 417.94 137.52, 397 138 M429 106 C431.19 125.43, 420.09 138.26, 397 138 M397 138 C270.37 140.16, 142.51 139.83, 32 138 M397 138 C276.91 139.43, 157.23 139.12, 32 138 M32 138 C9.42 139.07, -0.7 126.53, 0 106 M32 138 C12.64 136.01, 1.69 125.98, 0 106 M0 106 C-1.8 78.52, 0.94 47.59, 0 32 M0 106 C-0.79 79.14, -0.09 52.67, 0 32 M0 32 C0.58 11.72, 9.37 -1.47, 32 0 M0 32 C0.99 9.72, 8.76 2.03, 32 0" stroke="#1e1e1e" stroke-width="4" fill="none"></path></g><g transform="translate(20.580078125 320.44399986436497) rotate(0 203.919921875 50)"><text x="203.919921875" y="0" font-family="Virgil, Segoe UI Emoji" font-size="20px" fill="#1e1e1e" text-anchor="middle" style="white-space: pre;" direction="ltr" dominant-baseline="text-before-edge">Показатель стабильности страницы </text><text x="203.919921875" y="25" font-family="Virgil, Segoe UI Emoji" font-size="20px" fill="#1e1e1e" text-anchor="middle" style="white-space: pre;" direction="ltr" dominant-baseline="text-before-edge">(показатель того, сильно ли сдвигаются </text><text x="203.919921875" y="50" font-family="Virgil, Segoe UI Emoji" font-size="20px" fill="#1e1e1e" text-anchor="middle" style="white-space: pre;" direction="ltr" dominant-baseline="text-before-edge">элементы при загрузке </text><text x="203.919921875" y="75" font-family="Virgil, Segoe UI Emoji" font-size="20px" fill="#1e1e1e" text-anchor="middle" style="white-space: pre;" direction="ltr" dominant-baseline="text-before-edge">скриптов/картинок)</text></g><g stroke-linecap="round" transform="translate(475.62273235902467 301.39517140822636) rotate(0 203.5 69)"><path d="M32 0 M32 0 C152.33 -2.69, 270.88 -2.97, 375 0 M32 0 C127.52 0.55, 223.07 0.25, 375 0 M375 0 C394.93 0.72, 408.39 9.84, 407 32 M375 0 C398.41 -0.85, 406.68 9.56, 407 32 M407 32 C407.71 63.03, 406.27 91.34, 407 106 M407 32 C408.29 53.86, 407.52 74.58, 407 106 M407 106 C408.52 127.05, 397.34 137.8, 375 138 M407 106 C407.67 125.88, 394.41 138.54, 375 138 M375 138 C262.68 138.59, 151.29 138.6, 32 138 M375 138 C256.71 138.74, 139.93 139.21, 32 138 M32 138 C11.63 137.89, -1.75 126.52, 0 106 M32 138 C11.31 138.13, 0.73 126.24, 0 106 M0 106 C1.82 89.42, 2.28 71.49, 0 32 M0 106 C0.53 90.13, -0.02 73.39, 0 32 M0 32 C1.92 9.17, 10.18 -1.47, 32 0 M0 32 C0.44 9.16, 8.75 0.43, 32 0" stroke="#1e1e1e" stroke-width="4" fill="none"></path></g><g transform="translate(484.63283367738404 332.89517140822636) rotate(0 194.48989868164062 37.5)"><text x="194.48989868164062" y="0" font-family="Virgil, Segoe UI Emoji" font-size="20px" fill="#1e1e1e" text-anchor="middle" style="white-space: pre;" direction="ltr" dominant-baseline="text-before-edge">Время, которое нужно для того чтобы </text><text x="194.48989868164062" y="25" font-family="Virgil, Segoe UI Emoji" font-size="20px" fill="#1e1e1e" text-anchor="middle" style="white-space: pre;" direction="ltr" dominant-baseline="text-before-edge">приложение было готово к </text><text x="194.48989868164062" y="50" font-family="Virgil, Segoe UI Emoji" font-size="20px" fill="#1e1e1e" text-anchor="middle" style="white-space: pre;" direction="ltr" dominant-baseline="text-before-edge">взаимодействию</text></g><g stroke-linecap="round" transform="translate(906.7735919433045 302.134040893832) rotate(0 203.5 69)"><path d="M32 0 M32 0 C140.64 0.26, 248.2 1.55, 375 0 M32 0 C117.84 0.69, 204.35 0.24, 375 0 M375 0 C397.59 0.79, 408 9.29, 407 32 M375 0 C396.55 1.23, 408.32 9.04, 407 32 M407 32 C409.52 51.89, 407.14 69.58, 407 106 M407 32 C408.36 61.58, 407.12 89.01, 407 106 M407 106 C408.44 128.72, 397.44 139.69, 375 138 M407 106 C405.01 128.59, 394.43 137.3, 375 138 M375 138 C249.55 138.07, 121.1 138.52, 32 138 M375 138 C296.24 138.34, 218.14 138.34, 32 138 M32 138 C8.68 137.12, -0.29 126.5, 0 106 M32 138 C12.48 139.91, 0.76 127.53, 0 106 M0 106 C-0.67 81.57, -2.35 59.16, 0 32 M0 106 C-0.99 81.58, -1.46 56.58, 0 32 M0 32 C0.5 10.23, 12.63 0.16, 32 0 M0 32 C-1.07 8.64, 9.57 -0.51, 32 0" stroke="#1e1e1e" stroke-width="4" fill="none"></path></g><g transform="translate(913.3337420897889 333.634040893832) rotate(0 196.93984985351562 37.5)"><text x="196.93984985351562" y="0" font-family="Virgil, Segoe UI Emoji" font-size="20px" fill="#1e1e1e" text-anchor="middle" style="white-space: pre;" direction="ltr" dominant-baseline="text-before-edge">Время, которое нужно браузеру для </text><text x="196.93984985351562" y="25" font-family="Virgil, Segoe UI Emoji" font-size="20px" fill="#1e1e1e" text-anchor="middle" style="white-space: pre;" direction="ltr" dominant-baseline="text-before-edge">того чтобы запустить все слушатели </text><text x="196.93984985351562" y="50" font-family="Virgil, Segoe UI Emoji" font-size="20px" fill="#1e1e1e" text-anchor="middle" style="white-space: pre;" direction="ltr" dominant-baseline="text-before-edge">событий и обработать первое действие</text></g><g stroke-linecap="round" transform="translate(473.0782272557726 53.10247194059184) rotate(0 201.5 69)"><path d="M32 0 M32 0 C156.13 -1.36, 283.13 -1.59, 371 0 M32 0 C126.62 -0.45, 222.05 -0.1, 371 0 M371 0 C393.6 -0.8, 401.33 10.75, 403 32 M371 0 C392.17 -1.03, 402.21 11.15, 403 32 M403 32 C403.33 50.03, 402.58 67.46, 403 106 M403 32 C401.42 57.24, 401.93 82.42, 403 106 M403 106 C401.92 126.49, 392.75 139.31, 371 138 M403 106 C401.35 125.3, 394.45 136.26, 371 138 M371 138 C282.68 138.11, 196.95 139.24, 32 138 M371 138 C286.47 136.23, 202.4 135.73, 32 138 M32 138 C11.97 136.73, -0.69 128.88, 0 106 M32 138 C10.75 138.38, 1.9 125.56, 0 106 M0 106 C-1.9 83.26, -1.02 58.44, 0 32 M0 106 C0.02 86.25, -0.41 65.6, 0 32 M0 32 C1.68 10.44, 10.98 0.77, 32 0 M0 32 C-0.07 10.98, 11.51 1.1, 32 0" stroke="#1e1e1e" stroke-width="4" fill="none"></path></g><g transform="translate(495.6883346776476 84.60247194059184) rotate(0 178.889892578125 37.5)"><text x="178.889892578125" y="0" font-family="Virgil, Segoe UI Emoji" font-size="20px" fill="#1e1e1e" text-anchor="middle" style="white-space: pre;" direction="ltr" dominant-baseline="text-before-edge">Время, которое нужно браузеру для </text><text x="178.889892578125" y="25" font-family="Virgil, Segoe UI Emoji" font-size="20px" fill="#1e1e1e" text-anchor="middle" style="white-space: pre;" direction="ltr" dominant-baseline="text-before-edge">того чтобы отрендерить первый </text><text x="178.889892578125" y="50" font-family="Virgil, Segoe UI Emoji" font-size="20px" fill="#1e1e1e" text-anchor="middle" style="white-space: pre;" direction="ltr" dominant-baseline="text-before-edge">элемент на странице</text></g><g stroke-linecap="round" transform="translate(906.1388220134952 50.32026720016256) rotate(0 201.50000000000006 69)"><path d="M32 0 M32 0 C143.3 0.97, 256.36 2.47, 371 0 M32 0 C133.77 -1.2, 236.14 -0.68, 371 0 M371 0 C394.09 -0.78, 402.95 11.5, 403 32 M371 0 C391.97 1.6, 403.9 10.93, 403 32 M403 32 C404.03 53.76, 402.24 73.16, 403 106 M403 32 C403.41 56.1, 402.09 81.95, 403 106 M403 106 C403.36 127.01, 391.5 139.08, 371 138 M403 106 C402.94 125.51, 393.76 138.47, 371 138 M371 138 C282.09 140.4, 192.7 140.05, 32 138 M371 138 C269.58 138.98, 169.3 140, 32 138 M32 138 C8.76 139.72, -0.07 125.76, 0 106 M32 138 C10.87 138.11, 0.58 126.65, 0 106 M0 106 C-0.17 84.71, 2.34 64.54, 0 32 M0 106 C-0.02 90.77, 0.05 75.47, 0 32 M0 32 C1.08 11.91, 8.95 0.19, 32 0 M0 32 C1.29 9.94, 11.66 -0.03, 32 0" stroke="#1e1e1e" stroke-width="4" fill="none"></path></g><g transform="translate(928.7489294353702 81.82026720016256) rotate(0 178.88989257812506 37.5)"><text x="178.889892578125" y="0" font-family="Virgil, Segoe UI Emoji" font-size="20px" fill="#1e1e1e" text-anchor="middle" style="white-space: pre;" direction="ltr" dominant-baseline="text-before-edge">Время, которое нужно браузеру для </text><text x="178.889892578125" y="25" font-family="Virgil, Segoe UI Emoji" font-size="20px" fill="#1e1e1e" text-anchor="middle" style="white-space: pre;" direction="ltr" dominant-baseline="text-before-edge">того чтобы отрендерить первый </text><text x="178.889892578125" y="50" font-family="Virgil, Segoe UI Emoji" font-size="20px" fill="#1e1e1e" text-anchor="middle" style="white-space: pre;" direction="ltr" dominant-baseline="text-before-edge">большой элемент на странице</text></g><g transform="translate(24.305720389271073 12.651995524058293) rotate(0 186.42391967773438 17.5)"><text x="0" y="0" font-family="Virgil, Segoe UI Emoji" font-size="28px" fill="#1e1e1e" text-anchor="start" style="white-space: pre;" direction="ltr" dominant-baseline="text-before-edge">TTFB (Time to first byte)</text></g><g transform="translate(19.630056627445697 253.7191007425995) rotate(0 205.71591186523438 17.5)"><text x="0" y="0" font-family="Virgil, Segoe UI Emoji" font-size="28px" fill="#1e1e1e" text-anchor="start" style="white-space: pre;" direction="ltr" dominant-baseline="text-before-edge">CLS (Cumulative layout shift)</text></g><g transform="translate(484.3240310603235 253.03991048116382) rotate(0 181.7059326171875 17.5)"><text x="0" y="0" font-family="Virgil, Segoe UI Emoji" font-size="28px" fill="#1e1e1e" text-anchor="start" style="white-space: pre;" direction="ltr" dominant-baseline="text-before-edge">TTI (Time to interactive)</text></g><g transform="translate(916.4568851514022 257.35410803295895) rotate(0 158.3399200439453 17.5)"><text x="0" y="0" font-family="Virgil, Segoe UI Emoji" font-size="28px" fill="#1e1e1e" text-anchor="start" style="white-space: pre;" direction="ltr" dominant-baseline="text-before-edge">FID (First input delay)</text></g><g transform="translate(485.2409209589364 12.478383235563342) rotate(0 194.01190185546875 17.5)"><text x="0" y="0" font-family="Virgil, Segoe UI Emoji" font-size="28px" fill="#1e1e1e" text-anchor="start" style="white-space: pre;" direction="ltr" dominant-baseline="text-before-edge">FCP (First contentful paint)</text></g><g transform="translate(916.3375267030615 10) rotate(0 215.65588378906244 17.5)"><text x="0" y="0" font-family="Virgil, Segoe UI Emoji" font-size="28px" fill="#1e1e1e" text-anchor="start" style="white-space: pre;" direction="ltr" dominant-baseline="text-before-edge">LCP (Largest contentful paint)</text></g></svg>
