<svg version="1.1" xmlns="http://www.w3.org/2000/svg" viewBox="0 0 1586.5043151256534 678.2530504681929" width="1586.5043151256534" height="678.2530504681929" class="excalidraw-svg">
  <!-- svg-source:excalidraw -->
  <g stroke-linecap="round" transform="translate(300.851586674504 356.6289172494349) rotate(0 76.6796875 30.03125)"><path d="M15.02 0 C57.63 -1.41, 100.01 1.14, 138.34 0 M15.02 0 C49.73 -0.36, 85.41 -0.12, 138.34 0 M138.34 0 C147.06 -1.3, 154.87 3.84, 153.36 15.02 M138.34 0 C147.49 -1.61, 153.62 3.41, 153.36 15.02 M153.36 15.02 C151.62 20.05, 153.82 28.47, 153.36 45.05 M153.36 15.02 C152.84 22.15, 153.93 31.81, 153.36 45.05 M153.36 45.05 C152.62 54.6, 147.17 59.74, 138.34 60.06 M153.36 45.05 C151.5 57.09, 146.1 57.85, 138.34 60.06 M138.34 60.06 C103.49 60.3, 69.57 59.94, 15.02 60.06 M138.34 60.06 C105.63 61.35, 71.98 60.63, 15.02 60.06 M15.02 60.06 C4.53 58.84, -1.48 55.68, 0 45.05 M15.02 60.06 C3.51 58.26, 1.46 56.01, 0 45.05 M0 45.05 C0.9 33.24, 0.03 23.58, 0 15.02 M0 45.05 C-0.25 32.82, -0.75 20.87, 0 15.02 M0 15.02 C0.51 4.29, 3.16 -0.07, 15.02 0 M0 15.02 C1.58 6.36, 7.15 0.67, 15.02 0" stroke="#1e1e1e" stroke-width="2" fill="none"></path></g><g transform="translate(370.72127661591026 374.1601672494349) rotate(0 6.80999755859375 12.5)"><text x="6.80999755859375" y="0" font-family="Virgil, Segoe UI Emoji" font-size="20px" fill="#1e1e1e" text-anchor="middle" style="white-space: pre;" direction="ltr" dominant-baseline="text-before-edge">3</text></g><g stroke-linecap="round" transform="translate(300.503930424504 428.0039172494349) rotate(0 76.6796875 30.03125)"><path d="M15.02 0 C47.75 -0.63, 78.59 -2.07, 138.34 0 M15.02 0 C49.41 0.26, 82.4 1.55, 138.34 0 M138.34 0 C149.18 1.4, 154.08 5.66, 153.36 15.02 M138.34 0 C149.51 -0.8, 153.52 5.87, 153.36 15.02 M153.36 15.02 C152.81 25.54, 151.82 36.61, 153.36 45.05 M153.36 15.02 C153.22 25.47, 153.84 35.48, 153.36 45.05 M153.36 45.05 C153.94 56.47, 150.23 60.39, 138.34 60.06 M153.36 45.05 C154.11 57.09, 150.56 60.19, 138.34 60.06 M138.34 60.06 C89.99 59.43, 43.54 58.74, 15.02 60.06 M138.34 60.06 C95.49 58.65, 54.21 59.93, 15.02 60.06 M15.02 60.06 C6.59 60.87, -1.27 54.15, 0 45.05 M15.02 60.06 C7.07 58.73, -1.17 53.71, 0 45.05 M0 45.05 C1.39 38.26, -2.07 29.23, 0 15.02 M0 45.05 C-0.77 37.74, 0.48 30.2, 0 15.02 M0 15.02 C-1.55 6.93, 6.19 1.05, 15.02 0 M0 15.02 C0.59 4.49, 5.51 2.23, 15.02 0" stroke="#1e1e1e" stroke-width="2" fill="none"></path></g><g transform="translate(370.0636228073165 445.5351672494349) rotate(0 7.1199951171875 12.5)"><text x="7.1199951171875" y="0" font-family="Virgil, Segoe UI Emoji" font-size="20px" fill="#1e1e1e" text-anchor="middle" style="white-space: pre;" direction="ltr" dominant-baseline="text-before-edge">2</text></g><g stroke-linecap="round" transform="translate(303.382836674504 499.3828234994349) rotate(0 76.6796875 30.03125)"><path d="M15.02 0 C64.23 0.65, 108.97 1.42, 138.34 0 M15.02 0 C59.12 -0.09, 104.65 -0.4, 138.34 0 M138.34 0 C148.94 2, 153.47 5.3, 153.36 15.02 M138.34 0 C150.35 -0.21, 152.99 3.81, 153.36 15.02 M153.36 15.02 C151.28 26.57, 153.3 36.12, 153.36 45.05 M153.36 15.02 C153.92 25.86, 153.9 36.52, 153.36 45.05 M153.36 45.05 C152.98 53.38, 149.16 60.96, 138.34 60.06 M153.36 45.05 C154.86 56.7, 147.17 60.2, 138.34 60.06 M138.34 60.06 C93.04 62.52, 51.97 62.59, 15.02 60.06 M138.34 60.06 C101.66 58.31, 66.24 59.26, 15.02 60.06 M15.02 60.06 C3.85 60.45, -1.08 55.63, 0 45.05 M15.02 60.06 C2.98 58.38, -0.4 56.16, 0 45.05 M0 45.05 C0.7 35.83, -0.48 27.4, 0 15.02 M0 45.05 C0.68 34.04, -0.27 25.5, 0 15.02 M0 15.02 C-0.39 5.78, 6.21 0.43, 15.02 0 M0 15.02 C-0.21 4.65, 5.75 0.32, 15.02 0" stroke="#1e1e1e" stroke-width="2" fill="none"></path></g><g transform="translate(377.35252509003135 516.9140734994348) rotate(0 2.7099990844726562 12.5)"><text x="2.7099990844726562" y="0" font-family="Virgil, Segoe UI Emoji" font-size="20px" fill="#1e1e1e" text-anchor="middle" style="white-space: pre;" direction="ltr" dominant-baseline="text-before-edge">1</text></g><g stroke-linecap="round" transform="translate(300.195336674504 575.4101672494348) rotate(0 78.4609375 30.5625)"><path d="M15.28 0 C61.65 1.21, 106.93 -0.78, 141.64 0 M15.28 0 C56.52 0.71, 99.69 -0.56, 141.64 0 M141.64 0 C152.52 0.82, 158.73 5.04, 156.92 15.28 M141.64 0 C153.87 -1.42, 156.73 4.21, 156.92 15.28 M156.92 15.28 C156.94 24.57, 156.98 35.33, 156.92 45.84 M156.92 15.28 C156.85 24.51, 157.85 35.41, 156.92 45.84 M156.92 45.84 C156.2 54.76, 152.79 60.82, 141.64 61.13 M156.92 45.84 C155.67 57.3, 150.18 58.95, 141.64 61.13 M141.64 61.13 C111.39 62.37, 81.57 60.43, 15.28 61.13 M141.64 61.13 C114.42 61.81, 85.61 61.24, 15.28 61.13 M15.28 61.13 C5.66 62.7, -1.7 55.59, 0 45.84 M15.28 61.13 C6.53 59.94, -1.71 56.92, 0 45.84 M0 45.84 C1.36 35.26, 0.51 25.84, 0 15.28 M0 45.84 C-0.7 39.68, -0.64 33.03, 0 15.28 M0 15.28 C-1.49 5.17, 3.85 -0.84, 15.28 0 M0 15.28 C-0.1 4.81, 5.15 1.46, 15.28 0" stroke="#1e1e1e" stroke-width="2" fill="none"></path></g><g transform="translate(371.77627692108604 593.4726672494348) rotate(0 6.879997253417969 12.5)"><text x="6.879997253417969" y="0" font-family="Virgil, Segoe UI Emoji" font-size="20px" fill="#1e1e1e" text-anchor="middle" style="white-space: pre;" direction="ltr" dominant-baseline="text-before-edge">0</text></g><g stroke-linecap="round" transform="translate(23.394555424504006 176.6406359994349) rotate(0 61.318359375 27.134765625)"><path d="M13.57 0 C35.37 -0.74, 59.03 -0.03, 109.07 0 M13.57 0 C44.55 0.44, 76.85 0.61, 109.07 0 M109.07 0 C117.38 -0.61, 124.35 2.57, 122.64 13.57 M109.07 0 C116.93 -0.32, 121.53 5.69, 122.64 13.57 M122.64 13.57 C120.76 25.26, 124.29 33.28, 122.64 40.7 M122.64 13.57 C123.27 22.1, 122.91 32.36, 122.64 40.7 M122.64 40.7 C123.07 51.11, 118.6 55.43, 109.07 54.27 M122.64 40.7 C121.42 48.4, 120.28 52.5, 109.07 54.27 M109.07 54.27 C77.91 53.37, 43.91 54.75, 13.57 54.27 M109.07 54.27 C73.44 53.86, 38.18 54.33, 13.57 54.27 M13.57 54.27 C5.45 53.13, 1.21 49.82, 0 40.7 M13.57 54.27 C6.08 53.52, -2.16 51.63, 0 40.7 M0 40.7 C1.59 34.18, 1.03 26.63, 0 13.57 M0 40.7 C1.06 33.25, -0.5 24.5, 0 13.57 M0 13.57 C-1.22 3.59, 5.22 0.26, 13.57 0 M0 13.57 C0.75 4.69, 3.08 2.24, 13.57 0" stroke="#1e1e1e" stroke-width="2" fill="none"></path></g><g transform="translate(78.31292090301963 191.2754016244349) rotate(0 6.399993896484375 12.5)"><text x="6.399993896484375" y="0" font-family="Virgil, Segoe UI Emoji" font-size="20px" fill="#1e1e1e" text-anchor="middle" style="white-space: pre;" direction="ltr" dominant-baseline="text-before-edge">4</text></g><g mask="url(#mask-5HxwajCgD6f1GHJPThAqT)" stroke-linecap="round"><g transform="translate(174.97476974559834 250.7645117566379) rotate(0 68.09661158945283 43.1841558713985)"><path d="M-0.39 -1.13 C13.99 3.17, 63.46 12.05, 86.34 26.58 C109.22 41.1, 128.41 75.94, 136.89 86.02 M1.6 0.89 C15.91 5.31, 63.43 13.65, 85.91 28.03 C108.39 42.4, 128.42 77.68, 136.5 87.16" stroke="#1e1e1e" stroke-width="2" fill="none"></path></g><g transform="translate(174.97476974559834 250.7645117566379) rotate(0 68.09661158945283 43.1841558713985)"><path d="M115.84 73.08 C120.33 79.06, 128.19 82.87, 136.5 87.16 M115.84 73.08 C122.16 77.5, 127.01 79.75, 136.5 87.16" stroke="#1e1e1e" stroke-width="2" fill="none"></path></g><g transform="translate(174.97476974559834 250.7645117566379) rotate(0 68.09661158945283 43.1841558713985)"><path d="M129.72 63.1 C130.06 72.07, 133.71 78.9, 136.5 87.16 M129.72 63.1 C132.36 70.31, 133.44 75.27, 136.5 87.16" stroke="#1e1e1e" stroke-width="2" fill="none"></path></g></g><mask id="mask-5HxwajCgD6f1GHJPThAqT"><rect x="0" y="0" fill="#fff" width="411.167992924504" height="437.1328234994349"></rect><rect x="239.3507516031181" y="265.0121597355177" fill="#000" width="41.95994567871094" height="25" opacity="1"></rect></mask><g transform="translate(239.3507516031181 265.0121597355177) rotate(0 3.873998508224659 28.769298902888224)"><text x="20.97997283935547" y="0" font-family="Virgil, Segoe UI Emoji" font-size="20px" fill="#1e1e1e" text-anchor="middle" style="white-space: pre;" direction="ltr" dominant-baseline="text-before-edge">push</text></g><g transform="translate(10 10) rotate(0 280.02593994140625 67.5)"><text x="0" y="0" font-family="Virgil, Segoe UI Emoji" font-size="36px" fill="#1e1e1e" text-anchor="start" style="white-space: pre;" direction="ltr" dominant-baseline="text-before-edge">Добавление элемента</text><text x="0" y="45" font-family="Virgil, Segoe UI Emoji" font-size="36px" fill="#1e1e1e" text-anchor="start" style="white-space: pre;" direction="ltr" dominant-baseline="text-before-edge">подразумевает, что он будет на</text><text x="0" y="90" font-family="Virgil, Segoe UI Emoji" font-size="36px" fill="#1e1e1e" text-anchor="start" style="white-space: pre;" direction="ltr" dominant-baseline="text-before-edge">вершине стека</text></g><g stroke-linecap="round"><g transform="translate(594.4589211889804 112.21852070539131) rotate(0 2.989978147841157 277.74485720744485)"><path d="M-0.72 0.02 C0.44 92.45, 5.91 462.38, 6.89 554.84 M1.11 -1.01 C2.19 91.54, 5.33 463.25, 6.43 556.03" stroke="#1e1e1e" stroke-width="2" fill="none"></path></g></g><mask></mask><g stroke-linecap="round" transform="translate(649.0412669417645 370.65513169122517) rotate(0 76.6796875 30.03125)"><path d="M15.02 0 C47.31 -1.14, 78.85 1.43, 138.34 0 M15.02 0 C49.03 -1.06, 80.96 -0.39, 138.34 0 M138.34 0 C148.08 1.28, 152.42 3.43, 153.36 15.02 M138.34 0 C148.74 2.19, 153.31 7.12, 153.36 15.02 M153.36 15.02 C152.73 26.83, 155.37 35.49, 153.36 45.05 M153.36 15.02 C152.5 24.46, 153.18 32.88, 153.36 45.05 M153.36 45.05 C154.06 53.55, 150.24 59.99, 138.34 60.06 M153.36 45.05 C154.41 56.85, 146.78 60.79, 138.34 60.06 M138.34 60.06 C98.2 59.84, 58.32 59.14, 15.02 60.06 M138.34 60.06 C102.11 62.06, 64.91 61.4, 15.02 60.06 M15.02 60.06 C5.17 61.68, -0.25 55.19, 0 45.05 M15.02 60.06 C6.24 62.25, -2.27 55.85, 0 45.05 M0 45.05 C1.49 35.58, 0.85 30.4, 0 15.02 M0 45.05 C0.23 33.94, 0.69 23.51, 0 15.02 M0 15.02 C-1.74 5.53, 3.98 1.8, 15.02 0 M0 15.02 C0.18 7, 6.62 -0.06, 15.02 0" stroke="#1e1e1e" stroke-width="2" fill="none"></path></g><g transform="translate(718.9109568831708 388.18638169122517) rotate(0 6.80999755859375 12.5)"><text x="6.80999755859375" y="0" font-family="Virgil, Segoe UI Emoji" font-size="20px" fill="#1e1e1e" text-anchor="middle" style="white-space: pre;" direction="ltr" dominant-baseline="text-before-edge">3</text></g><g stroke-linecap="round" transform="translate(648.6936106917645 442.03013169122517) rotate(0 76.6796875 30.03125)"><path d="M15.02 0 C45.58 0.6, 77.86 0.66, 138.34 0 M15.02 0 C42.41 0.76, 69.6 -0.66, 138.34 0 M138.34 0 C148.69 1.9, 153.31 6.84, 153.36 15.02 M138.34 0 C149.68 0.27, 152.91 4.24, 153.36 15.02 M153.36 15.02 C153.67 25.76, 152.31 34.48, 153.36 45.05 M153.36 15.02 C153.65 24.51, 154.24 35.48, 153.36 45.05 M153.36 45.05 C154.27 56.62, 146.99 60.69, 138.34 60.06 M153.36 45.05 C154.03 53.21, 146.79 60.6, 138.34 60.06 M138.34 60.06 C97.53 61.12, 58.6 61.64, 15.02 60.06 M138.34 60.06 C91.22 61.08, 43.8 60.34, 15.02 60.06 M15.02 60.06 C6.08 61.96, -1.98 55.74, 0 45.05 M15.02 60.06 C3.97 58.16, 1.14 56.49, 0 45.05 M0 45.05 C0.77 38.21, 0.02 32.75, 0 15.02 M0 45.05 C-1.05 38.71, -0.7 32.74, 0 15.02 M0 15.02 C0.16 6.74, 6.41 -0.05, 15.02 0 M0 15.02 C-1.43 5.37, 3.12 -0.79, 15.02 0" stroke="#1e1e1e" stroke-width="2" fill="none"></path></g><g transform="translate(718.253303074577 459.56138169122517) rotate(0 7.1199951171875 12.5)"><text x="7.1199951171875" y="0" font-family="Virgil, Segoe UI Emoji" font-size="20px" fill="#1e1e1e" text-anchor="middle" style="white-space: pre;" direction="ltr" dominant-baseline="text-before-edge">2</text></g><g stroke-linecap="round" transform="translate(651.5725169417645 513.4090379412252) rotate(0 76.6796875 30.03125)"><path d="M15.02 0 C60.38 -1.88, 108.62 -1.29, 138.34 0 M15.02 0 C60.06 1.92, 104.74 1.89, 138.34 0 M138.34 0 C149.51 0.23, 152.97 4.34, 153.36 15.02 M138.34 0 C149.58 2.27, 152.19 5.03, 153.36 15.02 M153.36 15.02 C153.98 23.82, 152.75 34.13, 153.36 45.05 M153.36 15.02 C154.1 22.53, 152.96 28.81, 153.36 45.05 M153.36 45.05 C153.94 53.46, 147 60.53, 138.34 60.06 M153.36 45.05 C154.07 56.42, 148.25 60.07, 138.34 60.06 M138.34 60.06 C96.16 62.4, 51 61.23, 15.02 60.06 M138.34 60.06 C91.93 61.09, 43.46 60.48, 15.02 60.06 M15.02 60.06 C4.11 58.41, 0.99 56.3, 0 45.05 M15.02 60.06 C2.93 60.75, 0.78 56.05, 0 45.05 M0 45.05 C-1.62 38.07, -1.87 26.89, 0 15.02 M0 45.05 C0.23 36.12, 0.85 25.43, 0 15.02 M0 15.02 C-1.24 5.32, 3.37 -0.69, 15.02 0 M0 15.02 C-2.26 3.16, 6.08 0.46, 15.02 0" stroke="#1e1e1e" stroke-width="2" fill="none"></path></g><g transform="translate(725.5422053572919 530.9402879412252) rotate(0 2.7099990844726562 12.5)"><text x="2.7099990844726562" y="0" font-family="Virgil, Segoe UI Emoji" font-size="20px" fill="#1e1e1e" text-anchor="middle" style="white-space: pre;" direction="ltr" dominant-baseline="text-before-edge">1</text></g><g stroke-linecap="round" transform="translate(648.3850169417645 589.4363816912253) rotate(0 78.4609375 30.5625)"><path d="M15.28 0 C49.02 -0.77, 78.64 0.5, 141.64 0 M15.28 0 C65.79 -1.04, 114.95 -1.5, 141.64 0 M141.64 0 C152.9 1.98, 155.91 5.11, 156.92 15.28 M141.64 0 C151.98 -1.55, 154.89 6.04, 156.92 15.28 M156.92 15.28 C155.35 25.71, 156.79 33.29, 156.92 45.84 M156.92 15.28 C157.01 26.03, 156.03 38.61, 156.92 45.84 M156.92 45.84 C157.54 57.21, 151.74 61.13, 141.64 61.13 M156.92 45.84 C158.2 58.21, 153.7 63.03, 141.64 61.13 M141.64 61.13 C96.93 60.98, 49.13 62.3, 15.28 61.13 M141.64 61.13 C91.27 60.73, 42.3 62.18, 15.28 61.13 M15.28 61.13 C3.29 61.72, 0.68 56.9, 0 45.84 M15.28 61.13 C4.48 61.25, 0.34 54.19, 0 45.84 M0 45.84 C0.81 33.77, 2.08 23.91, 0 15.28 M0 45.84 C-0.83 34.19, -1.03 21.87, 0 15.28 M0 15.28 C-1.96 3.49, 6.03 0.4, 15.28 0 M0 15.28 C1.32 7.26, 6.65 1.77, 15.28 0" stroke="#1e1e1e" stroke-width="2" fill="none"></path></g><g transform="translate(719.9659571883466 607.4988816912253) rotate(0 6.879997253417969 12.5)"><text x="6.879997253417969" y="0" font-family="Virgil, Segoe UI Emoji" font-size="20px" fill="#1e1e1e" text-anchor="middle" style="white-space: pre;" direction="ltr" dominant-baseline="text-before-edge">0</text></g><g stroke-linecap="round" transform="translate(881.3851549894814 194.3705653082284) rotate(0 69.78433782425026 27.134765625)"><path d="M13.57 0 C43.91 -0.23, 72.28 0.97, 126 0 M13.57 0 C49.15 1.37, 83.16 0.39, 126 0 M126 0 C135.18 -1.35, 137.8 5.35, 139.57 13.57 M126 0 C134.58 -0.47, 140.38 2.78, 139.57 13.57 M139.57 13.57 C141.12 22.9, 140.19 35.55, 139.57 40.7 M139.57 13.57 C139.69 20.12, 139.34 25.5, 139.57 40.7 M139.57 40.7 C140.68 51.64, 136.67 55.93, 126 54.27 M139.57 40.7 C141.1 50.14, 135.23 56.13, 126 54.27 M126 54.27 C95.56 52.9, 62.01 53.97, 13.57 54.27 M126 54.27 C100.65 55.27, 77.45 55.4, 13.57 54.27 M13.57 54.27 C3.99 54.38, 0.3 48.15, 0 40.7 M13.57 54.27 C5.94 52.14, -2 50.35, 0 40.7 M0 40.7 C1.49 35.35, -0.29 25.95, 0 13.57 M0 40.7 C-0.76 31.33, 0.69 23.76, 0 13.57 M0 13.57 C1.15 6.41, 5.87 1.54, 13.57 0 M0 13.57 C-1.81 5.14, 5.74 -1.27, 13.57 0" stroke="#1e1e1e" stroke-width="2" fill="none"></path></g><g transform="translate(944.7694989172472 209.0053309332284) rotate(0 6.399993896484375 12.5)"><text x="6.399993896484375" y="0" font-family="Virgil, Segoe UI Emoji" font-size="20px" fill="#1e1e1e" text-anchor="middle" style="white-space: pre;" direction="ltr" dominant-baseline="text-before-edge">4</text></g><g mask="url(#mask--i2-qh97v00vBBq2yDfh5)" stroke-linecap="round"><g transform="translate(737.034693400697 359.24992294321004) rotate(0 67.75903341147088 -69.01406312276993)"><path d="M0.69 0.14 C9.26 -13.13, 28.82 -55.71, 51.4 -78.54 C73.97 -101.37, 122.24 -126.93, 136.16 -136.84 M-0.4 -0.83 C7.99 -13.42, 27.64 -54.26, 50.33 -77.22 C73.01 -100.17, 121.65 -128.61, 135.73 -138.56" stroke="#1e1e1e" stroke-width="2" fill="none"></path></g><g transform="translate(737.034693400697 359.24992294321004) rotate(0 67.75903341147088 -69.01406312276993)"><path d="M120.73 -118.56 C125.25 -124.99, 128.81 -129.49, 135.73 -138.56 M120.73 -118.56 C126.88 -127.21, 131.92 -134.11, 135.73 -138.56" stroke="#1e1e1e" stroke-width="2" fill="none"></path></g><g transform="translate(737.034693400697 359.24992294321004) rotate(0 67.75903341147088 -69.01406312276993)"><path d="M111.38 -132.88 C118.82 -135.1, 125.16 -135.33, 135.73 -138.56 M111.38 -132.88 C121.19 -135.82, 129.95 -137, 135.73 -138.56" stroke="#1e1e1e" stroke-width="2" fill="none"></path></g></g><mask id="mask--i2-qh97v00vBBq2yDfh5"><rect x="0" y="0" fill="#fff" width="972.5527602236389" height="597.27804918875"></rect><rect x="773.2666094794686" y="268.6072084776622" fill="#000" width="30.799957275390625" height="25" opacity="1"></rect></mask><g transform="translate(773.2666094794689 268.6072084776622) rotate(0 31.646556705208084 21.43278387568833)"><text x="15.399978637695312" y="0" font-family="Virgil, Segoe UI Emoji" font-size="20px" fill="#1e1e1e" text-anchor="middle" style="white-space: pre;" direction="ltr" dominant-baseline="text-before-edge">pop</text></g><g transform="translate(842.5365416881533 328.46001295766445) rotate(0 366.98388671875006 112.5)"><text x="0" y="0" font-family="Virgil, Segoe UI Emoji" font-size="36px" fill="#1e1e1e" text-anchor="start" style="white-space: pre;" direction="ltr" dominant-baseline="text-before-edge">Удаление элемента из стека</text><text x="0" y="45" font-family="Virgil, Segoe UI Emoji" font-size="36px" fill="#1e1e1e" text-anchor="start" style="white-space: pre;" direction="ltr" dominant-baseline="text-before-edge">подразумевает удаление самого верхнего</text><text x="0" y="90" font-family="Virgil, Segoe UI Emoji" font-size="36px" fill="#1e1e1e" text-anchor="start" style="white-space: pre;" direction="ltr" dominant-baseline="text-before-edge">элемента.</text><text x="0" y="135" font-family="Virgil, Segoe UI Emoji" font-size="36px" fill="#1e1e1e" text-anchor="start" style="white-space: pre;" direction="ltr" dominant-baseline="text-before-edge"></text><text x="0" y="180" font-family="Virgil, Segoe UI Emoji" font-size="36px" fill="#1e1e1e" text-anchor="start" style="white-space: pre;" direction="ltr" dominant-baseline="text-before-edge">(последний добавленный - уходит первым)</text></g></svg>
