<svg xmlns="http://www.w3.org/2000/svg" version="1.1" viewBox="0 0 560 368">
<g stroke-width="1.00" fill="none" stroke-linecap="butt">
<path stroke="#c7c2f6" vector-effect="non-scaling-stroke" d="
  M 372.19 264.31
  C 386.02 274.44 403.64 277.71 419.92 281.66
  C 431.70 284.51 449.00 275.89 458.50 268.79
  A 0.73 0.73 0.0 0 1 459.66 269.30
  Q 460.54 278.00 465.56 285.14
  Q 465.85 285.56 466.36 285.63
  Q 469.08 286.02 471.19 285.69
  C 479.91 284.37 491.94 282.51 500.71 278.29
  A 1.47 1.46 73.4 0 0 501.53 276.76
  Q 500.40 268.89 500.22 261.30
  C 500.10 256.67 499.17 252.12 498.86 247.44
  Q 497.52 227.21 497.47 206.95
  C 497.43 189.96 494.97 173.29 495.43 156.25
  Q 496.15 129.79 497.66 117.93
  Q 499.04 107.04 499.20 96.27
  A 0.83 0.82 -1.3 0 0 498.32 95.43
  C 492.49 95.84 487.24 96.35 481.24 95.86
  Q 474.25 95.29 462.00 94.77
  C 455.38 94.49 452.95 97.33 452.01 103.54
  C 450.88 110.97 452.15 118.75 452.37 126.25
  C 452.86 142.99 454.66 159.61 456.12 176.28
  C 457.67 194.10 458.19 212.06 459.08 229.94
  Q 459.35 235.37 458.98 238.83
  A 0.69 0.69 0.0 0 1 458.42 239.43
  Q 444.57 241.98 441.00 242.26
  C 435.05 242.72 428.66 240.84 422.02 240.30
  C 418.14 239.98 413.47 239.91 412.67 235.13
  C 411.11 225.80 412.26 219.24 411.71 211.56
  C 409.16 175.97 411.60 138.58 414.09 107.32
  Q 414.62 100.72 413.72 95.45
  Q 413.63 94.91 413.12 94.72
  Q 410.93 93.90 408.56 93.87
  C 399.21 93.77 389.99 93.90 380.52 92.76
  C 375.16 92.12 367.83 90.82 365.08 94.40
  C 362.82 97.33 363.69 104.52 363.98 108.06
  C 364.96 119.61 366.32 130.99 366.81 142.69
  C 367.13 150.40 367.85 158.04 367.50 165.76
  Q 367.39 168.15 367.60 170.75
  C 368.97 187.70 370.30 205.09 368.77 222.06
  Q 367.42 236.99 367.46 252.00
  C 367.48 257.09 367.65 260.99 372.19 264.31"
/>
<path stroke="#c7c2f6" vector-effect="non-scaling-stroke" d="
  M 151.07 269.22
  Q 152.04 277.81 156.91 284.94
  A 1.39 1.37 81.0 0 0 157.67 285.50
  C 162.68 286.96 174.12 283.59 180.23 282.39
  Q 186.72 281.11 192.55 278.01
  A 1.24 1.24 0.0 0 0 193.18 276.66
  C 191.59 268.94 191.81 260.28 191.01 253.38
  Q 189.40 239.44 189.28 228.99
  Q 188.97 200.92 187.49 178.62
  C 186.30 160.80 187.45 143.83 188.43 126.92
  C 189.00 117.05 190.67 106.48 190.52 95.93
  Q 190.51 95.35 189.92 95.39
  Q 185.13 95.80 180.34 96.02
  C 170.51 96.47 159.27 94.12 150.80 94.79
  C 144.81 95.26 143.11 101.30 143.18 106.50
  Q 143.53 132.22 145.95 157.80
  C 148.43 183.95 149.24 207.03 150.71 231.76
  Q 150.92 235.32 150.40 238.99
  Q 150.32 239.51 149.79 239.59
  Q 141.79 240.81 133.79 242.13
  C 126.07 243.41 116.60 240.33 108.76 239.74
  C 103.50 239.34 103.33 231.30 103.31 227.53
  Q 103.25 212.10 102.56 196.67
  C 101.18 166.11 103.52 135.95 105.66 105.50
  Q 106.00 100.61 105.34 95.92
  A 1.81 1.80 1.4 0 0 103.88 94.40
  C 97.71 93.24 92.18 93.82 84.41 93.62
  C 77.39 93.44 69.09 92.40 61.37 92.22
  C 53.15 92.03 55.04 104.51 55.54 109.31
  Q 58.15 134.47 59.18 159.75
  C 59.32 163.13 58.84 167.08 59.14 170.74
  C 60.52 187.62 61.91 205.14 60.26 222.03
  Q 58.47 240.26 59.30 258.60
  Q 59.32 259.08 59.57 259.49
  C 67.87 273.20 98.18 278.29 112.75 282.03
  C 123.13 284.69 141.80 274.89 150.00 268.76
  A 0.67 0.67 0.0 0 1 151.07 269.22"
/>
<path stroke="#beb6ed" vector-effect="non-scaling-stroke" d="
  M 279.49 202.33
  Q 277.70 197.04 276.79 191.54
  C 276.09 187.37 274.14 183.61 273.17 179.33
  C 271.33 171.27 269.54 163.61 266.95 155.32
  Q 258.34 127.67 252.81 99.24
  Q 252.44 97.33 249.40 94.95
  A 1.65 1.63 -22.7 0 0 248.56 94.61
  C 243.54 93.99 238.82 93.21 233.72 93.46
  Q 222.45 94.03 211.18 94.64
  C 206.53 94.90 203.98 97.04 205.59 101.93
  Q 214.22 127.97 221.92 154.29
  C 226.00 168.25 232.09 181.79 236.34 195.40
  Q 247.70 231.82 259.05 268.23
  C 260.37 272.47 262.01 278.62 265.98 280.67
  C 272.28 283.94 282.83 282.14 289.95 282.39
  C 295.88 282.61 301.22 280.22 302.81 274.06
  C 305.81 262.42 310.09 252.21 312.02 244.75
  Q 317.48 223.56 325.97 181.99
  Q 328.09 171.65 334.05 155.55
  C 336.23 149.68 337.33 142.94 339.50 136.71
  C 341.20 131.80 342.44 125.69 344.95 120.49
  Q 346.23 117.82 346.69 115.19
  C 347.46 110.81 352.63 96.56 345.18 95.35
  C 337.99 94.19 329.57 94.80 322.04 93.83
  C 315.57 92.99 304.24 89.02 303.39 99.93
  C 302.47 111.84 298.77 123.95 296.97 136.04
  C 296.03 142.31 294.10 148.81 292.92 155.68
  C 291.71 162.75 289.67 173.77 286.71 183.08
  C 284.61 189.72 283.15 196.19 280.11 202.37
  Q 279.75 203.11 279.49 202.33"
/>
</g>
<path fill="#ffffff" d="
  M 0.00 0.00
  L 560.00 0.00
  L 560.00 368.00
  L 0.00 368.00
  L 0.00 0.00
  Z
  M 372.19 264.31
  C 386.02 274.44 403.64 277.71 419.92 281.66
  C 431.70 284.51 449.00 275.89 458.50 268.79
  A 0.73 0.73 0.0 0 1 459.66 269.30
  Q 460.54 278.00 465.56 285.14
  Q 465.85 285.56 466.36 285.63
  Q 469.08 286.02 471.19 285.69
  C 479.91 284.37 491.94 282.51 500.71 278.29
  A 1.47 1.46 73.4 0 0 501.53 276.76
  Q 500.40 268.89 500.22 261.30
  C 500.10 256.67 499.17 252.12 498.86 247.44
  Q 497.52 227.21 497.47 206.95
  C 497.43 189.96 494.97 173.29 495.43 156.25
  Q 496.15 129.79 497.66 117.93
  Q 499.04 107.04 499.20 96.27
  A 0.83 0.82 -1.3 0 0 498.32 95.43
  C 492.49 95.84 487.24 96.35 481.24 95.86
  Q 474.25 95.29 462.00 94.77
  C 455.38 94.49 452.95 97.33 452.01 103.54
  C 450.88 110.97 452.15 118.75 452.37 126.25
  C 452.86 142.99 454.66 159.61 456.12 176.28
  C 457.67 194.10 458.19 212.06 459.08 229.94
  Q 459.35 235.37 458.98 238.83
  A 0.69 0.69 0.0 0 1 458.42 239.43
  Q 444.57 241.98 441.00 242.26
  C 435.05 242.72 428.66 240.84 422.02 240.30
  C 418.14 239.98 413.47 239.91 412.67 235.13
  C 411.11 225.80 412.26 219.24 411.71 211.56
  C 409.16 175.97 411.60 138.58 414.09 107.32
  Q 414.62 100.72 413.72 95.45
  Q 413.63 94.91 413.12 94.72
  Q 410.93 93.90 408.56 93.87
  C 399.21 93.77 389.99 93.90 380.52 92.76
  C 375.16 92.12 367.83 90.82 365.08 94.40
  C 362.82 97.33 363.69 104.52 363.98 108.06
  C 364.96 119.61 366.32 130.99 366.81 142.69
  C 367.13 150.40 367.85 158.04 367.50 165.76
  Q 367.39 168.15 367.60 170.75
  C 368.97 187.70 370.30 205.09 368.77 222.06
  Q 367.42 236.99 367.46 252.00
  C 367.48 257.09 367.65 260.99 372.19 264.31
  Z
  M 151.07 269.22
  Q 152.04 277.81 156.91 284.94
  A 1.39 1.37 81.0 0 0 157.67 285.50
  C 162.68 286.96 174.12 283.59 180.23 282.39
  Q 186.72 281.11 192.55 278.01
  A 1.24 1.24 0.0 0 0 193.18 276.66
  C 191.59 268.94 191.81 260.28 191.01 253.38
  Q 189.40 239.44 189.28 228.99
  Q 188.97 200.92 187.49 178.62
  C 186.30 160.80 187.45 143.83 188.43 126.92
  C 189.00 117.05 190.67 106.48 190.52 95.93
  Q 190.51 95.35 189.92 95.39
  Q 185.13 95.80 180.34 96.02
  C 170.51 96.47 159.27 94.12 150.80 94.79
  C 144.81 95.26 143.11 101.30 143.18 106.50
  Q 143.53 132.22 145.95 157.80
  C 148.43 183.95 149.24 207.03 150.71 231.76
  Q 150.92 235.32 150.40 238.99
  Q 150.32 239.51 149.79 239.59
  Q 141.79 240.81 133.79 242.13
  C 126.07 243.41 116.60 240.33 108.76 239.74
  C 103.50 239.34 103.33 231.30 103.31 227.53
  Q 103.25 212.10 102.56 196.67
  C 101.18 166.11 103.52 135.95 105.66 105.50
  Q 106.00 100.61 105.34 95.92
  A 1.81 1.80 1.4 0 0 103.88 94.40
  C 97.71 93.24 92.18 93.82 84.41 93.62
  C 77.39 93.44 69.09 92.40 61.37 92.22
  C 53.15 92.03 55.04 104.51 55.54 109.31
  Q 58.15 134.47 59.18 159.75
  C 59.32 163.13 58.84 167.08 59.14 170.74
  C 60.52 187.62 61.91 205.14 60.26 222.03
  Q 58.47 240.26 59.30 258.60
  Q 59.32 259.08 59.57 259.49
  C 67.87 273.20 98.18 278.29 112.75 282.03
  C 123.13 284.69 141.80 274.89 150.00 268.76
  A 0.67 0.67 0.0 0 1 151.07 269.22
  Z
  M 279.49 202.33
  Q 277.70 197.04 276.79 191.54
  C 276.09 187.37 274.14 183.61 273.17 179.33
  C 271.33 171.27 269.54 163.61 266.95 155.32
  Q 258.34 127.67 252.81 99.24
  Q 252.44 97.33 249.40 94.95
  A 1.65 1.63 -22.7 0 0 248.56 94.61
  C 243.54 93.99 238.82 93.21 233.72 93.46
  Q 222.45 94.03 211.18 94.64
  C 206.53 94.90 203.98 97.04 205.59 101.93
  Q 214.22 127.97 221.92 154.29
  C 226.00 168.25 232.09 181.79 236.34 195.40
  Q 247.70 231.82 259.05 268.23
  C 260.37 272.47 262.01 278.62 265.98 280.67
  C 272.28 283.94 282.83 282.14 289.95 282.39
  C 295.88 282.61 301.22 280.22 302.81 274.06
  C 305.81 262.42 310.09 252.21 312.02 244.75
  Q 317.48 223.56 325.97 181.99
  Q 328.09 171.65 334.05 155.55
  C 336.23 149.68 337.33 142.94 339.50 136.71
  C 341.20 131.80 342.44 125.69 344.95 120.49
  Q 346.23 117.82 346.69 115.19
  C 347.46 110.81 352.63 96.56 345.18 95.35
  C 337.99 94.19 329.57 94.80 322.04 93.83
  C 315.57 92.99 304.24 89.02 303.39 99.93
  C 302.47 111.84 298.77 123.95 296.97 136.04
  C 296.03 142.31 294.10 148.81 292.92 155.68
  C 291.71 162.75 289.67 173.77 286.71 183.08
  C 284.61 189.72 283.15 196.19 280.11 202.37
  Q 279.75 203.11 279.49 202.33
  Z"
/>
<path fill="#8f84ec" d="
  M 372.19 264.31
  C 367.65 260.99 367.48 257.09 367.46 252.00
  Q 367.42 236.99 368.77 222.06
  C 370.30 205.09 368.97 187.70 367.60 170.75
  Q 367.39 168.15 367.50 165.76
  C 367.85 158.04 367.13 150.40 366.81 142.69
  C 366.32 130.99 364.96 119.61 363.98 108.06
  C 363.69 104.52 362.82 97.33 365.08 94.40
  C 367.83 90.82 375.16 92.12 380.52 92.76
  C 389.99 93.90 399.21 93.77 408.56 93.87
  Q 410.93 93.90 413.12 94.72
  Q 413.63 94.91 413.72 95.45
  Q 414.62 100.72 414.09 107.32
  C 411.60 138.58 409.16 175.97 411.71 211.56
  C 412.26 219.24 411.11 225.80 412.67 235.13
  C 413.47 239.91 418.14 239.98 422.02 240.30
  C 428.66 240.84 435.05 242.72 441.00 242.26
  Q 444.57 241.98 458.42 239.43
  A 0.69 0.69 0.0 0 0 458.98 238.83
  Q 459.35 235.37 459.08 229.94
  C 458.19 212.06 457.67 194.10 456.12 176.28
  C 454.66 159.61 452.86 142.99 452.37 126.25
  C 452.15 118.75 450.88 110.97 452.01 103.54
  C 452.95 97.33 455.38 94.49 462.00 94.77
  Q 474.25 95.29 481.24 95.86
  C 487.24 96.35 492.49 95.84 498.32 95.43
  A 0.83 0.82 -1.3 0 1 499.20 96.27
  Q 499.04 107.04 497.66 117.93
  Q 496.15 129.79 495.43 156.25
  C 494.97 173.29 497.43 189.96 497.47 206.95
  Q 497.52 227.21 498.86 247.44
  C 499.17 252.12 500.10 256.67 500.22 261.30
  Q 500.40 268.89 501.53 276.76
  A 1.47 1.46 73.4 0 1 500.71 278.29
  C 491.94 282.51 479.91 284.37 471.19 285.69
  Q 469.08 286.02 466.36 285.63
  Q 465.85 285.56 465.56 285.14
  Q 460.54 278.00 459.66 269.30
  A 0.73 0.73 0.0 0 0 458.50 268.79
  C 449.00 275.89 431.70 284.51 419.92 281.66
  C 403.64 277.71 386.02 274.44 372.19 264.31
  Z"
/>
<path fill="#8f84ec" d="
  M 151.07 269.22
  A 0.67 0.67 0.0 0 0 150.00 268.76
  C 141.80 274.89 123.13 284.69 112.75 282.03
  C 98.18 278.29 67.87 273.20 59.57 259.49
  Q 59.32 259.08 59.30 258.60
  Q 58.47 240.26 60.26 222.03
  C 61.91 205.14 60.52 187.62 59.14 170.74
  C 58.84 167.08 59.32 163.13 59.18 159.75
  Q 58.15 134.47 55.54 109.31
  C 55.04 104.51 53.15 92.03 61.37 92.22
  C 69.09 92.40 77.39 93.44 84.41 93.62
  C 92.18 93.82 97.71 93.24 103.88 94.40
  A 1.81 1.80 1.4 0 1 105.34 95.92
  Q 106.00 100.61 105.66 105.50
  C 103.52 135.95 101.18 166.11 102.56 196.67
  Q 103.25 212.10 103.31 227.53
  C 103.33 231.30 103.50 239.34 108.76 239.74
  C 116.60 240.33 126.07 243.41 133.79 242.13
  Q 141.79 240.81 149.79 239.59
  Q 150.32 239.51 150.40 238.99
  Q 150.92 235.32 150.71 231.76
  C 149.24 207.03 148.43 183.95 145.95 157.80
  Q 143.53 132.22 143.18 106.50
  C 143.11 101.30 144.81 95.26 150.80 94.79
  C 159.27 94.12 170.51 96.47 180.34 96.02
  Q 185.13 95.80 189.92 95.39
  Q 190.51 95.35 190.52 95.93
  C 190.67 106.48 189.00 117.05 188.43 126.92
  C 187.45 143.83 186.30 160.80 187.49 178.62
  Q 188.97 200.92 189.28 228.99
  Q 189.40 239.44 191.01 253.38
  C 191.81 260.28 191.59 268.94 193.18 276.66
  A 1.24 1.24 0.0 0 1 192.55 278.01
  Q 186.72 281.11 180.23 282.39
  C 174.12 283.59 162.68 286.96 157.67 285.50
  A 1.39 1.37 81.0 0 1 156.91 284.94
  Q 152.04 277.81 151.07 269.22
  Z"
/>
<path fill="#7d6ddb" d="
  M 280.11 202.37
  C 283.15 196.19 284.61 189.72 286.71 183.08
  C 289.67 173.77 291.71 162.75 292.92 155.68
  C 294.10 148.81 296.03 142.31 296.97 136.04
  C 298.77 123.95 302.47 111.84 303.39 99.93
  C 304.24 89.02 315.57 92.99 322.04 93.83
  C 329.57 94.80 337.99 94.19 345.18 95.35
  C 352.63 96.56 347.46 110.81 346.69 115.19
  Q 346.23 117.82 344.95 120.49
  C 342.44 125.69 341.20 131.80 339.50 136.71
  C 337.33 142.94 336.23 149.68 334.05 155.55
  Q 328.09 171.65 325.97 181.99
  Q 317.48 223.56 312.02 244.75
  C 310.09 252.21 305.81 262.42 302.81 274.06
  C 301.22 280.22 295.88 282.61 289.95 282.39
  C 282.83 282.14 272.28 283.94 265.98 280.67
  C 262.01 278.62 260.37 272.47 259.05 268.23
  Q 247.70 231.82 236.34 195.40
  C 232.09 181.79 226.00 168.25 221.92 154.29
  Q 214.22 127.97 205.59 101.93
  C 203.98 97.04 206.53 94.90 211.18 94.64
  Q 222.45 94.03 233.72 93.46
  C 238.82 93.21 243.54 93.99 248.56 94.61
  A 1.65 1.63 -22.7 0 1 249.40 94.95
  Q 252.44 97.33 252.81 99.24
  Q 258.34 127.67 266.95 155.32
  C 269.54 163.61 271.33 171.27 273.17 179.33
  C 274.14 183.61 276.09 187.37 276.79 191.54
  Q 277.70 197.04 279.49 202.33
  Q 279.75 203.11 280.11 202.37
  Z"
/>
</svg>
