<?xml version="1.0" standalone="no"?>
<!DOCTYPE svg PUBLIC "-//W3C//DTD SVG 20010904//EN"
 "http://www.w3.org/TR/2001/REC-SVG-20010904/DTD/svg10.dtd">
<svg version="1.0" xmlns="http://www.w3.org/2000/svg"
 width="1145.000000pt" height="1145.000000pt" viewBox="0 0 1145.000000 1145.000000"
 preserveAspectRatio="xMidYMid meet">
<metadata>
Created by potrace 1.14, written by Peter Selinger 2001-2017
</metadata>
<g transform="translate(0.000000,1145.000000) scale(0.100000,-0.100000)"
fill="#000000" stroke="none">
<path d="M1890 10163 c-139 -23 -283 -80 -403 -160 -306 -204 -524 -646 -632
-1285 -53 -315 -55 -899 -4 -1681 l19 -307 -29 -118 c-79 -316 -145 -739 -171
-1087 -5 -77 -13 -260 -16 -406 l-7 -266 -156 -7 c-293 -14 -386 -23 -428 -44
-54 -28 -67 -57 -61 -137 11 -133 86 -224 197 -241 25 -4 111 -2 191 5 80 6
181 14 226 17 l81 7 6 -94 c9 -122 37 -249 82 -374 20 -55 38 -107 41 -117 5
-13 -10 -21 -78 -42 -140 -43 -273 -76 -400 -101 -155 -30 -173 -45 -173 -138
0 -90 49 -188 108 -219 66 -33 155 -35 257 -4 146 45 343 94 388 98 l44 3 34
-85 c287 -710 893 -1291 1688 -1617 639 -263 1405 -414 2395 -473 291 -17 778
-25 804 -12 12 6 135 15 272 21 138 6 313 15 390 21 77 5 208 14 290 19 168
11 306 31 299 42 -5 9 31 16 316 63 315 52 915 216 1190 326 403 160 844 436
1127 704 274 258 519 605 644 911 18 44 34 81 35 83 1 2 110 -24 242 -57 286
-72 346 -80 425 -57 91 27 148 89 176 192 22 83 -15 126 -120 140 -30 4 -70
14 -89 24 -19 9 -136 43 -260 75 -124 32 -226 59 -227 59 0 1 9 33 22 73 33
101 63 245 83 403 l17 135 125 -1 c69 0 168 -4 221 -8 129 -12 195 -2 260 37
74 44 112 101 117 174 3 48 0 64 -20 93 -13 19 -39 43 -59 52 -44 22 -187 38
-345 38 -67 0 -154 3 -195 6 l-74 7 -1 186 c-1 115 -7 228 -17 296 -9 61 -26
189 -37 287 -24 202 -72 513 -130 836 l-40 223 10 267 c5 147 14 402 20 567 5
165 12 336 15 380 7 97 -10 488 -30 715 -25 270 -55 391 -185 739 -17 47 -29
90 -26 96 2 7 -15 51 -39 98 -211 421 -576 641 -1035 624 -341 -13 -820 -158
-1320 -399 -425 -205 -712 -379 -1071 -649 l-116 -87 -141 23 c-645 108 -1090
110 -1784 10 l-237 -35 -168 127 c-92 70 -231 168 -308 219 -169 111 -402 246
-418 242 -7 -2 -95 39 -197 89 -102 51 -246 117 -320 148 -74 31 -140 63 -146
71 -19 24 -293 122 -457 164 -235 60 -372 80 -528 79 -74 -1 -145 -4 -159 -6z
m376 -494 c54 -11 162 -41 239 -65 77 -25 212 -65 300 -89 204 -56 232 -68
575 -241 352 -177 442 -227 748 -416 266 -164 298 -177 433 -178 44 0 180 17
319 40 134 22 248 39 254 37 6 -2 -25 -9 -70 -16 -45 -7 -86 -16 -93 -20 -15
-9 4 -89 80 -339 59 -192 93 -273 139 -325 100 -114 260 -106 319 15 33 69 52
222 58 478 l6 235 137 -3 138 -3 -5 -217 c-9 -368 17 -503 110 -556 59 -33
103 -39 165 -21 95 29 143 88 207 254 51 135 134 456 121 469 -3 2 -31 11 -63
18 -53 12 -54 13 -13 9 25 -2 117 -16 205 -30 183 -29 265 -31 325 -10 23 8
122 64 219 124 849 523 1382 745 2064 861 181 31 228 28 339 -20 51 -22 105
-53 121 -68 80 -75 161 -205 217 -347 30 -74 89 -289 105 -379 l6 -39 -58 52
c-187 169 -480 316 -664 336 -123 13 -293 -27 -450 -106 -182 -91 -619 -415
-696 -515 -24 -32 -25 -37 -12 -60 21 -40 167 -173 250 -229 114 -77 231 -132
386 -181 82 -26 158 -57 181 -74 105 -76 341 -324 508 -534 571 -717 856
-1535 876 -2516 l3 -145 -184 -12 c-193 -12 -225 -19 -263 -60 -20 -21 -23
-34 -23 -101 1 -59 6 -87 23 -119 46 -87 101 -107 290 -106 l134 1 -7 -51
c-10 -78 -62 -335 -80 -395 -13 -43 -20 -52 -33 -47 -163 62 -344 87 -406 55
-45 -23 -71 -75 -70 -140 1 -129 100 -221 269 -251 39 -7 74 -15 78 -19 22
-19 -150 -327 -279 -500 -91 -122 -317 -357 -454 -472 -405 -341 -948 -575
-1683 -727 -81 -17 -156 -31 -165 -30 -9 0 64 18 163 40 355 77 748 197 978
297 311 136 610 338 861 581 225 219 403 453 502 659 35 73 64 135 64 137 0 3
-6 5 -14 5 -7 0 -60 -62 -116 -138 -118 -158 -343 -389 -490 -502 -454 -349
-1004 -605 -1630 -759 -394 -97 -954 -181 -1460 -221 -862 -67 -1876 15 -2687
219 -680 171 -1190 401 -1602 721 -108 84 -286 253 -374 355 -34 39 -70 75
-81 80 -26 13 -119 152 -142 210 -21 56 -11 67 74 90 124 32 209 80 237 135
34 67 3 204 -52 229 -34 16 -109 14 -143 -4 -38 -20 -163 -52 -230 -60 l-55
-6 -43 118 c-44 117 -75 242 -85 338 l-5 50 71 2 c103 3 246 23 290 40 67 27
117 108 117 190 0 58 -22 98 -62 113 -18 6 -121 16 -228 22 -107 6 -201 15
-208 20 -39 33 11 690 83 1084 61 331 177 682 329 999 251 523 662 1033 923
1147 27 11 59 32 72 47 l23 26 -16 -27 c-31 -53 14 -43 179 40 168 84 481 306
529 373 40 58 11 98 -186 256 -220 176 -490 337 -652 389 -264 84 -556 -4
-841 -255 -44 -39 -86 -71 -93 -71 -18 0 -29 -32 -52 -155 -19 -106 -56 -382
-63 -475 -3 -39 -4 -37 -5 15 -6 197 97 710 199 987 38 106 119 271 158 325
51 71 145 123 256 143 72 13 217 4 331 -21z m2937 -906 c-7 -2 -19 -2 -25 0
-7 3 -2 5 12 5 14 0 19 -2 13 -5z m1114 -19 c-3 -3 -12 -4 -19 -1 -8 3 -5 6 6
6 11 1 17 -2 13 -5z m2486 -371 c-21 -21 -40 -34 -42 -29 -4 11 54 66 70 66 6
0 -7 -17 -28 -37z m560 -263 c119 -127 554 -676 544 -686 -3 -3 -19 12 -35 33
-166 210 -480 594 -542 663 -14 15 -43 40 -65 55 -57 41 -165 147 -165 163 0
19 167 -126 263 -228z m-8046 -102 c-2 -13 -4 -5 -4 17 -1 22 1 32 4 23 2 -10
2 -28 0 -40z m462 -77 c-8 -10 -68 -90 -134 -177 -66 -88 -151 -207 -189 -266
-79 -121 -104 -140 -31 -23 80 129 347 485 363 485 2 0 -2 -8 -9 -19z m-461
-386 c0 -77 -2 -83 -9 -45 -4 25 -7 88 -7 140 1 83 2 89 8 45 5 -27 8 -90 8
-140z m233 -4292 c17 -24 28 -43 25 -43 -11 0 -120 166 -156 238 -62 123 -47
110 31 -28 39 -68 84 -144 100 -167z m70 -100 c13 -16 12 -17 -3 -4 -17 13
-22 21 -14 21 2 0 10 -8 17 -17z m30 -40 c13 -16 12 -17 -3 -4 -17 13 -22 21
-14 21 2 0 10 -8 17 -17z m108 -136 c44 -53 81 -99 81 -102 0 -23 -53 38 -155
180 -41 57 -20 34 74 -78z m1686 -976 c485 -133 1014 -221 1510 -251 99 -6
205 -13 235 -17 30 -3 251 -9 490 -13 l435 -7 -495 2 c-341 2 -553 8 -680 19
-503 43 -830 90 -1181 171 -151 35 -469 122 -478 131 -10 10 29 2 164 -35z
m3968 -128 c-7 -2 -19 -2 -25 0 -7 3 -2 5 12 5 14 0 19 -2 13 -5z m-178 -33
c-77 -16 -162 -31 -190 -34 -50 -5 -50 -5 -10 5 72 18 289 57 315 57 14 0 -38
-13 -115 -28z m-252 -47 c-7 -2 -21 -2 -30 0 -10 3 -4 5 12 5 17 0 24 -2 18
-5z m-143 -18 c-141 -19 -428 -45 -485 -44 -28 1 41 10 152 20 111 10 235 22
275 27 40 5 91 9 113 10 22 0 -3 -6 -55 -13z m-573 -52 c-20 -2 -52 -2 -70 0
-17 2 0 4 38 4 39 0 53 -2 32 -4z"/>
<path d="M3846 5663 c-16 -10 -77 -81 -135 -158 -64 -85 -130 -158 -166 -188
-206 -165 -553 -224 -879 -147 -220 51 -308 47 -373 -18 -36 -35 -36 -35 -31
-9 6 31 6 32 -30 13 -71 -38 -147 -148 -158 -229 -18 -128 137 -276 298 -285
l68 -4 -50 -45 c-62 -56 -114 -156 -130 -255 -21 -123 13 -270 86 -365 65 -85
191 -133 302 -115 73 12 198 68 232 103 69 72 111 242 93 371 -30 205 -133
316 -318 343 -28 4 -53 13 -57 19 -10 15 1 49 19 59 8 5 13 22 11 41 -2 33 -3
33 -67 45 -71 13 -165 41 -158 47 2 2 41 -5 87 -17 249 -62 550 -78 740 -39
308 62 542 222 747 508 51 72 93 167 93 213 0 69 -55 117 -143 125 -39 4 -59
1 -81 -13z"/>
<path d="M7415 5655 c-47 -17 -91 -64 -99 -109 -14 -73 46 -190 177 -344 99
-118 208 -215 286 -255 215 -113 583 -169 866 -133 275 35 377 67 449 141 21
22 34 31 28 20 -18 -35 -76 -83 -123 -105 -26 -11 -99 -30 -163 -42 -109 -21
-115 -24 -118 -48 -2 -14 5 -38 14 -55 24 -41 24 -42 -21 -48 -174 -23 -293
-218 -278 -457 16 -252 142 -384 351 -367 89 8 181 51 231 110 78 91 110 206
103 370 -5 121 -32 191 -96 255 l-40 40 47 6 c116 16 204 71 257 163 24 39 26
52 22 117 -5 83 -41 160 -93 203 -16 13 -38 31 -47 38 -74 60 -181 66 -398 21
-105 -22 -173 -30 -303 -34 -398 -12 -568 70 -834 397 -100 123 -139 144 -218
116z"/>
<path d="M5685 4676 c-16 -8 -43 -27 -58 -44 -33 -34 -46 -107 -47 -248 0
-184 -69 -274 -249 -328 -67 -20 -193 -20 -281 -1 -119 26 -199 14 -234 -36
-33 -48 -10 -184 33 -196 10 -2 28 -18 40 -34 45 -61 170 -99 329 -99 178 0
344 54 441 145 l50 47 48 -42 c123 -110 384 -177 583 -150 184 24 290 75 345
164 26 42 30 59 30 117 0 50 -5 73 -17 85 -26 26 -94 28 -203 4 -160 -34 -197
-38 -250 -30 -92 15 -165 49 -221 104 -69 67 -78 103 -70 263 4 77 3 137 -4
162 -13 50 -54 100 -97 117 -41 18 -129 17 -168 0z"/>
</g>
</svg>
