<svg version="1.1" xmlns="http://www.w3.org/2000/svg" viewBox="0 0 1211.3923028062056 324.079644007892" width="3634.176908418617" height="972.2389320236759">
  <!-- svg-source:excalidraw -->
  <g stroke-linecap="round" transform="translate(106.33242935471105 50.995970659128375) rotate(0 73.498046875 29.0546875)"><path d="M14.53 0 M14.53 0 C44.76 2.4, 78 2.27, 132.47 0 M14.53 0 C62.01 -0.24, 109.19 0, 132.47 0 M132.47 0 C142.88 -1.65, 146.11 4.45, 147 14.53 M132.47 0 C144.16 2.09, 148.18 3.7, 147 14.53 M147 14.53 C148.28 22.36, 145.67 27.2, 147 43.58 M147 14.53 C147.61 25.76, 147.59 36.21, 147 43.58 M147 43.58 C147.87 53.44, 142.39 59.56, 132.47 58.11 M147 43.58 C144.9 53.68, 141.68 57.75, 132.47 58.11 M132.47 58.11 C101.79 57.32, 73.62 57.55, 14.53 58.11 M132.47 58.11 C98.59 57.24, 64.71 57.06, 14.53 58.11 M14.53 58.11 C4.97 57.35, -0.8 52.37, 0 43.58 M14.53 58.11 C5.73 58.24, -0.15 52.26, 0 43.58 M0 43.58 C-1.57 35.96, -1.65 25.75, 0 14.53 M0 43.58 C-0.04 34.46, -1.15 24, 0 14.53 M0 14.53 C1.51 5.04, 3.98 -1.43, 14.53 0 M0 14.53 C1.5 5.85, 5.88 1.55, 14.53 0" stroke="#1e1e1e" stroke-width="1" fill="none"></path></g><g transform="translate(123.03164810471105 56.558470659128375) rotate(0 55.369964599609375 25)"><text x="55.369964599609375" y="0" font-family="Virgil, Segoe UI Emoji" font-size="20px" fill="#1e1e1e" text-anchor="middle" style="white-space: pre;" direction="ltr" dominant-baseline="text-before-edge">Объявление</text><text x="55.369964599609375" y="25" font-family="Virgil, Segoe UI Emoji" font-size="20px" fill="#1e1e1e" text-anchor="middle" style="white-space: pre;" direction="ltr" dominant-baseline="text-before-edge">переменной</text></g><g stroke-linecap="round" transform="translate(686.2463266246222 214.36530664930228) rotate(0 73.49804687499994 29.0546875)"><path d="M14.53 0 M14.53 0 C59.61 -0.05, 103.82 2.72, 132.47 0 M14.53 0 C44.2 1.07, 73.31 0.69, 132.47 0 M132.47 0 C143.2 -1.1, 148.35 3.95, 147 14.53 M132.47 0 C140.44 -1.05, 147.58 2.96, 147 14.53 M147 14.53 C146.63 21.34, 147.62 27.64, 147 43.58 M147 14.53 C146.65 24.22, 146.5 36.09, 147 43.58 M147 43.58 C145.42 51.46, 140.5 59.13, 132.47 58.11 M147 43.58 C146.23 54.04, 140.16 57.5, 132.47 58.11 M132.47 58.11 C102.39 55.8, 74.58 58.25, 14.53 58.11 M132.47 58.11 C108.58 59.14, 85.65 58.67, 14.53 58.11 M14.53 58.11 C6.8 59.86, -1.25 53.89, 0 43.58 M14.53 58.11 C7.09 56.73, 1.39 52.72, 0 43.58 M0 43.58 C0.22 35.23, -1.73 24.99, 0 14.53 M0 43.58 C-0.14 32.53, -0.85 22.78, 0 14.53 M0 14.53 C-1.1 3.47, 4.21 -0.39, 14.53 0 M0 14.53 C-0.76 3.89, 6.09 -0.43, 14.53 0" stroke="#1e1e1e" stroke-width="1" fill="none"></path></g><g transform="translate(702.9455453746222 219.92780664930228) rotate(0 55.369964599609375 25)"><text x="55.369964599609375" y="0" font-family="Virgil, Segoe UI Emoji" font-size="20px" fill="#1e1e1e" text-anchor="middle" style="white-space: pre;" direction="ltr" dominant-baseline="text-before-edge">Объявление</text><text x="55.369964599609375" y="25" font-family="Virgil, Segoe UI Emoji" font-size="20px" fill="#1e1e1e" text-anchor="middle" style="white-space: pre;" direction="ltr" dominant-baseline="text-before-edge">переменной</text></g><g stroke-linecap="round"><g transform="translate(244.0684523039298 85.52800544107004) rotate(0 28.85623335741073 -0.4553079569368066)"><path d="M-0.05 -0.58 C9.78 -0.53, 49.42 -0.52, 59.24 -0.7 M-1.53 1.72 C8.11 1.49, 48.37 -2.23, 58.28 -2.63" stroke="#1e1e1e" stroke-width="1" fill="none"></path></g><g transform="translate(244.0684523039298 85.52800544107004) rotate(0 28.85623335741073 -0.4553079569368066)"><path d="M30.22 9.37 C40.66 4.9, 47.75 2.76, 59.7 -3.11 M31.83 8.53 C36.83 7.1, 44.4 4.06, 58.76 -2.83" stroke="#1e1e1e" stroke-width="1" fill="none"></path></g><g transform="translate(244.0684523039298 85.52800544107004) rotate(0 28.85623335741073 -0.4553079569368066)"><path d="M28.82 -10.86 C39.54 -8.8, 47.08 -4.4, 59.7 -3.11 M30.42 -11.69 C35.9 -8.33, 43.8 -6.57, 58.76 -2.83" stroke="#1e1e1e" stroke-width="1" fill="none"></path></g></g><mask></mask><g stroke-linecap="round"><g transform="translate(692.648670374622 239.03799855381243) rotate(0 -35.740903415236005 -0.26349581404664946)"><path d="M-0.57 -0.89 C-12.49 -1.16, -60.3 -1.6, -72.44 -1.78 M1.33 1.26 C-10.57 1.15, -60.24 -0.2, -72.81 -0.59" stroke="#1e1e1e" stroke-width="1" fill="none"></path></g><g transform="translate(692.648670374622 239.03799855381243) rotate(0 -35.740903415236005 -0.26349581404664946)"><path d="M-45.82 -8.22 C-51.81 -7.87, -58.48 -4.44, -72.33 1.28 M-43.66 -10.49 C-53.19 -7.95, -60.35 -5.6, -73.56 -0.4" stroke="#1e1e1e" stroke-width="1" fill="none"></path></g><g transform="translate(692.648670374622 239.03799855381243) rotate(0 -35.740903415236005 -0.26349581404664946)"><path d="M-46.41 12.29 C-52.23 8.06, -58.77 6.91, -72.33 1.28 M-44.25 10.02 C-53.72 6.69, -60.71 3.16, -73.56 -0.4" stroke="#1e1e1e" stroke-width="1" fill="none"></path></g></g><mask></mask><g stroke-linecap="round" transform="translate(291.19670614372035 51.65448375688425) rotate(0 74.517578125 29.0546875)"><path d="M14.53 0 M14.53 0 C64.29 0.47, 109.99 0.4, 134.51 0 M14.53 0 C59.8 -0.24, 105.92 -1.32, 134.51 0 M134.51 0 C145.45 1.53, 148.32 4.4, 149.04 14.53 M134.51 0 C142.16 0.93, 146.9 6.49, 149.04 14.53 M149.04 14.53 C149.07 25.02, 149.84 37.54, 149.04 43.58 M149.04 14.53 C149.76 22.35, 149.32 28.29, 149.04 43.58 M149.04 43.58 C149.32 54.14, 143.88 59.94, 134.51 58.11 M149.04 43.58 C148.01 54.91, 146.26 60.3, 134.51 58.11 M134.51 58.11 C103.7 55.97, 70.67 58.37, 14.53 58.11 M134.51 58.11 C106 57.69, 76.38 57.79, 14.53 58.11 M14.53 58.11 C3.76 58.19, 0.98 53.16, 0 43.58 M14.53 58.11 C6.92 59.51, -0.97 51.03, 0 43.58 M0 43.58 C2.06 35.85, -0.02 28.51, 0 14.53 M0 43.58 C-0.11 35.15, -0.97 28.12, 0 14.53 M0 14.53 C-1.56 3.23, 5.58 1.72, 14.53 0 M0 14.53 C-1.54 6.5, 6.85 -1.14, 14.53 0" stroke="#1e1e1e" stroke-width="1" fill="none"></path></g><g transform="translate(314.75920614372035 55.82635875688425) rotate(0 50.89995574951172 25)"><text x="50.89995574951172" y="0" font-family="Virgil, Segoe UI Emoji" font-size="20px" fill="#1e1e1e" text-anchor="middle" style="white-space: pre;" direction="ltr" dominant-baseline="text-before-edge">Вывод</text><text x="50.89995574951172" y="25" font-family="Virgil, Segoe UI Emoji" font-size="20px" fill="#1e1e1e" text-anchor="middle" style="white-space: pre;" direction="ltr" dominant-baseline="text-before-edge">переменной</text></g><g stroke-linecap="round" transform="translate(482.3406949067438 210.27229170141305) rotate(0 74.517578125 29.0546875)"><path d="M14.53 0 M14.53 0 C50.5 -0.21, 83.03 -0.51, 134.51 0 M14.53 0 C59.45 -0.6, 104.09 -0.44, 134.51 0 M134.51 0 C143.3 -1.49, 148.12 5.35, 149.04 14.53 M134.51 0 C142.31 -1.71, 149.47 6.83, 149.04 14.53 M149.04 14.53 C149.08 23.88, 150.58 30.62, 149.04 43.58 M149.04 14.53 C149.3 20.81, 147.89 27.85, 149.04 43.58 M149.04 43.58 C150.06 52.6, 144.87 56.37, 134.51 58.11 M149.04 43.58 C148.43 51.91, 141.92 56.19, 134.51 58.11 M134.51 58.11 C109.61 55.51, 83.71 58.04, 14.53 58.11 M134.51 58.11 C100.15 59.95, 66.22 58.35, 14.53 58.11 M14.53 58.11 C5.47 60.06, -1.2 54.47, 0 43.58 M14.53 58.11 C4.3 58.77, -1.48 54.88, 0 43.58 M0 43.58 C0.33 36.29, 1.6 26.02, 0 14.53 M0 43.58 C0.98 33.96, -0.63 25.12, 0 14.53 M0 14.53 C-0.39 4.18, 4.02 1.09, 14.53 0 M0 14.53 C-0.43 5.94, 2.9 0.18, 14.53 0" stroke="#1e1e1e" stroke-width="1" fill="none"></path></g><g transform="translate(505.9031949067438 214.44416670141305) rotate(0 50.89995574951172 25)"><text x="50.89995574951172" y="0" font-family="Virgil, Segoe UI Emoji" font-size="20px" fill="#1e1e1e" text-anchor="middle" style="white-space: pre;" direction="ltr" dominant-baseline="text-before-edge">Вывод</text><text x="50.89995574951172" y="25" font-family="Virgil, Segoe UI Emoji" font-size="20px" fill="#1e1e1e" text-anchor="middle" style="white-space: pre;" direction="ltr" dominant-baseline="text-before-edge">переменной</text></g><g stroke-linecap="round" transform="translate(701.6209901762395 52.9314085543499) rotate(0 74.517578125 29.0546875)"><path d="M14.53 0 M14.53 0 C56.23 0.94, 97.13 -0.44, 134.51 0 M14.53 0 C43.34 -0.56, 71.6 -1.02, 134.51 0 M134.51 0 C143.73 1.63, 150.36 5.5, 149.04 14.53 M134.51 0 C143.1 -1.74, 149.95 4.83, 149.04 14.53 M149.04 14.53 C150.06 19.48, 148.91 25.08, 149.04 43.58 M149.04 14.53 C149.52 20.78, 149.65 27.3, 149.04 43.58 M149.04 43.58 C150.79 53.1, 145.48 58.74, 134.51 58.11 M149.04 43.58 C149.4 52.33, 144.65 58.25, 134.51 58.11 M134.51 58.11 C101.1 55.38, 64.84 59.13, 14.53 58.11 M134.51 58.11 C109.23 58.04, 83.69 57.39, 14.53 58.11 M14.53 58.11 C4.46 57.03, 0.05 51.39, 0 43.58 M14.53 58.11 C4.96 60.29, 0.56 53.17, 0 43.58 M0 43.58 C-1.3 32.77, 1.46 21.62, 0 14.53 M0 43.58 C-0.74 34.25, -0.25 25.05, 0 14.53 M0 14.53 C1.63 6.38, 4.04 0.18, 14.53 0 M0 14.53 C1.92 3.07, 5.49 -1.8, 14.53 0" stroke="#1e1e1e" stroke-width="1" fill="none"></path></g><g transform="translate(725.4178651762395 56.1853148043499) rotate(0 50.89995574951172 25)"><text x="50.89995574951172" y="0" font-family="Virgil, Segoe UI Emoji" font-size="20px" fill="#1e1e1e" text-anchor="middle" style="white-space: pre;" direction="ltr" dominant-baseline="text-before-edge">Вывод</text><text x="50.89995574951172" y="25" font-family="Virgil, Segoe UI Emoji" font-size="20px" fill="#1e1e1e" text-anchor="middle" style="white-space: pre;" direction="ltr" dominant-baseline="text-before-edge">переменной</text></g><g stroke-linecap="round" transform="translate(467.83151205048534 55.49632717908548) rotate(0 87.357421875 29.0546875)"><path d="M14.53 0 M14.53 0 C52.67 -0.76, 88.92 0.17, 160.19 0 M14.53 0 C47.37 0.7, 82.43 0.42, 160.19 0 M160.19 0 C167.97 -0.27, 173.92 6.5, 174.71 14.53 M160.19 0 C171 1.08, 176.57 3.39, 174.71 14.53 M174.71 14.53 C173.42 23.55, 173.22 36.65, 174.71 43.58 M174.71 14.53 C174.72 23.71, 174.63 34.36, 174.71 43.58 M174.71 43.58 C173.89 55.16, 168.94 56.23, 160.19 58.11 M174.71 43.58 C175.25 53.02, 172.14 59.12, 160.19 58.11 M160.19 58.11 C130.07 56.2, 98.87 57.68, 14.53 58.11 M160.19 58.11 C107.78 58.76, 55 58.97, 14.53 58.11 M14.53 58.11 C4.77 57.36, -0.51 53.53, 0 43.58 M14.53 58.11 C3.41 58.68, 0.12 53.79, 0 43.58 M0 43.58 C-1.51 32.56, 1.61 20.61, 0 14.53 M0 43.58 C1.19 36.06, 0.18 29.32, 0 14.53 M0 14.53 C1.19 3.76, 5.66 0.68, 14.53 0 M0 14.53 C-2.07 6.79, 5.74 0.8, 14.53 0" stroke="#1e1e1e" stroke-width="1" fill="none"></path></g><g transform="translate(484.9893184469697 57.33617092908548) rotate(0 71.74996185302734 25)"><text x="71.74996185302734" y="0" font-family="Virgil, Segoe UI Emoji" font-size="20px" fill="#1e1e1e" text-anchor="middle" style="white-space: pre;" direction="ltr" dominant-baseline="text-before-edge">Инкрементация</text><text x="71.74996185302734" y="25" font-family="Virgil, Segoe UI Emoji" font-size="20px" fill="#1e1e1e" text-anchor="middle" style="white-space: pre;" direction="ltr" dominant-baseline="text-before-edge">переменной</text></g><g stroke-linecap="round"><g transform="translate(425.4302113927438 81.82517753306726) rotate(0 27.730851145440624 0.08727507582308647)"><path d="M0.55 0.75 C9.74 0.68, 46.85 -0.63, 56.08 -0.57 M-0.62 0.1 C8.31 0.16, 45.72 0.63, 54.99 0.46" stroke="#1e1e1e" stroke-width="1" fill="none"></path></g><g transform="translate(425.4302113927438 81.82517753306726) rotate(0 27.730851145440624 0.08727507582308647)"><path d="M29.76 9.64 C36.88 5.68, 49.61 2.86, 54.43 2.07 M28.89 10.54 C34.37 7.85, 39.31 7.33, 55.76 0.31" stroke="#1e1e1e" stroke-width="1" fill="none"></path></g><g transform="translate(425.4302113927438 81.82517753306726) rotate(0 27.730851145440624 0.08727507582308647)"><path d="M29.75 -9.63 C36.86 -6.36, 49.59 -1.93, 54.43 2.07 M28.89 -8.74 C34.27 -7.49, 39.2 -4.08, 55.76 0.31" stroke="#1e1e1e" stroke-width="1" fill="none"></path></g></g><mask></mask><g stroke-linecap="round" transform="translate(10 69.88957589982755) rotate(0 14.220703125 13.736328125)"><path d="M14.61 0.12 C17.52 0.1, 22.43 1.12, 24.62 2.94 C26.81 4.76, 27.45 7.89, 27.73 11.04 C28.02 14.2, 27.9 19.15, 26.32 21.87 C24.74 24.59, 21.13 26.53, 18.25 27.38 C15.37 28.24, 11.79 28.1, 9.03 26.98 C6.28 25.86, 3 23.53, 1.72 20.67 C0.43 17.81, 0.79 12.64, 1.34 9.83 C1.88 7.02, 2.33 5.24, 4.97 3.79 C7.61 2.34, 14.66 1.48, 17.16 1.12 C19.67 0.77, 19.94 1.48, 20 1.67 M20.62 2.4 C23.18 3.77, 26.63 6.79, 27.79 9.35 C28.94 11.92, 28.46 15.38, 27.57 17.79 C26.68 20.21, 24.89 22.3, 22.45 23.86 C20.01 25.41, 15.82 27.07, 12.94 27.13 C10.07 27.19, 7.14 26.3, 5.18 24.2 C3.23 22.09, 1.59 17.48, 1.21 14.5 C0.83 11.53, 1.52 8.86, 2.92 6.34 C4.32 3.81, 6.52 0.16, 9.58 -0.66 C12.65 -1.48, 19.51 0.91, 21.29 1.43 C23.07 1.95, 20.47 2.33, 20.26 2.47" stroke="#2f9e44" stroke-width="1" fill="none"></path></g><g stroke-linecap="round" transform="translate(13.547956425387781 238.3146855837748) rotate(0 14.220703125 13.736328125)"><path d="M19.85 0.63 C22.72 1.66, 26.31 5.95, 27.8 8.71 C29.29 11.48, 29.71 14.5, 28.81 17.23 C27.91 19.96, 25.25 23.41, 22.4 25.11 C19.54 26.81, 14.8 27.79, 11.65 27.43 C8.5 27.07, 5.57 25.28, 3.52 22.96 C1.46 20.64, -0.5 16.52, -0.68 13.51 C-0.85 10.5, 0.66 7.15, 2.47 4.9 C4.28 2.65, 7.15 0.63, 10.2 0 C13.24 -0.62, 18.75 0.84, 20.73 1.15 C22.71 1.46, 22.04 1.49, 22.06 1.85 M14.75 -1.24 C17.64 -0.9, 22.01 2.29, 24.11 4.9 C26.2 7.51, 26.98 11.65, 27.32 14.42 C27.65 17.19, 27.93 19.57, 26.1 21.53 C24.28 23.48, 19.56 25.36, 16.35 26.15 C13.14 26.93, 9.18 27.29, 6.83 26.24 C4.48 25.18, 3.47 22.51, 2.25 19.81 C1.03 17.12, -1.3 13.08, -0.49 10.07 C0.32 7.06, 4.29 3.17, 7.12 1.73 C9.94 0.29, 15.1 1.57, 16.46 1.41 C17.82 1.25, 15.38 0.64, 15.3 0.78" stroke="#e03131" stroke-width="1" fill="none"></path></g><g stroke-linecap="round"><g transform="translate(48.402994475954756 81.73769872563449) rotate(0 31.664249020612374 0.7302965124959542)"><path d="M-0.23 -0.68 C10.46 -0.66, 54.23 0.47, 65.13 1.07 M-1.81 1.58 C8.7 1.64, 53.43 2.22, 64.53 2.13" stroke="#1e1e1e" stroke-width="1" fill="none"></path></g><g transform="translate(48.402994475954756 81.73769872563449) rotate(0 31.664249020612374 0.7302965124959542)"><path d="M35.18 13.38 C45.49 9.68, 59.31 4.89, 64.07 1.13 M36.59 11.57 C42.11 10.81, 49.25 6.93, 63.68 2.81" stroke="#1e1e1e" stroke-width="1" fill="none"></path></g><g transform="translate(48.402994475954756 81.73769872563449) rotate(0 31.664249020612374 0.7302965124959542)"><path d="M35.26 -7.15 C45.71 -3, 59.5 0.05, 64.07 1.13 M36.67 -8.95 C42.12 -5.2, 49.24 -4.56, 63.68 2.81" stroke="#1e1e1e" stroke-width="1" fill="none"></path></g></g><mask></mask><g stroke-linecap="round"><g transform="translate(654.8471370504855 87.10597593494504) rotate(0 16.349473945961904 -0.6186060069666723)"><path d="M-0.99 -0.39 C4.64 -0.13, 27.93 0.29, 33.69 0.41 M0.69 -1.65 C6.23 -1.65, 27.65 -1.46, 33.06 -1.48" stroke="#1e1e1e" stroke-width="1" fill="none"></path></g><g transform="translate(654.8471370504855 87.10597593494504) rotate(0 16.349473945961904 -0.6186060069666723)"><path d="M16.95 4.95 C22.65 3.34, 27.05 0.41, 33 -0.08 M18.12 4.88 C21.92 2.59, 25.99 1.26, 33.63 -2.05" stroke="#1e1e1e" stroke-width="1" fill="none"></path></g><g transform="translate(654.8471370504855 87.10597593494504) rotate(0 16.349473945961904 -0.6186060069666723)"><path d="M16.98 -6.36 C22.56 -4.71, 26.95 -4.37, 33 -0.08 M18.16 -6.44 C21.92 -5.66, 25.98 -3.92, 33.63 -2.05" stroke="#1e1e1e" stroke-width="1" fill="none"></path></g></g><mask></mask><g stroke-linecap="round" transform="translate(918.9743340562056 50.21446738025355) rotate(0 141.208984375 128.67457318517484)"><path d="M32 0 M32 0 C117.84 -3.1, 202.9 -3.06, 250.42 0 M32 0 C113.67 2.04, 196.54 1.99, 250.42 0 M250.42 0 C271.84 -1.06, 284.17 12.29, 282.42 32 M250.42 0 C273.7 -1.77, 283.26 8.7, 282.42 32 M282.42 32 C282.62 95.33, 281.54 160.1, 282.42 225.35 M282.42 32 C281.77 99.95, 282.99 167.43, 282.42 225.35 M282.42 225.35 C282.24 244.92, 270.43 258.09, 250.42 257.35 M282.42 225.35 C283.91 247.32, 272.48 255.11, 250.42 257.35 M250.42 257.35 C205.97 257.85, 158.34 255.8, 32 257.35 M250.42 257.35 C177.75 257.46, 106.49 256.61, 32 257.35 M32 257.35 C11.93 255.68, -0.68 245.13, 0 225.35 M32 257.35 C10.1 258.16, -1.4 245.7, 0 225.35 M0 225.35 C-0.31 184.39, -0.29 142.56, 0 32 M0 225.35 C0.3 175.27, 0.24 124.4, 0 32 M0 32 C-1.74 8.74, 10.99 0.98, 32 0 M0 32 C-1.86 10.56, 12.16 0.83, 32 0" stroke="#1e1e1e" stroke-width="1" fill="none"></path></g><g transform="translate(940.1323464463424 62.52696738025355) rotate(0 54.75995635986328 12.5)"><text x="54.75995635986328" y="0" font-family="Virgil, Segoe UI Emoji" font-size="20px" fill="#1e1e1e" text-anchor="middle" style="white-space: pre;" direction="ltr" dominant-baseline="text-before-edge">Event Loop</text></g><g stroke-linecap="round"><g transform="translate(810.7938910560027 115.80035848642464) rotate(0 -1.112887018110655 42.544852674946)"><path d="M0.32 -0.15 C0.05 14.11, -1.65 70.85, -2.04 84.83 M-0.98 -1.28 C-1.29 13.25, -2.32 72.08, -2.54 86.37" stroke="#1e1e1e" stroke-width="1" fill="none"></path></g><g transform="translate(810.7938910560027 115.80035848642464) rotate(0 -1.112887018110655 42.544852674946)"><path d="M-12.58 59.43 C-9.93 66.87, -9.21 73.02, -1.83 86.63 M-11.35 57.46 C-8.7 67.28, -4.75 77.32, -3.26 85.53" stroke="#1e1e1e" stroke-width="1" fill="none"></path></g><g transform="translate(810.7938910560027 115.80035848642464) rotate(0 -1.112887018110655 42.544852674946)"><path d="M7.94 59.78 C5.22 67.18, 0.55 73.24, -1.83 86.63 M9.17 57.81 C4.69 67.7, 1.51 77.61, -3.26 85.53" stroke="#1e1e1e" stroke-width="1" fill="none"></path></g></g><mask></mask><g stroke-linecap="round"><g transform="translate(490.2764681414212 245.8846979865463) rotate(0 -41.008720918744814 -0.16944824678279247)"><path d="M1.04 0.54 C-12.65 0.61, -68.47 0.72, -82.67 0.65 M0.13 -0.23 C-13.57 -0.5, -68.85 -0.72, -83.06 -1.01" stroke="#1e1e1e" stroke-width="1" fill="none"></path></g><g transform="translate(490.2764681414212 245.8846979865463) rotate(0 -41.008720918744814 -0.16944824678279247)"><path d="M-53.86 -9.19 C-60.53 -8.87, -68.61 -7.41, -84.81 0.08 M-55.03 -10.04 C-61.77 -8.77, -67.37 -6.51, -82.78 -1.72" stroke="#1e1e1e" stroke-width="1" fill="none"></path></g><g transform="translate(490.2764681414212 245.8846979865463) rotate(0 -41.008720918744814 -0.16944824678279247)"><path d="M-54.1 11.33 C-60.74 6.4, -68.77 2.62, -84.81 0.08 M-55.26 10.48 C-61.95 6.94, -67.5 4.4, -82.78 -1.72" stroke="#1e1e1e" stroke-width="1" fill="none"></path></g></g><mask></mask><g transform="translate(157.82078403515595 10) rotate(0 16.709991455078125 12.5)"><text x="16.709991455078125" y="0" font-family="Virgil, Segoe UI Emoji" font-size="20px" fill="#1e1e1e" text-anchor="middle" style="white-space: pre;" direction="ltr" dominant-baseline="text-before-edge">acc</text></g><g transform="translate(498.4853127642492 284.28766092745303) rotate(0 53.83995819091797 12.5)"><text x="53.83995819091797" y="0" font-family="Virgil, Segoe UI Emoji" font-size="20px" fill="#1e1e1e" text-anchor="middle" style="white-space: pre;" direction="ltr" dominant-baseline="text-before-edge">anotherAcc</text></g><g stroke-linecap="round" transform="translate(243.00052188866175 211.27390968101957) rotate(0 74.517578125 29.0546875)"><path d="M14.53 0 M14.53 0 C42.69 -0.49, 70.53 1.74, 134.51 0 M14.53 0 C54.33 -0.73, 94.23 -1.63, 134.51 0 M134.51 0 C144.24 -1.19, 149.14 3.1, 149.04 14.53 M134.51 0 C145.78 0.8, 150.27 6.8, 149.04 14.53 M149.04 14.53 C149.77 26.63, 147.56 34.62, 149.04 43.58 M149.04 14.53 C148.7 23.16, 148.75 33.98, 149.04 43.58 M149.04 43.58 C149.53 52.74, 146.09 58.12, 134.51 58.11 M149.04 43.58 C149.57 51.67, 142.8 59.41, 134.51 58.11 M134.51 58.11 C100.53 58.66, 67.02 58.76, 14.53 58.11 M134.51 58.11 C93.02 57.63, 51.77 58.4, 14.53 58.11 M14.53 58.11 C6.84 58.02, -1.42 54.9, 0 43.58 M14.53 58.11 C3.58 58.58, -1.36 51.58, 0 43.58 M0 43.58 C0.7 36.21, -2.19 32.44, 0 14.53 M0 43.58 C0 37.76, -0.15 31.53, 0 14.53 M0 14.53 C0.65 4.91, 5.13 -0.79, 14.53 0 M0 14.53 C-0.58 6.8, 3.99 0.46, 14.53 0" stroke="#1e1e1e" stroke-width="1" fill="none"></path></g><g transform="translate(266.56302188866175 215.44578468101957) rotate(0 50.89995574951172 25)"><text x="50.89995574951172" y="0" font-family="Virgil, Segoe UI Emoji" font-size="20px" fill="#1e1e1e" text-anchor="middle" style="white-space: pre;" direction="ltr" dominant-baseline="text-before-edge">Вывод</text><text x="50.89995574951172" y="25" font-family="Virgil, Segoe UI Emoji" font-size="20px" fill="#1e1e1e" text-anchor="middle" style="white-space: pre;" direction="ltr" dominant-baseline="text-before-edge">переменной</text></g><g transform="translate(259.762276512118 289.079644007892) rotate(0 62.07996368408203 12.5)"><text x="62.07996368408203" y="0" font-family="Virgil, Segoe UI Emoji" font-size="20px" fill="#1e1e1e" text-anchor="middle" style="white-space: pre;" direction="ltr" dominant-baseline="text-before-edge">(из таймера)</text></g><g stroke-linecap="round"><g transform="translate(233.15648697765096 248.2019389548646) rotate(0 -91.72825036943615 -0.9038648248382799)"><path d="M0.97 -0.11 C-29.9 -0.3, -153.55 -0.15, -184.43 -0.17 M0.02 -1.22 C-30.55 -1.79, -151.94 -1.57, -182.25 -1.69" stroke="#1e1e1e" stroke-width="1" fill="none"></path></g><g transform="translate(233.15648697765096 248.2019389548646) rotate(0 -91.72825036943615 -0.9038648248382799)"><path d="M-154.24 -13.63 C-162.37 -9.46, -172.75 -3.91, -181.67 -1.83 M-153.31 -12.69 C-165.24 -8.1, -174.62 -4.31, -182.68 -2.29" stroke="#1e1e1e" stroke-width="1" fill="none"></path></g><g transform="translate(233.15648697765096 248.2019389548646) rotate(0 -91.72825036943615 -0.9038648248382799)"><path d="M-154.26 6.89 C-162.54 3.57, -172.92 1.63, -181.67 -1.83 M-153.33 7.83 C-165.1 5.04, -174.47 1.46, -182.68 -2.29" stroke="#1e1e1e" stroke-width="1" fill="none"></path></g></g><mask></mask></svg>
