<svg version="1.1" xmlns="http://www.w3.org/2000/svg" viewBox="0 0 719.23046875 189.2109375" width="2157.69140625" height="567.6328125">
  <!-- svg-source:excalidraw -->

  <g stroke-linecap="round" transform="translate(79.0625 12.484375) rotate(0 73.498046875 29.0546875)">
    <path d="M14.53 0 M14.53 0 C44.76 2.4, 78 2.27, 132.47 0 M14.53 0 C62.01 -0.24, 109.19 0, 132.47 0 M132.47 0 C142.88 -1.65, 146.11 4.45, 147 14.53 M132.47 0 C144.16 2.09, 148.18 3.7, 147 14.53 M147 14.53 C148.28 22.36, 145.67 27.2, 147 43.58 M147 14.53 C147.61 25.76, 147.59 36.21, 147 43.58 M147 43.58 C147.87 53.44, 142.39 59.56, 132.47 58.11 M147 43.58 C144.9 53.68, 141.68 57.75, 132.47 58.11 M132.47 58.11 C101.79 57.32, 73.62 57.55, 14.53 58.11 M132.47 58.11 C98.59 57.24, 64.71 57.06, 14.53 58.11 M14.53 58.11 C4.97 57.35, -0.8 52.37, 0 43.58 M14.53 58.11 C5.73 58.24, -0.15 52.26, 0 43.58 M0 43.58 C-1.57 35.96, -1.65 25.75, 0 14.53 M0 43.58 C-0.04 34.46, -1.15 24, 0 14.53 M0 14.53 C1.51 5.04, 3.98 -1.43, 14.53 0 M0 14.53 C1.5 5.85, 5.88 1.55, 14.53 0" stroke="#1e1e1e" stroke-width="1" fill="none"></path>
  </g>
  <g stroke-linecap="round" transform="translate(319.51953125 121.1015625) rotate(0 73.498046875 29.0546875)">
    <path d="M14.53 0 M14.53 0 C45.37 2.65, 75.82 -1.03, 132.47 0 M14.53 0 C60.54 1.29, 107.5 1.35, 132.47 0 M132.47 0 C140.22 -1.83, 145.59 4.36, 147 14.53 M132.47 0 C144.32 0.55, 147.15 6.89, 147 14.53 M147 14.53 C145.45 21, 148.27 27.3, 147 43.58 M147 14.53 C146.73 22.52, 145.9 30.41, 147 43.58 M147 43.58 C146.04 55.07, 141.28 59.76, 132.47 58.11 M147 43.58 C147.51 54.86, 144.38 58.48, 132.47 58.11 M132.47 58.11 C88.44 55.94, 46.97 55.47, 14.53 58.11 M132.47 58.11 C95.34 57.6, 57.81 57.17, 14.53 58.11 M14.53 58.11 C4.38 56.4, -1.76 54.79, 0 43.58 M14.53 58.11 C3.51 60.25, -2.01 52.01, 0 43.58 M0 43.58 C0.49 34.46, -1.37 26.45, 0 14.53 M0 43.58 C0.3 33.04, -0.1 23.07, 0 14.53 M0 14.53 C-1.9 4.72, 3.16 0.6, 14.53 0 M0 14.53 C1.91 6.19, 5.25 1.3, 14.53 0" stroke="#1e1e1e" stroke-width="1" fill="none"></path>
  </g>
  <g stroke-linecap="round" transform="translate(318.71875 10.8828125) rotate(0 74.517578125 29.0546875)">
    <path d="M14.53 0 M14.53 0 C64.29 0.47, 109.99 0.4, 134.51 0 M14.53 0 C59.8 -0.24, 105.92 -1.32, 134.51 0 M134.51 0 C145.45 1.53, 148.32 4.4, 149.04 14.53 M134.51 0 C142.16 0.93, 146.9 6.49, 149.04 14.53 M149.04 14.53 C149.07 25.02, 149.84 37.54, 149.04 43.58 M149.04 14.53 C149.76 22.35, 149.32 28.29, 149.04 43.58 M149.04 43.58 C149.32 54.14, 143.88 59.94, 134.51 58.11 M149.04 43.58 C148.01 54.91, 146.26 60.3, 134.51 58.11 M134.51 58.11 C103.7 55.97, 70.67 58.37, 14.53 58.11 M134.51 58.11 C106 57.69, 76.38 57.79, 14.53 58.11 M14.53 58.11 C3.76 58.19, 0.98 53.16, 0 43.58 M14.53 58.11 C6.92 59.51, -0.97 51.03, 0 43.58 M0 43.58 C2.06 35.85, -0.02 28.51, 0 14.53 M0 43.58 C-0.11 35.15, -0.97 28.12, 0 14.53 M0 14.53 C-1.56 3.23, 5.58 1.72, 14.53 0 M0 14.53 C-1.54 6.5, 6.85 -1.14, 14.53 0" stroke="#1e1e1e" stroke-width="1" fill="none"></path>
  </g>
  <g stroke-linecap="round" transform="translate(77.08984375 119.80078125) rotate(0 74.517578125 29.0546875)">
    <path d="M14.53 0 M14.53 0 C46.84 0.07, 81.11 -0.58, 134.51 0 M14.53 0 C51.52 0.4, 88.49 -0.15, 134.51 0 M134.51 0 C145.91 -1.58, 147.23 2.85, 149.04 14.53 M134.51 0 C143.22 -2.09, 146.92 4.9, 149.04 14.53 M149.04 14.53 C147.88 23.06, 149.82 34.76, 149.04 43.58 M149.04 14.53 C148.58 23.86, 148.24 32.99, 149.04 43.58 M149.04 43.58 C150.59 52.44, 146.13 58.26, 134.51 58.11 M149.04 43.58 C146.97 53.35, 142.88 56.2, 134.51 58.11 M134.51 58.11 C87.03 57.21, 44.18 58.83, 14.53 58.11 M134.51 58.11 C102.77 57.52, 72.28 57.11, 14.53 58.11 M14.53 58.11 C3.72 59.35, -1.08 52.65, 0 43.58 M14.53 58.11 C4.05 56.04, 1.39 54.01, 0 43.58 M0 43.58 C-0.9 38.73, 1.03 29.92, 0 14.53 M0 43.58 C-0.6 34.24, 0.59 24.7, 0 14.53 M0 14.53 C0.36 3.17, 3.28 0.3, 14.53 0 M0 14.53 C-1.22 5.35, 4.14 0.66, 14.53 0" stroke="#1e1e1e" stroke-width="1" fill="none"></path>
  </g>
  <g stroke-linecap="round" transform="translate(545.41796875 119.80859375) rotate(0 74.517578125 29.0546875)">
    <path d="M14.53 0 M14.53 0 C56.23 0.94, 97.13 -0.44, 134.51 0 M14.53 0 C43.34 -0.56, 71.6 -1.02, 134.51 0 M134.51 0 C143.73 1.63, 150.36 5.5, 149.04 14.53 M134.51 0 C143.1 -1.74, 149.95 4.83, 149.04 14.53 M149.04 14.53 C150.06 19.48, 148.91 25.08, 149.04 43.58 M149.04 14.53 C149.52 20.78, 149.65 27.3, 149.04 43.58 M149.04 43.58 C150.79 53.1, 145.48 58.74, 134.51 58.11 M149.04 43.58 C149.4 52.33, 144.65 58.25, 134.51 58.11 M134.51 58.11 C101.1 55.38, 64.84 59.13, 14.53 58.11 M134.51 58.11 C109.23 58.04, 83.69 57.39, 14.53 58.11 M14.53 58.11 C4.46 57.03, 0.05 51.39, 0 43.58 M14.53 58.11 C4.96 60.29, 0.56 53.17, 0 43.58 M0 43.58 C-1.3 32.77, 1.46 21.62, 0 14.53 M0 43.58 C-0.74 34.25, -0.25 25.05, 0 14.53 M0 14.53 C1.63 6.38, 4.04 0.18, 14.53 0 M0 14.53 C1.92 3.07, 5.49 -1.8, 14.53 0" stroke="#1e1e1e" stroke-width="1" fill="none"></path>
  </g>
  <g stroke-linecap="round" transform="translate(534.515625 10) rotate(0 87.357421875 29.0546875)">
    <path d="M14.53 0 M14.53 0 C52.67 -0.76, 88.92 0.17, 160.19 0 M14.53 0 C47.37 0.7, 82.43 0.42, 160.19 0 M160.19 0 C167.97 -0.27, 173.92 6.5, 174.71 14.53 M160.19 0 C171 1.08, 176.57 3.39, 174.71 14.53 M174.71 14.53 C173.42 23.55, 173.22 36.65, 174.71 43.58 M174.71 14.53 C174.72 23.71, 174.63 34.36, 174.71 43.58 M174.71 43.58 C173.89 55.16, 168.94 56.23, 160.19 58.11 M174.71 43.58 C175.25 53.02, 172.14 59.12, 160.19 58.11 M160.19 58.11 C130.07 56.2, 98.87 57.68, 14.53 58.11 M160.19 58.11 C107.78 58.76, 55 58.97, 14.53 58.11 M14.53 58.11 C4.77 57.36, -0.51 53.53, 0 43.58 M14.53 58.11 C3.41 58.68, 0.12 53.79, 0 43.58 M0 43.58 C-1.51 32.56, 1.61 20.61, 0 14.53 M0 43.58 C1.19 36.06, 0.18 29.32, 0 14.53 M0 14.53 C1.19 3.76, 5.66 0.68, 14.53 0 M0 14.53 C-2.07 6.79, 5.74 0.8, 14.53 0" stroke="#1e1e1e" stroke-width="1" fill="none"></path>
  </g>
  <g transform="translate(100.15625 17.06640625) rotate(0 55.369964599609375 25)">
    <text x="55.369964599609375" y="0" font-family="Virgil, Segoe UI Emoji" font-size="20px" fill="#1e1e1e" text-anchor="middle" style="white-space: pre;" direction="ltr" dominant-baseline="text-before-edge">Объявление</text>
    <text x="55.369964599609375" y="25" font-family="Virgil, Segoe UI Emoji" font-size="20px" fill="#1e1e1e" text-anchor="middle" style="white-space: pre;" direction="ltr" dominant-baseline="text-before-edge">переменной</text>
  </g>
  <g transform="translate(340.61328125 125.68359375) rotate(0 55.369964599609375 25)">
    <text x="55.369964599609375" y="0" font-family="Virgil, Segoe UI Emoji" font-size="20px" fill="#1e1e1e" text-anchor="middle" style="white-space: pre;" direction="ltr" dominant-baseline="text-before-edge">Объявление</text>
    <text x="55.369964599609375" y="25" font-family="Virgil, Segoe UI Emoji" font-size="20px" fill="#1e1e1e" text-anchor="middle" style="white-space: pre;" direction="ltr" dominant-baseline="text-before-edge">переменной</text>
  </g>
  <g stroke-linecap="round">
    <g transform="translate(233.80859375 44.4296875) rotate(0 38.97374706251546 0.5727625843627209)">
      <path d="M-0.05 -0.58 C13.15 -0.16, 66.28 1.35, 79.48 1.54 M-1.53 1.72 C11.48 1.87, 65.23 -0.36, 78.52 -0.39" stroke="#1e1e1e" stroke-width="1" fill="none"></path>
    </g>
    <g transform="translate(233.80859375 44.4296875) rotate(0 38.97374706251546 0.5727625843627209)">
      <path d="M49.61 10.5 C60.31 6.39, 67.67 4.61, 79.94 -0.87 M51.21 9.67 C56.42 8.5, 64.19 5.72, 79 -0.58" stroke="#1e1e1e" stroke-width="1" fill="none"></path>
    </g>
    <g transform="translate(233.80859375 44.4296875) rotate(0 38.97374706251546 0.5727625843627209)">
      <path d="M49.11 -10.02 C59.8 -7.5, 67.32 -2.65, 79.94 -0.87 M50.72 -10.85 C56.19 -7.15, 64.07 -5.07, 79 -0.58" stroke="#1e1e1e" stroke-width="1" fill="none"></path>
    </g>
  </g>
  <mask></mask>
  <g transform="translate(342.28125 15.0546875) rotate(0 50.89995574951172 25)">
    <text x="50.89995574951172" y="0" font-family="Virgil, Segoe UI Emoji" font-size="20px" fill="#1e1e1e" text-anchor="middle" style="white-space: pre;" direction="ltr" dominant-baseline="text-before-edge">Вывод</text>
    <text x="50.89995574951172" y="25" font-family="Virgil, Segoe UI Emoji" font-size="20px" fill="#1e1e1e" text-anchor="middle" style="white-space: pre;" direction="ltr" dominant-baseline="text-before-edge">переменной</text>
  </g>
  <g transform="translate(100.5 124.10546875) rotate(0 50.89995574951172 25)">
    <text x="50.89995574951172" y="0" font-family="Virgil, Segoe UI Emoji" font-size="20px" fill="#1e1e1e" text-anchor="middle" style="white-space: pre;" direction="ltr" dominant-baseline="text-before-edge">Вывод</text>
    <text x="50.89995574951172" y="25" font-family="Virgil, Segoe UI Emoji" font-size="20px" fill="#1e1e1e" text-anchor="middle" style="white-space: pre;" direction="ltr" dominant-baseline="text-before-edge">переменной</text>
  </g>
  <g transform="translate(569.21484375 123.0625) rotate(0 50.89995574951172 25)">
    <text x="50.89995574951172" y="0" font-family="Virgil, Segoe UI Emoji" font-size="20px" fill="#1e1e1e" text-anchor="middle" style="white-space: pre;" direction="ltr" dominant-baseline="text-before-edge">Вывод</text>
    <text x="50.89995574951172" y="25" font-family="Virgil, Segoe UI Emoji" font-size="20px" fill="#1e1e1e" text-anchor="middle" style="white-space: pre;" direction="ltr" dominant-baseline="text-before-edge">переменной</text>
  </g>
  <g transform="translate(548.7984313964844 13.0234375) rotate(0 71.74996185302734 25)">
    <text x="71.74996185302734" y="0" font-family="Virgil, Segoe UI Emoji" font-size="20px" fill="#1e1e1e" text-anchor="middle" style="white-space: pre;" direction="ltr" dominant-baseline="text-before-edge">Инкрементация</text>
    <text x="71.74996185302734" y="25" font-family="Virgil, Segoe UI Emoji" font-size="20px" fill="#1e1e1e" text-anchor="middle" style="white-space: pre;" direction="ltr" dominant-baseline="text-before-edge">переменной</text>
  </g>
  <g stroke-linecap="round">
    <g transform="translate(474.546875 34.19593802517613) rotate(0 28.855594493327658 1.8355257165144963)">
      <path d="M0.55 0.75 C10.12 1.2, 48.73 1.96, 58.33 2.54 M-0.62 0.1 C8.69 0.68, 47.6 3.22, 57.24 3.57" stroke="#1e1e1e" stroke-width="1" fill="none"></path>
    </g>
    <g transform="translate(474.546875 34.19593802517613) rotate(0 28.855594493327658 1.8355257165144963)">
      <path d="M30.41 11.67 C38.13 8.1, 51.46 5.7, 56.68 5.18 M29.54 12.56 C35.34 10.11, 40.6 9.81, 58.01 3.42" stroke="#1e1e1e" stroke-width="1" fill="none"></path>
    </g>
    <g transform="translate(474.546875 34.19593802517613) rotate(0 28.855594493327658 1.8355257165144963)">
      <path d="M31.47 -8.39 C38.77 -4.41, 51.7 0.72, 56.68 5.18 M30.61 -7.49 C36.08 -5.86, 41.13 -2.07, 58.01 3.42" stroke="#1e1e1e" stroke-width="1" fill="none"></path>
    </g>
  </g>
  <mask></mask>
  <g stroke-linecap="round" transform="translate(10 27.77734375) rotate(0 14.220703125 13.736328125)">
    <path d="M14.61 0.12 C17.52 0.1, 22.43 1.12, 24.62 2.94 C26.81 4.76, 27.45 7.89, 27.73 11.04 C28.02 14.2, 27.9 19.15, 26.32 21.87 C24.74 24.59, 21.13 26.53, 18.25 27.38 C15.37 28.24, 11.79 28.1, 9.03 26.98 C6.28 25.86, 3 23.53, 1.72 20.67 C0.43 17.81, 0.79 12.64, 1.34 9.83 C1.88 7.02, 2.33 5.24, 4.97 3.79 C7.61 2.34, 14.66 1.48, 17.16 1.12 C19.67 0.77, 19.94 1.48, 20 1.67 M20.62 2.4 C23.18 3.77, 26.63 6.79, 27.79 9.35 C28.94 11.92, 28.46 15.38, 27.57 17.79 C26.68 20.21, 24.89 22.3, 22.45 23.86 C20.01 25.41, 15.82 27.07, 12.94 27.13 C10.07 27.19, 7.14 26.3, 5.18 24.2 C3.23 22.09, 1.59 17.48, 1.21 14.5 C0.83 11.53, 1.52 8.86, 2.92 6.34 C4.32 3.81, 6.52 0.16, 9.58 -0.66 C12.65 -1.48, 19.51 0.91, 21.29 1.43 C23.07 1.95, 20.47 2.33, 20.26 2.47" stroke="#2f9e44" stroke-width="1" fill="none"></path>
  </g>
  <g stroke-linecap="round" transform="translate(11.69921875 136.63671875) rotate(0 14.220703125 13.736328125)">
    <path d="M19.85 0.63 C22.72 1.66, 26.31 5.95, 27.8 8.71 C29.29 11.48, 29.71 14.5, 28.81 17.23 C27.91 19.96, 25.25 23.41, 22.4 25.11 C19.54 26.81, 14.8 27.79, 11.65 27.43 C8.5 27.07, 5.57 25.28, 3.52 22.96 C1.46 20.64, -0.5 16.52, -0.68 13.51 C-0.85 10.5, 0.66 7.15, 2.47 4.9 C4.28 2.65, 7.15 0.63, 10.2 0 C13.24 -0.62, 18.75 0.84, 20.73 1.15 C22.71 1.46, 22.04 1.49, 22.06 1.85 M14.75 -1.24 C17.64 -0.9, 22.01 2.29, 24.11 4.9 C26.2 7.51, 26.98 11.65, 27.32 14.42 C27.65 17.19, 27.93 19.57, 26.1 21.53 C24.28 23.48, 19.56 25.36, 16.35 26.15 C13.14 26.93, 9.18 27.29, 6.83 26.24 C4.48 25.18, 3.47 22.51, 2.25 19.81 C1.03 17.12, -1.3 13.08, -0.49 10.07 C0.32 7.06, 4.29 3.17, 7.12 1.73 C9.94 0.29, 15.1 1.57, 16.46 1.41 C17.82 1.25, 15.38 0.64, 15.3 0.78" stroke="#e03131" stroke-width="1" fill="none"></path>
  </g>
  <g stroke-linecap="round">
    <g transform="translate(48.443484777124695 40.2150352106263) rotate(0 12.44067981767185 0.5034634982667399)">
      <path d="M-0.23 -0.68 C4.06 -0.75, 22.19 0.05, 26.69 0.56 M-1.81 1.58 C2.29 1.55, 21.39 1.8, 26.09 1.62" stroke="#1e1e1e" stroke-width="1" fill="none"></path>
    </g>
    <g transform="translate(48.443484777124695 40.2150352106263) rotate(0 12.44067981767185 0.5034634982667399)">
      <path d="M13.14 6.9 C17.51 5.27, 24.16 2.93, 25.79 0.97 M14.06 5.73 C16.29 5.68, 19.58 3.61, 25.53 2.07" stroke="#1e1e1e" stroke-width="1" fill="none"></path>
    </g>
    <g transform="translate(48.443484777124695 40.2150352106263) rotate(0 12.44067981767185 0.5034634982667399)">
      <path d="M13.06 -2.01 C17.54 -0.24, 24.22 0.83, 25.79 0.97 M13.99 -3.19 C16.21 -1.27, 19.52 -1.38, 25.53 2.07" stroke="#1e1e1e" stroke-width="1" fill="none"></path>
    </g>
  </g>
  <mask></mask>
  <g stroke-linecap="round">
    <g transform="translate(611.64453125 81.10546875) rotate(0 -0.10776511691511814 11.90812147718853)">
      <path d="M-0.99 -0.39 C-0.84 4.04, 0.5 21.16, 0.78 25.46 M0.69 -1.65 C0.74 2.52, 0.23 19.42, 0.14 23.57" stroke="#1e1e1e" stroke-width="1" fill="none"></path>
    </g>
    <g transform="translate(611.64453125 81.10546875) rotate(0 -0.10776511691511814 11.90812147718853)">
      <path d="M-4.25 12.33 C-2.34 15.7, -1.27 18.14, 0.1 24.63 M-3.36 12.27 C-2.64 14.86, -1.68 18.23, 0.57 23.14" stroke="#1e1e1e" stroke-width="1" fill="none"></path>
    </g>
    <g transform="translate(611.64453125 81.10546875) rotate(0 -0.10776511691511814 11.90812147718853)">
      <path d="M4.31 12.55 C3.74 15.78, 2.35 18.16, 0.1 24.63 M5.2 12.49 C3.59 14.97, 2.23 18.27, 0.57 23.14" stroke="#1e1e1e" stroke-width="1" fill="none"></path>
    </g>
  </g>
  <mask></mask>
  <g stroke-linecap="round">
    <g transform="translate(536.63671875 150.51171875) rotate(0 -30.10846518250179 1.2692936974985685)">
      <path d="M-0.83 0.71 C-10.79 1.04, -50.45 2.42, -60.24 2.5 M0.94 0.04 C-9.14 -0.01, -51.01 0.49, -61.16 0.87" stroke="#1e1e1e" stroke-width="1" fill="none"></path>
    </g>
    <g transform="translate(536.63671875 150.51171875) rotate(0 -30.10846518250179 1.2692936974985685)">
      <path d="M-32.01 -9.93 C-38.95 -6.13, -48.49 -4.05, -62.21 -0.33 M-33.62 -10.67 C-39.79 -7.46, -48.01 -5.13, -61.76 0.84" stroke="#1e1e1e" stroke-width="1" fill="none"></path>
    </g>
    <g transform="translate(536.63671875 150.51171875) rotate(0 -30.10846518250179 1.2692936974985685)">
      <path d="M-31.56 10.58 C-38.71 8.99, -48.37 5.69, -62.21 -0.33 M-33.17 9.85 C-39.43 7.97, -47.76 5.22, -61.76 0.84" stroke="#1e1e1e" stroke-width="1" fill="none"></path>
    </g>
  </g>
  <mask></mask>
  <g stroke-linecap="round">
    <g transform="translate(310.0625 152.69316463296275) rotate(0 -36.873072005827 0.11495274213987727)">
      <path d="M-0.91 0.71 C-13.15 0.82, -61.32 0.99, -73.5 1.09 M0.82 0.03 C-11.6 -0.27, -62.52 -0.72, -74.56 -0.86" stroke="#1e1e1e" stroke-width="1" fill="none"></path>
    </g>
    <g transform="translate(310.0625 152.69316463296275) rotate(0 -36.873072005827 0.11495274213987727)">
      <path d="M-45.09 -11.21 C-54.05 -9.3, -62.1 -4.97, -73.25 -2.42 M-45.43 -10.16 C-56.37 -8.09, -67.8 -4.33, -74.43 -0.48" stroke="#1e1e1e" stroke-width="1" fill="none"></path>
    </g>
    <g transform="translate(310.0625 152.69316463296275) rotate(0 -36.873072005827 0.11495274213987727)">
      <path d="M-45.3 9.31 C-54.27 5.15, -62.25 3.41, -73.25 -2.42 M-45.64 10.36 C-56.35 4.85, -67.7 1.01, -74.43 -0.48" stroke="#1e1e1e" stroke-width="1" fill="none"></path>
    </g>
  </g>
  <mask></mask>
  <g stroke-linecap="round">
    <g transform="translate(73.90234375 152.2028303614257) rotate(0 -13.63368555656669 0.36343680668628053)">
      <path d="M0.2 -0.92 C-4.2 -0.82, -22.21 1.2, -26.71 1.64 M-1.15 1.22 C-5.66 1.46, -23.09 0.01, -27.47 -0.25" stroke="#1e1e1e" stroke-width="1" fill="none"></path>
    </g>
    <g transform="translate(73.90234375 152.2028303614257) rotate(0 -13.63368555656669 0.36343680668628053)">
      <path d="M-15.47 -3.56 C-17.52 -2.62, -21.05 -2.39, -28.55 0.43 M-14.15 -3.48 C-17.05 -2.93, -19.38 -2.97, -28 0.37" stroke="#1e1e1e" stroke-width="1" fill="none"></path>
    </g>
    <g transform="translate(73.90234375 152.2028303614257) rotate(0 -13.63368555656669 0.36343680668628053)">
      <path d="M-16.13 5.69 C-18.07 4.07, -21.42 1.73, -28.55 0.43 M-14.8 5.77 C-17.63 4.4, -19.83 2.44, -28 0.37" stroke="#1e1e1e" stroke-width="1" fill="none"> </path>
    </g>
  </g>
</svg>
