<svg version="1.1" xmlns="http://www.w3.org/2000/svg" viewBox="0 0 505.5445082059 195.61531229406165" width="1516.6335246177" height="586.845936882185">
  <!-- svg-source:excalidraw -->

  <g stroke-linecap="round" transform="translate(10 10.663217691248008) rotate(0 112.14148841038451 61.18067876964133)"><path d="M30.59 0 M30.59 0 C71.42 0.31, 114.73 -1.01, 193.69 0 M30.59 0 C67.72 0.14, 103.86 0.36, 193.69 0 M193.69 0 C212.25 -1.43, 225.62 9.84, 224.28 30.59 M193.69 0 C214.76 0.12, 224.4 9.2, 224.28 30.59 M224.28 30.59 C224.71 49.65, 226.44 70.56, 224.28 91.77 M224.28 30.59 C225.23 50.25, 224.05 68.34, 224.28 91.77 M224.28 91.77 C223.88 110.5, 213.48 121.46, 193.69 122.36 M224.28 91.77 C226.07 114.43, 213.41 121.15, 193.69 122.36 M193.69 122.36 C155.63 121.64, 118.31 122.58, 30.59 122.36 M193.69 122.36 C141.72 121.85, 91.94 121.95, 30.59 122.36 M30.59 122.36 C11.48 121.63, 1.33 112.58, 0 91.77 M30.59 122.36 C10.75 123.01, -1.84 110.29, 0 91.77 M0 91.77 C0.85 70.19, 0.22 51.94, 0 30.59 M0 91.77 C0.36 67.35, -1.09 44.16, 0 30.59 M0 30.59 C-1.61 10.74, 10.89 0.56, 30.59 0 M0 30.59 C0.44 10.9, 8.62 2.08, 30.59 0" stroke="#1e1e1e" stroke-width="1" fill="none"></path></g><g stroke-linecap="round" transform="translate(271.261531385131 10) rotate(0 112.14148841038451 61.180678769641304)"><path d="M30.59 0 M30.59 0 C77.24 1.16, 122.81 1.74, 193.69 0 M30.59 0 C75.58 0.56, 121.02 0.45, 193.69 0 M193.69 0 C212.97 -1.74, 222.51 11.74, 224.28 30.59 M193.69 0 C213.94 1.62, 222.04 8.42, 224.28 30.59 M224.28 30.59 C222.84 46.6, 224.75 62.87, 224.28 91.77 M224.28 30.59 C224.03 52.1, 225.01 73.08, 224.28 91.77 M224.28 91.77 C222.58 112.56, 215.11 120.72, 193.69 122.36 M224.28 91.77 C226.23 111.01, 216.01 120.4, 193.69 122.36 M193.69 122.36 C129.6 122.86, 63.56 122.56, 30.59 122.36 M193.69 122.36 C153.9 124.16, 113.36 123.63, 30.59 122.36 M30.59 122.36 C10.22 124.25, -1.8 111.91, 0 91.77 M30.59 122.36 C9.74 124.18, 0.61 112.12, 0 91.77 M0 91.77 C-1.9 77.7, -1.53 66.27, 0 30.59 M0 91.77 C0.69 73.98, -0.29 54.9, 0 30.59 M0 30.59 C-0.4 10.95, 9.12 -1.62, 30.59 0 M0 30.59 C0.36 9.68, 11.16 0.72, 30.59 0" stroke="#1e1e1e" stroke-width="1" fill="none"></path></g><g transform="translate(22.85621319062693 21.691592022343343) rotate(0 61.439964294433594 10)"><text x="61.439964294433594" y="0" font-family="Virgil, Segoe UI Emoji" font-size="16px" fill="#1e1e1e" text-anchor="middle" style="white-space: pre;" direction="ltr" dominant-baseline="text-before-edge">Step 4: In then</text></g><g transform="translate(284.1177445757579 21.028374331095335) rotate(0 61.439964294433594 10)"><text x="61.439964294433594" y="0" font-family="Virgil, Segoe UI Emoji" font-size="16px" fill="#1e1e1e" text-anchor="middle" style="white-space: pre;" direction="ltr" dominant-baseline="text-before-edge">Step 4: In then</text></g><g transform="translate(20.59933178647958 48.06793870301499) rotate(0 95.05594635009768 10)"><text x="95.05594635009766" y="0" font-family="Virgil, Segoe UI Emoji" font-size="16px" fill="#1e1e1e" text-anchor="middle" style="white-space: pre;" direction="ltr" dominant-baseline="text-before-edge">Step 5: In another then</text></g><g transform="translate(286.08631589007643 73.3040728489359) rotate(0 95.05594635009766 10)"><text x="95.05594635009766" y="0" font-family="Virgil, Segoe UI Emoji" font-size="16px" fill="#1e1e1e" text-anchor="middle" style="white-space: pre;" direction="ltr" dominant-baseline="text-before-edge">Step 5: In another then</text></g><g transform="translate(20.541682523922532 72.51202040519092) rotate(0 62.439964294433594 10)"><text x="62.439964294433594" y="0" font-family="Virgil, Segoe UI Emoji" font-size="16px" fill="#1e1e1e" text-anchor="middle" style="white-space: pre;" direction="ltr" dominant-baseline="text-before-edge">Step 8: In then</text></g><g transform="translate(284.91145533274107 48.499086653072084) rotate(0 62.439964294433594 10)"><text x="62.439964294433594" y="0" font-family="Virgil, Segoe UI Emoji" font-size="16px" fill="#1e1e1e" text-anchor="middle" style="white-space: pre;" direction="ltr" dominant-baseline="text-before-edge">Step 8: In then</text></g><g transform="translate(21.52156671714448 97.74189648927774) rotate(0 94.98394775390628 10)"><text x="94.98394775390625" y="0" font-family="Virgil, Segoe UI Emoji" font-size="16px" fill="#1e1e1e" text-anchor="middle" style="white-space: pre;" direction="ltr" dominant-baseline="text-before-edge">Step 9: In another then</text></g><g transform="translate(282.7830981022754 97.07867879802973) rotate(0 94.98394775390625 10)"><text x="94.98394775390625" y="0" font-family="Virgil, Segoe UI Emoji" font-size="16px" fill="#1e1e1e" text-anchor="middle" style="white-space: pre;" direction="ltr" dominant-baseline="text-before-edge">Step 9: In another then</text></g><g transform="translate(137.418020966219 165.99929258928796) rotate(352.10824701960405 -18.657775349192804 7.008849762487898)" stroke="none"><path fill="#0c8599" d="M 0.70,1.74 Q 0.70,1.74 -0.71,2.35 -2.13,2.97 -4.55,3.82 -6.98,4.67 -9.45,5.53 -11.91,6.39 -14.56,7.23 -17.21,8.07 -19.87,9.03 -22.54,9.99 -25.16,10.99 -27.77,11.98 -29.73,12.76 -31.70,13.54 -34.42,14.48 -37.15,15.43 -37.38,15.43 -37.61,15.42 -37.83,15.34 -38.05,15.26 -38.23,15.12 -38.41,14.97 -38.54,14.78 -38.66,14.58 -38.72,14.36 -38.78,14.14 -38.76,13.90 -38.74,13.67 -38.65,13.46 -38.56,13.25 -38.41,13.07 -38.25,12.90 -38.05,12.79 -37.85,12.67 -37.62,12.63 -37.39,12.58 -37.17,12.61 -36.94,12.64 -36.73,12.74 -36.52,12.85 -36.35,13.01 -36.19,13.17 -36.09,13.38 -35.98,13.59 -35.95,13.82 -35.92,14.05 -35.96,14.27 -36.00,14.50 -36.12,14.70 -36.23,14.91 -36.40,15.06 -36.57,15.22 -36.79,15.31 -37.00,15.40 -37.23,15.42 -37.46,15.44 -37.69,15.39 -37.91,15.33 -38.11,15.21 -38.30,15.08 -38.45,14.90 -38.59,14.72 -38.67,14.51 -38.76,14.29 -38.76,14.06 -38.77,13.83 -38.70,13.60 -38.64,13.38 -38.50,13.19 -38.37,13.00 -38.18,12.87 -37.99,12.73 -37.77,12.66 -37.55,12.59 -37.55,12.59 -37.55,12.59 -35.15,11.76 -32.76,10.92 -30.79,10.11 -28.82,9.29 -26.21,8.24 -23.59,7.19 -20.90,6.14 -18.21,5.10 -15.64,4.19 -13.08,3.28 -10.68,2.31 -8.28,1.34 -5.94,0.33 -3.60,-0.66 -2.15,-1.20 -0.70,-1.74 -0.48,-1.79 -0.26,-1.85 -0.03,-1.86 0.18,-1.86 0.40,-1.81 0.62,-1.76 0.83,-1.66 1.03,-1.56 1.20,-1.41 1.37,-1.27 1.51,-1.09 1.64,-0.90 1.72,-0.69 1.81,-0.48 1.84,-0.26 1.87,-0.03 1.85,0.18 1.83,0.41 1.75,0.62 1.67,0.83 1.55,1.02 1.43,1.21 1.26,1.36 1.09,1.52 0.90,1.63 0.70,1.74 0.70,1.74 L 0.70,1.74 Z"></path></g><g transform="translate(102.80641154459857 161.8874783978623) rotate(352.10824701960405 16.367859008809717 12.293324154852883)" stroke="none"><path fill="#0c8599" d="M 1.21,-1.37 Q 1.21,-1.37 2.93,0.23 4.65,1.83 6.31,3.30 7.96,4.77 10.46,6.70 12.96,8.63 15.17,10.29 17.37,11.96 19.27,13.34 21.18,14.73 22.94,16.04 24.71,17.35 26.33,18.48 27.95,19.61 29.32,20.47 30.69,21.34 32.18,22.24 33.67,23.14 33.88,23.33 34.08,23.52 34.22,23.76 34.35,24.01 34.40,24.28 34.45,24.55 34.41,24.83 34.37,25.10 34.24,25.35 34.12,25.60 33.92,25.80 33.72,25.99 33.47,26.11 33.22,26.23 32.94,26.27 32.67,26.30 32.39,26.25 32.12,26.19 31.88,26.05 31.64,25.91 31.45,25.70 31.27,25.49 31.16,25.24 31.06,24.98 31.04,24.70 31.02,24.42 31.09,24.15 31.16,23.88 31.31,23.65 31.46,23.42 31.68,23.25 31.90,23.07 32.16,22.98 32.42,22.89 32.70,22.88 32.98,22.88 33.25,22.96 33.51,23.05 33.74,23.21 33.96,23.38 34.12,23.61 34.28,23.83 34.36,24.10 34.44,24.37 34.43,24.65 34.42,24.92 34.32,25.18 34.22,25.44 34.04,25.66 33.87,25.87 33.63,26.02 33.39,26.17 33.12,26.23 32.85,26.30 32.57,26.27 32.30,26.25 32.04,26.13 31.79,26.02 31.79,26.02 31.79,26.02 30.32,24.99 28.84,23.95 27.57,22.95 26.29,21.95 24.68,20.77 23.06,19.60 21.30,18.32 19.53,17.04 17.58,15.67 15.63,14.30 13.39,12.68 11.14,11.05 8.52,9.12 5.91,7.20 4.16,5.79 2.41,4.38 0.60,2.87 -1.21,1.37 -1.35,1.21 -1.50,1.04 -1.60,0.85 -1.71,0.65 -1.76,0.44 -1.81,0.22 -1.81,0.00 -1.82,-0.21 -1.76,-0.42 -1.71,-0.64 -1.61,-0.83 -1.51,-1.03 -1.36,-1.20 -1.22,-1.36 -1.03,-1.49 -0.85,-1.62 -0.65,-1.69 -0.44,-1.77 -0.22,-1.80 -0.00,-1.83 0.21,-1.80 0.43,-1.78 0.63,-1.70 0.84,-1.62 1.02,-1.50 1.21,-1.37 1.21,-1.37 L 1.21,-1.37 Z"></path></g><g transform="translate(357.90390349695804 171.6813427087012) rotate(0 25.61734808960705 -4.704980977889306)" stroke="none"><path fill="#1971c2" d="M 2.38,-0.74 Q 2.38,-0.74 2.79,0.51 3.19,1.78 3.56,2.86 3.93,3.94 4.36,5.42 4.78,6.90 5.21,8.07 5.63,9.23 6.20,10.75 6.76,12.27 5.30,11.85 3.84,11.43 4.49,9.89 5.14,8.36 7.19,5.91 9.24,3.45 12.30,0.64 15.36,-2.16 19.32,-5.29 23.28,-8.41 27.32,-11.09 31.35,-13.77 34.70,-15.80 38.04,-17.83 40.68,-19.28 43.32,-20.74 45.14,-21.73 46.97,-22.71 48.68,-23.78 50.40,-24.85 50.66,-24.95 50.92,-25.04 51.20,-25.05 51.48,-25.05 51.75,-24.97 52.02,-24.88 52.24,-24.71 52.47,-24.55 52.63,-24.32 52.79,-24.09 52.87,-23.82 52.95,-23.55 52.94,-23.27 52.93,-22.99 52.83,-22.73 52.73,-22.47 52.55,-22.25 52.37,-22.04 52.13,-21.89 51.90,-21.74 51.62,-21.68 51.35,-21.61 51.07,-21.64 50.79,-21.66 50.54,-21.78 50.28,-21.89 50.07,-22.08 49.87,-22.27 49.73,-22.52 49.60,-22.76 49.55,-23.04 49.50,-23.31 49.54,-23.59 49.58,-23.87 49.71,-24.12 49.84,-24.36 50.04,-24.56 50.24,-24.76 50.49,-24.88 50.74,-25.00 51.02,-25.03 51.30,-25.07 51.57,-25.01 51.85,-24.96 52.09,-24.82 52.33,-24.67 52.51,-24.46 52.70,-24.25 52.81,-24.00 52.91,-23.74 52.93,-23.46 52.95,-23.18 52.88,-22.91 52.81,-22.64 52.66,-22.40 52.50,-22.17 52.28,-22.00 52.06,-21.82 52.06,-21.82 52.06,-21.82 50.25,-20.95 48.43,-20.08 46.63,-19.07 44.84,-18.06 42.30,-16.57 39.77,-15.08 36.54,-12.99 33.32,-10.90 29.51,-8.19 25.69,-5.47 22.00,-2.31 18.31,0.84 15.69,3.58 13.07,6.31 11.36,8.91 9.66,11.51 8.77,12.89 7.88,14.27 6.47,15.28 5.06,16.28 3.31,15.03 1.56,13.78 1.19,12.35 0.81,10.93 0.38,9.65 -0.04,8.38 -0.51,6.93 -0.98,5.48 -1.30,4.38 -1.62,3.27 -2.00,2.01 -2.38,0.74 -2.43,0.44 -2.49,0.14 -2.47,-0.15 -2.45,-0.45 -2.36,-0.73 -2.27,-1.02 -2.12,-1.28 -1.96,-1.54 -1.75,-1.75 -1.53,-1.96 -1.28,-2.12 -1.02,-2.27 -0.73,-2.36 -0.44,-2.45 -0.14,-2.47 0.15,-2.49 0.44,-2.43 0.74,-2.38 1.01,-2.26 1.29,-2.13 1.53,-1.95 1.76,-1.76 1.95,-1.52 2.13,-1.29 2.26,-1.01 2.38,-0.74 2.38,-0.74 L 2.38,-0.74 Z"></path></g></svg>
