<svg version="1.1" xmlns="http://www.w3.org/2000/svg" viewBox="0 0 876.8132681535747 163.8278073479261" width="2630.439804460724" height="491.4834220437783">
  <!-- svg-source:excalidraw -->

  <g stroke-linecap="round" transform="translate(10 44.779303579147864) rotate(0 128.19903649788503 51.9163688536716)"><path d="M25.96 0 M25.96 0 C77.44 0.72, 127.22 -0.49, 230.44 0 M25.96 0 C69.61 0.59, 111.2 1.03, 230.44 0 M230.44 0 C248.55 -0.25, 256.35 9.73, 256.4 25.96 M230.44 0 C248.34 -0.8, 255.78 10.09, 256.4 25.96 M256.4 25.96 C258.12 46.31, 255.82 65.77, 256.4 77.87 M256.4 25.96 C256.67 43.31, 256.73 61.48, 256.4 77.87 M256.4 77.87 C258.37 95.34, 248.61 103.4, 230.44 103.83 M256.4 77.87 C256.24 94.64, 246.59 104.69, 230.44 103.83 M230.44 103.83 C177.12 104.77, 125.14 105.34, 25.96 103.83 M230.44 103.83 C170.16 102.92, 108.37 103.32, 25.96 103.83 M25.96 103.83 C9.28 102.65, 0.28 93.83, 0 77.87 M25.96 103.83 C7.01 102.87, -1.15 95.78, 0 77.87 M0 77.87 C1.03 63.4, -1.13 53.25, 0 25.96 M0 77.87 C-0.22 62.38, 0.05 44.59, 0 25.96 M0 25.96 C-1.74 7.09, 7.45 -0.63, 25.96 0 M0 25.96 C0.58 8, 7.19 -0.15, 25.96 0" stroke="#1e1e1e" stroke-width="1" fill="none"></path></g><g transform="translate(44.97270597725384 13.235866062937305) rotate(0 92.96889816187547 12.538970621335523)"><text x="92.96889816187547" y="0" font-family="Virgil, Segoe UI Emoji" font-size="20.062352994136845px" fill="#1e1e1e" text-anchor="middle" style="white-space: pre;" direction="ltr" dominant-baseline="text-before-edge">Синхронные задачи</text></g><g transform="translate(20.842860514753852 65.59896761207452) rotate(0 89.3416121280944 10.03117649706843)"><text x="89.34161212809438" y="0" font-family="Virgil, Segoe UI Emoji" font-size="16.049882395309474px" fill="#1e1e1e" text-anchor="middle" style="white-space: pre;" direction="ltr" dominant-baseline="text-before-edge">Step 1: In global scope</text></g><g transform="translate(19.57261578443166 101.79175997848986) rotate(0 122.35619982717361 10.03117649706843)"><text x="122.35619982717363" y="0" font-family="Virgil, Segoe UI Emoji" font-size="16.049882395309474px" fill="#1e1e1e" text-anchor="middle" style="white-space: pre;" direction="ltr" dominant-baseline="text-before-edge">Step 3: In promise constructor</text></g><g stroke-linecap="round" transform="translate(308.80257200039733 45.12725156491743) rotate(0 121.42340066145266 53.52064472337153)"><path d="M26.76 0 M26.76 0 C92.92 -0.73, 154.43 -1.22, 216.09 0 M26.76 0 C98.48 -0.15, 172.26 0.47, 216.09 0 M216.09 0 C234.65 0.97, 243.08 8.5, 242.85 26.76 M216.09 0 C234.13 -0.36, 241.81 7.04, 242.85 26.76 M242.85 26.76 C243.6 45.09, 242.18 60.64, 242.85 80.28 M242.85 26.76 C242.16 42.18, 242.21 55.79, 242.85 80.28 M242.85 80.28 C241.56 97.4, 235 107.52, 216.09 107.04 M242.85 80.28 C242.37 100.14, 232.76 108.08, 216.09 107.04 M216.09 107.04 C176.61 105.7, 133.88 104.2, 26.76 107.04 M216.09 107.04 C177.09 106.49, 139.67 107.82, 26.76 107.04 M26.76 107.04 C9.51 106.94, -2 98.29, 0 80.28 M26.76 107.04 C10.65 106.09, -1.81 99.34, 0 80.28 M0 80.28 C-0.14 63.86, -1.53 51.64, 0 26.76 M0 80.28 C0.98 63.02, 0.38 44.75, 0 26.76 M0 26.76 C1.41 9.32, 8.22 -1.56, 26.76 0 M0 26.76 C-0.47 8.7, 9.58 0.72, 26.76 0" stroke="#1e1e1e" stroke-width="1" fill="none"></path></g><g transform="translate(361.02212314930847 14.316901108571898) rotate(0 65.23995971679688 12.5)"><text x="65.23995971679688" y="0" font-family="Virgil, Segoe UI Emoji" font-size="20px" fill="#1e1e1e" text-anchor="middle" style="white-space: pre;" direction="ltr" dominant-baseline="text-before-edge">Микро-задачи</text></g><g transform="translate(324.58762935221426 65.3317554044655) rotate(0 61.439964294433594 10)"><text x="61.439964294433594" y="0" font-family="Virgil, Segoe UI Emoji" font-size="16px" fill="#1e1e1e" text-anchor="middle" style="white-space: pre;" direction="ltr" dominant-baseline="text-before-edge">Step 4: In then</text></g><g transform="translate(323.1374078961159 96.39831230216745) rotate(0 95.05594635009766 10)"><text x="95.05594635009766" y="0" font-family="Virgil, Segoe UI Emoji" font-size="16px" fill="#1e1e1e" text-anchor="middle" style="white-space: pre;" direction="ltr" dominant-baseline="text-before-edge">Step 5: In another then</text></g><g stroke-linecap="round" transform="translate(595.2645321526661 41.41933040118303) rotate(0 135.77436800045427 56.20423847337153)"><path d="M28.1 0 M28.1 0 C106.07 -0.07, 184.16 -0.74, 243.45 0 M28.1 0 C85.19 -1.82, 139.98 -2.18, 243.45 0 M243.45 0 C263.08 -0.15, 272.27 10.34, 271.55 28.1 M243.45 0 C262.44 -0.49, 271.75 9.01, 271.55 28.1 M271.55 28.1 C271.44 43.52, 271.75 57.22, 271.55 84.31 M271.55 28.1 C271.12 42.5, 270.3 58.04, 271.55 84.31 M271.55 84.31 C270.19 101.34, 260.89 111.69, 243.45 112.41 M271.55 84.31 C272.78 103.59, 261.7 114.43, 243.45 112.41 M243.45 112.41 C189.96 109.25, 137.17 111.13, 28.1 112.41 M243.45 112.41 C185.7 110.73, 128.09 109.89, 28.1 112.41 M28.1 112.41 C11.32 113.42, 0.59 102.94, 0 84.31 M28.1 112.41 C7.07 112.6, 1.73 102.09, 0 84.31 M0 84.31 C-0.93 70.13, -0.61 57.76, 0 28.1 M0 84.31 C-0.26 72.48, 0.72 60.95, 0 28.1 M0 28.1 C0.75 10.64, 10.78 0.4, 28.1 0 M0 28.1 C-0.8 7.57, 8.89 -0.22, 28.1 0" stroke="#1e1e1e" stroke-width="1" fill="none"></path></g><g transform="translate(646.8370236617179 10) rotate(0 66.2699584960938 12.5)"><text x="66.26995849609375" y="0" font-family="Virgil, Segoe UI Emoji" font-size="20px" fill="#1e1e1e" text-anchor="middle" style="white-space: pre;" direction="ltr" dominant-baseline="text-before-edge">Макро-задачи</text></g><g transform="translate(605.2826368098504 62.1594796383302) rotate(0 89.79195404052734 10)"><text x="89.79195404052734" y="0" font-family="Virgil, Segoe UI Emoji" font-size="16px" fill="#1e1e1e" text-anchor="middle" style="white-space: pre;" direction="ltr" dominant-baseline="text-before-edge">Step 2: In setTimeout</text></g><g transform="translate(605.3043675971512 94.92480589345789) rotate(0 123.0079345703125 10)"><text x="123.0079345703125" y="0" font-family="Virgil, Segoe UI Emoji" font-size="16px" fill="#1e1e1e" text-anchor="middle" style="white-space: pre;" direction="ltr" dominant-baseline="text-before-edge">Step 6: In another setTimeout</text></g><g stroke-linecap="round"><g transform="translate(278.5211088646718 92.14230204712717) rotate(0 9.789070192919326 0.6596042104082187)"><path d="M0.6 0.57 C3.8 0.61, 16.79 0.07, 20.13 0 M-0.55 -0.17 C2.42 0.07, 15.76 1.22, 19.21 1.49" stroke="#1e1e1e" stroke-width="1" fill="none"></path></g><g transform="translate(278.5211088646718 92.14230204712717) rotate(0 9.789070192919326 0.6596042104082187)"><path d="M10.02 4.19 C13.1 3.56, 16.85 2.76, 19.4 0.62 M9.98 3.64 C13.11 2.95, 16.11 2.07, 19.05 1.22" stroke="#1e1e1e" stroke-width="1" fill="none"></path></g><g transform="translate(278.5211088646718 92.14230204712717) rotate(0 9.789070192919326 0.6596042104082187)"><path d="M10.58 -2.65 C13.45 -0.7, 16.98 1.07, 19.4 0.62 M10.54 -3.19 C13.45 -1.43, 16.24 0.14, 19.05 1.22" stroke="#1e1e1e" stroke-width="1" fill="none"></path></g></g><mask></mask><g stroke-linecap="round"><g transform="translate(563.7352202239854 93.06307819269048) rotate(0 10.77079963562602 0.5819110533848999)"><path d="M-0.58 0.72 C3.01 0.84, 18.44 -0.08, 22.12 -0.19 M1.31 0.05 C4.79 0.46, 18.46 1.11, 21.75 1.36" stroke="#1e1e1e" stroke-width="1" fill="none"></path></g><g transform="translate(563.7352202239854 93.06307819269048) rotate(0 10.77079963562602 0.5819110533848999)"><path d="M12.3 5.31 C15.23 3.8, 18.97 3.28, 21.64 1.11 M11.69 4.87 C14.14 3.21, 15.85 3.19, 21.63 1.69" stroke="#1e1e1e" stroke-width="1" fill="none"></path></g><g transform="translate(563.7352202239854 93.06307819269048) rotate(0 10.77079963562602 0.5819110533848999)"><path d="M12.73 -1.87 C15.46 -0.88, 19.04 1.1, 21.64 1.11 M12.12 -2.31 C14.48 -2.3, 16.09 -0.65, 21.63 1.69" stroke="#1e1e1e" stroke-width="1" fill="none"></path></g></g><mask></mask></svg>
