<svg version="1.1" xmlns="http://www.w3.org/2000/svg" viewBox="0 0 876.8171744035747 163.1246823479261" width="2630.451523210724" height="489.3740470437783">
  <!-- svg-source:excalidraw -->

  <g stroke-linecap="round" transform="translate(10 44.907830331542414) rotate(0 127.80059899788503 50.88978534837152)"><path d="M25.44 0 M25.44 0 C76.99 0.72, 126.82 -0.48, 230.16 0 M25.44 0 C69.14 0.59, 110.79 1.03, 230.16 0 M230.16 0 C247.92 -0.25, 255.55 9.56, 255.6 25.44 M230.16 0 C247.72 -0.8, 254.99 9.92, 255.6 25.44 M255.6 25.44 C257.32 45.41, 255.02 64.49, 255.6 76.33 M255.6 25.44 C255.87 42.46, 255.93 60.29, 255.6 76.33 M255.6 76.33 C257.58 93.46, 247.99 101.34, 230.16 101.78 M255.6 76.33 C255.44 92.76, 245.96 102.63, 230.16 101.78 M230.16 101.78 C176.78 102.72, 124.74 103.29, 25.44 101.78 M230.16 101.78 C169.81 100.87, 107.95 101.27, 25.44 101.78 M25.44 101.78 C9.11 100.6, 0.28 91.95, 0 76.33 M25.44 101.78 C6.84 100.82, -1.15 93.89, 0 76.33 M0 76.33 C1.03 62.13, -1.13 52.23, 0 25.44 M0 76.33 C-0.23 61.17, 0.05 43.69, 0 25.44 M0 25.44 C-1.74 6.92, 7.28 -0.63, 25.44 0 M0 25.44 C0.58 7.83, 7.02 -0.15, 25.44 0" stroke="#1e1e1e" stroke-width="1" fill="none"></path></g><g transform="translate(44.86401219983969 13.462428562937276) rotate(0 92.6799545288086 12.5)"><text x="92.6799545288086" y="0" font-family="Virgil, Segoe UI Emoji" font-size="20px" fill="#1e1e1e" text-anchor="middle" style="white-space: pre;" direction="ltr" dominant-baseline="text-before-edge">Синхронные задачи</text></g><g transform="translate(20.809161336083207 65.66278767778303) rotate(0 89.0639419555664 10)"><text x="89.0639419555664" y="0" font-family="Virgil, Segoe UI Emoji" font-size="16px" fill="#1e1e1e" text-anchor="middle" style="white-space: pre;" direction="ltr" dominant-baseline="text-before-edge">Step 1: In global scope</text></g><g transform="translate(19.54286447579625 101.74309428687576) rotate(0 121.9759216308594 10)"><text x="121.97592163085938" y="0" font-family="Virgil, Segoe UI Emoji" font-size="16px" fill="#1e1e1e" text-anchor="middle" style="white-space: pre;" direction="ltr" dominant-baseline="text-before-edge">Step 3: In promise constructor</text></g><g stroke-linecap="round" transform="translate(308.53912648507463 44.56347751894933) rotate(0 121.42340066145266 53.43275409837153)"><path d="M26.72 0 M26.72 0 C92.9 -0.73, 154.45 -1.23, 216.13 0 M26.72 0 C98.47 -0.15, 172.29 0.47, 216.13 0 M216.13 0 C234.67 0.97, 243.08 8.48, 242.85 26.72 M216.13 0 C234.14 -0.36, 241.81 7.03, 242.85 26.72 M242.85 26.72 C243.6 45.02, 242.18 60.53, 242.85 80.15 M242.85 26.72 C242.16 42.11, 242.21 55.7, 242.85 80.15 M242.85 80.15 C241.56 97.24, 235.02 107.34, 216.13 106.87 M242.85 80.15 C242.37 99.98, 232.78 107.9, 216.13 106.87 M216.13 106.87 C176.64 105.53, 133.89 104.02, 26.72 106.87 M216.13 106.87 C177.12 106.31, 139.68 107.64, 26.72 106.87 M26.72 106.87 C9.5 106.76, -2 98.13, 0 80.15 M26.72 106.87 C10.63 105.92, -1.81 99.18, 0 80.15 M0 80.15 C-0.14 63.75, -1.53 51.56, 0 26.72 M0 80.15 C0.98 62.92, 0.38 44.68, 0 26.72 M0 26.72 C1.41 9.31, 8.21 -1.56, 26.72 0 M0 26.72 C-0.47 8.68, 9.56 0.72, 26.72 0" stroke="#1e1e1e" stroke-width="1" fill="none"></path></g><g transform="translate(360.75867763398577 13.753127062603795) rotate(0 65.23995971679688 12.5)"><text x="65.23995971679688" y="0" font-family="Virgil, Segoe UI Emoji" font-size="20px" fill="#1e1e1e" text-anchor="middle" style="white-space: pre;" direction="ltr" dominant-baseline="text-before-edge">Микро-задачи</text></g><g transform="translate(324.32418383689156 64.7679813584974) rotate(0 61.439964294433594 10)"><text x="61.439964294433594" y="0" font-family="Virgil, Segoe UI Emoji" font-size="16px" fill="#1e1e1e" text-anchor="middle" style="white-space: pre;" direction="ltr" dominant-baseline="text-before-edge">Step 4: In then</text></g><g stroke-linecap="round" transform="translate(595.2684384026661 41.64979915118303) rotate(0 135.77436800045427 55.73744159837153)"><path d="M27.87 0 M27.87 0 C106 -0.07, 184.26 -0.74, 243.68 0 M27.87 0 C85.08 -1.82, 139.99 -2.18, 243.68 0 M243.68 0 C263.16 -0.15, 272.27 10.26, 271.55 27.87 M243.68 0 C262.52 -0.49, 271.75 8.93, 271.55 27.87 M271.55 27.87 C271.44 43.17, 271.75 56.74, 271.55 83.61 M271.55 27.87 C271.13 42.14, 270.3 57.56, 271.55 83.61 M271.55 83.61 C270.19 100.49, 260.97 110.76, 243.68 111.47 M271.55 83.61 C272.78 102.73, 261.78 113.49, 243.68 111.47 M243.68 111.47 C190.07 108.31, 137.17 110.2, 27.87 111.47 M243.68 111.47 C185.81 109.8, 128.08 108.95, 27.87 111.47 M27.87 111.47 C11.24 112.49, 0.59 102.08, 0 83.61 M27.87 111.47 C6.99 111.67, 1.73 101.24, 0 83.61 M0 83.61 C-0.93 69.54, -0.61 57.26, 0 27.87 M0 83.61 C-0.26 71.88, 0.72 60.45, 0 27.87 M0 27.87 C0.75 10.56, 10.7 0.4, 27.87 0 M0 27.87 C-0.8 7.49, 8.82 -0.22, 27.87 0" stroke="#1e1e1e" stroke-width="1" fill="none"></path></g><g transform="translate(647.0674924117179 10) rotate(0 66.2699584960938 12.5)"><text x="66.26995849609375" y="0" font-family="Virgil, Segoe UI Emoji" font-size="20px" fill="#1e1e1e" text-anchor="middle" style="white-space: pre;" direction="ltr" dominant-baseline="text-before-edge">Макро-задачи</text></g><g transform="translate(605.5131055598504 62.1594796383302) rotate(0 89.79195404052734 10)"><text x="89.79195404052734" y="0" font-family="Virgil, Segoe UI Emoji" font-size="16px" fill="#1e1e1e" text-anchor="middle" style="white-space: pre;" direction="ltr" dominant-baseline="text-before-edge">Step 2: In setTimeout</text></g><g transform="translate(605.7108388495926 94.92480589345789) rotate(0 122.8319320678711 10)"><text x="122.8319320678711" y="0" font-family="Virgil, Segoe UI Emoji" font-size="16px" fill="#1e1e1e" text-anchor="middle" style="white-space: pre;" direction="ltr" dominant-baseline="text-before-edge">Step 5: In another setTimeout</text></g><g stroke-linecap="round"><g transform="translate(277.7242338646718 91.3186411747131) rotate(0 10.055784935257975 0.6719251716474162)"><path d="M0.6 0.57 C3.89 0.61, 17.23 0.09, 20.66 0.02 M-0.55 -0.17 C2.51 0.08, 16.21 1.24, 19.75 1.52" stroke="#1e1e1e" stroke-width="1" fill="none"></path></g><g transform="translate(277.7242338646718 91.3186411747131) rotate(0 10.055784935257975 0.6719251716474162)"><path d="M10.31 4.29 C13.48 3.65, 17.32 2.83, 19.94 0.62 M10.27 3.73 C13.49 3.02, 16.56 2.11, 19.57 1.23" stroke="#1e1e1e" stroke-width="1" fill="none"></path></g><g transform="translate(277.7242338646718 91.3186411747131) rotate(0 10.055784935257975 0.6719251716474162)"><path d="M10.88 -2.73 C13.82 -0.73, 17.46 1.08, 19.94 0.62 M10.84 -3.29 C13.83 -1.48, 16.69 0.13, 19.57 1.23" stroke="#1e1e1e" stroke-width="1" fill="none"></path></g></g><mask></mask><g stroke-linecap="round"><g transform="translate(563.4717747086627 92.71756184062534) rotate(0 10.904475518287313 0.6018611262660585)"><path d="M-0.58 0.72 C3.05 0.84, 18.66 -0.07, 22.39 -0.17 M1.31 0.05 C4.84 0.46, 18.69 1.13, 22.02 1.38" stroke="#1e1e1e" stroke-width="1" fill="none"></path></g><g transform="translate(563.4717747086627 92.71756184062534) rotate(0 10.904475518287313 0.6018611262660585)"><path d="M12.45 5.38 C15.42 3.85, 19.2 3.32, 21.91 1.12 M11.83 4.93 C14.32 3.26, 16.05 3.24, 21.89 1.71" stroke="#1e1e1e" stroke-width="1" fill="none"></path></g><g transform="translate(563.4717747086627 92.71756184062534) rotate(0 10.904475518287313 0.6018611262660585)"><path d="M12.89 -1.89 C15.65 -0.89, 19.28 1.12, 21.91 1.12 M12.26 -2.34 C14.66 -2.33, 16.29 -0.66, 21.89 1.71" stroke="#1e1e1e" stroke-width="1" fill="none"></path></g></g><mask></mask></svg>
