<svg version="1.1" xmlns="http://www.w3.org/2000/svg" viewBox="0 0 1101.7990898284045 806.7318967777115" width="3305.3972694852137" height="2420.1956903331347">
  <!-- svg-source:excalidraw -->

  <g stroke-linecap="round" transform="translate(124.29981486628901 117.72183322230924) rotate(0 113.5 30)"><path d="M15 0 M15 0 C84.03 -0.04, 153.79 0.08, 212 0 M15 0 C67.82 -1.95, 120.26 -1.9, 212 0 M212 0 C221.77 -0.52, 226.77 5.01, 227 15 M212 0 C220.94 -0.09, 226.21 5.74, 227 15 M227 15 C228.83 24.17, 227.53 36.72, 227 45 M227 15 C225.94 23.65, 227.65 34.06, 227 45 M227 45 C228.73 54.44, 222.65 58.01, 212 60 M227 45 C225.17 54.5, 221.37 60.29, 212 60 M212 60 C144.96 59.56, 76.57 58.39, 15 60 M212 60 C139.55 61.43, 67.39 62.33, 15 60 M15 60 C4.04 61.9, 0.5 55.64, 0 45 M15 60 C5.59 59.58, 0.19 56.05, 0 45 M0 45 C-0.68 36.44, 1.77 26.52, 0 15 M0 45 C0.52 35.64, 0.82 26.36, 0 15 M0 15 C1.15 4.1, 5.57 -0.38, 15 0 M0 15 C0.46 5.44, 2.9 -1.76, 15 0" stroke="#1e1e1e" stroke-width="1" fill="none"></path></g><g transform="translate(160.99987284968745 135.22183322230924) rotate(0 76.79994201660156 12.5)"><text x="76.79994201660156" y="0" font-family="Virgil, Segoe UI Emoji" font-size="20px" fill="#1e1e1e" text-anchor="middle" style="white-space: pre;" direction="ltr" dominant-baseline="text-before-edge">Step 4: In then</text></g><g stroke-linecap="round" transform="translate(446.60426220060594 503.2404896393971) rotate(0 134.5 30)"><path d="M3.99 3.47 C3.99 3.47, 3.99 3.47, 3.99 3.47 M3.99 3.47 C3.99 3.47, 3.99 3.47, 3.99 3.47 M3.08 10.62 C5.98 8.69, 7.95 5.47, 10.29 2.32 M3.08 10.62 C5.4 8.51, 7.59 5.4, 10.29 2.32 M2.81 17.02 C8.42 12.85, 8.65 8.86, 16.59 1.17 M2.81 17.02 C8.19 11.56, 13.5 4.41, 16.59 1.17 M2.55 23.42 C8.71 15.65, 16 10.3, 21.58 1.53 M2.55 23.42 C8.41 15.33, 14.73 9.13, 21.58 1.53 M2.95 29.06 C7.16 23.23, 11.52 18.44, 27.22 1.14 M2.95 29.06 C8.55 23.25, 15.04 16.09, 27.22 1.14 M3.34 34.71 C14.93 23.26, 24.63 9.69, 32.21 1.5 M3.34 34.71 C13.2 22.72, 24.1 11.04, 32.21 1.5 M3.08 41.1 C9.3 34.3, 19.58 23.51, 37.85 1.1 M3.08 41.1 C14.98 26.14, 27.58 12.42, 37.85 1.1 M3.47 46.75 C20.03 30.09, 35.11 12.4, 42.84 1.46 M3.47 46.75 C17.44 29.8, 33.16 11.21, 42.84 1.46 M3.21 53.14 C12.22 41.13, 24.55 25.89, 48.48 1.07 M3.21 53.14 C19.82 35.22, 35.57 14.81, 48.48 1.07 M5.58 56.52 C17.07 43.24, 29.84 26.96, 53.47 1.43 M5.58 56.52 C15.3 44.14, 25.91 32.36, 53.47 1.43 M7.94 59.9 C18.91 46.95, 34.62 29.66, 59.11 1.03 M7.94 59.9 C23.4 43.54, 36.82 24.76, 59.11 1.03 M12.27 61.02 C28.07 43.19, 46.53 21.27, 64.1 1.39 M12.27 61.02 C27.97 41.32, 45.47 22.17, 64.1 1.39 M17.91 60.62 C35.01 40.83, 48.9 22.77, 69.74 1 M17.91 60.62 C38.87 36.67, 57.72 14.07, 69.74 1 M22.9 60.98 C43.94 38.43, 63.45 14.66, 74.73 1.36 M22.9 60.98 C35.14 47.9, 46.72 33.06, 74.73 1.36 M28.54 60.59 C43.91 41, 61.33 23.03, 79.72 1.72 M28.54 60.59 C42.03 46.48, 54.92 30.05, 79.72 1.72 M33.53 60.95 C46.29 45.03, 60.96 26.94, 85.36 1.33 M33.53 60.95 C49.98 42.96, 64.23 26.98, 85.36 1.33 M39.17 60.55 C58.93 39.5, 76.43 15.68, 90.35 1.69 M39.17 60.55 C55.86 40.23, 74.26 20.99, 90.35 1.69 M44.16 60.91 C59.83 40.38, 75.5 22.66, 95.99 1.29 M44.16 60.91 C58.27 44.9, 74.35 26.92, 95.99 1.29 M49.8 60.52 C65.64 42.57, 81.49 23.8, 100.98 1.65 M49.8 60.52 C69.37 36.94, 90.39 15.35, 100.98 1.65 M54.79 60.88 C73.06 39.85, 94.66 16.22, 106.62 1.26 M54.79 60.88 C68.76 42.92, 83.07 25.72, 106.62 1.26 M60.43 60.48 C69.68 50.17, 80.95 37.27, 111.61 1.62 M60.43 60.48 C73.94 45.72, 86.29 31.39, 111.61 1.62 M65.42 60.84 C77.99 46.18, 88.48 31.37, 117.25 1.22 M65.42 60.84 C83.25 41.45, 100.49 20.44, 117.25 1.22 M71.06 60.45 C83.88 45.76, 94.29 32.64, 122.24 1.58 M71.06 60.45 C85.61 42.23, 100.8 26.54, 122.24 1.58 M76.05 60.81 C89.02 46.4, 100.6 32.42, 127.88 1.19 M76.05 60.81 C95.75 38.49, 116.86 14.62, 127.88 1.19 M81.69 60.41 C94.25 47.09, 108.35 33.39, 132.87 1.55 M81.69 60.41 C98.66 41.99, 113.99 23.38, 132.87 1.55 M86.68 60.77 C96.97 47.94, 109.25 33.9, 138.51 1.15 M86.68 60.77 C106.13 38.23, 127.38 14.95, 138.51 1.15 M91.67 61.14 C113.48 39.07, 130.94 13.24, 143.5 1.51 M91.67 61.14 C106.2 44.1, 119.71 28.04, 143.5 1.51 M97.31 60.74 C111.07 45.17, 121.56 33.4, 149.14 1.12 M97.31 60.74 C115.24 38.6, 134.49 16.9, 149.14 1.12 M102.3 61.1 C117.88 44.44, 132.61 29.13, 154.13 1.48 M102.3 61.1 C120.07 41.71, 137.93 21.45, 154.13 1.48 M107.94 60.71 C124.49 39.18, 141.9 21.26, 159.77 1.08 M107.94 60.71 C124.98 40.73, 142.79 22.07, 159.77 1.08 M112.93 61.07 C122.72 49.2, 134.36 35.97, 164.76 1.44 M112.93 61.07 C127.07 45.16, 142 28.83, 164.76 1.44 M118.57 60.67 C129.57 45.95, 141.03 34.8, 169.74 1.8 M118.57 60.67 C130.93 47.46, 142.32 32.88, 169.74 1.8 M123.56 61.03 C135.83 49.35, 143.54 35.8, 175.39 1.41 M123.56 61.03 C135.01 47.01, 148.5 33.98, 175.39 1.41 M129.2 60.64 C141.68 45.83, 157.55 25.47, 180.37 1.77 M129.2 60.64 C146.41 39.68, 165.06 18.49, 180.37 1.77 M134.19 61 C150.84 41.34, 165.19 26.16, 186.02 1.37 M134.19 61 C151.92 40.61, 168.73 21.44, 186.02 1.37 M139.83 60.6 C153.24 47.37, 163.8 33.12, 191 1.74 M139.83 60.6 C156.47 43.75, 171.36 24.45, 191 1.74 M144.82 60.96 C158.6 46.11, 171.54 29.98, 196.65 1.34 M144.82 60.96 C164.12 40.64, 181.22 18.91, 196.65 1.34 M150.46 60.57 C164.85 42.86, 182.21 23.66, 201.63 1.7 M150.46 60.57 C164.17 43.7, 179.59 27.35, 201.63 1.7 M155.45 60.93 C172.1 40.18, 189.57 20.99, 207.28 1.31 M155.45 60.93 C176.51 38.87, 196.32 15.27, 207.28 1.31 M161.09 60.53 C179.45 38.22, 197.22 16.18, 212.26 1.67 M161.09 60.53 C179.66 39.14, 199.2 16.22, 212.26 1.67 M166.08 60.89 C178.39 48.63, 191.95 34.31, 217.91 1.27 M166.08 60.89 C184.62 38.37, 204.37 16.65, 217.91 1.27 M171.72 60.5 C183.48 46.89, 198.01 31.45, 222.89 1.63 M171.72 60.5 C183.24 45.36, 196.42 30.26, 222.89 1.63 M176.71 60.86 C193.04 40.03, 214.79 19.85, 228.54 1.24 M176.71 60.86 C187.42 48.22, 197.59 37.08, 228.54 1.24 M181.7 61.22 C197.51 45.42, 208.64 29.56, 233.52 1.6 M181.7 61.22 C195.58 43.67, 210.96 28.25, 233.52 1.6 M187.34 60.82 C205.71 38.41, 225.58 15.74, 239.17 1.2 M187.34 60.82 C196.86 49.04, 207.64 36.29, 239.17 1.2 M192.33 61.18 C211.29 39.72, 234.68 14.18, 244.15 1.56 M192.33 61.18 C204.33 47.25, 217.31 31.78, 244.15 1.56 M197.97 60.79 C212.19 44.31, 228.19 27.77, 249.8 1.17 M197.97 60.79 C209.95 46.14, 222.99 30.52, 249.8 1.17 M202.96 61.15 C222.01 41.42, 239.29 18.18, 254.78 1.53 M202.96 61.15 C221.64 40, 241.9 17.84, 254.78 1.53 M208.6 60.76 C224.08 44.29, 239.14 25.05, 259.77 1.89 M208.6 60.76 C220.96 46.59, 234.94 31.9, 259.77 1.89 M213.59 61.12 C233.66 39.22, 249.55 18.74, 263.45 3.76 M213.59 61.12 C229.91 42.88, 244.58 24.17, 263.45 3.76 M219.23 60.72 C237.63 39.93, 258.03 19.58, 267.12 5.63 M219.23 60.72 C232.43 45.81, 243.48 31.39, 267.12 5.63 M224.22 61.08 C235.53 46.58, 250.11 32.64, 268.83 9.76 M224.22 61.08 C234.4 48.77, 245.91 36.6, 268.83 9.76 M229.86 60.69 C243.4 46.7, 255.74 29.39, 269.22 15.4 M229.86 60.69 C244.24 43.49, 260.04 26.09, 269.22 15.4 M234.85 61.05 C247.15 44.47, 259.36 33.31, 269.62 21.05 M234.85 61.05 C242.55 50.21, 252.56 40.95, 269.62 21.05 M240.49 60.65 C248.09 51.46, 255.76 40.58, 269.36 27.44 M240.49 60.65 C248.37 52.31, 255.62 43.01, 269.36 27.44 M245.48 61.01 C254.29 51.4, 262.27 43.08, 269.75 33.09 M245.48 61.01 C255.41 50.44, 263.54 40.01, 269.75 33.09 M251.12 60.62 C256.25 54.34, 264.13 44.42, 269.49 39.49 M251.12 60.62 C257.47 52.85, 263.76 44.61, 269.49 39.49 M255.45 61.73 C258.99 58.49, 264 54.11, 269.88 45.13 M255.45 61.73 C259.73 57.59, 261.34 52.85, 269.88 45.13" stroke="#ffec99" stroke-width="0.5" fill="none"></path><path d="M15 0 M15 0 C84.12 -1.81, 151.59 -2.65, 254 0 M15 0 C91.79 0.45, 167.78 1.06, 254 0 M254 0 C265.73 -1.88, 267.1 6.13, 269 15 M254 0 C264.79 -0.48, 268.71 5.79, 269 15 M269 15 C270.46 24.87, 269.41 34.17, 269 45 M269 15 C268.45 22.29, 268.25 29.3, 269 45 M269 45 C270.08 56.25, 264.22 58.72, 254 60 M269 45 C267.71 53.48, 263.68 62.24, 254 60 M254 60 C190.22 62.61, 126.68 60.98, 15 60 M254 60 C190.01 58.99, 126 58.33, 15 60 M15 60 C3.76 58.95, 0.29 55.67, 0 45 M15 60 C6 58.14, 0.83 55.35, 0 45 M0 45 C-0.13 38.13, -1.16 28.16, 0 15 M0 45 C-0.57 37.27, 0.19 28.63, 0 15 M0 15 C0.28 5.41, 4.47 0.73, 15 0 M0 15 C-1.71 3.78, 3.15 -1.78, 15 0" stroke="#1e1e1e" stroke-width="1" fill="none"></path></g><g transform="translate(504.3043201840044 520.7404896393971) rotate(0 76.79994201660156 12.5)"><text x="76.79994201660156" y="0" font-family="Virgil, Segoe UI Emoji" font-size="20px" fill="#1e1e1e" text-anchor="middle" style="white-space: pre;" direction="ltr" dominant-baseline="text-before-edge">Step 4: In then</text></g><g stroke-linecap="round" transform="translate(799.425852896601 120.7552227912976) rotate(0 137.99999999999994 30)"><path d="M15 0 M15 0 C67.73 0.4, 121.36 -1.1, 261 0 M15 0 C105.66 1.13, 196.82 0.36, 261 0 M261 0 C271.13 1.83, 274.6 3.01, 276 15 M261 0 C269.95 1.8, 273.76 6.35, 276 15 M276 15 C275.1 27.33, 274.01 34.77, 276 45 M276 15 C276.97 24.56, 275.48 34.85, 276 45 M276 45 C277.28 54.94, 272.33 60.5, 261 60 M276 45 C275.75 55.36, 270.66 59.31, 261 60 M261 60 C176.62 60.7, 91.98 61.89, 15 60 M261 60 C190.85 59.37, 120.44 58.11, 15 60 M15 60 C4.11 59.68, 1.73 54.69, 0 45 M15 60 C2.78 60.6, -1.09 54.26, 0 45 M0 45 C0.21 32.48, -0.26 23.34, 0 15 M0 45 C-0.35 36.64, 0.49 29.32, 0 15 M0 15 C-0.77 4.01, 6.29 1.85, 15 0 M0 15 C-1.79 3.53, 5.67 -0.28, 15 0" stroke="#1e1e1e" stroke-width="1" fill="none"></path></g><g transform="translate(818.6059447545111 138.2552227912976) rotate(0 118.81990814208979 12.5)"><text x="118.81990814208984" y="0" font-family="Virgil, Segoe UI Emoji" font-size="20px" fill="#1e1e1e" text-anchor="middle" style="white-space: pre;" direction="ltr" dominant-baseline="text-before-edge">Step 5: In another then</text></g><g stroke-linecap="round" transform="translate(445.56309409867015 644.536757017903) rotate(0 137 30)"><path d="M15 0 M15 0 C89.76 0.9, 168.32 0.62, 259 0 M15 0 C67.72 0.01, 118.92 -0.88, 259 0 M259 0 C267.75 -1.29, 273.47 5.67, 274 15 M259 0 C267.73 -1.05, 272.58 3.79, 274 15 M274 15 C272.48 25.16, 274.4 33.51, 274 45 M274 15 C274.73 21.85, 273.97 29.74, 274 45 M274 45 C273.88 54.19, 267.82 60.95, 259 60 M274 45 C274.4 55.07, 269.32 60.47, 259 60 M259 60 C191.35 57.17, 124.17 57.86, 15 60 M259 60 C180.82 59.04, 100.93 58.02, 15 60 M15 60 C6.26 58.47, 1.15 55.18, 0 45 M15 60 C3.03 58.88, 2.01 56.83, 0 45 M0 45 C0.2 34.24, 1.98 21.34, 0 15 M0 45 C-0.82 33.86, 0.82 21.04, 0 15 M0 15 C-0.5 6.77, 3.91 -1.03, 15 0 M0 15 C-2.22 4.88, 5.58 -0.39, 15 0" stroke="#1e1e1e" stroke-width="1" fill="none"></path></g><g transform="translate(463.7431859565803 662.036757017903) rotate(0 118.81990814208984 12.5)"><text x="118.81990814208984" y="0" font-family="Virgil, Segoe UI Emoji" font-size="20px" fill="#1e1e1e" text-anchor="middle" style="white-space: pre;" direction="ltr" dominant-baseline="text-before-edge">Step 5: In another then</text></g><g stroke-linecap="round" transform="translate(800.827315967145 193.74598961511307) rotate(0 138.00000000000006 30)"><path d="M15 0 M15 0 C112.64 -1.67, 207.13 -0.86, 261 0 M15 0 C65.13 -2.08, 114.39 -0.99, 261 0 M261 0 C271.86 -0.52, 277.63 4.31, 276 15 M261 0 C271.9 0.59, 275.84 7.08, 276 15 M276 15 C275.9 25.33, 274.94 36.74, 276 45 M276 15 C276.85 25.82, 276.08 37.03, 276 45 M276 45 C276.89 54.79, 270.54 58.06, 261 60 M276 45 C277.77 55.77, 270.04 58.41, 261 60 M261 60 C192.1 58.09, 122.9 59.16, 15 60 M261 60 C175.71 58.33, 88.92 58.25, 15 60 M15 60 C6.21 61.23, -1.02 55.6, 0 45 M15 60 C3.57 61.5, -1.52 53.18, 0 45 M0 45 C-1.3 37.04, 1.34 30.83, 0 15 M0 45 C0.27 38.6, 0.19 33.3, 0 15 M0 15 C0.42 5.68, 3.05 1.6, 15 0 M0 15 C-1.1 3.59, 5.7 1.36, 15 0" stroke="#1e1e1e" stroke-width="1" fill="none"></path></g><g transform="translate(820.0974041629457 211.24598961511307) rotate(0 118.72991180419928 12.5)"><text x="118.72991180419922" y="0" font-family="Virgil, Segoe UI Emoji" font-size="20px" fill="#1e1e1e" text-anchor="middle" style="white-space: pre;" direction="ltr" dominant-baseline="text-before-edge">Step 9: In another then</text></g><g stroke-linecap="round" transform="translate(444.9645571692141 717.5275238417184) rotate(0 138 30)"><path d="M15 0 M15 0 C76.61 -0.23, 133.58 1.24, 261 0 M15 0 C96.09 -1.78, 176.84 -2.04, 261 0 M261 0 C270.47 0.67, 274.9 4.09, 276 15 M261 0 C269.58 -1.21, 276.34 5.76, 276 15 M276 15 C276.06 24.93, 274.76 35.21, 276 45 M276 15 C276.27 23.31, 276.18 31.75, 276 45 M276 45 C274.82 55.95, 271.35 60.06, 261 60 M276 45 C276.32 55.47, 270.39 60.84, 261 60 M261 60 C204.24 57.74, 150.42 59.12, 15 60 M261 60 C207.57 61.51, 155.12 61.17, 15 60 M15 60 C6.15 60.18, -1.71 54.03, 0 45 M15 60 C7.01 61.83, 1.41 53.56, 0 45 M0 45 C1.79 34.5, 1.76 28.44, 0 15 M0 45 C1.12 36.61, -0.03 30.47, 0 15 M0 15 C-1.09 3.97, 3.07 -0.1, 15 0 M0 15 C0.58 4.61, 4.89 1.25, 15 0" stroke="#1e1e1e" stroke-width="1" fill="none"></path></g><g transform="translate(464.2346453650149 735.0275238417184) rotate(0 118.72991180419922 12.5)"><text x="118.72991180419922" y="0" font-family="Virgil, Segoe UI Emoji" font-size="20px" fill="#1e1e1e" text-anchor="middle" style="white-space: pre;" direction="ltr" dominant-baseline="text-before-edge">Step 9: In another then</text></g><g stroke-linecap="round" transform="translate(123.64541737209419 190.33753625430623) rotate(0 114.5 30)"><path d="M15 0 M15 0 C93.33 0.88, 172.64 0.15, 214 0 M15 0 C81.34 -1.62, 149.45 -0.59, 214 0 M214 0 C223.14 1.32, 229.32 4.32, 229 15 M214 0 C225.45 -0.92, 231.24 3.31, 229 15 M229 15 C230.16 28.46, 226.99 37.73, 229 45 M229 15 C229.66 23.81, 228.59 31.93, 229 45 M229 45 C230.48 56.38, 225.58 59.1, 214 60 M229 45 C231.09 56.59, 224.23 59.71, 214 60 M214 60 C137.79 59.69, 64.02 58.15, 15 60 M214 60 C163.61 61.02, 114.06 61.76, 15 60 M15 60 C5.99 58.58, -1.19 53.19, 0 45 M15 60 C6.43 59.55, 1.73 52.84, 0 45 M0 45 C-0.41 35.88, -0.38 25.34, 0 15 M0 45 C0.07 33.31, 0.31 21.2, 0 15 M0 15 C1.36 6.08, 5 -1.32, 15 0 M0 15 C-1.29 4.81, 6.83 -0.66, 15 0" stroke="#1e1e1e" stroke-width="1" fill="none"></path></g><g transform="translate(160.09547535549262 207.83753625430623) rotate(0 78.04994201660156 12.5)"><text x="78.04994201660156" y="0" font-family="Virgil, Segoe UI Emoji" font-size="20px" fill="#1e1e1e" text-anchor="middle" style="white-space: pre;" direction="ltr" dominant-baseline="text-before-edge">Step 8: In then</text></g><g stroke-linecap="round" transform="translate(445.94986470641106 575.8561926713941) rotate(0 136 30)"><path d="M3.99 3.47 C3.99 3.47, 3.99 3.47, 3.99 3.47 M3.99 3.47 C3.99 3.47, 3.99 3.47, 3.99 3.47 M3.08 10.62 C6.32 7.27, 8.41 4.33, 10.29 2.32 M3.08 10.62 C6.11 7.08, 8.46 4.15, 10.29 2.32 M2.81 17.02 C4.2 13.7, 10.58 8.16, 16.59 1.17 M2.81 17.02 C5.99 12.73, 9.07 10.32, 16.59 1.17 M2.55 23.42 C8.07 19.46, 13.45 10.45, 21.58 1.53 M2.55 23.42 C7.55 17.52, 12.87 10.16, 21.58 1.53 M2.95 29.06 C9.62 20.66, 18 12.43, 27.22 1.14 M2.95 29.06 C9.71 22.21, 16 15.18, 27.22 1.14 M3.34 34.71 C13.46 22.5, 22.09 14.12, 32.21 1.5 M3.34 34.71 C13.45 23.6, 22.78 10.98, 32.21 1.5 M3.08 41.1 C17.74 25.59, 29.36 10.59, 37.85 1.1 M3.08 41.1 C14.31 27.99, 26.72 15.23, 37.85 1.1 M3.47 46.75 C13.64 36.31, 25.33 24.84, 42.84 1.46 M3.47 46.75 C13.91 33.94, 24.15 23.54, 42.84 1.46 M3.21 53.14 C13.1 39.65, 25.92 27.26, 48.48 1.07 M3.21 53.14 C15.78 36.78, 29.79 22.63, 48.48 1.07 M5.58 56.52 C19.37 39.42, 33.12 22.39, 53.47 1.43 M5.58 56.52 C24.52 34.73, 42.27 13.85, 53.47 1.43 M7.94 59.9 C27.38 38.16, 42.64 21.44, 59.11 1.03 M7.94 59.9 C20.25 43.16, 34.38 28.21, 59.11 1.03 M12.27 61.02 C32.87 36.95, 51.02 18.24, 64.1 1.39 M12.27 61.02 C23.42 48.45, 34.88 35.74, 64.1 1.39 M17.91 60.62 C29.26 44.99, 45.35 32.08, 69.74 1 M17.91 60.62 C37.55 37.5, 59.57 13.04, 69.74 1 M22.9 60.98 C44.77 36.06, 62.36 12.56, 74.73 1.36 M22.9 60.98 C36.94 43.59, 51.43 27.95, 74.73 1.36 M28.54 60.59 C40.15 47.58, 51.44 33.75, 79.72 1.72 M28.54 60.59 C42.43 43.59, 56.42 27.19, 79.72 1.72 M33.53 60.95 C47.94 42.08, 63.72 24.87, 85.36 1.33 M33.53 60.95 C46.04 46.96, 59.82 32.01, 85.36 1.33 M39.17 60.55 C53.29 42.15, 71.66 22.05, 90.35 1.69 M39.17 60.55 C58.45 39.72, 75.76 19.35, 90.35 1.69 M44.16 60.91 C61.91 39.19, 80.64 20.14, 95.99 1.29 M44.16 60.91 C58.62 45.01, 71.81 28.99, 95.99 1.29 M49.8 60.52 C59.98 48.08, 74.93 34.15, 100.98 1.65 M49.8 60.52 C65.31 44.78, 79.66 28.13, 100.98 1.65 M54.79 60.88 C69.29 45.52, 80.15 32.03, 106.62 1.26 M54.79 60.88 C73.24 38.34, 92.3 18, 106.62 1.26 M60.43 60.48 C74.2 45.2, 87.82 28.17, 111.61 1.62 M60.43 60.48 C70.74 48.67, 81.21 36.33, 111.61 1.62 M65.42 60.84 C77.39 44.34, 91.76 32.65, 117.25 1.22 M65.42 60.84 C79.95 43.58, 92.64 28.07, 117.25 1.22 M71.06 60.45 C82.2 46.34, 95.73 32.68, 122.24 1.58 M71.06 60.45 C85.1 45.46, 99.19 27.91, 122.24 1.58 M76.05 60.81 C94.97 38.94, 117.58 13.04, 127.88 1.19 M76.05 60.81 C88.47 46.71, 99.48 33.71, 127.88 1.19 M81.69 60.41 C99.2 43.7, 113.59 24.08, 132.87 1.55 M81.69 60.41 C96.89 42.5, 112.31 24.72, 132.87 1.55 M86.68 60.77 C100.85 44.36, 119.77 24.87, 138.51 1.15 M86.68 60.77 C104.05 41.96, 120.29 23.62, 138.51 1.15 M91.67 61.14 C106.98 40.22, 123.89 22.98, 143.5 1.51 M91.67 61.14 C108.56 41.14, 124.74 21.54, 143.5 1.51 M97.31 60.74 C115.51 40.16, 137.12 15.68, 149.14 1.12 M97.31 60.74 C116.57 38.44, 135.3 17.24, 149.14 1.12 M102.3 61.1 C120.55 42.56, 136.08 22.61, 154.13 1.48 M102.3 61.1 C115.39 46.67, 128.79 30.75, 154.13 1.48 M107.94 60.71 C118.75 48.33, 132.99 32.14, 159.77 1.08 M107.94 60.71 C121.33 46.68, 133.87 31.41, 159.77 1.08 M112.93 61.07 C123.96 48.29, 136.17 32.38, 164.76 1.44 M112.93 61.07 C133.48 38.45, 152.03 15.17, 164.76 1.44 M118.57 60.67 C128.34 49.63, 139.52 35.18, 169.74 1.8 M118.57 60.67 C138.71 36.64, 157.79 12.88, 169.74 1.8 M123.56 61.03 C139.32 39.7, 156.96 18.86, 175.39 1.41 M123.56 61.03 C141.3 42.58, 157.03 23.35, 175.39 1.41 M129.2 60.64 C145.24 40.01, 162.38 25.39, 180.37 1.77 M129.2 60.64 C142.33 45.4, 154.78 32.11, 180.37 1.77 M134.19 61 C145.97 48.32, 160.23 31.57, 186.02 1.37 M134.19 61 C146.68 46.6, 159.89 30.41, 186.02 1.37 M139.83 60.6 C150.88 46.86, 162.72 33.95, 191 1.74 M139.83 60.6 C150.1 47.42, 160.18 36.49, 191 1.74 M144.82 60.96 C160.41 42.92, 178.51 21.63, 196.65 1.34 M144.82 60.96 C157.67 44.67, 172.86 29.06, 196.65 1.34 M150.46 60.57 C166.28 42.81, 182.74 22.84, 201.63 1.7 M150.46 60.57 C167.29 42.12, 184.04 23.71, 201.63 1.7 M155.45 60.93 C175.12 38.74, 198.55 12.45, 207.28 1.31 M155.45 60.93 C168.17 46.15, 180.78 32.07, 207.28 1.31 M161.09 60.53 C173.27 44.07, 188.39 31.9, 212.26 1.67 M161.09 60.53 C180.16 38.45, 197.68 16.67, 212.26 1.67 M166.08 60.89 C184.69 41.91, 201.26 22.36, 217.91 1.27 M166.08 60.89 C183.89 41.08, 200.89 20, 217.91 1.27 M171.72 60.5 C190.3 40.26, 207.54 20.15, 222.89 1.63 M171.72 60.5 C190.88 38.13, 210.25 17.33, 222.89 1.63 M176.71 60.86 C190.35 48.3, 197.88 33.55, 228.54 1.24 M176.71 60.86 C192.8 42.57, 209.13 23.26, 228.54 1.24 M181.7 61.22 C193.33 46.17, 208.67 29.83, 233.52 1.6 M181.7 61.22 C197.9 44.25, 213.9 26.62, 233.52 1.6 M187.34 60.82 C207.4 37.75, 224.19 16.33, 239.17 1.2 M187.34 60.82 C199.07 46.49, 212.22 34.14, 239.17 1.2 M192.33 61.18 C208.4 44.36, 219.16 29.29, 244.15 1.56 M192.33 61.18 C212.26 37.92, 230.75 16.43, 244.15 1.56 M197.97 60.79 C219.17 38.43, 235.82 15.06, 249.8 1.17 M197.97 60.79 C214.26 41.01, 231.75 22.23, 249.8 1.17 M202.96 61.15 C221.41 37.96, 242.18 17.55, 254.78 1.53 M202.96 61.15 C221.32 41.53, 237.7 20.85, 254.78 1.53 M208.6 60.76 C229.21 36.46, 248.1 11.99, 261.08 0.38 M208.6 60.76 C226.43 41.51, 243.24 22.9, 261.08 0.38 M213.59 61.12 C222.6 49.42, 234.85 38.21, 264.76 2.25 M213.59 61.12 C231.92 38.83, 253.09 16.04, 264.76 2.25 M219.23 60.72 C233.76 47.33, 243.88 30.66, 268.43 4.12 M219.23 60.72 C236.04 39.81, 254.57 19.11, 268.43 4.12 M224.22 61.08 C241.99 42.39, 257.99 21.09, 270.8 7.5 M224.22 61.08 C236.45 47.66, 248.23 34.41, 270.8 7.5 M229.86 60.69 C238.24 48.93, 250.45 38.41, 273.16 10.88 M229.86 60.69 C242.03 47.05, 254.48 32.84, 273.16 10.88 M234.85 61.05 C243.47 51.7, 254.35 39.74, 273.55 16.52 M234.85 61.05 C248.25 47, 259.76 32.24, 273.55 16.52 M240.49 60.65 C252.07 44.93, 265.34 31.71, 273.95 22.16 M240.49 60.65 C249.29 50, 257.44 41.09, 273.95 22.16 M245.48 61.01 C253.2 53.27, 259.57 47.29, 273.69 28.56 M245.48 61.01 C253.93 50.9, 263.51 41.66, 273.69 28.56 M251.12 60.62 C256.55 53.32, 263.78 46.45, 274.08 34.2 M251.12 60.62 C255.53 53.99, 260.91 49.31, 274.08 34.2 M256.11 60.98 C261.1 57.32, 263.27 51.74, 273.82 40.6 M256.11 60.98 C261.98 52.1, 269.63 44.23, 273.82 40.6 M259.78 62.85 C263.05 56.26, 269.81 50.72, 272.25 48.51 M259.78 62.85 C262.48 59.45, 266.98 54.64, 272.25 48.51" stroke="#ffec99" stroke-width="0.5" fill="none"></path><path d="M15 0 M15 0 C64.3 -0.9, 114.86 -0.71, 257 0 M15 0 C78.08 -1.37, 140.94 -1.97, 257 0 M257 0 C268.4 1.06, 270.48 4.32, 272 15 M257 0 C264.8 -2.21, 273.24 6.44, 272 15 M272 15 C270.49 24.05, 273.76 33.03, 272 45 M272 15 C273.04 22.14, 272.07 27.46, 272 45 M272 45 C270.75 53.71, 266.47 60.67, 257 60 M272 45 C270.73 53.95, 265.58 58.79, 257 60 M257 60 C179.52 61.47, 104.97 60.57, 15 60 M257 60 C197.15 59.18, 136.01 59.5, 15 60 M15 60 C4.88 59.19, -1.18 55.95, 0 45 M15 60 C5.4 60.07, 0.32 55.47, 0 45 M0 45 C-1.17 35.18, -1.66 27.81, 0 15 M0 45 C0.76 36.18, -0.41 25.25, 0 15 M0 15 C1.26 3.47, 6.15 0.18, 15 0 M0 15 C-1.97 3.88, 7.01 1.83, 15 0" stroke="#1e1e1e" stroke-width="1" fill="none"></path></g><g transform="translate(503.8999226898095 593.3561926713941) rotate(0 78.04994201660156 12.5)"><text x="78.04994201660156" y="0" font-family="Virgil, Segoe UI Emoji" font-size="20px" fill="#1e1e1e" text-anchor="middle" style="white-space: pre;" direction="ltr" dominant-baseline="text-before-edge">Step 8: In then</text></g><g transform="translate(135.34383124969347 10) rotate(0 163.7579345703125 17.5)"><text x="163.7579345703125" y="0" font-family="Virgil, Segoe UI Emoji" font-size="28px" fill="#1e1e1e" text-anchor="middle" style="white-space: pre;" direction="ltr" dominant-baseline="text-before-edge">Выполнение микротасок</text></g><g stroke-linecap="round" transform="translate(784.7455355795469 70.10469182271382) rotate(0 153.5267771244288 99.72307817999744)"><path d="M32 0 M32 0 C129.16 -1.06, 227.2 -2.01, 275.05 0 M32 0 C112.92 -1.4, 192.68 -1.13, 275.05 0 M275.05 0 C297.2 -1.72, 305.08 9.88, 307.05 32 M275.05 0 C298.07 -1.82, 307.74 11.36, 307.05 32 M307.05 32 C306.4 80.67, 304.08 125.47, 307.05 167.45 M307.05 32 C307.06 82.06, 307.2 132.19, 307.05 167.45 M307.05 167.45 C305.52 188.61, 295.1 197.59, 275.05 199.45 M307.05 167.45 C305.98 187.39, 295.54 199.66, 275.05 199.45 M275.05 199.45 C218.56 200.59, 162.91 199.99, 32 199.45 M275.05 199.45 C178.22 199.27, 82.25 198.99, 32 199.45 M32 199.45 C12.63 199.04, -1.77 187.7, 0 167.45 M32 199.45 C9.88 199.96, 0.47 186.62, 0 167.45 M0 167.45 C2.63 113.42, -0.63 60.82, 0 32 M0 167.45 C-1.55 129.72, -0.1 90.98, 0 32 M0 32 C-1.91 9.19, 12.55 -1.82, 32 0 M0 32 C1.27 12.58, 12.5 -1.99, 32 0" stroke="#1e1e1e" stroke-width="1" fill="none"></path></g><g transform="translate(801.7900582929499 81.68777892536386) rotate(0 115.7799301147461 12.5)"><text x="115.7799301147461" y="0" font-family="Virgil, Segoe UI Emoji" font-size="20px" fill="#1e1e1e" text-anchor="middle" style="white-space: pre;" direction="ltr" dominant-baseline="text-before-edge">Следующие микрозадачи</text></g><g stroke-linecap="round"><g transform="translate(364.2750847089779 144.59177893555017) rotate(0 216.16978061690455 -7.429241882741671)"><path d="M0.23 -0.09 C36.2 -2.37, 144.08 -14.52, 216.06 -14.77 C288.04 -15.01, 396.45 -3.76, 432.11 -1.58" stroke="#1e1e1e" stroke-width="1.5" fill="none" stroke-dasharray="8 9"></path></g><g transform="translate(364.2750847089779 144.59177893555017) rotate(0 216.16978061690455 -7.429241882741671)"><path d="M403.05 6.76 C412.8 5.63, 422.22 -0.33, 432.47 -1.27" stroke="#1e1e1e" stroke-width="1.5" fill="none"></path></g><g transform="translate(364.2750847089779 144.59177893555017) rotate(0 216.16978061690455 -7.429241882741671)"><path d="M404.67 -13.7 C413.72 -8.32, 422.63 -7.79, 432.47 -1.27" stroke="#1e1e1e" stroke-width="1.5" fill="none"></path></g></g><mask></mask><g stroke-linecap="round"><g transform="translate(362.92645107456667 230.13157790205594) rotate(0 216.06655369547315 18.35087201945248)"><path d="M0.04 0.62 C36.17 6.5, 144.7 35.43, 216.71 36.07 C288.72 36.72, 396.11 9.79, 432.09 4.47" stroke="#1e1e1e" stroke-width="1.5" fill="none" stroke-dasharray="8 9"></path></g><g transform="translate(362.92645107456667 230.13157790205594) rotate(0 216.06655369547315 18.35087201945248)"><path d="M407.35 19.69 C413.7 14.61, 423.11 10.92, 433.39 2.57" stroke="#1e1e1e" stroke-width="1.5" fill="none"></path></g><g transform="translate(362.92645107456667 230.13157790205594) rotate(0 216.06655369547315 18.35087201945248)"><path d="M403.51 -0.46 C411.11 0.34, 421.65 2.55, 433.39 2.57" stroke="#1e1e1e" stroke-width="1.5" fill="none"></path></g></g><mask></mask><g transform="translate(390.65281909179515 163.9145302210621) rotate(0 171.33746337890628 37.679551815232244)"><text x="171.33746337890625" y="0" font-family="Virgil, Segoe UI Emoji" font-size="20.095760968123866px" fill="#1e1e1e" text-anchor="middle" style="white-space: pre;" direction="ltr" dominant-baseline="text-before-edge">1. Мы нашли еще "then"</text><text x="171.33746337890625" y="25.119701210154833" font-family="Virgil, Segoe UI Emoji" font-size="20.095760968123866px" fill="#1e1e1e" text-anchor="middle" style="white-space: pre;" direction="ltr" dominant-baseline="text-before-edge">поэтому пушим его в конец очереди</text><text x="171.33746337890625" y="50.239402420309666" font-family="Virgil, Segoe UI Emoji" font-size="20.095760968123866px" fill="#1e1e1e" text-anchor="middle" style="white-space: pre;" direction="ltr" dominant-baseline="text-before-edge">микротасок</text></g><g stroke-linecap="round" transform="translate(113.70853153218917 64.31913333189644) rotate(0 124.47928346018765 102.92907559197788)"><path d="M32 0 M32 0 C74.02 -1.65, 118.5 -1.49, 216.96 0 M32 0 C77.18 0.38, 122.98 1.55, 216.96 0 M216.96 0 C237.91 -1.66, 247.23 11.99, 248.96 32 M216.96 0 C236.21 2.24, 250.99 12.87, 248.96 32 M248.96 32 C250.39 83.34, 248.88 137.82, 248.96 173.86 M248.96 32 C249.17 64.44, 249.88 98.57, 248.96 173.86 M248.96 173.86 C249.37 193.99, 239.3 205.47, 216.96 205.86 M248.96 173.86 C250.3 195.88, 240.27 206.5, 216.96 205.86 M216.96 205.86 C171.33 204.93, 121.71 205.38, 32 205.86 M216.96 205.86 C165.25 204.7, 113.92 205.07, 32 205.86 M32 205.86 C10.56 206.12, -0.18 195.03, 0 173.86 M32 205.86 C12.56 208.07, -1.72 196.97, 0 173.86 M0 173.86 C-1.22 141.15, -1.19 109.94, 0 32 M0 173.86 C0.31 123.53, 0.31 74.2, 0 32 M0 32 C-0.04 9.4, 9.68 0.88, 32 0 M0 32 C0.38 11.44, 11.95 -1.58, 32 0" stroke="#1e1e1e" stroke-width="1" fill="none"></path></g><g stroke-linecap="round" transform="translate(436.3521322952779 452.9021407289483) rotate(0 146.51228620935524 171.9148780243816)"><path d="M32 0 M32 0 C100.96 -1.72, 165.7 -1.28, 261.02 0 M32 0 C96.25 -0.88, 159.46 -1.38, 261.02 0 M261.02 0 C282.43 1.71, 293.8 12.05, 293.02 32 M261.02 0 C283.55 -1.24, 292.4 10.58, 293.02 32 M293.02 32 C293.71 97.72, 296.13 161.74, 293.02 311.83 M293.02 32 C293.47 90.65, 293.59 150.7, 293.02 311.83 M293.02 311.83 C292.37 332.81, 282.05 344.23, 261.02 343.83 M293.02 311.83 C295.16 333.97, 280.86 343.66, 261.02 343.83 M261.02 343.83 C208.06 340.78, 152.84 342.94, 32 343.83 M261.02 343.83 C202.86 341.93, 144.77 342.05, 32 343.83 M32 343.83 C10.49 345.68, 0.93 334.35, 0 311.83 M32 343.83 C11.74 345.64, 0.19 335.27, 0 311.83 M0 311.83 C-0.68 226.5, -0.88 140.38, 0 32 M0 311.83 C-0.32 222.09, 0.85 132.63, 0 32 M0 32 C1.69 12.58, 9.84 1.03, 32 0 M0 32 C-1.66 11.18, 9.28 -1.92, 32 0" stroke="#1e1e1e" stroke-width="1" fill="none"></path></g><g transform="translate(128.96626643199977 80.23540424215176) rotate(0 105.85993957519531 12.5)"><text x="105.85993957519531" y="0" font-family="Virgil, Segoe UI Emoji" font-size="20px" fill="#1e1e1e" text-anchor="middle" style="white-space: pre;" direction="ltr" dominant-baseline="text-before-edge">Текущие микрозадачи</text></g><g transform="translate(516.8047569305834 464.10218395910283) rotate(0 61.129966735839844 12.5)"><text x="61.129966735839844" y="0" font-family="Virgil, Segoe UI Emoji" font-size="20px" fill="#1e1e1e" text-anchor="middle" style="white-space: pre;" direction="ltr" dominant-baseline="text-before-edge">Микрозадачи</text></g><g stroke-linecap="round"><g transform="translate(947.8311179329842 278.79976168733947) rotate(0 -348.6531893206868 32.9237213279598)"><path d="M0.22 0.77 C-61.85 11.43, -256.48 63.42, -372.77 65.04 C-489.06 66.66, -643.72 19.48, -697.53 10.49" stroke="#1e1e1e" stroke-width="1.5" fill="none" stroke-dasharray="8 9"></path></g><g transform="translate(947.8311179329842 278.79976168733947) rotate(0 -348.6531893206868 32.9237213279598)"><path d="M-666.5 6.51 C-675.17 6.36, -684.81 10.56, -697.26 10.26" stroke="#1e1e1e" stroke-width="1.5" fill="none"></path></g><g transform="translate(947.8311179329842 278.79976168733947) rotate(0 -348.6531893206868 32.9237213279598)"><path d="M-670.97 26.54 C-678.6 20.88, -687.01 19.58, -697.26 10.26" stroke="#1e1e1e" stroke-width="1.5" fill="none"></path></g></g><mask></mask><g transform="translate(392.4655599137352 352.423986013243) rotate(0 175.97988891601562 25)"><text x="175.97988891601562" y="0" font-family="Virgil, Segoe UI Emoji" font-size="20px" fill="#1e1e1e" text-anchor="middle" style="white-space: pre;" direction="ltr" dominant-baseline="text-before-edge">2. Найденные новые микрозадачи</text><text x="175.97988891601562" y="25" font-family="Virgil, Segoe UI Emoji" font-size="20px" fill="#1e1e1e" text-anchor="middle" style="white-space: pre;" direction="ltr" dominant-baseline="text-before-edge">отправляются в очередь микрозадач</text></g><g stroke-linecap="round"><g transform="translate(120.44371962356809 433.01070604105945) rotate(0 484.79481673832373 -0.6029693609604578)"><path d="M-0.28 0.83 C161.38 0.54, 808.35 -1.72, 969.87 -2.03 M1.77 0.22 C163.27 0.16, 807.31 0.03, 968.88 -0.48" stroke="#1e1e1e" stroke-width="1" fill="none"></path></g></g><mask></mask><g stroke-linecap="round"><g transform="translate(180.82899010634662 291.7175172832158) rotate(0 116.1118708265109 133.32636727385244)"><path d="M-1.03 -0.07 C5.27 30.65, -2.31 139.52, 36.73 184.02 C75.78 228.51, 200.69 253.09, 233.25 266.88 M0.63 -1.15 C6.86 29.26, -2.93 137.51, 35.78 182.33 C74.48 227.16, 200.14 253.62, 232.86 267.8" stroke="#1e1e1e" stroke-width="1" fill="none"></path></g><g transform="translate(180.82899010634662 291.7175172832158) rotate(0 116.1118708265109 133.32636727385244)"><path d="M202.77 268.78 C210.68 270.04, 214.42 267.92, 231.4 267.03 M202.55 269.37 C214.01 269.24, 223.7 269.05, 233.69 267.7" stroke="#1e1e1e" stroke-width="1" fill="none"></path></g><g transform="translate(180.82899010634662 291.7175172832158) rotate(0 116.1118708265109 133.32636727385244)"><path d="M209.14 249.27 C215.65 254.64, 218.03 256.68, 231.4 267.03 M208.93 249.87 C218.26 256.72, 225.65 263.55, 233.69 267.7" stroke="#1e1e1e" stroke-width="1" fill="none"></path></g></g><mask></mask><g transform="translate(10 541.749405054646) rotate(0 162.4499053955078 25)"><text x="162.4499053955078" y="0" font-family="Virgil, Segoe UI Emoji" font-size="20px" fill="#1e1e1e" text-anchor="middle" style="white-space: pre;" direction="ltr" dominant-baseline="text-before-edge">3. Финальная очередь микрозадач</text><text x="162.4499053955078" y="25" font-family="Virgil, Segoe UI Emoji" font-size="20px" fill="#1e1e1e" text-anchor="middle" style="white-space: pre;" direction="ltr" dominant-baseline="text-before-edge">(где 2 уже выполнены)</text></g></svg>
