<svg version="1.1" xmlns="http://www.w3.org/2000/svg" viewBox="0 0 1450.0696439536778 630.7935230042483" width="4350.208931861033" height="1892.380569012745">
  <!-- svg-source:excalidraw -->

  <g stroke-linecap="round" transform="translate(559.951702005617 49.701266242994166) rotate(0 100.658203125 44.72662539986797)"><path d="M22.36 0 M22.36 0 C72.8 0.81, 119.31 0.07, 178.95 0 M22.36 0 C71.36 2.31, 119.41 2.29, 178.95 0 M178.95 0 C195.57 1.21, 200.31 5.62, 201.32 22.36 M178.95 0 C194.69 0.13, 202.21 5.68, 201.32 22.36 M201.32 22.36 C201.58 39.11, 202.17 55.95, 201.32 67.09 M201.32 22.36 C201.6 37.1, 201.38 53.67, 201.32 67.09 M201.32 67.09 C202.3 82.6, 192.12 89.2, 178.95 89.45 M201.32 67.09 C203.28 80.75, 194.81 91.34, 178.95 89.45 M178.95 89.45 C144.3 89.59, 107.95 91.35, 22.36 89.45 M178.95 89.45 C143.45 88.41, 107.32 87.92, 22.36 89.45 M22.36 89.45 C7.35 90.22, 1.21 82.63, 0 67.09 M22.36 89.45 C9.34 91.28, -0.25 84.1, 0 67.09 M0 67.09 C-1.79 52.42, 0.02 40.9, 0 22.36 M0 67.09 C0.94 50.85, -0.33 33.92, 0 22.36 M0 22.36 C-1.26 6.05, 9.34 1.73, 22.36 0 M0 22.36 C0.91 8.12, 8.21 -1.77, 22.36 0" stroke="#1e1e1e" stroke-width="1" fill="none"></path></g><g stroke-linecap="round" transform="translate(561.3492921565594 149.72968011963712) rotate(0 100.658203125 40.21042715484097)"><path d="M20.11 0 M20.11 0 C68.47 2.35, 118.53 2.05, 181.21 0 M20.11 0 C67.19 -1.52, 115.08 -0.88, 181.21 0 M181.21 0 C194.53 -1.1, 203.23 5.49, 201.32 20.11 M181.21 0 C192.7 -0.96, 200.04 8.35, 201.32 20.11 M201.32 20.11 C201.55 35.32, 200.64 50.88, 201.32 60.32 M201.32 20.11 C201.79 32.44, 201.62 44.72, 201.32 60.32 M201.32 60.32 C200.21 74.16, 194.59 80.11, 181.21 80.42 M201.32 60.32 C203.56 74.09, 195.37 82.57, 181.21 80.42 M181.21 80.42 C133.28 83.32, 87.1 83.37, 20.11 80.42 M181.21 80.42 C136.06 80.11, 90.46 80.4, 20.11 80.42 M20.11 80.42 C6.23 82.06, -1.97 74.4, 0 60.32 M20.11 80.42 C6.63 81.27, 1.99 74.76, 0 60.32 M0 60.32 C-2.13 51.25, -2.13 40.69, 0 20.11 M0 60.32 C-0.55 49.75, -0.01 39.98, 0 20.11 M0 20.11 C-1.36 6.27, 5.63 -0.89, 20.11 0 M0 20.11 C0.78 4.93, 6.14 2.12, 20.11 0" stroke="#1e1e1e" stroke-width="1" fill="none"></path></g><g stroke-linecap="round" transform="translate(560.5460023217017 448.58163703255286) rotate(0 100.658203125 40.21042715484097)"><path d="M20.11 0 M20.11 0 C54.88 -0.34, 87.85 -0.9, 181.21 0 M20.11 0 C78.46 0.87, 135.61 0.19, 181.21 0 M181.21 0 C196.45 0.22, 201.03 7.87, 201.32 20.11 M181.21 0 C192.57 1.23, 200.43 5.36, 201.32 20.11 M201.32 20.11 C202.38 28.98, 202.03 38.31, 201.32 60.32 M201.32 20.11 C201.12 34.32, 201.49 50.79, 201.32 60.32 M201.32 60.32 C200.21 73.27, 192.73 81.8, 181.21 80.42 M201.32 60.32 C199.43 74.91, 194.72 78.77, 181.21 80.42 M181.21 80.42 C146.95 78.26, 115.34 79.57, 20.11 80.42 M181.21 80.42 C120.76 80.53, 58.26 81.02, 20.11 80.42 M20.11 80.42 C6.28 82.09, -1.58 73.91, 0 60.32 M20.11 80.42 C5.41 80.94, 1.74 71.6, 0 60.32 M0 60.32 C1.03 44.39, -1.99 28.96, 0 20.11 M0 60.32 C-0.1 45.88, 0.08 33.28, 0 20.11 M0 20.11 C-0.4 5.28, 7.77 -1.38, 20.11 0 M0 20.11 C1.66 7.7, 5.44 -0.97, 20.11 0" stroke="#1e1e1e" stroke-width="1" fill="none"></path></g><g stroke-linecap="round" transform="translate(559.8851334568418 241.9090510195548) rotate(0 100.658203125 40.36149224765069)"><path d="M20.18 0 M20.18 0 C77.4 -0.04, 135.23 1.22, 181.14 0 M20.18 0 C60.37 -1.23, 100.76 -1.64, 181.14 0 M181.14 0 C194.12 -0.36, 202.95 6.12, 201.32 20.18 M181.14 0 C194.49 -0.93, 200.3 6.86, 201.32 20.18 M201.32 20.18 C201.94 30.72, 202.65 39, 201.32 60.54 M201.32 20.18 C200.81 32.74, 200.4 47.21, 201.32 60.54 M201.32 60.54 C200.86 74.52, 194.63 82.48, 181.14 80.72 M201.32 60.54 C199.24 73.03, 195.04 81.24, 181.14 80.72 M181.14 80.72 C135.93 80.12, 94.05 80.37, 20.18 80.72 M181.14 80.72 C136.77 82.06, 92.03 82.49, 20.18 80.72 M20.18 80.72 C7.73 81.47, -0.1 72.98, 0 60.54 M20.18 80.72 C7.29 82.71, 1.48 74.93, 0 60.54 M0 60.54 C-0.9 49.07, 1.86 42.4, 0 20.18 M0 60.54 C0.86 50.59, -0.3 39.38, 0 20.18 M0 20.18 C0.62 8.49, 6.19 1.26, 20.18 0 M0 20.18 C-2.22 4.78, 8.56 -1.9, 20.18 0" stroke="#1e1e1e" stroke-width="1" fill="none"></path></g><g stroke-linecap="round" transform="translate(776.529827005617 51.396578742994166) rotate(0 100.658203125 43.688409916434885)"><path d="M21.84 0 M21.84 0 C66.24 1.45, 114.82 -0.62, 179.47 0 M21.84 0 C62.82 0.69, 105.32 1.08, 179.47 0 M179.47 0 C192.22 1.19, 202.55 6.56, 201.32 21.84 M179.47 0 C193.04 1.03, 202.51 8.7, 201.32 21.84 M201.32 21.84 C199.46 28.84, 202.92 39.09, 201.32 65.53 M201.32 21.84 C201.01 35.73, 202.42 48.96, 201.32 65.53 M201.32 65.53 C202.07 79.6, 195 89.07, 179.47 87.38 M201.32 65.53 C200.13 81.92, 192.39 87.35, 179.47 87.38 M179.47 87.38 C126.01 88.15, 70.42 86.06, 21.84 87.38 M179.47 87.38 C143.54 86.29, 107.1 85.75, 21.84 87.38 M21.84 87.38 C8.25 88.13, 1.51 82.01, 0 65.53 M21.84 87.38 C7.67 87.54, -1.83 79.36, 0 65.53 M0 65.53 C1.18 47.23, 0.59 31.03, 0 21.84 M0 65.53 C-0.47 49.42, 1.25 31.55, 0 21.84 M0 21.84 C-0.71 5.44, 9.13 0.88, 21.84 0 M0 21.84 C0.27 9.31, 6.18 1.5, 21.84 0" stroke="#1e1e1e" stroke-width="1" fill="none"></path></g><g stroke-linecap="round" transform="translate(778.4132569171866 150.63606016430657) rotate(0 100.658203125 39.819217618810114)"><path d="M19.91 0 M19.91 0 C71.12 0.69, 120.93 0.56, 181.41 0 M19.91 0 C78.1 0.7, 137.09 0.38, 181.41 0 M181.41 0 C193.58 1.91, 200.1 4.97, 201.32 19.91 M181.41 0 C193.72 -1.27, 202.97 8.6, 201.32 19.91 M201.32 19.91 C201 29.96, 201.07 41.4, 201.32 59.73 M201.32 19.91 C201.14 33.67, 200.72 46.6, 201.32 59.73 M201.32 59.73 C201.76 72.98, 194.36 81.59, 181.41 79.64 M201.32 59.73 C201.69 73.76, 196.83 79.48, 181.41 79.64 M181.41 79.64 C129.2 79.48, 75.57 78.75, 19.91 79.64 M181.41 79.64 C146.07 80.77, 111.15 80.1, 19.91 79.64 M19.91 79.64 C8.27 77.67, 0.68 72.94, 0 59.73 M19.91 79.64 C7.48 81.63, 1.04 72.22, 0 59.73 M0 59.73 C1.92 42.72, 2.07 28.36, 0 19.91 M0 59.73 C-0.71 44.95, -0.33 28.89, 0 19.91 M0 19.91 C-0.43 5.57, 5.75 0.68, 19.91 0 M0 19.91 C-1.77 6.08, 8.76 2.28, 19.91 0" stroke="#1e1e1e" stroke-width="1" fill="none"></path></g><g stroke-linecap="round" transform="translate(777.6099670823289 449.4880170772223) rotate(0 100.658203125 39.819217618810114)"><path d="M19.91 0 M19.91 0 C53.28 0.4, 85.86 -0.3, 181.41 0 M19.91 0 C79.84 -1.05, 139.29 0.33, 181.41 0 M181.41 0 C194.9 -0.29, 202.49 4.86, 201.32 19.91 M181.41 0 C195.91 -0.89, 199.98 4.78, 201.32 19.91 M201.32 19.91 C201.12 30.47, 201.61 40.52, 201.32 59.73 M201.32 19.91 C201 28.81, 202.6 36.09, 201.32 59.73 M201.32 59.73 C200.87 71.11, 196.06 78, 181.41 79.64 M201.32 59.73 C202.5 73.1, 193.03 77.44, 181.41 79.64 M181.41 79.64 C139.95 78.5, 101.13 80.16, 19.91 79.64 M181.41 79.64 C116.02 80.49, 52.06 80.73, 19.91 79.64 M19.91 79.64 C8.31 78.06, 0.2 71.88, 0 59.73 M19.91 79.64 C7.16 81.38, -2.12 74.99, 0 59.73 M0 59.73 C-0.23 43.24, -0.12 30.91, 0 19.91 M0 59.73 C-0.74 45.58, 0.25 30.54, 0 19.91 M0 19.91 C-1.42 7.7, 5.26 1.44, 19.91 0 M0 19.91 C0.99 5.38, 5.67 -1.2, 19.91 0" stroke="#1e1e1e" stroke-width="1" fill="none"></path></g><g stroke-linecap="round" transform="translate(776.4632584568418 243.6043635195548) rotate(0 100.658203125 40.129715481112896)"><path d="M20.06 0 M20.06 0 C74.52 1.38, 131.43 -1.54, 181.25 0 M20.06 0 C52.77 0.28, 85.08 -0.59, 181.25 0 M181.25 0 C194.27 1.63, 200.71 6.6, 201.32 20.06 M181.25 0 C193.7 -1.02, 201.45 5.44, 201.32 20.06 M201.32 20.06 C202.02 35.42, 200.38 49.19, 201.32 60.19 M201.32 20.06 C200.54 30.95, 201.65 43.38, 201.32 60.19 M201.32 60.19 C201.84 73.61, 196.38 78.45, 181.25 80.26 M201.32 60.19 C200.35 74.02, 195.14 79.62, 181.25 80.26 M181.25 80.26 C134.21 79.76, 88.89 78.72, 20.06 80.26 M181.25 80.26 C121.87 81.15, 63.07 81.32, 20.06 80.26 M20.06 80.26 C7.44 80.16, -1.02 74.06, 0 60.19 M20.06 80.26 C8.68 81.74, 0.93 72.14, 0 60.19 M0 60.19 C-2.22 52.06, 0.7 39.94, 0 20.06 M0 60.19 C0.53 48.41, -0.04 37.65, 0 20.06 M0 20.06 C1.76 6.16, 7.94 -1.93, 20.06 0 M0 20.06 C-1.94 8.52, 4.79 0.74, 20.06 0" stroke="#1e1e1e" stroke-width="1" fill="none"></path></g><g stroke-linecap="round" transform="translate(775.7102352479923 538.5972491702311) rotate(0 100.658203125 40.129715481112896)"><path d="M20.06 0 M20.06 0 C81.83 -1.08, 144.14 -1.18, 181.25 0 M20.06 0 C78.36 1.92, 136.99 2.09, 181.25 0 M181.25 0 C195.01 -0.23, 201.27 4.73, 201.32 20.06 M181.25 0 C195.22 1.46, 200.08 8.83, 201.32 20.06 M201.32 20.06 C200.35 33.49, 200.09 49.07, 201.32 60.19 M201.32 20.06 C200.81 30.05, 202.13 39.74, 201.32 60.19 M201.32 60.19 C202.44 74.47, 194.16 80.27, 181.25 80.26 M201.32 60.19 C203.22 71.41, 194.6 79.97, 181.25 80.26 M181.25 80.26 C130.19 81.67, 78.42 78.75, 20.06 80.26 M181.25 80.26 C133.99 77.97, 84.8 78.82, 20.06 80.26 M20.06 80.26 C6.48 81.27, 0.09 74.07, 0 60.19 M20.06 80.26 C4.43 79.17, -0.89 73.4, 0 60.19 M0 60.19 C-1.43 48.66, -0.14 39.67, 0 20.06 M0 60.19 C-0.67 49.58, -1.06 39.06, 0 20.06 M0 20.06 C1.67 6.7, 7.34 -0.58, 20.06 0 M0 20.06 C-1.25 6.13, 7.45 0.71, 20.06 0" stroke="#1e1e1e" stroke-width="1" fill="none"></path></g><g stroke-linecap="round" transform="translate(562.2239453594499 540.5340920420225) rotate(0 100.658203125 40.129715481112896)"><path d="M20.06 0 M20.06 0 C77.31 -1.95, 135.8 -1.8, 181.25 0 M20.06 0 C55.05 0.3, 91.76 0.09, 181.25 0 M181.25 0 C194.65 -1.98, 200.01 4.69, 201.32 20.06 M181.25 0 C195.31 -1.22, 199.16 8.67, 201.32 20.06 M201.32 20.06 C200.64 34.8, 203.03 46.73, 201.32 60.19 M201.32 20.06 C200.26 28.53, 200.32 36.92, 201.32 60.19 M201.32 60.19 C202.14 73.27, 194.37 80.12, 181.25 80.26 M201.32 60.19 C200.32 74.14, 193.47 78.7, 181.25 80.26 M181.25 80.26 C127.48 78.61, 74.6 81.29, 20.06 80.26 M181.25 80.26 C142.55 78.4, 103.69 79.46, 20.06 80.26 M20.06 80.26 C7.37 79.73, -1.59 73.4, 0 60.19 M20.06 80.26 C7.89 78.25, 1.95 71.72, 0 60.19 M0 60.19 C-0.12 48.71, -2.04 40.85, 0 20.06 M0 60.19 C0.03 47.94, 0.06 36.76, 0 20.06 M0 20.06 C-0.61 5.43, 6.91 -0.64, 20.06 0 M0 20.06 C-2.19 8, 7.53 1.05, 20.06 0" stroke="#1e1e1e" stroke-width="1" fill="none"></path></g><g stroke-linecap="round" transform="translate(995.201702005617 51.587984992994166) rotate(0 100.658203125 45.462143105000536)"><path d="M22.73 0 M22.73 0 C57.89 0.79, 97.38 1.28, 178.59 0 M22.73 0 C76.41 -0.71, 130.41 -1.08, 178.59 0 M178.59 0 C191.96 -0.21, 200.23 6.86, 201.32 22.73 M178.59 0 C192.09 -1.21, 199.81 8.21, 201.32 22.73 M201.32 22.73 C200.63 38.33, 199.38 55.72, 201.32 68.19 M201.32 22.73 C200.93 33.1, 200.98 46, 201.32 68.19 M201.32 68.19 C200.63 84.95, 192.74 91.77, 178.59 90.92 M201.32 68.19 C200.46 84.96, 195.11 92.3, 178.59 90.92 M178.59 90.92 C135.91 91.06, 95.67 87.93, 22.73 90.92 M178.59 90.92 C141.83 92.43, 106.38 92.58, 22.73 90.92 M22.73 90.92 C5.79 89.12, -0.42 82.44, 0 68.19 M22.73 90.92 C5.64 91.5, 0.75 82.18, 0 68.19 M0 68.19 C-1.14 57.56, -1.42 49.05, 0 22.73 M0 68.19 C-0.96 53.17, -0.77 37.38, 0 22.73 M0 22.73 C0.09 7.19, 7.12 0.07, 22.73 0 M0 22.73 C1.01 9.65, 8.66 -1.73, 22.73 0" stroke="#1e1e1e" stroke-width="1" fill="none"></path></g><g stroke-linecap="round" transform="translate(996.5992921565594 151.61639886963712) rotate(0 100.658203125 40.57265124534459)"><path d="M20.29 0 M20.29 0 C56.13 -0.09, 91.84 0.34, 181.03 0 M20.29 0 C82.3 0.73, 143.72 -0.29, 181.03 0 M181.03 0 C196.47 -1.21, 199.65 5.93, 201.32 20.29 M181.03 0 C193.28 1.65, 203.28 5.98, 201.32 20.29 M201.32 20.29 C200.86 31.89, 201.71 44.76, 201.32 60.86 M201.32 20.29 C201.58 33.62, 200.89 48.76, 201.32 60.86 M201.32 60.86 C201.29 74.07, 196.5 81.47, 181.03 81.15 M201.32 60.86 C202.07 76.53, 194.4 81.89, 181.03 81.15 M181.03 81.15 C118.99 83.85, 55.82 80.69, 20.29 81.15 M181.03 81.15 C134.99 81.08, 87.87 81.74, 20.29 81.15 M20.29 81.15 C4.79 81.83, -0.06 75.12, 0 60.86 M20.29 81.15 C8.76 82.19, -0.78 76.27, 0 60.86 M0 60.86 C-1.44 53.43, -0.58 44.02, 0 20.29 M0 60.86 C0.4 45.59, -0.58 30.15, 0 20.29 M0 20.29 C-1.07 5.87, 7.44 -1.54, 20.29 0 M0 20.29 C-0.56 8.88, 9.04 -0.78, 20.29 0" stroke="#1e1e1e" stroke-width="1" fill="none"></path></g><g stroke-linecap="round" transform="translate(995.7960023217017 450.46835578255286) rotate(0 100.658203125 40.57265124534459)"><path d="M20.29 0 M20.29 0 C76.21 -0.51, 129.55 1.26, 181.03 0 M20.29 0 C57.25 -0.56, 96.06 0.44, 181.03 0 M181.03 0 C194.26 1.17, 199.54 7.83, 201.32 20.29 M181.03 0 C193.66 -1.34, 199.46 5.41, 201.32 20.29 M201.32 20.29 C202.53 30.41, 202.98 37.64, 201.32 60.86 M201.32 20.29 C201.91 36.77, 200.83 51.14, 201.32 60.86 M201.32 60.86 C199.43 75.77, 192.91 82.18, 181.03 81.15 M201.32 60.86 C201.42 72.73, 192.35 79.96, 181.03 81.15 M181.03 81.15 C141.06 80.06, 102.8 82.06, 20.29 81.15 M181.03 81.15 C121.93 79.19, 63.51 80.47, 20.29 81.15 M20.29 81.15 C5.18 81.34, -1.12 74.84, 0 60.86 M20.29 81.15 C8.5 79.03, 1.99 76.03, 0 60.86 M0 60.86 C-1.97 49.94, 0.5 40.84, 0 20.29 M0 60.86 C0.28 49.81, -0.26 37.73, 0 20.29 M0 20.29 C1.07 5.38, 8.21 0.87, 20.29 0 M0 20.29 C-1.26 5.79, 5.57 -0.85, 20.29 0" stroke="#1e1e1e" stroke-width="1" fill="none"></path></g><g stroke-linecap="round" transform="translate(995.1351334568418 243.7957697695548) rotate(0 100.658203125 99.0861661712853)"><path d="M32 0 M32 0 C65.17 0.88, 93.53 -1.12, 169.32 0 M32 0 C84.21 -0.41, 134.92 -0.16, 169.32 0 M169.32 0 C192.28 -0.6, 201.23 9.86, 201.32 32 M169.32 0 C189.63 0.13, 200.07 11.93, 201.32 32 M201.32 32 C202.7 73.99, 202.21 117.88, 201.32 166.17 M201.32 32 C199.79 73.83, 200.45 115.34, 201.32 166.17 M201.32 166.17 C201.36 189.26, 188.84 197.33, 169.32 198.17 M201.32 166.17 C201.77 188.02, 190.01 197.77, 169.32 198.17 M169.32 198.17 C121.15 195.91, 71.34 198.5, 32 198.17 M169.32 198.17 C115.69 198.22, 61.91 198.33, 32 198.17 M32 198.17 C10.57 197.16, 0.49 189.24, 0 166.17 M32 198.17 C12.15 199.1, -1.43 186.2, 0 166.17 M0 166.17 C2.39 115.09, 0.03 61.59, 0 32 M0 166.17 C-1.44 120.98, -0.77 76.44, 0 32 M0 32 C-0.53 11.92, 8.73 -1.69, 32 0 M0 32 C1.83 8.76, 11.4 -2.16, 32 0" stroke="#1e1e1e" stroke-width="1" fill="none"></path></g><g stroke-linecap="round" transform="translate(994.3821102479923 538.7886554202311) rotate(0 100.658203125 40.9948854349995)"><path d="M20.5 0 M20.5 0 C63.81 0.02, 107.68 1.59, 180.82 0 M20.5 0 C66.56 0.29, 111.95 0.36, 180.82 0 M180.82 0 C194.25 -0.05, 199.35 7.34, 201.32 20.5 M180.82 0 C195.95 -1.24, 203.46 7.88, 201.32 20.5 M201.32 20.5 C200.57 29.04, 202.29 38.43, 201.32 61.49 M201.32 20.5 C201.47 33.02, 201.25 44.35, 201.32 61.49 M201.32 61.49 C202.21 74.69, 194.49 83.65, 180.82 81.99 M201.32 61.49 C199.15 75.13, 194.2 82.35, 180.82 81.99 M180.82 81.99 C139.77 80.83, 93.85 81.84, 20.5 81.99 M180.82 81.99 C126.51 83.42, 73.73 83.39, 20.5 81.99 M20.5 81.99 C7.84 82.08, 0.5 73.19, 0 61.49 M20.5 81.99 C5.74 81.1, -0.17 74.1, 0 61.49 M0 61.49 C-1.41 50.01, -0.2 38.21, 0 20.5 M0 61.49 C-0.22 44.89, -0.32 30.54, 0 20.5 M0 20.5 C0.01 7.48, 6.25 -1.09, 20.5 0 M0 20.5 C-0.56 7.59, 7.54 0.51, 20.5 0" stroke="#1e1e1e" stroke-width="1" fill="none"></path></g><g transform="translate(10.987286781788498 82.3095036527468) rotate(0 257.9638977050781 17.5)"><text x="257.9638977050781" y="0" font-family="Virgil, Segoe UI Emoji" font-size="28px" fill="#1e1e1e" text-anchor="middle" style="white-space: pre;" direction="ltr" dominant-baseline="text-before-edge">1. Выполнение всех синхронных задач</text></g><g transform="translate(11.067763562409255 174.3325119670812) rotate(0 221.39590454101562 17.5)"><text x="0" y="0" font-family="Virgil, Segoe UI Emoji" font-size="28px" fill="#1e1e1e" text-anchor="start" style="white-space: pre;" direction="ltr" dominant-baseline="text-before-edge">2. Выполнение всех микротасок</text></g><g transform="translate(11.352041632075043 469.96188037601974) rotate(0 220.38790893554688 17.5)"><text x="0" y="0" font-family="Virgil, Segoe UI Emoji" font-size="28px" fill="#1e1e1e" text-anchor="start" style="white-space: pre;" direction="ltr" dominant-baseline="text-before-edge">4. Выполнение всех микротасок</text></g><g transform="translate(15.15232452755697 261.9534103893827) rotate(0 185.5699462890625 17.5)"><text x="0" y="0" font-family="Virgil, Segoe UI Emoji" font-size="28px" fill="#1e1e1e" text-anchor="start" style="white-space: pre;" direction="ltr" dominant-baseline="text-before-edge">3. Выполнение макротасок</text></g><g transform="translate(10 553.1442656197374) rotate(0 184.6879425048828 17.5)"><text x="0" y="0" font-family="Virgil, Segoe UI Emoji" font-size="28px" fill="#1e1e1e" text-anchor="start" style="white-space: pre;" direction="ltr" dominant-baseline="text-before-edge">5. Выполнение макротасок</text></g><g transform="translate(569.3636074955259 10) rotate(0 89.79996490478516 12.5)"><text x="89.79996490478516" y="0" font-family="Virgil, Segoe UI Emoji" font-size="20px" fill="#1e1e1e" text-anchor="middle" style="white-space: pre;" direction="ltr" dominant-baseline="text-before-edge">Синхронные таски</text></g><g transform="translate(810.331402639532 10.931196759660622) rotate(0 58.249977111816406 12.5)"><text x="58.249977111816406" y="0" font-family="Virgil, Segoe UI Emoji" font-size="20px" fill="#1e1e1e" text-anchor="middle" style="white-space: pre;" direction="ltr" dominant-baseline="text-before-edge">Микротаски</text></g><g transform="translate(1030.3314622061657 11.24971732865339) rotate(0 59.27997589111328 12.5)"><text x="59.27997589111328" y="0" font-family="Virgil, Segoe UI Emoji" font-size="20px" fill="#1e1e1e" text-anchor="middle" style="white-space: pre;" direction="ltr" dominant-baseline="text-before-edge">Макротаски</text></g><g stroke-linecap="round" transform="translate(577.8806099025819 62.77539586740636) rotate(0 85 31)"><path d="M15.5 0 M15.5 0 C61.61 1.23, 102.74 -1.42, 154.5 0 M15.5 0 C61.11 0.41, 107.55 0.66, 154.5 0 M154.5 0 C166.42 -1.45, 170.9 6.4, 170 15.5 M154.5 0 C166.61 0.7, 169.39 4.59, 170 15.5 M170 15.5 C170.29 26.78, 171.2 34.77, 170 46.5 M170 15.5 C170.01 25.93, 170.43 35.82, 170 46.5 M170 46.5 C168.7 57.63, 164.59 62.78, 154.5 62 M170 46.5 C172.18 55.63, 164.49 61.17, 154.5 62 M154.5 62 C127.31 64.11, 99.01 63.47, 15.5 62 M154.5 62 C101.7 62.5, 49.81 61.52, 15.5 62 M15.5 62 C6.58 60.8, -0.39 57.6, 0 46.5 M15.5 62 C3.85 61.4, 2.11 55.12, 0 46.5 M0 46.5 C0.17 39.76, -1.63 33.37, 0 15.5 M0 46.5 C-0.95 36.14, 0.61 25.72, 0 15.5 M0 15.5 C1.79 3.36, 6.43 -0.15, 15.5 0 M0 15.5 C-1.79 6.7, 7.06 0.43, 15.5 0" stroke="#1e1e1e" stroke-width="1" fill="none"></path></g><g transform="translate(586.6726631252382 73.77539586740636) rotate(0 76.20794677734375 20)"><text x="76.20794677734375" y="0" font-family="Virgil, Segoe UI Emoji" font-size="16px" fill="#1e1e1e" text-anchor="middle" style="white-space: pre;" direction="ltr" dominant-baseline="text-before-edge">Step 4: In promise </text><text x="76.20794677734375" y="20" font-family="Virgil, Segoe UI Emoji" font-size="16px" fill="#1e1e1e" text-anchor="middle" style="white-space: pre;" direction="ltr" dominant-baseline="text-before-edge">constructor</text></g><g stroke-linecap="round" transform="translate(806.3313379122428 160.54091302218097) rotate(0 74.3984375 29.32421875)"><path d="M14.66 0 M14.66 0 C54 3.07, 95.94 1.1, 134.13 0 M14.66 0 C50.22 -0.04, 85.96 0.17, 134.13 0 M134.13 0 C145.26 -0.31, 149.56 6.71, 148.8 14.66 M134.13 0 C142.57 -1.55, 148.19 6.99, 148.8 14.66 M148.8 14.66 C147.86 23.49, 149.52 29.58, 148.8 43.99 M148.8 14.66 C149.68 25.26, 149.79 36.54, 148.8 43.99 M148.8 43.99 C150.42 55.53, 145.69 58.94, 134.13 58.65 M148.8 43.99 C149.96 52.2, 145.42 56.43, 134.13 58.65 M134.13 58.65 C89.01 56.09, 43.03 59.8, 14.66 58.65 M134.13 58.65 C90.76 59.68, 48.98 60.15, 14.66 58.65 M14.66 58.65 C6.24 57.42, 1.21 55.36, 0 43.99 M14.66 58.65 C4.02 58.53, 1.22 52.68, 0 43.99 M0 43.99 C1.98 31.15, -0.06 22.18, 0 14.66 M0 43.99 C-0.9 34.83, 0.16 26.03, 0 14.66 M0 14.66 C1.12 2.97, 4.74 -1.39, 14.66 0 M0 14.66 C-1.06 5.24, 6.62 -0.91, 14.66 0" stroke="#1e1e1e" stroke-width="1" fill="none"></path></g><g transform="translate(819.4658136202506 179.86513177218097) rotate(0 61.26396179199219 10)"><text x="61.26396179199219" y="0" font-family="Virgil, Segoe UI Emoji" font-size="16px" fill="#1e1e1e" text-anchor="middle" style="white-space: pre;" direction="ltr" dominant-baseline="text-before-edge">Step 5: In then</text></g><g stroke-linecap="round" transform="translate(1015.5849086497284 255.20275474603545) rotate(0 80 29.5)"><path d="M14.75 0 M14.75 0 C47.6 -1.01, 80.84 -1.84, 145.25 0 M14.75 0 C50.54 -1.11, 86.52 -1.51, 145.25 0 M145.25 0 C155.2 -1.09, 161.1 5.33, 160 14.75 M145.25 0 C155.55 0.71, 161.28 3.75, 160 14.75 M160 14.75 C159.03 22.9, 158.21 34.87, 160 44.25 M160 14.75 C160.96 22.03, 159.66 31.3, 160 44.25 M160 44.25 C160.45 53.53, 154.74 60.1, 145.25 59 M160 44.25 C158.43 52.37, 155.77 57.58, 145.25 59 M145.25 59 C109.69 59.9, 73.4 60.75, 14.75 59 M145.25 59 C99.08 59.18, 54.78 59.58, 14.75 59 M14.75 59 C5.73 57.76, -1.14 55.86, 0 44.25 M14.75 59 C3.62 56.85, 1.87 55.3, 0 44.25 M0 44.25 C1.65 37.84, -0.68 28.92, 0 14.75 M0 44.25 C0.37 33.51, -1.1 25.51, 0 14.75 M0 14.75 C-1.65 5.56, 3.04 1.73, 14.75 0 M0 14.75 C-0.9 6.99, 6.7 -1.47, 14.75 0" stroke="#1e1e1e" stroke-width="1" fill="none"></path></g><g transform="translate(1051.2249309275603 264.70275474603545) rotate(0 44.35997772216797 20)"><text x="44.35997772216797" y="0" font-family="Virgil, Segoe UI Emoji" font-size="16px" fill="#1e1e1e" text-anchor="middle" style="white-space: pre;" direction="ltr" dominant-baseline="text-before-edge">Step 1: In </text><text x="44.35997772216797" y="20" font-family="Virgil, Segoe UI Emoji" font-size="16px" fill="#1e1e1e" text-anchor="middle" style="white-space: pre;" direction="ltr" dominant-baseline="text-before-edge">setTimeout</text></g><g stroke-linecap="round" transform="translate(1014.8318854408789 550.1956403967117) rotate(0 80 29.5)"><path d="M14.75 0 M14.75 0 C50.31 1.46, 87.03 -1.14, 145.25 0 M14.75 0 C53.47 0.04, 90.09 -0.17, 145.25 0 M145.25 0 C153.12 0.51, 161.27 3.84, 160 14.75 M145.25 0 C157.23 1.05, 158.43 3.19, 160 14.75 M160 14.75 C161.21 21.52, 159.62 30.9, 160 44.25 M160 14.75 C159.85 22.86, 160.46 29.62, 160 44.25 M160 44.25 C160.01 55.74, 153.2 58.98, 145.25 59 M160 44.25 C159.71 54.45, 154.35 58.22, 145.25 59 M145.25 59 C106.2 58.31, 69.76 56.34, 14.75 59 M145.25 59 C94.06 58.81, 43.05 58.96, 14.75 59 M14.75 59 C5.41 57.04, -0.95 53.31, 0 44.25 M14.75 59 C4.74 57.95, -0.59 54.51, 0 44.25 M0 44.25 C0.08 36.85, 1.95 31.13, 0 14.75 M0 44.25 C-0.25 37.18, 0.06 28.76, 0 14.75 M0 14.75 C-0.58 3.83, 4.43 0.66, 14.75 0 M0 14.75 C0.71 5.42, 4.86 0.7, 14.75 0" stroke="#1e1e1e" stroke-width="1" fill="none"></path></g><g transform="translate(1020.1839285927343 559.6956403967117) rotate(0 74.64795684814453 20)"><text x="74.64795684814453" y="0" font-family="Virgil, Segoe UI Emoji" font-size="16px" fill="#1e1e1e" text-anchor="middle" style="white-space: pre;" direction="ltr" dominant-baseline="text-before-edge">Step 6: In another</text><text x="74.64795684814453" y="20" font-family="Virgil, Segoe UI Emoji" font-size="16px" fill="#1e1e1e" text-anchor="middle" style="white-space: pre;" direction="ltr" dominant-baseline="text-before-edge">setTimeout</text></g><g stroke-linecap="round" transform="translate(1016.5178391591618 321.34122504542165) rotate(0 82 55)"><path d="M27.5 0 M27.5 0 C57.46 -0.32, 83.01 0.04, 136.5 0 M27.5 0 C51.37 0.69, 75.93 -0.87, 136.5 0 M136.5 0 C156.47 0.32, 164.09 9.25, 164 27.5 M136.5 0 C156.51 1.87, 162.73 10.95, 164 27.5 M164 27.5 C162.57 49.5, 164.03 66.23, 164 82.5 M164 27.5 C164.62 48.1, 163.13 69.01, 164 82.5 M164 82.5 C164.58 101.19, 156.39 108.86, 136.5 110 M164 82.5 C164.31 99.19, 153.09 109.13, 136.5 110 M136.5 110 C112.63 111.59, 88.97 110.59, 27.5 110 M136.5 110 C96.15 110.76, 56.8 111.19, 27.5 110 M27.5 110 C9.3 110.54, -1.28 102.62, 0 82.5 M27.5 110 C9.24 108.53, 0.05 101.67, 0 82.5 M0 82.5 C0.26 67.78, -1.42 53.4, 0 27.5 M0 82.5 C-1.35 64.97, -0.5 46.15, 0 27.5 M0 27.5 C-1.07 10.12, 10.1 -0.05, 27.5 0 M0 27.5 C1.65 8.78, 9.08 1.86, 27.5 0" stroke="#1e1e1e" stroke-width="1" fill="none"></path></g><g transform="translate(1021.7338883534977 346.34122504542165) rotate(0 76.78395080566406 30)"><text x="76.78395080566406" y="0" font-family="Virgil, Segoe UI Emoji" font-size="16px" fill="#1e1e1e" text-anchor="middle" style="white-space: pre;" direction="ltr" dominant-baseline="text-before-edge">Step 2: In promise </text><text x="76.78395080566406" y="20" font-family="Virgil, Segoe UI Emoji" font-size="16px" fill="#1e1e1e" text-anchor="middle" style="white-space: pre;" direction="ltr" dominant-baseline="text-before-edge">constructor (inside</text><text x="76.78395080566406" y="40" font-family="Virgil, Segoe UI Emoji" font-size="16px" fill="#1e1e1e" text-anchor="middle" style="white-space: pre;" direction="ltr" dominant-baseline="text-before-edge">setTimeout)</text></g><g transform="translate(15.896288176095709 303.35149813699536) rotate(0 159.65591430664062 10)"><text x="0" y="0" font-family="Virgil, Segoe UI Emoji" font-size="16px" fill="#1e1e1e" text-anchor="start" style="white-space: pre;" direction="ltr" dominant-baseline="text-before-edge">(покуда callstack и микротаски пустые)</text></g><g transform="translate(12.041022092048138 594.2615469001985) rotate(0 159.65591430664062 10)"><text x="0" y="0" font-family="Virgil, Segoe UI Emoji" font-size="16px" fill="#1e1e1e" text-anchor="start" style="white-space: pre;" direction="ltr" dominant-baseline="text-before-edge">(покуда callstack и микротаски пустые)</text></g><g stroke-linecap="round" transform="translate(1246.7410771881086 223.9410051409759) rotate(0 96.66428338278462 42.5)"><path d="M3.19 8.07 C3.19 8.07, 3.19 8.07, 3.19 8.07 M3.19 8.07 C3.19 8.07, 3.19 8.07, 3.19 8.07 M0.96 16.73 C2.77 13.89, 5.84 11.89, 10.8 5.41 M0.96 16.73 C3.57 13.58, 7.99 9.73, 10.8 5.41 M0.7 23.13 C6.62 17.56, 13.06 11.4, 17.75 3.51 M0.7 23.13 C6.6 16.85, 11.46 9.74, 17.75 3.51 M1.09 28.77 C4.28 24.11, 12.43 16.81, 24.05 2.36 M1.09 28.77 C7.63 21.07, 15.99 11.86, 24.05 2.36 M0.83 35.17 C10.59 25.73, 18.74 16.93, 29.04 2.72 M0.83 35.17 C7.43 26.7, 14.41 18.61, 29.04 2.72 M1.22 40.81 C13.87 26.88, 27.79 10.34, 34.68 2.32 M1.22 40.81 C9.33 30.4, 18.57 20.75, 34.68 2.32 M0.96 47.21 C9.24 35.55, 18.61 23.76, 39.67 2.68 M0.96 47.21 C14.73 30.81, 29.05 14.93, 39.67 2.68 M0.7 53.61 C14.65 35.19, 28.11 20.5, 45.31 2.29 M0.7 53.61 C10.43 41.42, 20.08 30.6, 45.31 2.29 M1.1 59.25 C13.53 46.7, 21.76 31.07, 50.3 2.65 M1.1 59.25 C12.56 45.59, 24.93 30.98, 50.3 2.65 M0.83 65.65 C17.24 45.84, 36.01 24.83, 55.94 2.26 M0.83 65.65 C13.88 50.43, 28.36 35.52, 55.94 2.26 M1.89 70.54 C23.54 44.17, 48.15 20.73, 60.93 2.62 M1.89 70.54 C21.65 46.13, 42.95 23.51, 60.93 2.62 M3.59 74.67 C25.78 48.97, 45.6 25.72, 66.57 2.22 M3.59 74.67 C20.04 56.79, 37.21 36.72, 66.57 2.22 M5.3 78.81 C24.26 57.68, 41.93 36.96, 71.56 2.58 M5.3 78.81 C26.31 54.1, 47.21 28.35, 71.56 2.58 M8.32 81.43 C36.15 50.15, 61.99 17.28, 77.2 2.19 M8.32 81.43 C35.23 50.33, 62.8 20.18, 77.2 2.19 M11.99 83.3 C36.18 53.5, 61.98 25.66, 82.19 2.55 M11.99 83.3 C33.54 56.96, 56.45 30.9, 82.19 2.55 M15.01 85.92 C44.42 56.39, 68.25 22.84, 87.83 2.15 M15.01 85.92 C33.78 65.15, 50.92 45.4, 87.83 2.15 M19.34 87.04 C43.87 58.44, 66.15 33.07, 92.82 2.51 M19.34 87.04 C35.78 67.55, 54.25 46.8, 92.82 2.51 M24.33 87.4 C52.45 55.22, 83.21 21.53, 98.46 2.12 M24.33 87.4 C40.26 69.9, 54.51 51.88, 98.46 2.12 M29.32 87.76 C56.68 54.16, 86.76 22.19, 103.45 2.48 M29.32 87.76 C53.18 59.98, 76.83 32.51, 103.45 2.48 M34.96 87.37 C53.84 63.1, 74.11 40.28, 109.09 2.08 M34.96 87.37 C61.69 55.78, 90.76 24.26, 109.09 2.08 M39.95 87.73 C65.66 58.07, 90.89 30.16, 114.08 2.44 M39.95 87.73 C64.95 57.92, 90.74 27.78, 114.08 2.44 M45.59 87.33 C66.5 63.06, 86.62 41.35, 119.72 2.05 M45.59 87.33 C73.8 53.59, 104.57 21.16, 119.72 2.05 M50.58 87.69 C72.18 62.06, 94.89 34.77, 124.71 2.41 M50.58 87.69 C67.59 67.95, 83.39 48.21, 124.71 2.41 M56.22 87.3 C78.62 60.48, 102.97 34.9, 129.7 2.77 M56.22 87.3 C74.29 67.32, 93.29 46.09, 129.7 2.77 M61.21 87.66 C78.06 69.45, 93.13 49.24, 135.34 2.37 M61.21 87.66 C76.61 70.05, 92.04 52.24, 135.34 2.37 M66.85 87.26 C97.16 51.56, 125.37 19.93, 140.33 2.73 M66.85 87.26 C86.12 64.92, 107.07 43.21, 140.33 2.73 M71.84 87.62 C94.11 61.5, 116.48 34.32, 145.97 2.34 M71.84 87.62 C92.45 64.99, 111.45 39.45, 145.97 2.34 M77.48 87.23 C104.04 53.92, 132.35 25.12, 150.96 2.7 M77.48 87.23 C98.2 63.23, 119.25 37.57, 150.96 2.7 M82.47 87.59 C102.01 66.1, 122.78 39.26, 156.6 2.31 M82.47 87.59 C110.44 57.2, 136.61 26.45, 156.6 2.31 M88.11 87.19 C113.62 57.68, 138.34 25.25, 161.59 2.67 M88.11 87.19 C110.99 61.41, 135.03 34.64, 161.59 2.67 M93.1 87.55 C111.33 67.45, 132.07 46.16, 167.23 2.27 M93.1 87.55 C118.24 58.29, 142.22 30.31, 167.23 2.27 M98.08 87.91 C123.7 59.33, 147.76 32.34, 173.53 1.12 M98.08 87.91 C118.64 64, 141.31 39.86, 173.53 1.12 M103.73 87.52 C121.26 64.78, 139.84 43.87, 177.86 2.24 M103.73 87.52 C131.72 56.39, 160.21 23.89, 177.86 2.24 M108.71 87.88 C132.21 64.27, 151.42 36.72, 182.85 2.6 M108.71 87.88 C127.13 65.25, 146.85 43.2, 182.85 2.6 M114.36 87.48 C140.02 60.54, 162.51 31.89, 186.52 4.47 M114.36 87.48 C131.81 67.05, 148.8 45.44, 186.52 4.47 M119.34 87.84 C135.71 71.48, 150.92 51.32, 189.54 7.09 M119.34 87.84 C137.78 67.68, 155.02 47.98, 189.54 7.09 M124.99 87.45 C140.59 68.26, 157.15 48.65, 191.91 10.47 M124.99 87.45 C140 71.71, 153.05 54.76, 191.91 10.47 M129.97 87.81 C145.78 71.93, 157.53 55.6, 193.61 14.6 M129.97 87.81 C155.34 58.08, 180.86 30.33, 193.61 14.6 M135.62 87.42 C158.5 61.68, 182.16 34.92, 195.32 18.74 M135.62 87.42 C150.59 68.67, 168.5 49.9, 195.32 18.74 M140.6 87.78 C158.27 66.05, 178.66 44.45, 195.71 24.38 M140.6 87.78 C160.95 63.85, 183.35 40.01, 195.71 24.38 M146.25 87.38 C154.85 74.68, 165.07 65.14, 195.45 30.78 M146.25 87.38 C166.01 64.08, 185.03 41.42, 195.45 30.78 M151.23 87.74 C164.24 72.79, 175.41 59.41, 195.85 36.42 M151.23 87.74 C161.17 76.79, 171.26 64.87, 195.85 36.42 M156.88 87.35 C164.83 76.84, 175.75 67.52, 195.58 42.82 M156.88 87.35 C167.75 75.27, 178.1 63.66, 195.58 42.82 M161.86 87.71 C175.41 72.09, 185.64 61.51, 195.98 48.46 M161.86 87.71 C172.81 76.68, 181.98 64.5, 195.98 48.46 M167.51 87.31 C171.86 78.28, 180.81 72.88, 195.72 54.86 M167.51 87.31 C176.24 77.19, 185.35 66.37, 195.72 54.86 M173.81 86.16 C177.85 82.55, 184.58 76.35, 196.11 60.5 M173.81 86.16 C178.86 79.14, 185.28 72.88, 196.11 60.5 M180.11 85.01 C183.81 81.37, 188.68 76.88, 196.51 66.15 M180.11 85.01 C184.46 78.88, 188.96 73.88, 196.51 66.15" stroke="#ffec99" stroke-width="0.5" fill="none"></path><path d="M21.25 0 M21.25 0 C72.51 0.11, 121.8 -0.96, 172.08 0 M21.25 0 C78.45 -0.62, 136.75 0.84, 172.08 0 M172.08 0 C184.98 1.56, 195.14 5.49, 193.33 21.25 M172.08 0 C185.18 -1.88, 195.12 7.01, 193.33 21.25 M193.33 21.25 C192.53 35.71, 191.7 48.35, 193.33 63.75 M193.33 21.25 C194.25 31.82, 194.32 42.74, 193.33 63.75 M193.33 63.75 C194.27 76.33, 185.68 83.3, 172.08 85 M193.33 63.75 C192.07 75.65, 186.8 87.02, 172.08 85 M172.08 85 C141.43 83.6, 111.7 83.95, 21.25 85 M172.08 85 C121.07 84.1, 71.97 83.15, 21.25 85 M21.25 85 C5.73 83.59, 1.65 79.2, 0 63.75 M21.25 85 C6.04 83.96, -0.3 78.28, 0 63.75 M0 63.75 C-1.59 48.65, -0.72 30.3, 0 21.25 M0 63.75 C-0.16 49.58, -0.03 36, 0 21.25 M0 21.25 C-0.17 7.16, 7.72 -1.15, 21.25 0 M0 21.25 C0.66 4.87, 8.8 0.77, 21.25 0" stroke="#1e1e1e" stroke-width="1" fill="none"></path></g><g transform="translate(1268.5094026241159 246.4410051409759) rotate(0 74.89595794677734 20)"><text x="74.89595794677734" y="0" font-family="Virgil, Segoe UI Emoji" font-size="16px" fill="#1e1e1e" text-anchor="middle" style="white-space: pre;" direction="ltr" dominant-baseline="text-before-edge">Step 3: In then</text><text x="74.89595794677734" y="20" font-family="Virgil, Segoe UI Emoji" font-size="16px" fill="#1e1e1e" text-anchor="middle" style="white-space: pre;" direction="ltr" dominant-baseline="text-before-edge">(inside setTimeout)</text></g><g stroke-linecap="round" transform="translate(791.988314433145 455.40922777825926) rotate(0 86.5 33)"><path d="M4.39 3.82 C4.39 3.82, 4.39 3.82, 4.39 3.82 M4.39 3.82 C4.39 3.82, 4.39 3.82, 4.39 3.82 M1.51 13.23 C4.3 10.14, 6.89 6.69, 10.69 2.67 M1.51 13.23 C4.67 10.5, 6.43 7.65, 10.69 2.67 M1.24 19.63 C6.37 13.46, 10.42 5.51, 17.65 0.76 M1.24 19.63 C6.14 14.59, 9.96 8.77, 17.65 0.76 M0.98 26.03 C9.01 16.72, 18.98 8.7, 22.63 1.12 M0.98 26.03 C6.64 20.42, 11.42 14.79, 22.63 1.12 M1.38 31.67 C12.45 20.27, 20.24 7.86, 28.28 0.73 M1.38 31.67 C7.82 24.48, 15.47 14.97, 28.28 0.73 M1.12 38.07 C13.29 27.45, 24.74 11.04, 33.26 1.09 M1.12 38.07 C10.53 26.14, 21.51 14.78, 33.26 1.09 M1.51 43.71 C13.59 32.71, 24.87 21.23, 38.91 0.7 M1.51 43.71 C12.12 30.91, 24.42 17.51, 38.91 0.7 M1.25 50.11 C8.73 41.09, 20.48 29.76, 43.89 1.06 M1.25 50.11 C12.59 36.96, 24.37 23.38, 43.89 1.06 M2.3 55 C12.81 41.08, 24.17 32.72, 48.88 1.42 M2.3 55 C18.07 37.58, 32.97 20.37, 48.88 1.42 M4.01 59.13 C23.89 34.52, 42.76 13.15, 54.52 1.02 M4.01 59.13 C14.87 47.48, 25.52 34.47, 54.52 1.02 M5.71 63.27 C19.88 48.22, 30.93 31.48, 59.51 1.38 M5.71 63.27 C21.73 44.99, 38.19 26.44, 59.51 1.38 M9.39 65.14 C21.25 49.74, 33.75 38.09, 65.15 0.99 M9.39 65.14 C27.32 44.72, 43.73 23.59, 65.15 0.99 M14.38 65.5 C35.57 43.19, 53.66 16.58, 70.14 1.35 M14.38 65.5 C26.92 49.18, 41.5 33.21, 70.14 1.35 M20.02 65.1 C44.64 39.36, 66.35 12.94, 75.78 0.95 M20.02 65.1 C35.09 49.27, 49.31 32.01, 75.78 0.95 M25.01 65.46 C43.5 43.64, 65.04 20.64, 80.77 1.31 M25.01 65.46 C38.04 49.12, 51.42 33.57, 80.77 1.31 M30.65 65.07 C48.17 44.14, 66.45 25.25, 85.76 1.67 M30.65 65.07 C48.79 42.97, 69.44 21.12, 85.76 1.67 M35.64 65.43 C49.41 47.37, 66.56 30.91, 91.4 1.28 M35.64 65.43 C49.68 47.81, 64.27 32.12, 91.4 1.28 M41.28 65.03 C60.15 40.58, 81.06 19.78, 96.39 1.64 M41.28 65.03 C63.43 40.82, 83.36 16.49, 96.39 1.64 M46.27 65.39 C66.33 43.65, 90.21 17.78, 102.03 1.24 M46.27 65.39 C63.57 46.32, 80.44 26.12, 102.03 1.24 M51.25 65.75 C62.57 52.57, 77.57 39.56, 107.02 1.6 M51.25 65.75 C73.64 39.58, 96.13 15.02, 107.02 1.6 M56.9 65.36 C79.79 41.37, 102.68 12.98, 112.66 1.21 M56.9 65.36 C71.03 47.43, 86.24 31.4, 112.66 1.21 M61.88 65.72 C76.76 44.38, 95.27 25.38, 117.65 1.57 M61.88 65.72 C78.76 45.49, 95.31 26.58, 117.65 1.57 M67.53 65.32 C83.52 49.03, 94.37 31.2, 122.64 1.93 M67.53 65.32 C82.31 49.14, 95.36 32.37, 122.64 1.93 M72.51 65.68 C83.44 53.93, 93.45 38.11, 128.28 1.53 M72.51 65.68 C88.08 46.73, 103.81 29.26, 128.28 1.53 M78.16 65.29 C97.2 42.14, 120.02 15.18, 133.27 1.89 M78.16 65.29 C94.83 46.45, 111.49 26.69, 133.27 1.89 M83.14 65.65 C96.57 52.65, 105.59 37.16, 138.91 1.5 M83.14 65.65 C104 44.11, 123.71 20.9, 138.91 1.5 M88.13 66.01 C105.9 43.39, 127.64 22.19, 143.9 1.86 M88.13 66.01 C103.94 48.87, 118.35 31.61, 143.9 1.86 M93.77 65.62 C114.75 39.48, 135.13 18.21, 149.54 1.47 M93.77 65.62 C106.7 50.14, 118.08 36.68, 149.54 1.47 M98.76 65.98 C113.34 48.56, 129.06 29.04, 154.53 1.83 M98.76 65.98 C114.31 49.73, 129.13 31.97, 154.53 1.83 M104.4 65.58 C122.32 45.66, 137.27 27.2, 159.51 2.19 M104.4 65.58 C117.51 50.86, 131.9 35, 159.51 2.19 M109.39 65.94 C122.07 50.31, 132.28 36.47, 165.16 1.79 M109.39 65.94 C126.66 46.75, 143.97 27.06, 165.16 1.79 M115.03 65.55 C130.76 47.96, 143.52 32.19, 168.17 4.42 M115.03 65.55 C127.55 51.69, 141.99 36.1, 168.17 4.42 M120.02 65.91 C138.08 46.05, 158.72 23.11, 171.85 6.28 M120.02 65.91 C131.38 52.58, 144 39.22, 171.85 6.28 M125.01 66.27 C140.43 46, 158.72 26.01, 173.56 10.42 M125.01 66.27 C140.55 49.97, 153.83 31.96, 173.56 10.42 M130.65 65.87 C140 55.57, 152.72 44.73, 175.26 14.55 M130.65 65.87 C144.9 47.7, 161.86 31.24, 175.26 14.55 M135.64 66.23 C149.54 49.87, 163.86 31.74, 175 20.95 M135.64 66.23 C150.17 49.62, 162.71 32.53, 175 20.95 M141.28 65.84 C150.81 56.69, 158.65 44.32, 174.74 27.35 M141.28 65.84 C149.04 57.58, 157.12 48.83, 174.74 27.35 M146.27 66.2 C151.76 57.91, 160.16 49.95, 174.48 33.75 M146.27 66.2 C152.66 58.98, 159.43 51.38, 174.48 33.75 M151.91 65.8 C157.89 59.09, 165.21 49.6, 174.87 39.39 M151.91 65.8 C159.5 56.55, 167.68 48.36, 174.87 39.39 M156.9 66.16 C163.34 56.91, 168.47 50.75, 174.61 45.79 M156.9 66.16 C163.89 58.75, 170.76 49.02, 174.61 45.79 M163.2 65.01 C165.58 61.11, 169.99 59.24, 174.35 52.18 M163.2 65.01 C167.73 59.51, 171.63 54.83, 174.35 52.18" stroke="#ffec99" stroke-width="0.5" fill="none"></path><path d="M16.5 0 M16.5 0 C52.37 0.89, 92.6 2.55, 156.5 0 M16.5 0 C69.64 -0.59, 121.81 0.72, 156.5 0 M156.5 0 C165.82 1.76, 172.28 6.61, 173 16.5 M156.5 0 C167.2 -1.66, 171.88 5.36, 173 16.5 M173 16.5 C173.26 28.38, 171.64 37.61, 173 49.5 M173 16.5 C173.41 23.14, 172.81 31.69, 173 49.5 M173 49.5 C174.06 60.44, 165.79 67.01, 156.5 66 M173 49.5 C172.27 61.9, 169.5 66.51, 156.5 66 M156.5 66 C123.82 66.17, 89.38 64.44, 16.5 66 M156.5 66 C102.93 66.58, 50.42 66.36, 16.5 66 M16.5 66 C7.17 64.73, -1.86 59.85, 0 49.5 M16.5 66 C4.17 64.67, 2.16 61.29, 0 49.5 M0 49.5 C1.27 38.75, -0.1 27, 0 16.5 M0 49.5 C0.52 41.07, -1 32.44, 0 16.5 M0 16.5 C-0.12 3.84, 6.07 0.57, 16.5 0 M0 16.5 C1.64 6.2, 5.15 -1.11, 16.5 0" stroke="#1e1e1e" stroke-width="1" fill="none"></path></g><g transform="translate(803.5923564863676 468.40922777825926) rotate(0 74.89595794677734 20)"><text x="74.89595794677734" y="0" font-family="Virgil, Segoe UI Emoji" font-size="16px" fill="#1e1e1e" text-anchor="middle" style="white-space: pre;" direction="ltr" dominant-baseline="text-before-edge">Step 3: In then</text><text x="74.89595794677734" y="20" font-family="Virgil, Segoe UI Emoji" font-size="16px" fill="#1e1e1e" text-anchor="middle" style="white-space: pre;" direction="ltr" dominant-baseline="text-before-edge">(inside setTimeout)</text></g><g stroke-linecap="round"><g transform="translate(1184.6293610014945 389.5480248236447) rotate(0 79.39255940375494 -30.63072626652003)"><path d="M0.13 0.26 C14.6 1.15, 59.66 17.54, 86.08 5.63 C112.5 -6.28, 146.67 -58.43, 158.66 -71.22" stroke="#1e1e1e" stroke-width="1.5" fill="none" stroke-dasharray="8 9"></path></g><g transform="translate(1184.6293610014945 389.5480248236447) rotate(0 79.39255940375494 -30.63072626652003)"><path d="M149.5 -43.96 C151.87 -49.51, 153.41 -57.23, 158.73 -71.81" stroke="#1e1e1e" stroke-width="1.5" fill="none"></path></g><g transform="translate(1184.6293610014945 389.5480248236447) rotate(0 79.39255940375494 -30.63072626652003)"><path d="M133.47 -56.77 C139.62 -59.34, 144.91 -64.05, 158.73 -71.81" stroke="#1e1e1e" stroke-width="1.5" fill="none"></path></g></g><mask></mask><g transform="translate(1286.9707272932685 393.72297333801237) rotate(0 70.60995483398438 25)"><text x="70.60995483398438" y="0" font-family="Virgil, Segoe UI Emoji" font-size="20px" fill="#1e1e1e" text-anchor="middle" style="white-space: pre;" direction="ltr" dominant-baseline="text-before-edge">Найдена новая</text><text x="70.60995483398438" y="25" font-family="Virgil, Segoe UI Emoji" font-size="20px" fill="#1e1e1e" text-anchor="middle" style="white-space: pre;" direction="ltr" dominant-baseline="text-before-edge">микрозадача!!!</text></g></svg>
