<svg version="1.1" xmlns="http://www.w3.org/2000/svg" viewBox="0 0 619.10546875 351.9241727941176" width="619.10546875" height="351.9241727941176" class="excalidraw-svg">
  <!-- svg-source:excalidraw -->

  <g stroke-linecap="round" transform="translate(36.76953125 155.45542279411762) rotate(0 52.916015625 52.916015625)"><path d="M75.92 4.75 C83.71 7.53, 91.55 15.04, 96.6 22.62 C101.65 30.21, 105.6 41.38, 106.21 50.26 C106.82 59.13, 104.12 67.99, 100.26 75.85 C96.4 83.72, 90.32 92.33, 83.06 97.44 C75.8 102.55, 65.71 105.89, 56.69 106.51 C47.68 107.12, 36.93 105.15, 28.97 101.11 C21.01 97.08, 13.73 89.59, 8.93 82.28 C4.13 74.96, 0.88 65.97, 0.18 57.22 C-0.51 48.48, 0.84 37.95, 4.78 29.81 C8.73 21.66, 16.44 13.42, 23.88 8.33 C31.32 3.25, 40.29 -0.42, 49.42 -0.7 C58.56 -0.99, 73.5 5.07, 78.69 6.62 C83.88 8.17, 80.9 7.87, 80.54 8.61 M73.87 2.33 C81.56 4.65, 88.41 12.77, 93.68 20.16 C98.94 27.55, 104.16 38.08, 105.47 46.67 C106.79 55.27, 104.87 63.57, 101.57 71.73 C98.28 79.89, 92.58 89.92, 85.68 95.65 C78.77 101.38, 68.86 104.93, 60.13 106.12 C51.41 107.3, 41.45 106.3, 33.33 102.75 C25.2 99.2, 16.65 91.61, 11.39 84.82 C6.14 78.04, 2.81 70.46, 1.79 62.02 C0.76 53.59, 2.12 42.46, 5.25 34.24 C8.38 26.02, 14.05 18.07, 20.56 12.7 C27.06 7.34, 35.79 3.55, 44.28 2.04 C52.77 0.53, 66.92 3.24, 71.51 3.64 C76.09 4.05, 71.93 3.8, 71.81 4.45" stroke="#1e1e1e" stroke-width="2" fill="none"></path></g><g transform="translate(61.66829780725169 183.4541649373068) rotate(0 28.0999755859375 25)"><text x="28.0999755859375" y="0" font-family="Virgil, Segoe UI Emoji" font-size="20px" fill="#1e1e1e" text-anchor="middle" style="white-space: pre;" direction="ltr" dominant-baseline="text-before-edge">value:</text><text x="28.0999755859375" y="25" font-family="Virgil, Segoe UI Emoji" font-size="20px" fill="#1e1e1e" text-anchor="middle" style="white-space: pre;" direction="ltr" dominant-baseline="text-before-edge">1</text></g><g stroke-linecap="round" transform="translate(219.931640625 66.80503216911762) rotate(0 52.916015625 52.916015625)"><path d="M50.72 0.79 C59.08 -0.61, 70.18 0.81, 77.8 4.89 C85.42 8.97, 91.68 17.82, 96.45 25.25 C101.22 32.68, 105.85 40.8, 106.43 49.45 C107.01 58.1, 104.02 69.18, 99.94 77.17 C95.86 85.15, 89.37 92.64, 81.94 97.36 C74.51 102.09, 64.11 105.01, 55.39 105.5 C46.67 106, 37.49 104.29, 29.62 100.34 C21.75 96.39, 13.03 89.21, 8.18 81.81 C3.33 74.42, 0.83 64.78, 0.53 55.95 C0.23 47.12, 2.34 36.82, 6.36 28.85 C10.37 20.89, 17.02 12.9, 24.61 8.14 C32.19 3.38, 46.67 1.31, 51.87 0.27 C57.06 -0.77, 55.78 1.12, 55.8 1.91 M54.85 0.78 C63.36 0.19, 74.18 3.21, 81.44 7.81 C88.7 12.41, 94.6 20.63, 98.41 28.38 C102.23 36.13, 104.59 45.44, 104.31 54.28 C104.04 63.12, 101.17 73.92, 96.76 81.43 C92.35 88.94, 85.72 95.49, 77.85 99.33 C69.99 103.17, 58.17 104.66, 49.58 104.48 C40.99 104.3, 33.76 102.69, 26.33 98.25 C18.89 93.82, 9.2 85.85, 4.95 77.85 C0.71 69.86, 0.58 59.19, 0.86 50.3 C1.14 41.4, 1.85 31.89, 6.63 24.48 C11.42 17.07, 21.47 9.92, 29.56 5.82 C37.65 1.72, 51.03 0.75, 55.18 -0.12 C59.33 -0.98, 54.35 -0.14, 54.44 0.63" stroke="#1e1e1e" stroke-width="2" fill="none"></path></g><g transform="translate(244.8304071822517 94.80377431230681) rotate(0 28.0999755859375 25)"><text x="28.0999755859375" y="0" font-family="Virgil, Segoe UI Emoji" font-size="20px" fill="#1e1e1e" text-anchor="middle" style="white-space: pre;" direction="ltr" dominant-baseline="text-before-edge">value:</text><text x="28.0999755859375" y="25" font-family="Virgil, Segoe UI Emoji" font-size="20px" fill="#1e1e1e" text-anchor="middle" style="white-space: pre;" direction="ltr" dominant-baseline="text-before-edge">2</text></g><g stroke-linecap="round" transform="translate(390.396484375 204.51987591911762) rotate(0 52.916015625 52.916015625)"><path d="M59.26 -0.63 C67.73 -0.5, 77.58 4.28, 84.64 9.76 C91.69 15.24, 97.99 24.09, 101.59 32.27 C105.19 40.46, 107.23 50.29, 106.22 58.84 C105.2 67.39, 100.72 76.31, 95.51 83.56 C90.29 90.82, 83.01 98.88, 74.92 102.37 C66.84 105.86, 55.98 105.66, 47.02 104.51 C38.06 103.37, 28.18 100.74, 21.18 95.5 C14.17 90.25, 8.57 81.29, 5.01 73.05 C1.45 64.81, -1.13 54.78, -0.19 46.07 C0.76 37.37, 5.4 27.73, 10.69 20.82 C15.97 13.91, 22.07 7.86, 31.53 4.61 C40.99 1.37, 60.32 1.25, 67.43 1.36 C74.54 1.48, 74.51 4.44, 74.18 5.3 M73.33 4.08 C80.91 6.8, 89.54 14.9, 94.83 22.34 C100.11 29.78, 104.12 39.98, 105.04 48.71 C105.95 57.44, 103.68 66.67, 100.32 74.72 C96.95 82.77, 91.92 91.75, 84.83 97.03 C77.75 102.32, 66.48 105.89, 57.81 106.41 C49.14 106.94, 40.54 103.77, 32.82 100.18 C25.1 96.6, 17.11 92.09, 11.47 84.91 C5.84 77.73, 0.04 66.09, -0.99 57.08 C-2.02 48.06, 1.35 38.49, 5.29 30.82 C9.24 23.15, 15.76 16.27, 22.67 11.04 C29.57 5.81, 38.15 0.62, 46.74 -0.56 C55.33 -1.73, 69.75 2.91, 74.19 3.99 C78.64 5.06, 73.55 5.19, 73.39 5.89" stroke="#1e1e1e" stroke-width="2" fill="none"></path></g><g transform="translate(415.2952509322517 232.5186180623068) rotate(0 28.0999755859375 25)"><text x="28.0999755859375" y="0" font-family="Virgil, Segoe UI Emoji" font-size="20px" fill="#1e1e1e" text-anchor="middle" style="white-space: pre;" direction="ltr" dominant-baseline="text-before-edge">value:</text><text x="28.0999755859375" y="25" font-family="Virgil, Segoe UI Emoji" font-size="20px" fill="#1e1e1e" text-anchor="middle" style="white-space: pre;" direction="ltr" dominant-baseline="text-before-edge">3</text></g><g transform="translate(62.6171875 272.7132352941176) rotate(0 23.829978942871094 12.5)"><text x="0" y="0" font-family="Virgil, Segoe UI Emoji" font-size="20px" fill="#1e1e1e" text-anchor="start" style="white-space: pre;" direction="ltr" dominant-baseline="text-before-edge">next:</text></g><g stroke-linecap="round"><g transform="translate(122.21875 286.5999540441176) rotate(0 55.884765625 -57.533203125)"><path d="M1.05 1.11 C12.86 -4.68, 51.9 -14.26, 70.18 -33.75 C88.46 -53.24, 103.96 -102.18, 110.75 -115.82 M0.14 0.65 C11.93 -4.98, 50.87 -16.28, 69.69 -35.54 C88.52 -54.8, 106.27 -101.7, 113.1 -114.9" stroke="#1e1e1e" stroke-width="1" fill="none"></path></g><g transform="translate(122.21875 286.5999540441176) rotate(0 55.884765625 -57.533203125)"><path d="M111.12 -89.98 C113.25 -94.65, 112.93 -103.93, 113.1 -114.9 M111.12 -89.98 C112.69 -94.99, 112.56 -101.59, 113.1 -114.9" stroke="#1e1e1e" stroke-width="1" fill="none"></path></g><g transform="translate(122.21875 286.5999540441176) rotate(0 55.884765625 -57.533203125)"><path d="M95.56 -97.09 C101.57 -100.15, 105.07 -107.69, 113.1 -114.9 M95.56 -97.09 C100.76 -100.35, 104.33 -105.26, 113.1 -114.9" stroke="#1e1e1e" stroke-width="1" fill="none"></path></g></g><mask></mask><g transform="translate(247.55859375 183.34604779411762) rotate(0 23.829978942871094 12.5)"><text x="0" y="0" font-family="Virgil, Segoe UI Emoji" font-size="20px" fill="#1e1e1e" text-anchor="start" style="white-space: pre;" direction="ltr" dominant-baseline="text-before-edge">next:</text></g><g stroke-linecap="round"><g transform="translate(309.19921875 205.90464154411762) rotate(0 33.908203125 27.21484375)"><path d="M0.36 0.71 C5.32 5.81, 19.69 22.28, 30.78 31.06 C41.87 39.83, 60.61 49.62, 66.87 53.35 M-0.92 0.03 C3.82 5.2, 18.27 22.97, 29.96 31.98 C41.66 40.99, 62.78 50.43, 69.27 54.1" stroke="#1e1e1e" stroke-width="1" fill="none"></path></g><g transform="translate(309.19921875 205.90464154411762) rotate(0 33.908203125 27.21484375)"><path d="M47.74 51.39 C57.17 52.78, 62.29 51.83, 69.27 54.1 M47.74 51.39 C51.58 51.86, 57.78 53.58, 69.27 54.1" stroke="#1e1e1e" stroke-width="1" fill="none"></path></g><g transform="translate(309.19921875 205.90464154411762) rotate(0 33.908203125 27.21484375)"><path d="M54.52 38.19 C61.4 44.66, 63.93 48.76, 69.27 54.1 M54.52 38.19 C57 41.37, 61.77 45.86, 69.27 54.1" stroke="#1e1e1e" stroke-width="1" fill="none"></path></g></g><mask></mask><g transform="translate(418.45703125 316.9241727941176) rotate(0 23.829978942871094 12.5)"><text x="0" y="0" font-family="Virgil, Segoe UI Emoji" font-size="20px" fill="#1e1e1e" text-anchor="start" style="white-space: pre;" direction="ltr" dominant-baseline="text-before-edge">next:</text></g><g stroke-linecap="round"><g transform="translate(479.015625 329.5257352941176) rotate(0 46.810546875 4.791015625)"><path d="M-0.08 -1.11 C8.43 0.25, 35.12 8.13, 50.91 8.55 C66.7 8.98, 87.72 2.77, 94.67 1.43 M-1.58 0.91 C7.33 2.36, 37.23 9.25, 53.23 9.55 C69.24 9.84, 87.94 4.11, 94.45 2.7" stroke="#1e1e1e" stroke-width="1" fill="none"></path></g><g transform="translate(479.015625 329.5257352941176) rotate(0 46.810546875 4.791015625)"><path d="M76.72 14.6 C79.95 9.93, 85.21 9.48, 94.45 2.7 M76.72 14.6 C82.71 11.44, 86.66 7.13, 94.45 2.7" stroke="#1e1e1e" stroke-width="1" fill="none"></path></g><g transform="translate(479.015625 329.5257352941176) rotate(0 46.810546875 4.791015625)"><path d="M73.21 0.41 C77.5 -0.16, 83.78 3.49, 94.45 2.7 M73.21 0.41 C80.11 1.43, 85.09 1.26, 94.45 2.7" stroke="#1e1e1e" stroke-width="1" fill="none"></path></g></g><mask></mask><g transform="translate(606.51953125 310.2640165441176) rotate(0 -9.458984375 6.892578125)" stroke="none"><path fill="#1e1e1e" d="M 0.67,0.63 Q 0.67,0.63 -0.45,1.77 -1.58,2.91 -3.29,3.95 -5.01,4.99 -7.21,6.44 -9.40,7.89 -11.43,9.32 -13.46,10.75 -15.70,12.42 -17.94,14.10 -18.06,14.17 -18.18,14.23 -18.32,14.25 -18.45,14.28 -18.59,14.25 -18.72,14.23 -18.84,14.17 -18.96,14.10 -19.06,14.01 -19.15,13.91 -19.21,13.78 -19.27,13.66 -19.28,13.52 -19.30,13.39 -19.27,13.25 -19.24,13.12 -19.17,13.00 -19.10,12.89 -19.00,12.80 -18.89,12.71 -18.77,12.66 -18.64,12.61 -18.50,12.60 -18.37,12.59 -18.23,12.63 -18.10,12.66 -17.99,12.74 -17.88,12.82 -17.79,12.92 -17.71,13.03 -17.67,13.16 -17.62,13.29 -17.62,13.43 -17.62,13.57 -17.66,13.70 -17.71,13.82 -17.79,13.93 -17.87,14.04 -17.99,14.12 -18.10,14.20 -18.23,14.23 -18.36,14.27 -18.50,14.26 -18.64,14.26 -18.76,14.21 -18.89,14.16 -18.99,14.07 -19.10,13.98 -19.17,13.86 -19.24,13.74 -19.27,13.61 -19.30,13.48 -19.28,13.34 -19.27,13.21 -19.21,13.08 -19.16,12.96 -19.06,12.86 -18.97,12.76 -18.97,12.76 -18.97,12.76 -16.64,11.16 -14.31,9.55 -12.28,8.09 -10.25,6.62 -8.05,5.13 -5.85,3.63 -4.33,2.67 -2.81,1.72 -1.74,0.54 -0.67,-0.63 -0.58,-0.71 -0.50,-0.78 -0.40,-0.83 -0.30,-0.88 -0.19,-0.90 -0.08,-0.92 0.03,-0.92 0.14,-0.91 0.25,-0.88 0.35,-0.85 0.45,-0.80 0.55,-0.74 0.63,-0.67 0.71,-0.59 0.77,-0.49 0.83,-0.40 0.87,-0.29 0.90,-0.19 0.91,-0.08 0.92,0.03 0.91,0.14 0.89,0.25 0.85,0.35 0.80,0.45 0.74,0.54 0.67,0.63 0.67,0.63 L 0.67,0.63 Z"></path></g><g transform="translate(587.6640625 309.4710477941176) rotate(0 10.720703125 9.44921875)" stroke="none"><path fill="#1e1e1e" d="M 0.71,-0.60 Q 0.71,-0.60 1.81,0.76 2.91,2.13 4.54,3.50 6.16,4.87 8.18,6.64 10.19,8.40 11.93,9.91 13.68,11.42 15.10,12.76 16.53,14.09 17.85,15.11 19.18,16.13 20.44,17.12 21.71,18.11 21.79,18.20 21.87,18.30 21.92,18.41 21.96,18.53 21.97,18.66 21.98,18.78 21.95,18.90 21.91,19.02 21.84,19.13 21.77,19.23 21.67,19.31 21.57,19.38 21.45,19.43 21.34,19.47 21.21,19.47 21.08,19.47 20.97,19.43 20.85,19.39 20.75,19.31 20.65,19.24 20.57,19.13 20.50,19.03 20.47,18.91 20.44,18.79 20.44,18.66 20.45,18.54 20.49,18.42 20.54,18.30 20.62,18.21 20.70,18.11 20.81,18.05 20.92,17.98 21.04,17.95 21.16,17.93 21.29,17.94 21.41,17.95 21.53,18.00 21.64,18.06 21.73,18.14 21.82,18.23 21.88,18.34 21.94,18.45 21.96,18.57 21.98,18.70 21.96,18.82 21.94,18.95 21.89,19.06 21.83,19.17 21.74,19.25 21.65,19.34 21.53,19.39 21.42,19.45 21.29,19.46 21.17,19.48 21.05,19.45 20.92,19.42 20.81,19.36 20.71,19.29 20.71,19.29 20.71,19.29 19.52,18.27 18.33,17.24 16.95,16.19 15.56,15.14 14.14,13.84 12.72,12.54 10.95,11.05 9.19,9.56 7.16,7.84 5.13,6.12 3.36,4.68 1.59,3.24 0.44,1.92 -0.71,0.60 -0.78,0.51 -0.84,0.41 -0.88,0.30 -0.91,0.20 -0.92,0.08 -0.93,-0.02 -0.92,-0.13 -0.90,-0.24 -0.86,-0.35 -0.82,-0.45 -0.75,-0.55 -0.68,-0.64 -0.60,-0.71 -0.51,-0.78 -0.41,-0.83 -0.31,-0.88 -0.19,-0.91 -0.08,-0.93 0.02,-0.93 0.13,-0.93 0.24,-0.90 0.35,-0.87 0.45,-0.81 0.55,-0.75 0.63,-0.68 0.71,-0.60 0.71,-0.60 L 0.71,-0.60 Z"></path></g><g stroke-linecap="round" transform="translate(10 91.88120404411762) rotate(0 75.369140625 25)"><path d="M12.5 0 C52.2 -1.85, 89.04 -1.89, 138.24 0 M12.5 0 C46.97 0.25, 80.99 0.2, 138.24 0 M138.24 0 C147.02 -1.29, 150.53 3.28, 150.74 12.5 M138.24 0 C144.9 1.18, 149.98 4.94, 150.74 12.5 M150.74 12.5 C150.22 19.17, 149.07 23.52, 150.74 37.5 M150.74 12.5 C150.82 20.65, 150.19 29.73, 150.74 37.5 M150.74 37.5 C150.95 47.59, 144.78 48.3, 138.24 50 M150.74 37.5 C150.41 45.98, 145.81 49.49, 138.24 50 M138.24 50 C87.42 50.07, 39.23 49.48, 12.5 50 M138.24 50 C106.91 50.94, 75.36 50.98, 12.5 50 M12.5 50 C3.16 49.87, -0.36 46.44, 0 37.5 M12.5 50 C3.84 51.45, -0.64 44.23, 0 37.5 M0 37.5 C-0.77 34.07, -1.53 27.93, 0 12.5 M0 37.5 C-0.23 27.97, -0.31 18.41, 0 12.5 M0 12.5 C-0.77 5.06, 6.13 1.99, 12.5 0 M0 12.5 C2.01 4.87, 1.91 -1.84, 12.5 0" stroke="#1e1e1e" stroke-width="2" fill="none"></path></g><g transform="translate(24.449180603027344 96.88120404411762) rotate(0 60.919960021972656 20)"><text x="60.919960021972656" y="0" font-family="Virgil, Segoe UI Emoji" font-size="16px" fill="#1e1e1e" text-anchor="middle" style="white-space: pre;" direction="ltr" dominant-baseline="text-before-edge">Адрес в памяти</text><text x="60.919960021972656" y="20" font-family="Virgil, Segoe UI Emoji" font-size="16px" fill="#1e1e1e" text-anchor="middle" style="white-space: pre;" direction="ltr" dominant-baseline="text-before-edge">0x0F0B01</text></g><g stroke-linecap="round" transform="translate(191.50700827205884 10) rotate(0 75.369140625 25)"><path d="M12.5 0 C40.53 -1.85, 69.84 -2.08, 138.24 0 M12.5 0 C61.42 -0.53, 110.1 -0.29, 138.24 0 M138.24 0 C147.42 0.75, 150.62 5.25, 150.74 12.5 M138.24 0 C145.14 -0.76, 151.93 3.67, 150.74 12.5 M150.74 12.5 C149.45 16.16, 151.56 22.61, 150.74 37.5 M150.74 12.5 C151.83 22.91, 150.62 32.57, 150.74 37.5 M150.74 37.5 C149.17 46.15, 146.72 49.37, 138.24 50 M150.74 37.5 C152.42 46.67, 148.17 51.18, 138.24 50 M138.24 50 C101.4 48.76, 65 48.71, 12.5 50 M138.24 50 C97.82 49.26, 57.47 50.06, 12.5 50 M12.5 50 C5.4 49.29, -1.81 45.15, 0 37.5 M12.5 50 C5.09 48.14, 1.38 43.66, 0 37.5 M0 37.5 C2.14 27.69, -0.4 20.26, 0 12.5 M0 37.5 C0.81 31.04, 0.48 26.07, 0 12.5 M0 12.5 C-0.8 4.42, 3.04 0.11, 12.5 0 M0 12.5 C-1.75 4.45, 5.16 -0.45, 12.5 0" stroke="#1e1e1e" stroke-width="2" fill="none"></path></g><g transform="translate(205.95618887508618 15) rotate(0 60.919960021972656 20)"><text x="60.919960021972656" y="0" font-family="Virgil, Segoe UI Emoji" font-size="16px" fill="#1e1e1e" text-anchor="middle" style="white-space: pre;" direction="ltr" dominant-baseline="text-before-edge">Адрес в памяти</text><text x="60.919960021972656" y="20" font-family="Virgil, Segoe UI Emoji" font-size="16px" fill="#1e1e1e" text-anchor="middle" style="white-space: pre;" direction="ltr" dominant-baseline="text-before-edge">0xAF0E03</text></g><g stroke-linecap="round" transform="translate(373.0966222426471 144.1217830882353) rotate(0 75.369140625 25)"><path d="M12.5 0 C49.24 1.1, 85.5 1.39, 138.24 0 M12.5 0 C43.98 -0.37, 76.8 -1.6, 138.24 0 M138.24 0 C145.64 -0.9, 152.13 4.34, 150.74 12.5 M138.24 0 C145.67 -2.05, 148.67 4.87, 150.74 12.5 M150.74 12.5 C148.95 19.48, 151.01 27.77, 150.74 37.5 M150.74 12.5 C150.11 18.68, 150.38 25.72, 150.74 37.5 M150.74 37.5 C151.34 46.83, 145.57 48.22, 138.24 50 M150.74 37.5 C149.4 46.31, 145.01 50.19, 138.24 50 M138.24 50 C87.25 50.32, 39.38 49, 12.5 50 M138.24 50 C101.45 51.46, 63.41 51.03, 12.5 50 M12.5 50 C2.93 49.58, 1.67 47.09, 0 37.5 M12.5 50 C5.81 48.99, -1.13 45.09, 0 37.5 M0 37.5 C0.94 27.92, -1.79 21.04, 0 12.5 M0 37.5 C0.15 29.45, 0.05 21.71, 0 12.5 M0 12.5 C-1.71 6.12, 3.65 0.6, 12.5 0 M0 12.5 C0.27 1.9, 6.07 -1.87, 12.5 0" stroke="#1e1e1e" stroke-width="2" fill="none"></path></g><g transform="translate(385.6098058363971 149.1217830882353) rotate(0 62.85595703125 20)"><text x="62.85595703125" y="0" font-family="Virgil, Segoe UI Emoji" font-size="16px" fill="#1e1e1e" text-anchor="middle" style="white-space: pre;" direction="ltr" dominant-baseline="text-before-edge">Адрес в памяти:</text><text x="62.85595703125" y="20" font-family="Virgil, Segoe UI Emoji" font-size="16px" fill="#1e1e1e" text-anchor="middle" style="white-space: pre;" direction="ltr" dominant-baseline="text-before-edge">0xCC0D81</text></g></svg>
