<svg width="1146" height="891" viewBox="0 0 1146 891" fill="none" xmlns="http://www.w3.org/2000/svg">
<path d="M303.29 24.775C303.29 24.775 368.775 54.8549 369.855 55.2749C368.975 56.1449 370.675 55.7249 369.855 55.2749C401.005 72.0449 430.805 92.33 458.255 114.76C458.439 114.911 458.653 115.023 458.883 115.088C459.113 115.152 459.353 115.168 459.59 115.135C472.19 113.365 484.755 111.515 497.285 109.585C507.35 108.04 517.91 107.35 528.23 106.21C556.85 103.79 585.475 103.79 614.105 106.21C634.335 108.34 654.465 111.21 674.495 114.82C674.948 114.9 675.414 114.885 675.861 114.773C676.308 114.662 676.727 114.458 677.09 114.175C700.325 96.025 725.06 78.385 750.95 63.925C800.42 36.295 852.29 12.205 908.975 2.905C965.885 -6.43998 1011.18 19.8401 1033.73 72.34C1040.38 89.52 1044.61 106.115 1048.7 119.095C1048.7 119.095 1052.1 135.015 1052.28 136.555C1055.37 162.725 1057.13 188.975 1057.55 215.305C1057.74 228.145 1056.66 242.44 1056.29 256.06C1055.61 279.535 1054.62 299.35 1053.98 321.01C1054.04 329.83 1053.52 338.75 1052.43 347.77C1059.75 384.95 1065.86 422.32 1070.75 459.88C1070.8 460.26 1071.27 465.265 1072.16 474.895C1072.62 479.895 1073.4 484.86 1074.51 489.79C1075.73 503.94 1076.03 518.175 1075.41 532.495C1075.41 532.594 1075.43 532.692 1075.46 532.785C1075.49 532.877 1075.54 532.962 1075.61 533.035C1075.67 533.107 1075.75 533.166 1075.84 533.207C1075.93 533.248 1076.02 533.271 1076.12 533.275C1088.6 533.785 1100.25 534.535 1113.5 534.64C1128.77 534.76 1150.16 534.925 1144.02 558.04C1138.78 567.18 1131.52 572.165 1122.24 572.995C1114.18 573.725 1103.81 573.07 1091.12 571.03C1089.53 570.77 1088.02 571.165 1086.6 572.215C1084.02 572.095 1073.09 569.89 1073.04 571.9C1072.84 571.88 1072.64 571.92 1072.43 572.02C1072.29 572.088 1072.16 572.211 1072.07 572.375C1071.97 572.539 1071.92 572.738 1071.9 572.95C1070.96 590.43 1068.02 607.58 1063.08 624.4C1062.56 627.09 1061.56 629.63 1060.07 632.02C1059.97 632.176 1059.91 632.352 1059.89 632.534C1059.88 632.716 1059.9 632.899 1059.96 633.068C1060.03 633.238 1060.13 633.389 1060.26 633.509C1060.4 633.629 1060.56 633.715 1060.73 633.76L1105.98 645.67C1108.96 647.61 1112.19 648.8 1115.66 649.24C1120.67 649.87 1123.41 650.27 1123.88 650.44C1129.87 652.67 1131.79 657.335 1129.64 664.435C1124.43 681.595 1110.36 685.54 1094.39 682.105C1080.22 679.075 1066.17 675.505 1052.25 671.395L1045.5 670.48C1040.9 682.26 1036.83 691.385 1033.28 697.855C1009.59 741.015 977.38 775.92 936.65 802.57C909.95 820.045 880.625 835.765 851.15 845.62C820.025 856.03 797.465 861.49 770.24 868.72C764.195 870.325 733.655 875.56 727.355 876.775L633.005 886.945L589.34 890.065C532.19 890.845 474.57 887.3 416.48 879.43C387.155 875.47 360.23 869.02 332.315 862.315C316.97 858.625 302.345 853.165 287.495 847.885C202.235 817.555 130.145 758.38 97.9248 671.005C97.8568 670.824 97.7212 670.672 97.5408 670.577C97.3604 670.481 97.1463 670.447 96.9348 670.48L87.0948 672.07C78.1248 673.92 69.2998 676.305 60.6198 679.225C48.7398 683.2 37.6848 686.2 26.1048 679.225C20.3348 672.725 17.5648 665.075 17.7948 656.275C18.5148 652.255 20.7698 649.4 24.5598 647.71C44.5598 644.31 64.2248 639.345 83.5548 632.815C83.6544 632.784 83.7465 632.733 83.8252 632.666C83.904 632.598 83.9674 632.515 84.0114 632.423C84.0554 632.331 84.0789 632.231 84.0803 632.131C84.0818 632.03 84.0612 631.931 84.0198 631.84C75.4998 613.17 70.9498 593.57 70.3698 573.04C70.3687 572.945 70.3461 572.851 70.3035 572.764C70.2609 572.677 70.1992 572.599 70.1221 572.534C70.045 572.47 69.954 572.42 69.8548 572.388C69.7556 572.357 69.6502 572.344 69.5448 572.35C53.9348 573.17 41.6698 574.1 32.7498 575.14C12.6698 577.46 1.91982 568.885 0.499822 549.415C-0.430178 536.605 11.8848 535.54 22.8198 535C36.8498 534.33 50.8748 533.59 64.8948 532.78C65.0993 532.773 65.2934 532.688 65.4381 532.543C65.5828 532.399 65.6674 532.205 65.6748 532C65.8648 526.24 66.0598 515.92 66.2598 501.04C66.6798 468.925 69.8898 433.45 75.9198 399.775C78.9198 381.235 82.8898 362.865 87.8298 344.665C84.1248 290.605 79.2798 220.09 84.1698 159.775C87.4498 133.725 93.4548 108.34 102.185 83.62C104.595 78.21 107.02 72.815 109.46 67.435C131.12 19.6451 171.755 -6.03502 225.26 2.25997C252.91 6.55996 278.92 14.065 303.29 24.775ZM132.23 275.725C133.74 280.795 133.965 285.915 132.905 291.085C132.785 291.625 132.94 291.815 133.37 291.655C133.82 291.49 138.575 281.485 139.295 280.15C151.745 260.06 165.535 240.935 180.665 222.775C189.615 212.745 198.61 202.765 207.65 192.835C218.33 181.09 232.235 172.03 248.735 177.595C259.415 181.195 260.045 193.3 254.54 201.775C252.03 203.225 249.91 205.185 248.18 207.655C247.897 208.055 247.505 208.358 247.055 208.525C223.895 217.285 206.735 238.6 191.345 258.4C150.77 310.585 123.98 376.255 114.74 441.61C110.54 471.385 106.805 501.925 108.26 531.985C108.35 533.945 109.375 534.97 111.335 535.06C122.725 535.58 133.855 536.115 144.725 536.665C151.715 537.01 157.925 538.555 159.11 545.92C160.58 555.13 153.65 567.355 144.23 568.975C136.78 570.245 129.27 571.07 121.7 571.45C118.57 572.08 115.08 572.1 111.23 571.51C112.05 586.68 115.555 601.215 121.745 615.115L124.505 622.63C124.586 622.851 124.717 623.04 124.876 623.166C125.035 623.293 125.211 623.347 125.375 623.32L127.355 623.005C136.275 622.325 144.845 620.245 153.065 616.765C158.695 614.025 164.035 614.085 169.085 616.945C171.715 620.275 173.315 623.51 173.885 626.65C177.44 646.315 155.945 649.87 142.61 653.8C142.381 653.87 142.178 653.968 142.016 654.085C141.855 654.202 141.739 654.336 141.68 654.475C141.53 654.805 141.63 655.05 141.98 655.21L139.295 656.275C138.435 655.905 137.365 656.205 136.085 657.175C138.265 666.905 142.97 676.87 150.2 687.07C165.36 708.44 176.115 723.055 182.465 730.915C183.205 731.835 184.21 731.81 185.48 730.84C193.78 739.53 204.31 748.77 217.07 758.56C251.29 784.79 288.385 803.55 328.355 814.84C364.095 825.75 398.845 833.525 432.605 838.165C515.66 849.58 602.675 850.885 686.96 840.52C706.49 838.105 727.115 833.47 746.615 829.96C803.795 819.64 863.945 801.175 910.82 768.865C923.9 759.845 937.565 748.19 951.815 733.9C974.105 711.535 991.745 686.26 1004.1 656.86C1004.14 656.777 1004.15 656.688 1004.15 656.599C1004.14 656.51 1004.12 656.424 1004.07 656.347C1004.03 656.27 1003.97 656.205 1003.9 656.156C1003.82 656.107 1003.74 656.076 1003.65 656.065C993.585 654.615 986.645 652.9 982.835 650.92C971.84 645.235 964.835 634.705 969.455 622.405C975.635 605.95 1005.18 618.865 1016.57 622.15C1016.71 622.19 1016.85 622.202 1016.99 622.185C1017.13 622.168 1017.27 622.123 1017.39 622.051C1017.51 621.98 1017.62 621.885 1017.71 621.77C1017.8 621.656 1017.87 621.525 1017.9 621.385C1022.5 605.405 1025.82 589.165 1027.85 572.665C1027.86 572.556 1027.85 572.445 1027.82 572.34C1027.79 572.235 1027.74 572.137 1027.67 572.054C1027.6 571.971 1027.51 571.904 1027.41 571.856C1027.31 571.809 1027.21 571.783 1027.1 571.78C1007.27 571.06 984.11 577.435 982.715 549.505C982.22 539.5 987.605 535.435 997.34 534.79C1008.05 534.07 1018.79 533.435 1029.56 532.885C1029.76 532.874 1029.95 532.787 1030.09 532.642C1030.23 532.498 1030.31 532.306 1030.31 532.105C1030.79 460.06 1015.76 385.72 980.75 323.005C958.68 283.465 930.345 247.68 895.745 215.65C892.155 212.33 887.95 209.765 883.13 207.955C878.61 201.995 876.085 195.945 875.555 189.805C876.835 184.225 879.83 180.215 884.54 177.775C894.17 174.415 902.775 176.06 910.355 182.71C909.725 183.17 909.445 183.76 909.515 184.48C909.529 184.683 909.601 184.897 909.725 185.106C909.849 185.315 914.143 189.096 914.355 189.275C917.715 192.195 916.76 191.72 919.73 195.01C923.615 199.3 928.805 201.355 932.63 205.57C938.78 212.32 945.89 220.9 953.96 231.31C956.99 235.21 961.91 240.085 965.78 245.38C970.265 251.515 975.92 257.575 980.09 262.99C982.22 265.765 989.96 277.405 993.23 277.09L1007.7 295.795C1008.01 296.185 1008.21 296.135 1008.29 295.645C1008.65 293.425 1008.17 290.695 1008.33 288.745C1011.9 245.515 1009.53 209.11 1004.09 164.65C1003.08 156.43 1000.85 145.555 997.415 132.025C992.465 106.12 984.29 75.1 962.87 56.275C961.49 55.065 957.175 53.07 949.925 50.29C944.915 47.42 939.225 46.405 932.855 47.245C873.815 55.015 818.705 74.5451 766.88 103.495C741.21 117.835 719.57 130.63 701.96 141.88C693.065 147.565 686.33 150.76 675.575 149.425C662.745 147.845 649.97 145.85 637.25 143.44C635.825 143.17 634.325 143.77 633.11 143.23C630.59 142.12 628.775 141.805 626.105 142.84L585.98 139.21L556.88 138.82L530.84 140.11C522.35 140.21 513.935 140.98 505.595 142.42C491.675 144.83 484.655 146.04 484.535 146.05C473.405 147.58 456.875 151.825 444.77 148.18C443.01 147.65 441.18 147.395 439.28 147.415C434.6 144.685 422.47 137.21 402.89 124.99C381.24 111.48 354.55 97.23 322.82 82.24C309.9 74.71 296.115 69.345 281.465 66.145L254.09 58C241.82 53.6 229.26 50.435 216.41 48.505C198.005 45.745 175.835 48.58 165.485 66.295C154.835 84.55 149 102.415 143.3 124.375C136.625 150.01 131.75 177.085 131.57 203.65C131.52 211.1 131.03 227.945 130.1 254.185C129.84 261.475 130.55 268.655 132.23 275.725Z" fill="#2E2E44"/>
<path d="M243.735 60.225L271.11 68.37L304.185 81.75C303.185 85.6 301.085 88.6851 297.885 91.0051C297.486 91.2965 297.196 91.6967 297.06 92.145C295.47 97.11 294.255 103.665 290.28 107.325C283.91 113.175 278.89 120.23 275.22 128.49C257.01 115.8 229.68 98.37 206.85 99.405C178.455 100.695 156.015 115.56 136.305 134.91C135.917 135.298 135.477 135.542 135.06 135.6L132 136.005C137.955 112.68 144.93 85.38 158.325 66.075C174.78 42.39 218.475 54.015 243.735 60.225Z" fill="#F3F0D8"/>
<path d="M939.57 52.5151C946.82 55.2951 951.135 57.2901 952.515 58.5001C973.935 77.3251 982.11 108.345 987.06 134.25C987.74 136.49 987.5 137.575 986.34 137.505C986.139 137.491 985.934 137.408 985.745 137.263C985.555 137.119 985.388 136.918 985.26 136.68C984.42 135.13 983.44 133.89 982.32 132.96C964.65 118.215 938.94 101.25 915.315 98.8651C894.24 96.7201 870.705 107.145 853.575 118.995C857.175 113.595 856.74 108.87 852.27 104.82C851.48 104.11 851.105 102.695 851.145 100.575C851.129 100.549 851.039 100.478 850.89 100.376C850.741 100.274 850.544 100.148 850.335 100.02L844.995 96.735C844.704 96.5568 844.421 96.3875 844.193 96.2561C843.966 96.1248 843.809 96.0396 843.75 96.0151C843.15 96.1151 842.895 95.8601 842.985 95.2501C843.02 95.0134 842.987 94.7715 842.888 94.5533C842.79 94.3352 842.631 94.15 842.43 94.0201C839.76 92.34 834.9 90.42 835.665 86.565C836.295 83.445 835.8 81.3151 834.285 78.7201C833.995 78.228 833.882 77.7029 833.97 77.2501C834.38 75.0301 833.545 74.07 831.465 74.37C831.437 74.3754 831.41 74.3693 831.386 74.3521C831.363 74.3349 831.343 74.3072 831.33 74.2715C831.317 74.2358 831.31 74.1933 831.31 74.1477C831.309 74.102 831.316 74.0547 831.33 74.0101C831.39 73.8201 831.405 73.63 831.375 73.44C851.585 65.61 874.585 59.3801 900.375 54.7501C914.805 52.1601 927.87 51.4151 939.57 52.5151Z" fill="#F3F0D8"/>
<path d="M831.375 73.44C831.405 73.63 831.39 73.8201 831.33 74.0101C831.316 74.0547 831.309 74.102 831.31 74.1477C831.31 74.1933 831.317 74.2358 831.33 74.2715C831.343 74.3072 831.363 74.3349 831.386 74.3521C831.41 74.3693 831.437 74.3754 831.465 74.37C833.545 74.07 834.38 75.0301 833.97 77.2501C833.882 77.7029 833.995 78.228 834.285 78.7201C835.8 81.3151 836.295 83.445 835.665 86.565C834.9 90.42 839.76 92.34 842.43 94.0201C842.631 94.15 842.79 94.3352 842.888 94.5533C842.987 94.7715 843.02 95.0134 842.985 95.2501C842.895 95.8601 843.15 96.1151 843.75 96.0151C843.809 96.0396 843.966 96.1248 844.193 96.2561C844.421 96.3875 844.704 96.5568 844.995 96.735L850.335 100.02C850.544 100.148 850.741 100.274 850.89 100.376C851.039 100.478 851.129 100.549 851.145 100.575C851.105 102.695 851.48 104.11 852.27 104.82C856.74 108.87 857.175 113.595 853.575 118.995C837.335 129.405 821.885 140.945 807.225 153.615C803.635 156.715 800.695 159.99 798.405 163.44C798.135 163.854 798.004 164.343 798.031 164.837C798.058 165.331 798.241 165.803 798.555 166.185C803.035 171.675 807.955 176.685 813.315 181.215C830.665 195.865 850.485 205.52 872.775 210.18C877.595 211.99 881.8 214.555 885.39 217.875C919.99 249.905 948.325 285.69 970.395 325.23C1005.4 387.945 1020.43 462.285 1019.95 534.33C1019.95 534.531 1019.87 534.723 1019.73 534.867C1019.59 535.012 1019.41 535.099 1019.2 535.11C1008.43 535.66 997.695 536.295 986.985 537.015C977.25 537.66 971.865 541.725 972.36 551.73C973.755 579.66 996.915 573.285 1016.74 574.005C1016.85 574.008 1016.96 574.034 1017.06 574.081C1017.15 574.129 1017.24 574.196 1017.31 574.279C1017.38 574.362 1017.43 574.46 1017.47 574.565C1017.5 574.67 1017.51 574.781 1017.49 574.89C1015.46 591.39 1012.15 607.63 1007.55 623.61C1007.51 623.75 1007.45 623.881 1007.36 623.995C1007.27 624.11 1007.16 624.205 1007.03 624.276C1006.91 624.347 1006.77 624.393 1006.63 624.41C1006.49 624.427 1006.35 624.415 1006.21 624.375C994.83 621.09 965.28 608.175 959.1 624.63C954.48 636.93 961.485 647.46 972.48 653.145C976.29 655.125 983.23 656.84 993.3 658.29C993.386 658.301 993.469 658.332 993.541 658.381C993.613 658.43 993.674 658.495 993.717 658.572C993.76 658.649 993.786 658.735 993.792 658.824C993.797 658.913 993.783 659.002 993.75 659.085C981.39 688.485 963.75 713.76 941.46 736.125C927.21 750.415 913.545 762.07 900.465 771.09C853.59 803.4 793.44 821.865 736.26 832.185C716.76 835.695 696.135 840.33 676.605 842.745C592.32 853.11 505.305 851.805 422.25 840.39C388.49 835.75 353.74 827.975 318 817.065C318.05 816.645 318.19 816.245 318.42 815.865C318.527 815.685 318.699 815.549 318.909 815.478C319.118 815.407 319.353 815.406 319.575 815.475C351.495 825.18 384.03 831.84 416.85 837.66C431.55 840.255 447.42 841.395 462.765 843.225C472.23 844.35 483.405 844.23 491.34 845.205C501.6 846.465 511.77 846 521.985 847.05C524.625 847.32 527.145 847.475 529.545 847.515C569.205 848.195 594.72 848.14 606.09 847.35C634.57 845.38 659.945 843.085 682.215 840.465C691.44 839.385 701.79 836.595 710.655 835.17C752.645 828.43 791.635 818.785 827.625 806.235C889.125 784.8 941.385 742.65 976.725 688.845C981.84 681.045 985.215 672.03 989.595 663.435C992.895 656.955 988.305 660.195 987.075 661.845C976.155 676.545 969.38 685.425 966.75 688.485C953.325 704.1 935.07 720.42 917.205 733.02C862.605 771.54 801.195 794.145 736.875 806.595C684.195 816.775 631.06 822.73 577.47 824.46C567.53 824.78 557.535 824.835 547.485 824.625C467.685 823.005 387.54 813.225 311.25 789C248.25 768.99 188.025 736.665 146.685 684.375C141.215 677.365 136.165 669.52 131.535 660.84C131.185 660.2 130.59 659.9 129.75 659.94L128.94 658.5L131.625 657.435C147.015 654.33 171.405 648.78 165.105 626.895C164.085 623.385 161.96 620.81 158.73 619.17C153.68 616.31 148.34 616.25 142.71 618.99C133.84 620.05 125.27 622.13 117 625.23L115.02 625.545C114.856 625.572 114.68 625.518 114.521 625.391C114.362 625.265 114.23 625.076 114.15 624.855L111.39 617.34L100.875 573.735C104.725 574.325 108.215 574.305 111.345 573.675C118.005 574.895 124.65 574.93 131.28 573.78C139.98 572.28 145.85 567.4 148.89 559.14C153.57 546.48 147.315 537.99 134.79 537.405C123.28 536.875 111.83 536.31 100.44 535.71C100.16 535.695 99.8966 535.573 99.704 535.369C99.5115 535.165 99.4044 534.895 99.4048 534.615C99.2848 498.675 102.18 466.425 108.615 428.235C110.685 415.92 114.48 403.65 117.795 391.425C133.755 332.595 163.02 280.755 204.705 235.455C214.775 224.505 226.09 216.48 238.65 211.38C240.345 211.305 241.71 211.815 243.435 211.125C266.91 201.885 288.225 187.14 308.565 169.83C310.815 167.92 312.27 166.09 312.93 164.34C313.92 161.68 313.385 159.375 311.325 157.425C300.005 146.685 287.97 137.04 275.22 128.49C278.89 120.23 283.91 113.175 290.28 107.325C294.255 103.665 295.47 97.11 297.06 92.145C297.196 91.6967 297.486 91.2965 297.885 91.0051C301.085 88.6851 303.185 85.6 304.185 81.75L312.465 84.4651C344.195 99.4551 370.885 113.705 392.535 127.215C412.115 139.435 424.245 146.91 428.925 149.64C434.765 152.89 441.945 154.04 450.465 153.09C462.355 151.77 474.2 150.135 486 148.185C490.05 164.865 494.83 181.335 500.34 197.595C503.505 206.955 507.9 216.405 517.035 220.455C528.645 225.615 539.76 220.365 542.715 207.555C544.085 201.605 545.115 194.205 545.805 185.355C547.045 169.215 547.285 154.445 546.525 141.045L575.625 141.435C573.995 156.555 573.74 174.285 574.86 194.625C575.475 205.74 578.415 219.12 590.865 221.805C603.63 224.565 613.905 216.63 618.75 205.125C625.95 188.035 631.325 169.305 634.875 148.935C648.75 151.23 669.105 157.17 682.005 151.38C690.06 147.765 700.815 140.295 706.305 136.965C746.865 112.35 786.465 89.505 831.375 73.44ZM217.305 508.155C215.675 507.215 215.455 505.645 216.645 503.445C216.915 502.945 216.78 502.795 216.24 502.995C206.43 506.7 199.845 516.18 197.445 525.735C193.65 540.78 214.95 557.58 229.185 555.975C231.105 555.755 232.98 555.965 234.81 556.605C202.29 575.25 211.995 641.085 256.065 633.84C264.725 633.41 271.975 630.13 277.815 624C286.665 613.485 289.02 596.445 286.665 583.65C282.975 563.7 271.04 553.255 250.86 552.315C248.9 550.005 248.94 547.535 250.98 544.905C251.18 544.645 251.27 544.635 251.25 544.875L251.235 545.25C251.175 546.07 251.345 546.15 251.745 545.49C253.095 543.23 253.34 540.895 252.48 538.485C252.44 538.375 252.421 538.26 252.423 538.144C252.425 538.029 252.448 537.917 252.491 537.813C252.534 537.71 252.597 537.618 252.674 537.543C252.752 537.468 252.844 537.411 252.945 537.375C253.245 537.265 253.555 537.245 253.875 537.315C260.475 538.395 267.095 539.3 273.735 540.03C319.215 545.055 357.195 528.225 384.66 492.36C392.535 482.1 397.365 476.505 397.05 465.135C396.28 458.585 392.41 454.535 385.44 452.985C374.805 450.615 371.865 455.955 365.445 464.49C359.43 472.5 353.325 481.71 346.14 487.68C323.775 506.235 289.29 510.225 262.02 504.66C250.74 502.365 223.815 493.335 217.305 508.155ZM772.17 527.235C777.52 530.645 784.035 533.37 791.715 535.41C815.385 541.68 838.71 542.96 861.69 539.25C862.26 540.95 862.1 542.615 861.21 544.245C861.111 544.437 861.075 544.653 861.107 544.862C861.14 545.07 861.239 545.259 861.39 545.4C863.34 547.19 864.475 549.345 864.795 551.865C856.025 552.875 848.985 556.29 843.675 562.11C830.37 576.69 829.755 611.28 843.195 625.935C854.94 638.745 877.56 636.51 889.32 625.77C902.04 614.145 904.065 591.81 900.405 576.015C898.625 568.335 894.095 561.915 886.815 556.755C900.615 557.365 911.075 552.335 918.195 541.665C921.405 536.835 921.915 531.315 920.985 525.795C919.345 515.965 914.25 508.735 905.7 504.105C901.12 500.975 896.125 499.43 890.715 499.47C885.66 499.515 878.265 500.475 872.265 501.795C847.23 507.24 822.735 509.79 797.04 502.095C777.255 496.17 762.855 478.92 750.24 462.825C746.95 458.625 744.15 455.995 741.84 454.935C733.65 451.185 723.045 457.26 721.86 466.26C720.09 479.805 742.275 502.95 750.24 511.245C756.68 517.965 763.99 523.295 772.17 527.235ZM474.69 638.25C479.14 644.58 485.42 648.715 493.53 650.655C518.63 656.655 540.7 651.455 559.74 635.055C560.58 634.325 561.145 633.39 561.435 632.25C561.585 632.1 561.745 632 561.915 631.95C562.033 631.924 562.172 631.947 562.318 632.016C562.464 632.084 562.61 632.197 562.74 632.34C567.74 637.94 573.665 642.035 580.515 644.625C598.935 653.675 618.07 655.515 637.92 650.145C651.36 646.5 671.82 629.88 659.805 614.595C651.165 608.055 629.115 618.93 617.775 617.895C606.675 616.875 592.485 611.73 587.025 601.08C581.835 590.955 586.89 575.55 584.925 564.69C581.685 546.93 553.08 546.36 549.285 564.06C549.115 564.84 548.94 569.525 548.76 578.115C548.49 591.735 547.515 601.935 536.37 609.12C527.475 614.835 514.83 617.94 503.655 616.56C496.935 615.735 476.625 608.565 471.33 619.035C468.285 625.035 470.775 633.285 474.69 638.25Z" fill="#FEFEE6"/>
<path d="M987.06 134.25C990.5 147.78 992.725 158.655 993.735 166.875C999.18 211.335 1001.55 247.74 997.98 290.97C997.815 292.92 998.295 295.65 997.935 297.87C997.855 298.36 997.66 298.41 997.35 298.02L982.875 279.315C972.395 265.255 958.425 247.37 940.965 225.66C928.315 209.92 914.66 196.345 900 184.935C892.42 178.285 883.815 176.64 874.185 180C874.385 179.63 874.4 179.285 874.23 178.965C874.137 178.797 873.964 178.679 873.744 178.634C873.525 178.59 873.275 178.622 873.045 178.725C867.255 181.225 864.64 185.66 865.2 192.03C865.73 198.17 868.255 204.22 872.775 210.18C850.485 205.52 830.665 195.865 813.315 181.215C807.955 176.685 803.035 171.675 798.555 166.185C798.241 165.803 798.058 165.331 798.031 164.837C798.004 164.343 798.135 163.854 798.405 163.44C800.695 159.99 803.635 156.715 807.225 153.615C821.885 140.945 837.335 129.405 853.575 118.995C870.705 107.145 894.24 96.7201 915.315 98.8651C938.94 101.25 964.65 118.215 982.32 132.96C983.44 133.89 984.42 135.13 985.26 136.68C985.388 136.918 985.555 137.119 985.745 137.263C985.934 137.408 986.139 137.491 986.34 137.505C987.5 137.575 987.74 136.49 987.06 134.25Z" fill="#FCC3B6"/>
<path d="M275.22 128.49C287.97 137.04 300.005 146.685 311.325 157.425C313.385 159.375 313.92 161.68 312.93 164.34C312.27 166.09 310.815 167.92 308.565 169.83C288.225 187.14 266.91 201.885 243.435 211.125C241.71 211.815 240.345 211.305 238.65 211.38L244.185 204C249.69 195.525 249.06 183.42 238.38 179.82C221.88 174.255 207.975 183.315 197.295 195.06C188.255 204.99 179.26 214.97 170.31 225C169.53 224.28 168.78 224.445 168.105 225.24C152.285 244.12 138.895 262.56 127.935 280.56C127.365 281.51 127.7 282.115 128.94 282.375C128.22 283.71 123.465 293.715 123.015 293.88C122.585 294.04 122.43 293.85 122.55 293.31C123.61 288.14 123.385 283.02 121.875 277.95C122.125 272.64 122.125 267.4 121.875 262.23C119.795 219.69 123.17 177.615 132 136.005L135.06 135.6C135.477 135.542 135.917 135.298 136.305 134.91C156.015 115.56 178.455 100.695 206.85 99.405C229.68 98.37 257.01 115.8 275.22 128.49Z" fill="#FCC3B6"/>
<path d="M545.525 136C546.285 149.4 546.045 164.17 544.805 180.31C544.115 189.16 543.085 196.56 541.715 202.51C538.76 215.32 527.645 220.57 516.035 215.41C506.9 211.36 502.505 201.91 499.34 192.55C493.83 176.29 489.05 159.82 485 143.14C496.37 140.7 507.865 138.75 519.485 137.29L545.525 136Z" fill="#2E2E44"/>
<path d="M576.449 136L616.574 139.63L635.699 143.5C632.149 163.87 626.774 182.6 619.574 199.69C614.729 211.195 604.454 219.13 591.689 216.37C579.239 213.685 576.299 200.305 575.684 189.19C574.564 168.85 574.819 151.12 576.449 136Z" fill="#2E2E44"/>
<path d="M397.05 465.135C395.24 472.265 392.665 478.25 389.325 483.09C384 490.815 375.72 501.51 368.475 508.29C342.93 532.245 310.92 541.455 276 538.56C259.04 537.16 242.405 534.065 226.095 529.275C219.565 523.725 216.635 516.685 217.305 508.155C223.815 493.335 250.74 502.365 262.02 504.66C289.29 510.225 323.775 506.235 346.14 487.68C353.325 481.71 359.43 472.5 365.445 464.49C371.865 455.955 374.805 450.615 385.44 452.985C392.41 454.535 396.28 458.585 397.05 465.135Z" fill="#2E2E44"/>
<path d="M905.7 504.105L905.58 511.41C901.62 526.815 892.335 531.57 876.795 534.705C863.775 537.345 851.79 538.23 838.5 539C832.2 539.375 823.845 538.905 816.66 538.245C801.99 536.905 789.99 535 775 529C754 518.5 748 511.47 737 499.47C737 499.47 720.09 479.805 721.86 466.26C723.045 457.26 733.65 451.185 741.84 454.935C744.15 455.995 746.95 458.625 750.24 462.825C762.855 478.92 777.255 496.17 797.04 502.095C822.735 509.79 847.23 507.24 872.265 501.795C878.265 500.475 885.66 499.515 890.715 499.47C896.125 499.43 901.12 500.975 905.7 504.105Z" fill="#2E2E44"/>
<path d="M217.305 508.155C216.635 516.685 219.565 523.725 226.095 529.275C234.495 534.885 244.455 535.635 253.875 537.315C253.555 537.245 253.245 537.265 252.945 537.375C252.844 537.411 252.752 537.468 252.674 537.543C252.597 537.618 252.534 537.71 252.491 537.813C252.448 537.917 252.425 538.029 252.423 538.144C252.421 538.26 252.44 538.375 252.48 538.485C253.34 540.895 253.095 543.23 251.745 545.49C251.345 546.15 251.175 546.07 251.235 545.25L251.25 544.875C251.27 544.635 251.18 544.645 250.98 544.905C248.94 547.535 248.9 550.005 250.86 552.315L234.81 556.605C232.98 555.965 231.105 555.755 229.185 555.975C214.95 557.58 193.65 540.78 197.445 525.735C199.845 516.18 206.43 506.7 216.24 502.995C216.78 502.795 216.915 502.945 216.645 503.445C215.455 505.645 215.675 507.215 217.305 508.155Z" fill="#E8D9C2"/>
<path d="M886.815 556.755C880.025 553.525 872.685 551.895 864.795 551.865C864.475 549.345 863.34 547.19 861.39 545.4C861.239 545.259 861.14 545.07 861.107 544.862C861.075 544.653 861.111 544.437 861.21 544.245C862.1 542.615 862.26 540.95 861.69 539.25C880.8 535.53 902.565 535.425 905.58 511.41L905.7 504.105C914.25 508.735 919.345 515.965 920.985 525.795C921.915 531.315 921.405 536.835 918.195 541.665C911.075 552.335 900.615 557.365 886.815 556.755Z" fill="#E6DEC7"/>
<path d="M659.805 614.595C661.345 618.665 661.905 622.3 661.485 625.5C660 636.93 650.625 644.145 640.155 647.34C620.365 653.38 600.485 652.475 580.515 644.625C573.665 642.035 567.74 637.94 562.74 632.34C562.61 632.197 562.464 632.084 562.318 632.016C562.172 631.947 562.033 631.924 561.915 631.95C561.745 632 561.585 632.1 561.435 632.25C561.325 632.03 561.135 631.89 560.865 631.83C560.699 631.793 560.51 631.821 560.319 631.912C560.127 632.002 559.942 632.151 559.785 632.34C545.385 649.305 518.235 653.235 496.875 649.515C489.325 648.195 483.345 645.285 478.935 640.785C477.645 639.48 477.465 636.195 474.69 638.25C470.775 633.285 468.285 625.035 471.33 619.035C476.625 608.565 496.935 615.735 503.655 616.56C514.83 617.94 527.475 614.835 536.37 609.12C547.515 601.935 548.49 591.735 548.76 578.115C548.94 569.525 549.115 564.84 549.285 564.06C553.08 546.36 581.685 546.93 584.925 564.69C586.89 575.55 581.835 590.955 587.025 601.08C592.485 611.73 606.675 616.875 617.775 617.895C629.115 618.93 651.165 608.055 659.805 614.595Z" fill="#2E2E44"/>
<path d="M864.795 551.865C872.685 551.895 880.025 553.525 886.815 556.755C894.095 561.915 898.625 568.335 900.405 576.015C904.065 591.81 902.04 614.145 889.32 625.77C877.56 636.51 854.94 638.745 843.195 625.935C829.755 611.28 830.37 576.69 843.675 562.11C848.985 556.29 856.025 552.875 864.795 551.865Z" fill="#F19BBF"/>
<path d="M250.86 552.315C271.04 553.255 282.975 563.7 286.665 583.65C289.02 596.445 286.665 613.485 277.815 624C271.265 628.77 264.015 632.05 256.065 633.84C211.995 641.085 202.29 575.25 234.81 556.605L250.86 552.315Z" fill="#F19BBF"/>
<path d="M128.94 658.5L129.75 659.94C133.4 669.15 138.505 677.45 145.065 684.84C145.8 685.665 146.625 685.725 146.685 684.375C188.025 736.665 248.25 768.99 311.25 789C387.54 813.225 467.685 823.005 547.485 824.625C557.535 824.835 567.53 824.78 577.47 824.46C631.06 822.73 684.195 816.775 736.875 806.595C801.195 794.145 862.605 771.54 917.205 733.02C935.07 720.42 953.325 704.1 966.75 688.485C969.38 685.425 976.155 676.545 987.075 661.845C988.305 660.195 992.895 656.955 989.595 663.435C985.215 672.03 981.84 681.045 976.725 688.845C941.385 742.65 889.125 784.8 827.625 806.235C791.635 818.785 752.645 828.43 710.655 835.17C701.79 836.595 691.44 839.385 682.215 840.465C659.945 843.085 634.57 845.38 606.09 847.35C594.72 848.14 569.205 848.195 529.545 847.515C527.145 847.475 524.625 847.32 521.985 847.05C511.77 846 501.6 846.465 491.34 845.205C483.405 844.23 472.23 844.35 462.765 843.225C447.42 841.395 431.55 840.255 416.85 837.66C384.03 831.84 351.495 825.18 319.575 815.475C319.353 815.406 319.118 815.407 318.909 815.478C318.699 815.549 318.527 815.685 318.42 815.865C318.19 816.245 318.05 816.645 318 817.065C278.03 805.775 240.935 787.015 206.715 760.785C193.955 750.995 183.425 741.755 175.125 733.065C154.725 710.01 138.315 687.06 125.73 659.4C127.01 658.43 128.08 658.13 128.94 658.5Z" fill="#C9C0B1"/>
<path d="M330.5 619C297.747 590.13 367.5 513.5 367.5 513.5C367.5 513.5 433.256 590.223 401 619C390.304 628.543 381.825 633.487 367.5 634C351.918 634.559 342.196 629.31 330.5 619Z" fill="#A5D8FD"/>
</svg>
