<svg width="1146" height="891" viewBox="0 0 1146 891" xmlns="http://www.w3.org/2000/svg">
<path d="M303.29 24.775C303.29 24.775 368.775 54.8549 369.855 55.2749C368.975 56.1449 370.675 55.7249 369.855 55.2749C401.005 72.0449 430.805 92.33 458.255 114.76C458.439 114.911 458.653 115.023 458.883 115.088C459.113 115.152 459.354 115.168 459.59 115.135C472.19 113.365 484.755 111.515 497.285 109.585C507.35 108.04 517.91 107.35 528.23 106.21C556.85 103.79 585.475 103.79 614.105 106.21C634.335 108.34 654.465 111.21 674.495 114.82C674.949 114.9 675.414 114.885 675.861 114.773C676.308 114.662 676.727 114.458 677.09 114.175C700.325 96.025 725.06 78.385 750.95 63.925C800.42 36.295 852.29 12.205 908.975 2.905C965.885 -6.43998 1011.19 19.8401 1033.73 72.34C1040.38 89.52 1044.61 106.115 1048.7 119.095C1048.7 119.095 1052.1 135.015 1052.28 136.555C1055.37 162.725 1057.13 188.975 1057.55 215.305C1057.75 228.145 1056.67 242.44 1056.29 256.06C1055.62 279.535 1054.63 299.35 1053.98 321.01C1054.04 329.83 1053.53 338.75 1052.44 347.77C1059.76 384.95 1065.86 422.32 1070.75 459.88C1070.8 460.26 1071.27 465.265 1072.16 474.895C1072.62 479.895 1073.4 484.86 1074.51 489.79C1075.73 503.94 1076.04 518.175 1075.42 532.495C1075.41 532.594 1075.43 532.692 1075.46 532.785C1075.49 532.877 1075.54 532.962 1075.61 533.035C1075.67 533.107 1075.75 533.166 1075.84 533.207C1075.93 533.248 1076.02 533.271 1076.12 533.275C1088.6 533.785 1100.25 534.535 1113.5 534.64C1128.77 534.76 1150.16 534.925 1144.03 558.04C1138.79 567.18 1131.53 572.165 1122.25 572.995C1114.19 573.725 1103.81 573.07 1091.12 571.03C1089.53 570.77 1088.03 571.165 1086.61 572.215C1084.03 572.095 1073.09 569.89 1073.05 571.9C1072.85 571.88 1072.64 571.92 1072.43 572.02C1072.29 572.088 1072.16 572.211 1072.07 572.375C1071.98 572.539 1071.92 572.738 1071.9 572.95C1070.96 590.43 1068.03 607.58 1063.09 624.4C1062.57 627.09 1061.56 629.63 1060.07 632.02C1059.97 632.176 1059.91 632.352 1059.89 632.534C1059.88 632.716 1059.9 632.899 1059.96 633.068C1060.03 633.238 1060.13 633.389 1060.26 633.509C1060.4 633.629 1060.56 633.715 1060.73 633.76L1105.98 645.67C1108.96 647.61 1112.19 648.8 1115.66 649.24C1120.67 649.87 1123.41 650.27 1123.88 650.44C1129.87 652.67 1131.79 657.335 1129.64 664.435C1124.43 681.595 1110.36 685.54 1094.39 682.105C1080.22 679.075 1066.17 675.505 1052.25 671.395L1045.5 670.48C1040.9 682.26 1036.83 691.385 1033.28 697.855C1009.59 741.015 977.38 775.92 936.65 802.57C909.95 820.045 880.625 835.765 851.15 845.62C820.025 856.03 797.465 861.49 770.24 868.72C764.195 870.325 733.655 875.56 727.355 876.775L633.005 886.945L589.34 890.065C532.19 890.845 474.57 887.3 416.48 879.43C387.155 875.47 360.23 869.02 332.315 862.315C316.97 858.625 302.345 853.165 287.495 847.885C202.235 817.555 130.145 758.38 97.925 671.005C97.8571 670.824 97.7214 670.672 97.541 670.577C97.3606 670.481 97.1465 670.447 96.935 670.48L87.095 672.07C78.125 673.92 69.3 676.305 60.62 679.225C48.74 683.2 37.685 686.2 26.105 679.225C20.335 672.725 17.565 665.075 17.795 656.275C18.515 652.255 20.77 649.4 24.56 647.71C44.56 644.31 64.225 639.345 83.555 632.815C83.6546 632.784 83.7467 632.733 83.8254 632.666C83.9042 632.598 83.9676 632.515 84.0116 632.423C84.0556 632.331 84.0791 632.231 84.0805 632.131C84.082 632.03 84.0614 631.931 84.02 631.84C75.5 613.17 70.95 593.57 70.37 573.04C70.3689 572.945 70.3463 572.851 70.3037 572.764C70.2611 572.677 70.1994 572.599 70.1223 572.534C70.0452 572.47 69.9542 572.42 69.855 572.388C69.7558 572.357 69.6504 572.344 69.5451 572.35C53.9351 573.17 41.67 574.1 32.75 575.14C12.67 577.46 1.92003 568.885 0.500028 549.415C-0.429972 536.605 11.885 535.54 22.82 535C36.85 534.33 50.875 533.59 64.895 532.78C65.0995 532.773 65.2936 532.688 65.4383 532.543C65.583 532.399 65.6676 532.205 65.675 532C65.865 526.24 66.06 515.92 66.26 501.04C66.68 468.925 69.8901 433.45 75.9201 399.775C78.9201 381.235 82.89 362.865 87.83 344.665C84.125 290.605 79.2801 220.09 84.1701 159.775C87.4501 133.725 93.455 108.34 102.185 83.62C104.595 78.21 107.02 72.815 109.46 67.435C131.12 19.6451 171.755 -6.03502 225.26 2.25997C252.91 6.55996 278.92 14.065 303.29 24.775ZM132.23 275.725C133.74 280.795 133.965 285.915 132.905 291.085C132.785 291.625 132.94 291.815 133.37 291.655C133.82 291.49 138.575 281.485 139.295 280.15C151.745 260.06 165.535 240.935 180.665 222.775C189.615 212.745 198.61 202.765 207.65 192.835C218.33 181.09 232.235 172.03 248.735 177.595C259.415 181.195 260.045 193.3 254.54 201.775C252.03 203.225 249.91 205.185 248.18 207.655C247.897 208.055 247.505 208.358 247.055 208.525C223.895 217.285 206.735 238.6 191.345 258.4C150.77 310.585 123.98 376.255 114.74 441.61C110.54 471.385 106.805 501.925 108.26 531.985C108.35 533.945 109.375 534.97 111.335 535.06C122.725 535.58 133.855 536.115 144.725 536.665C151.715 537.01 157.925 538.555 159.11 545.92C160.58 555.13 153.65 567.355 144.23 568.975C136.78 570.245 129.27 571.07 121.7 571.45C118.57 572.08 115.08 572.1 111.23 571.51C112.05 586.68 115.555 601.215 121.745 615.115L124.505 622.63C124.586 622.851 124.717 623.04 124.876 623.166C125.035 623.293 125.212 623.347 125.375 623.32L127.355 623.005C136.275 622.325 144.845 620.245 153.065 616.765C158.695 614.025 164.035 614.085 169.085 616.945C171.715 620.275 173.315 623.51 173.885 626.65C177.44 646.315 155.945 649.87 142.61 653.8C142.382 653.87 142.178 653.968 142.017 654.085C141.855 654.202 141.74 654.336 141.68 654.475C141.53 654.805 141.63 655.05 141.98 655.21L139.295 656.275C138.435 655.905 137.365 656.205 136.085 657.175C138.265 666.905 142.97 676.87 150.2 687.07C165.36 708.44 176.115 723.055 182.465 730.915C183.205 731.835 184.21 731.81 185.48 730.84C193.78 739.53 204.31 748.77 217.07 758.56C251.29 784.79 288.385 803.55 328.355 814.84C364.095 825.75 398.845 833.525 432.605 838.165C515.66 849.58 602.675 850.885 686.96 840.52C706.49 838.105 727.115 833.47 746.615 829.96C803.795 819.64 863.945 801.175 910.82 768.865C923.9 759.845 937.565 748.19 951.815 733.9C974.105 711.535 991.745 686.26 1004.11 656.86C1004.14 656.777 1004.15 656.688 1004.15 656.599C1004.14 656.51 1004.12 656.424 1004.07 656.347C1004.03 656.27 1003.97 656.205 1003.9 656.156C1003.82 656.107 1003.74 656.076 1003.66 656.065C993.585 654.615 986.645 652.9 982.835 650.92C971.84 645.235 964.835 634.705 969.455 622.405C975.635 605.95 1005.19 618.865 1016.57 622.15C1016.71 622.19 1016.85 622.202 1016.99 622.185C1017.13 622.168 1017.27 622.123 1017.39 622.051C1017.51 621.98 1017.62 621.885 1017.71 621.77C1017.8 621.656 1017.87 621.525 1017.91 621.385C1022.51 605.405 1025.82 589.165 1027.85 572.665C1027.86 572.556 1027.85 572.445 1027.82 572.34C1027.79 572.235 1027.74 572.137 1027.67 572.054C1027.6 571.971 1027.51 571.904 1027.41 571.856C1027.31 571.809 1027.21 571.783 1027.1 571.78C1007.27 571.06 984.11 577.435 982.715 549.505C982.22 539.5 987.605 535.435 997.34 534.79C1008.05 534.07 1018.79 533.435 1029.56 532.885C1029.76 532.874 1029.95 532.787 1030.09 532.642C1030.23 532.498 1030.31 532.306 1030.31 532.105C1030.79 460.06 1015.76 385.72 980.75 323.005C958.68 283.465 930.345 247.68 895.745 215.65C892.155 212.33 887.95 209.765 883.13 207.955C878.61 201.995 876.085 195.945 875.555 189.805C876.835 184.225 879.83 180.215 884.54 177.775C894.17 174.415 902.775 176.06 910.355 182.71C909.725 183.17 909.445 183.76 909.515 184.48C909.53 184.683 909.601 184.897 909.725 185.106C909.85 185.315 914.143 189.096 914.355 189.275C917.715 192.195 916.76 191.72 919.73 195.01C923.615 199.3 928.805 201.355 932.63 205.57C938.78 212.32 945.89 220.9 953.96 231.31C956.99 235.21 961.91 240.085 965.78 245.38C970.265 251.515 975.92 257.575 980.09 262.99C982.22 265.765 989.96 277.405 993.23 277.09L1007.71 295.795C1008.02 296.185 1008.21 296.135 1008.29 295.645C1008.65 293.425 1008.17 290.695 1008.34 288.745C1011.91 245.515 1009.53 209.11 1004.09 164.65C1003.08 156.43 1000.86 145.555 997.415 132.025C992.465 106.12 984.29 75.1 962.87 56.275C961.49 55.065 957.175 53.07 949.925 50.29C944.915 47.42 939.225 46.405 932.855 47.245C873.815 55.015 818.705 74.5451 766.88 103.495C741.21 117.835 719.57 130.63 701.96 141.88C693.065 147.565 686.33 150.76 675.575 149.425C662.745 147.845 649.97 145.85 637.25 143.44C635.825 143.17 634.325 143.77 633.11 143.23C630.59 142.12 628.775 141.805 626.105 142.84L585.98 139.21L556.88 138.82L530.84 140.11C522.35 140.21 513.935 140.98 505.595 142.42C491.675 144.83 484.655 146.04 484.535 146.05C473.405 147.58 456.875 151.825 444.77 148.18C443.01 147.65 441.18 147.395 439.28 147.415C434.6 144.685 422.47 137.21 402.89 124.99C381.24 111.48 354.55 97.23 322.82 82.24C309.9 74.71 296.115 69.345 281.465 66.145L254.09 58C241.82 53.6 229.26 50.435 216.41 48.505C198.005 45.745 175.835 48.58 165.485 66.295C154.835 84.55 149 102.415 143.3 124.375C136.625 150.01 131.75 177.085 131.57 203.65C131.52 211.1 131.03 227.945 130.1 254.185C129.84 261.475 130.55 268.655 132.23 275.725Z" />
<path d="M545.525 136C546.285 149.4 546.045 164.17 544.805 180.31C544.115 189.16 543.085 196.56 541.715 202.51C538.76 215.32 527.645 220.57 516.035 215.41C506.9 211.36 502.505 201.91 499.34 192.55C493.83 176.29 489.05 159.82 485 143.14C496.37 140.7 507.865 138.75 519.485 137.29L545.525 136Z" />
<path d="M576.449 136L616.574 139.63L635.699 143.5C632.149 163.87 626.774 182.6 619.574 199.69C614.729 211.195 604.454 219.13 591.689 216.37C579.239 213.685 576.299 200.305 575.684 189.19C574.564 168.85 574.819 151.12 576.449 136Z" />
<path d="M397.05 465.135C395.24 472.265 392.665 478.25 389.325 483.09C384 490.815 375.72 501.51 368.475 508.29C342.93 532.245 310.92 541.455 276 538.56C259.04 537.16 242.405 534.065 226.095 529.275C219.565 523.725 216.635 516.685 217.305 508.155C223.815 493.335 250.74 502.365 262.02 504.66C289.29 510.225 323.775 506.235 346.14 487.68C353.325 481.71 359.43 472.5 365.445 464.49C371.865 455.955 374.805 450.615 385.44 452.985C392.41 454.535 396.28 458.585 397.05 465.135Z" />
<path d="M905.7 504.105L905.58 511.41C901.62 526.815 892.335 531.57 876.795 534.705C863.775 537.345 851.79 538.23 838.5 539C832.2 539.375 823.845 538.905 816.66 538.245C801.99 536.905 789.99 535 775 529C754 518.5 748 511.47 737 499.47C737 499.47 720.09 479.805 721.86 466.26C723.045 457.26 733.65 451.185 741.84 454.935C744.15 455.995 746.95 458.625 750.24 462.825C762.855 478.92 777.255 496.17 797.04 502.095C822.735 509.79 847.23 507.24 872.265 501.795C878.265 500.475 885.66 499.515 890.715 499.47C896.125 499.43 901.12 500.975 905.7 504.105Z" />
<path d="M659.805 614.595C661.345 618.665 661.905 622.3 661.485 625.5C660 636.93 650.625 644.145 640.155 647.34C620.365 653.38 600.485 652.475 580.515 644.625C573.665 642.035 567.74 637.94 562.74 632.34C562.61 632.197 562.464 632.084 562.318 632.016C562.173 631.947 562.033 631.924 561.915 631.95C561.745 632 561.585 632.1 561.435 632.25C561.325 632.03 561.135 631.89 560.865 631.83C560.699 631.793 560.51 631.821 560.319 631.912C560.128 632.002 559.942 632.151 559.785 632.34C545.385 649.305 518.235 653.235 496.875 649.515C489.325 648.195 483.345 645.285 478.935 640.785C477.645 639.48 477.465 636.195 474.69 638.25C470.775 633.285 468.285 625.035 471.33 619.035C476.625 608.565 496.935 615.735 503.655 616.56C514.83 617.94 527.475 614.835 536.37 609.12C547.515 601.935 548.49 591.735 548.76 578.115C548.94 569.525 549.115 564.84 549.285 564.06C553.08 546.36 581.685 546.93 584.925 564.69C586.89 575.55 581.835 590.955 587.025 601.08C592.485 611.73 606.675 616.875 617.775 617.895C629.115 618.93 651.165 608.055 659.805 614.595Z" />
<path d="M864.795 551.865C872.685 551.895 880.025 553.525 886.815 556.755C894.095 561.915 898.625 568.335 900.405 576.015C904.065 591.81 902.04 614.145 889.32 625.77C877.56 636.51 854.94 638.745 843.195 625.935C829.755 611.28 830.37 576.69 843.675 562.11C848.985 556.29 856.025 552.875 864.795 551.865Z" />
<path d="M250.86 552.315C271.04 553.255 282.975 563.7 286.665 583.65C289.02 596.445 286.665 613.485 277.815 624C271.265 628.77 264.015 632.05 256.065 633.84C211.995 641.085 202.29 575.25 234.81 556.605L250.86 552.315Z" />
</svg>
