<svg width="1145" height="1154" viewBox="0 0 1145 1154" fill="none" xmlns="http://www.w3.org/2000/svg">
<path d="M302.84 287.612C302.84 287.612 368.325 317.692 369.405 318.112C368.525 318.982 370.225 318.562 369.405 318.112C400.555 334.882 430.355 355.167 457.805 377.597C457.989 377.749 458.203 377.86 458.433 377.925C458.663 377.989 458.903 378.005 459.14 377.972C471.74 376.202 484.305 374.352 496.835 372.422C506.9 370.877 517.46 370.187 527.78 369.047C556.4 366.627 585.025 366.627 613.655 369.047C633.885 371.177 654.015 374.047 674.045 377.657C674.498 377.738 674.964 377.722 675.411 377.611C675.858 377.499 676.276 377.296 676.64 377.012C699.875 358.862 724.61 341.222 750.5 326.762C799.97 299.132 851.84 275.042 908.525 265.742C965.435 256.397 1010.73 282.677 1033.28 335.177C1039.93 352.357 1044.16 368.952 1048.25 381.932C1048.25 381.932 1051.65 397.852 1051.83 399.392C1054.92 425.562 1056.68 451.812 1057.1 478.142C1057.29 490.982 1056.21 505.277 1055.84 518.897C1055.16 542.372 1054.17 562.187 1053.53 583.847C1053.59 592.667 1053.07 601.587 1051.98 610.607C1059.3 647.787 1065.41 685.157 1070.3 722.717C1070.35 723.097 1070.82 728.102 1071.71 737.732C1072.17 742.732 1072.95 747.697 1074.06 752.627C1075.28 766.777 1075.58 781.012 1074.96 795.332C1074.96 795.431 1074.98 795.529 1075.01 795.622C1075.04 795.714 1075.09 795.799 1075.16 795.872C1075.22 795.944 1075.3 796.003 1075.39 796.044C1075.48 796.085 1075.57 796.108 1075.67 796.112C1088.15 796.622 1099.8 797.372 1113.05 797.477C1128.32 797.597 1149.71 797.762 1143.57 820.877C1138.33 830.017 1131.07 835.002 1121.79 835.832C1113.73 836.562 1103.36 835.907 1090.67 833.867C1089.08 833.607 1087.57 834.002 1086.15 835.052C1083.57 834.932 1072.64 832.727 1072.59 834.737C1072.39 834.717 1072.19 834.757 1071.98 834.857C1071.84 834.925 1071.71 835.048 1071.62 835.212C1071.52 835.376 1071.47 835.575 1071.45 835.787C1070.51 853.267 1067.57 870.417 1062.63 887.237C1062.11 889.927 1061.11 892.467 1059.62 894.857C1059.52 895.013 1059.46 895.189 1059.44 895.371C1059.43 895.553 1059.45 895.736 1059.51 895.906C1059.58 896.075 1059.68 896.226 1059.81 896.346C1059.95 896.466 1060.11 896.552 1060.28 896.597L1105.53 908.507C1108.51 910.447 1111.74 911.637 1115.21 912.077C1120.22 912.707 1122.96 913.107 1123.43 913.277C1129.42 915.507 1131.34 920.172 1129.19 927.272C1123.98 944.432 1109.91 948.377 1093.94 944.942C1079.77 941.912 1065.72 938.342 1051.8 934.232L1045.05 933.317C1040.45 945.097 1036.38 954.222 1032.83 960.692C1009.14 1003.85 976.93 1038.76 936.2 1065.41C909.5 1082.88 880.175 1098.6 850.7 1108.46C819.575 1118.87 797.015 1124.33 769.79 1131.56C763.745 1133.16 733.205 1138.4 726.905 1139.61L632.555 1149.78L588.89 1152.9C531.74 1153.68 474.12 1150.14 416.03 1142.27C386.705 1138.31 359.78 1131.86 331.865 1125.15C316.52 1121.46 301.895 1116 287.045 1110.72C201.785 1080.39 129.695 1021.22 97.4746 933.842C97.4067 933.661 97.271 933.509 97.0906 933.414C96.9102 933.318 96.6961 933.284 96.4846 933.317L86.6446 934.907C77.6746 936.757 68.8496 939.142 60.1696 942.062C48.2896 946.037 37.2346 949.037 25.6546 942.062C19.8846 935.562 17.1146 927.912 17.3446 919.112C18.0646 915.092 20.3196 912.237 24.1096 910.547C44.1096 907.147 63.7746 902.182 83.1046 895.652C83.2042 895.621 83.2963 895.57 83.375 895.503C83.4538 895.435 83.5172 895.353 83.5612 895.26C83.6052 895.168 83.6287 895.068 83.6301 894.968C83.6316 894.867 83.611 894.768 83.5696 894.677C75.0496 876.007 70.4996 856.407 69.9196 835.877C69.9185 835.782 69.8959 835.688 69.8533 835.601C69.8107 835.514 69.749 835.436 69.6719 835.371C69.5948 835.307 69.5038 835.257 69.4046 835.226C69.3054 835.194 69.2 835.181 69.0947 835.187C53.4846 836.007 41.2196 836.937 32.2996 837.977C12.2196 840.297 1.46963 831.722 0.0496271 812.252C-0.880373 799.442 11.4346 798.377 22.3696 797.837C36.3996 797.167 50.4246 796.427 64.4446 795.617C64.6491 795.61 64.8432 795.525 64.9879 795.38C65.1326 795.236 65.2172 795.042 65.2246 794.837C65.4146 789.077 65.6096 778.757 65.8096 763.877C66.2296 731.762 69.4397 696.287 75.4697 662.612C78.4697 644.072 82.4396 625.702 87.3796 607.502C83.6746 553.442 78.8297 482.927 83.7197 422.612C86.9997 396.562 93.0046 371.177 101.735 346.457C104.145 341.047 106.57 335.652 109.01 330.272C130.67 282.482 171.305 256.802 224.81 265.097C252.46 269.397 278.47 276.902 302.84 287.612ZM131.78 538.562C133.29 543.632 133.515 548.752 132.455 553.922C132.335 554.462 132.49 554.652 132.92 554.492C133.37 554.327 138.125 544.322 138.845 542.987C151.295 522.897 165.085 503.772 180.215 485.612C189.165 475.582 198.16 465.602 207.2 455.672C217.88 443.927 231.785 434.867 248.285 440.432C258.965 444.032 259.595 456.137 254.09 464.612C251.58 466.062 249.46 468.022 247.73 470.492C247.447 470.892 247.055 471.196 246.605 471.362C223.445 480.122 206.285 501.437 190.895 521.237C150.32 573.422 123.53 639.092 114.29 704.447C110.09 734.222 106.355 764.762 107.81 794.822C107.9 796.782 108.925 797.807 110.885 797.897C122.275 798.417 133.405 798.952 144.275 799.502C151.265 799.847 157.475 801.392 158.66 808.757C160.13 817.967 153.2 830.192 143.78 831.812C136.33 833.082 128.82 833.907 121.25 834.287C118.12 834.917 114.63 834.937 110.78 834.347C111.6 849.517 115.105 864.052 121.295 877.952L124.055 885.467C124.135 885.688 124.267 885.877 124.426 886.004C124.585 886.13 124.761 886.184 124.925 886.157L126.905 885.842C135.825 885.162 144.395 883.082 152.615 879.602C158.245 876.862 163.585 876.922 168.635 879.782C171.265 883.112 172.865 886.347 173.435 889.487C176.99 909.152 155.495 912.707 142.16 916.637C141.931 916.707 141.728 916.805 141.566 916.922C141.405 917.039 141.289 917.173 141.23 917.312C141.08 917.642 141.18 917.887 141.53 918.047L138.845 919.112C137.985 918.742 136.915 919.042 135.635 920.012C137.815 929.742 142.52 939.707 149.75 949.907C164.91 971.277 175.665 985.892 182.015 993.752C182.755 994.672 183.76 994.647 185.03 993.677C193.33 1002.37 203.86 1011.61 216.62 1021.4C250.84 1047.63 287.935 1066.39 327.905 1077.68C363.645 1088.59 398.395 1096.36 432.155 1101C515.21 1112.42 602.225 1113.72 686.51 1103.36C706.04 1100.94 726.665 1096.31 746.165 1092.8C803.345 1082.48 863.495 1064.01 910.37 1031.7C923.45 1022.68 937.115 1011.03 951.365 996.737C973.655 974.372 991.295 949.097 1003.65 919.697C1003.69 919.614 1003.7 919.525 1003.7 919.436C1003.69 919.347 1003.67 919.261 1003.62 919.184C1003.58 919.107 1003.52 919.042 1003.45 918.993C1003.37 918.944 1003.29 918.913 1003.2 918.902C993.135 917.452 986.195 915.737 982.385 913.757C971.39 908.072 964.385 897.542 969.005 885.242C975.185 868.787 1004.73 881.702 1016.12 884.987C1016.26 885.027 1016.4 885.039 1016.54 885.022C1016.68 885.005 1016.82 884.96 1016.94 884.888C1017.06 884.817 1017.17 884.722 1017.26 884.607C1017.35 884.493 1017.42 884.362 1017.45 884.222C1022.05 868.242 1025.37 852.002 1027.4 835.502C1027.41 835.393 1027.4 835.282 1027.37 835.177C1027.34 835.072 1027.29 834.974 1027.22 834.891C1027.15 834.808 1027.06 834.741 1026.96 834.693C1026.86 834.646 1026.76 834.62 1026.65 834.617C1006.82 833.897 983.66 840.272 982.265 812.342C981.77 802.337 987.155 798.272 996.89 797.627C1007.6 796.907 1018.34 796.272 1029.11 795.722C1029.31 795.711 1029.5 795.624 1029.64 795.479C1029.78 795.335 1029.86 795.143 1029.86 794.942C1030.34 722.897 1015.31 648.557 980.3 585.842C958.23 546.302 929.895 510.517 895.295 478.487C891.705 475.167 887.5 472.602 882.68 470.792C878.16 464.832 875.635 458.782 875.105 452.642C876.385 447.062 879.38 443.052 884.09 440.612C893.72 437.252 902.325 438.897 909.905 445.547C909.275 446.007 908.995 446.597 909.065 447.317C909.079 447.52 909.151 447.734 909.275 447.943C909.399 448.152 913.693 451.933 913.905 452.112C917.265 455.032 916.31 454.557 919.28 457.847C923.165 462.137 928.355 464.192 932.18 468.407C938.33 475.157 945.44 483.737 953.51 494.147C956.54 498.047 961.46 502.922 965.33 508.217C969.815 514.352 975.47 520.412 979.64 525.827C981.77 528.602 989.51 540.242 992.78 539.927L1007.25 558.632C1007.56 559.022 1007.76 558.972 1007.84 558.482C1008.2 556.262 1007.72 553.532 1007.88 551.582C1011.45 508.352 1009.08 471.947 1003.64 427.487C1002.63 419.267 1000.4 408.392 996.965 394.862C992.015 368.957 983.84 337.937 962.42 319.112C961.04 317.902 956.725 315.907 949.475 313.127C944.465 310.257 938.775 309.242 932.405 310.082C873.365 317.852 818.255 337.382 766.43 366.332C740.76 380.672 719.12 393.467 701.51 404.717C692.615 410.402 685.88 413.597 675.125 412.262C662.295 410.682 649.52 408.687 636.8 406.277C635.375 406.007 633.875 406.607 632.66 406.067C630.14 404.957 628.325 404.642 625.655 405.677L585.53 402.047L556.43 401.657L530.39 402.947C521.9 403.047 513.485 403.817 505.145 405.257C491.225 407.667 484.205 408.877 484.085 408.887C472.955 410.417 456.425 414.662 444.32 411.017C442.56 410.487 440.73 410.232 438.83 410.252C434.15 407.522 422.02 400.047 402.44 387.827C380.79 374.317 354.1 360.067 322.37 345.077C309.45 337.547 295.665 332.182 281.015 328.982L253.64 320.837C241.37 316.437 228.81 313.272 215.96 311.342C197.555 308.582 175.385 311.417 165.035 329.132C154.385 347.387 148.55 365.252 142.85 387.212C136.175 412.847 131.3 439.922 131.12 466.487C131.07 473.937 130.58 490.782 129.65 517.022C129.39 524.312 130.1 531.492 131.78 538.562Z" fill="#2E2E44"/>
<path d="M243.285 323.062L270.66 331.207L303.735 344.587C302.735 348.437 300.635 351.522 297.435 353.842C297.036 354.134 296.746 354.534 296.61 354.982C295.02 359.947 293.805 366.502 289.83 370.162C283.46 376.012 278.44 383.067 274.77 391.327C256.56 378.637 229.23 361.207 206.4 362.242C178.005 363.532 155.565 378.397 135.855 397.747C135.467 398.135 135.027 398.379 134.61 398.437L131.55 398.842C137.505 375.517 144.48 348.217 157.875 328.912C174.33 305.227 218.025 316.852 243.285 323.062Z" fill="#F3F0D8"/>
<path d="M939.12 315.352C946.37 318.132 950.685 320.127 952.065 321.337C973.485 340.162 981.66 371.182 986.61 397.087C987.29 399.327 987.05 400.412 985.89 400.342C985.689 400.328 985.484 400.245 985.294 400.1C985.105 399.956 984.938 399.755 984.81 399.517C983.97 397.967 982.99 396.727 981.87 395.797C964.2 381.052 938.49 364.087 914.865 361.702C893.79 359.557 870.255 369.982 853.125 381.832C856.725 376.432 856.29 371.707 851.82 367.657C851.03 366.947 850.655 365.532 850.695 363.412C850.679 363.386 850.589 363.315 850.44 363.213C850.291 363.111 850.094 362.985 849.885 362.857L844.545 359.572C844.254 359.394 843.97 359.225 843.743 359.093C843.516 358.962 843.359 358.877 843.3 358.852C842.7 358.952 842.445 358.697 842.535 358.087C842.57 357.85 842.537 357.609 842.438 357.39C842.34 357.172 842.18 356.987 841.98 356.857C839.31 355.177 834.45 353.257 835.215 349.402C835.845 346.282 835.35 344.152 833.835 341.557C833.545 341.065 833.432 340.54 833.52 340.087C833.93 337.867 833.095 336.907 831.015 337.207C830.987 337.212 830.959 337.206 830.936 337.189C830.912 337.172 830.893 337.144 830.88 337.109C830.866 337.073 830.859 337.03 830.859 336.985C830.859 336.939 830.866 336.892 830.88 336.847C830.94 336.657 830.955 336.467 830.925 336.277C851.135 328.447 874.135 322.217 899.925 317.587C914.355 314.997 927.42 314.252 939.12 315.352Z" fill="#F3F0D8"/>
<path d="M830.925 336.277C830.955 336.467 830.94 336.657 830.88 336.847C830.866 336.892 830.859 336.939 830.859 336.985C830.859 337.03 830.866 337.073 830.88 337.109C830.893 337.144 830.912 337.172 830.936 337.189C830.959 337.206 830.987 337.212 831.015 337.207C833.095 336.907 833.93 337.867 833.52 340.087C833.432 340.54 833.545 341.065 833.835 341.557C835.35 344.152 835.845 346.282 835.215 349.402C834.45 353.257 839.31 355.177 841.98 356.857C842.18 356.987 842.34 357.172 842.438 357.39C842.537 357.609 842.57 357.85 842.535 358.087C842.445 358.697 842.7 358.952 843.3 358.852C843.359 358.877 843.516 358.962 843.743 359.093C843.97 359.225 844.254 359.394 844.545 359.572L849.885 362.857C850.094 362.985 850.291 363.111 850.44 363.213C850.589 363.315 850.679 363.386 850.695 363.412C850.655 365.532 851.03 366.947 851.82 367.657C856.29 371.707 856.725 376.432 853.125 381.832C836.885 392.242 821.435 403.782 806.775 416.452C803.185 419.552 800.245 422.827 797.955 426.277C797.685 426.691 797.553 427.181 797.58 427.674C797.607 428.168 797.791 428.64 798.105 429.022C802.585 434.512 807.505 439.522 812.865 444.052C830.215 458.702 850.035 468.357 872.325 473.017C877.145 474.827 881.35 477.392 884.94 480.712C919.54 512.742 947.875 548.527 969.945 588.067C1004.95 650.782 1019.98 725.122 1019.5 797.167C1019.5 797.368 1019.42 797.56 1019.28 797.704C1019.14 797.849 1018.95 797.936 1018.75 797.947C1007.98 798.497 997.245 799.132 986.535 799.852C976.8 800.497 971.415 804.562 971.91 814.567C973.305 842.497 996.465 836.122 1016.29 836.842C1016.4 836.845 1016.51 836.871 1016.61 836.918C1016.7 836.966 1016.79 837.033 1016.86 837.116C1016.93 837.199 1016.98 837.297 1017.02 837.402C1017.05 837.507 1017.06 837.618 1017.04 837.727C1015.01 854.227 1011.7 870.467 1007.1 886.447C1007.06 886.587 1006.99 886.718 1006.91 886.832C1006.82 886.947 1006.71 887.042 1006.58 887.113C1006.46 887.185 1006.32 887.23 1006.18 887.247C1006.04 887.264 1005.9 887.252 1005.76 887.212C994.38 883.927 964.83 871.012 958.65 887.467C954.03 899.767 961.035 910.297 972.03 915.982C975.84 917.962 982.78 919.677 992.85 921.127C992.936 921.138 993.018 921.169 993.091 921.218C993.163 921.267 993.223 921.332 993.267 921.409C993.31 921.486 993.336 921.572 993.341 921.661C993.347 921.75 993.333 921.839 993.3 921.922C980.94 951.322 963.3 976.597 941.01 998.962C926.76 1013.25 913.095 1024.91 900.015 1033.93C853.14 1066.24 792.99 1084.7 735.81 1095.02C716.31 1098.53 695.685 1103.17 676.155 1105.58C591.87 1115.95 504.855 1114.64 421.8 1103.23C388.04 1098.59 353.29 1090.81 317.55 1079.9C317.6 1079.48 317.74 1079.08 317.97 1078.7C318.077 1078.52 318.249 1078.39 318.458 1078.32C318.668 1078.24 318.903 1078.24 319.125 1078.31C351.045 1088.02 383.58 1094.68 416.4 1100.5C431.1 1103.09 446.97 1104.23 462.315 1106.06C471.78 1107.19 482.955 1107.07 490.89 1108.04C501.15 1109.3 511.32 1108.84 521.535 1109.89C524.175 1110.16 526.695 1110.31 529.095 1110.35C568.755 1111.03 594.27 1110.98 605.64 1110.19C634.12 1108.22 659.495 1105.92 681.765 1103.3C690.99 1102.22 701.34 1099.43 710.205 1098.01C752.195 1091.27 791.185 1081.62 827.175 1069.07C888.675 1047.64 940.935 1005.49 976.275 951.682C981.39 943.882 984.765 934.867 989.145 926.272C992.445 919.792 987.855 923.032 986.625 924.682C975.705 939.382 968.93 948.262 966.3 951.322C952.875 966.937 934.62 983.257 916.755 995.857C862.155 1034.38 800.745 1056.98 736.425 1069.43C683.745 1079.61 630.61 1085.57 577.02 1087.3C567.08 1087.62 557.085 1087.67 547.035 1087.46C467.235 1085.84 387.09 1076.06 310.8 1051.84C247.8 1031.83 187.575 999.502 146.235 947.212C140.765 940.202 135.715 932.357 131.085 923.677C130.735 923.037 130.14 922.737 129.3 922.777L128.49 921.337L131.175 920.272C146.565 917.167 170.955 911.617 164.655 889.732C163.635 886.222 161.51 883.647 158.28 882.007C153.23 879.147 147.89 879.087 142.26 881.827C133.39 882.887 124.82 884.967 116.55 888.067L114.57 888.382C114.406 888.409 114.23 888.355 114.071 888.228C113.912 888.102 113.78 887.913 113.7 887.692L110.94 880.177L100.425 836.572C104.275 837.162 107.765 837.142 110.895 836.512C117.555 837.732 124.2 837.767 130.83 836.617C139.53 835.117 145.4 830.237 148.44 821.977C153.12 809.317 146.865 800.827 134.34 800.242C122.83 799.712 111.38 799.147 99.9896 798.547C99.7097 798.532 99.4464 798.41 99.2538 798.206C99.0613 798.002 98.9542 797.732 98.9546 797.452C98.8346 761.512 101.73 729.262 108.165 691.072C110.235 678.757 114.03 666.487 117.345 654.262C133.305 595.432 162.57 543.592 204.255 498.292C214.325 487.342 225.64 479.317 238.2 474.217C239.895 474.142 241.26 474.652 242.985 473.962C266.46 464.722 287.775 449.977 308.115 432.667C310.365 430.757 311.82 428.927 312.48 427.177C313.47 424.517 312.935 422.212 310.875 420.262C299.555 409.522 287.52 399.877 274.77 391.327C278.44 383.067 283.46 376.012 289.83 370.162C293.805 366.502 295.02 359.947 296.61 354.982C296.746 354.534 297.036 354.134 297.435 353.842C300.635 351.522 302.735 348.437 303.735 344.587L312.015 347.302C343.745 362.292 370.435 376.542 392.085 390.052C411.665 402.272 423.795 409.747 428.475 412.477C434.315 415.727 441.495 416.877 450.015 415.927C461.905 414.607 473.75 412.972 485.55 411.022C489.6 427.702 494.38 444.172 499.89 460.432C503.055 469.792 507.45 479.242 516.585 483.292C528.195 488.452 539.31 483.202 542.265 470.392C543.635 464.442 544.665 457.042 545.355 448.192C546.595 432.052 546.835 417.282 546.075 403.882L575.175 404.272C573.545 419.392 573.29 437.122 574.41 457.462C575.025 468.577 577.965 481.957 590.415 484.642C603.18 487.402 613.455 479.467 618.3 467.962C625.5 450.872 630.875 432.142 634.425 411.772C648.3 414.067 668.655 420.007 681.555 414.217C689.61 410.602 700.365 403.132 705.855 399.802C746.415 375.187 786.015 352.342 830.925 336.277ZM216.855 770.992C215.225 770.052 215.005 768.482 216.195 766.282C216.465 765.782 216.33 765.632 215.79 765.832C205.98 769.537 199.395 779.017 196.995 788.572C193.2 803.617 214.5 820.417 228.735 818.812C230.655 818.592 232.53 818.802 234.36 819.442C201.84 838.087 211.545 903.922 255.615 896.677C264.275 896.247 271.525 892.967 277.365 886.837C286.215 876.322 288.57 859.282 286.215 846.487C282.525 826.537 270.59 816.092 250.41 815.152C248.45 812.842 248.49 810.372 250.53 807.742C250.73 807.482 250.82 807.472 250.8 807.712L250.785 808.087C250.725 808.907 250.895 808.987 251.295 808.327C252.645 806.067 252.89 803.732 252.03 801.322C251.99 801.212 251.971 801.097 251.972 800.981C251.974 800.866 251.998 800.754 252.041 800.651C252.084 800.547 252.146 800.455 252.224 800.38C252.302 800.305 252.394 800.248 252.495 800.212C252.795 800.102 253.105 800.082 253.425 800.152C260.025 801.232 266.645 802.137 273.285 802.867C318.765 807.892 356.745 791.062 384.21 755.197C392.085 744.937 396.915 739.342 396.6 727.972C395.83 721.422 391.96 717.372 384.99 715.822C374.355 713.452 371.415 718.792 364.995 727.327C358.98 735.337 352.875 744.547 345.69 750.517C323.325 769.072 288.84 773.062 261.57 767.497C250.29 765.202 223.365 756.172 216.855 770.992ZM771.72 790.072C777.07 793.482 783.585 796.207 791.265 798.247C814.935 804.517 838.26 805.797 861.24 802.087C861.81 803.787 861.65 805.452 860.76 807.082C860.661 807.274 860.624 807.49 860.657 807.699C860.689 807.907 860.789 808.096 860.94 808.237C862.89 810.027 864.025 812.182 864.345 814.702C855.575 815.712 848.535 819.127 843.225 824.947C829.92 839.527 829.305 874.117 842.745 888.772C854.49 901.582 877.11 899.347 888.87 888.607C901.59 876.982 903.615 854.647 899.955 838.852C898.175 831.172 893.645 824.752 886.365 819.592C900.165 820.202 910.625 815.172 917.745 804.502C920.955 799.672 921.465 794.152 920.535 788.632C918.895 778.802 913.8 771.572 905.25 766.942C900.67 763.812 895.675 762.267 890.265 762.307C885.21 762.352 877.815 763.312 871.815 764.632C846.78 770.077 822.285 772.627 796.59 764.932C776.805 759.007 762.405 741.757 749.79 725.662C746.5 721.462 743.7 718.832 741.39 717.772C733.2 714.022 722.595 720.097 721.41 729.097C719.64 742.642 741.825 765.787 749.79 774.082C756.23 780.802 763.54 786.132 771.72 790.072ZM474.24 901.087C478.69 907.417 484.97 911.552 493.08 913.492C518.18 919.492 540.25 914.292 559.29 897.892C560.13 897.162 560.695 896.227 560.985 895.087C561.135 894.937 561.295 894.837 561.465 894.787C561.582 894.761 561.722 894.784 561.868 894.853C562.014 894.922 562.16 895.034 562.29 895.177C567.29 900.777 573.215 904.872 580.065 907.462C598.485 916.512 617.62 918.352 637.47 912.982C650.91 909.337 671.37 892.717 659.355 877.432C650.715 870.892 628.665 881.767 617.325 880.732C606.225 879.712 592.035 874.567 586.575 863.917C581.385 853.792 586.44 838.387 584.475 827.527C581.235 809.767 552.63 809.197 548.835 826.897C548.665 827.677 548.49 832.362 548.31 840.952C548.04 854.572 547.065 864.772 535.92 871.957C527.025 877.672 514.38 880.777 503.205 879.397C496.485 878.572 476.175 871.402 470.88 881.872C467.835 887.872 470.325 896.122 474.24 901.087Z" fill="#FEFEE6"/>
<path d="M986.61 397.087C990.05 410.617 992.275 421.492 993.285 429.712C998.73 474.172 1001.1 510.577 997.53 553.807C997.365 555.757 997.844 558.487 997.484 560.707C997.404 561.197 997.21 561.247 996.9 560.857L982.425 542.152C971.945 528.092 957.975 510.207 940.515 488.497C927.865 472.757 914.21 459.182 899.55 447.772C891.97 441.122 883.364 439.477 873.734 442.837C873.934 442.467 873.95 442.122 873.78 441.802C873.687 441.634 873.513 441.516 873.294 441.471C873.074 441.427 872.825 441.459 872.595 441.562C866.805 444.062 864.19 448.497 864.75 454.867C865.28 461.007 867.805 467.057 872.325 473.017C850.035 468.357 830.215 458.702 812.865 444.052C807.505 439.522 802.585 434.512 798.105 429.022C797.791 428.64 797.607 428.168 797.58 427.674C797.553 427.181 797.685 426.691 797.955 426.277C800.245 422.827 803.185 419.552 806.775 416.452C821.435 403.782 836.885 392.242 853.125 381.832C870.255 369.982 893.79 359.557 914.865 361.702C938.49 364.087 964.2 381.052 981.87 395.797C982.99 396.727 983.97 397.967 984.81 399.517C984.938 399.755 985.105 399.956 985.294 400.1C985.484 400.245 985.689 400.328 985.89 400.342C987.05 400.412 987.29 399.327 986.61 397.087Z" fill="#FCC3B6"/>
<path d="M274.77 391.327C287.52 399.877 299.555 409.522 310.875 420.262C312.935 422.212 313.47 424.517 312.48 427.177C311.82 428.927 310.365 430.757 308.115 432.667C287.775 449.977 266.46 464.722 242.985 473.962C241.26 474.652 239.895 474.142 238.2 474.217L243.735 466.837C249.24 458.362 248.61 446.257 237.93 442.657C221.43 437.092 207.525 446.152 196.845 457.897C187.805 467.827 178.81 477.807 169.86 487.837C169.08 487.117 168.33 487.282 167.655 488.077C151.835 506.957 138.445 525.397 127.485 543.397C126.915 544.347 127.25 544.952 128.49 545.212C127.77 546.547 123.015 556.552 122.565 556.717C122.135 556.877 121.98 556.687 122.1 556.147C123.16 550.977 122.935 545.857 121.425 540.787C121.675 535.477 121.675 530.237 121.425 525.067C119.345 482.527 122.72 440.452 131.55 398.842L134.61 398.437C135.027 398.379 135.467 398.135 135.855 397.747C155.565 378.397 178.005 363.532 206.4 362.242C229.23 361.207 256.56 378.637 274.77 391.327Z" fill="#FCC3B6"/>
<path d="M545.075 398.837C545.835 412.237 545.595 427.007 544.355 443.147C543.665 451.997 542.635 459.397 541.265 465.347C538.31 478.157 527.195 483.407 515.585 478.247C506.45 474.197 502.055 464.747 498.89 455.387C493.38 439.127 488.6 422.657 484.55 405.977C495.92 403.537 507.415 401.587 519.035 400.127L545.075 398.837Z" fill="#2E2E44"/>
<path d="M575.999 398.837L616.124 402.467L635.249 406.337C631.699 426.707 626.324 445.437 619.124 462.527C614.279 474.032 604.004 481.967 591.239 479.207C578.789 476.522 575.849 463.142 575.234 452.027C574.114 431.687 574.369 413.957 575.999 398.837Z" fill="#2E2E44"/>
<path d="M396.6 727.972C394.79 735.102 392.215 741.087 388.875 745.927C383.55 753.652 375.27 764.347 368.025 771.127C342.48 795.082 310.47 804.292 275.55 801.397C258.59 799.997 241.955 796.902 225.645 792.112C219.115 786.562 216.185 779.522 216.855 770.992C223.365 756.172 250.29 765.202 261.57 767.497C288.84 773.062 323.325 769.072 345.69 750.517C352.875 744.547 358.98 735.337 364.995 727.327C371.415 718.792 374.355 713.452 384.99 715.822C391.96 717.372 395.83 721.422 396.6 727.972Z" fill="#2E2E44"/>
<path d="M905.25 766.942L905.129 774.247C901.169 789.652 891.885 794.407 876.345 797.542C863.325 800.182 851.34 801.067 838.05 801.837C831.75 802.212 823.395 801.742 816.21 801.082C801.54 799.742 789.54 797.837 774.55 791.837C753.55 781.337 747.55 774.307 736.55 762.307C736.55 762.307 719.64 742.642 721.41 729.097C722.595 720.097 733.2 714.022 741.39 717.772C743.7 718.832 746.5 721.462 749.79 725.662C762.405 741.757 776.805 759.007 796.59 764.932C822.285 772.627 846.78 770.077 871.815 764.632C877.815 763.312 885.21 762.352 890.265 762.307C895.675 762.267 900.67 763.812 905.25 766.942Z" fill="#2E2E44"/>
<path d="M216.855 770.992C216.185 779.522 219.115 786.562 225.645 792.112C234.045 797.722 244.005 798.472 253.425 800.152C253.105 800.082 252.795 800.102 252.495 800.212C252.394 800.248 252.302 800.305 252.224 800.38C252.146 800.455 252.084 800.547 252.041 800.651C251.998 800.754 251.974 800.866 251.972 800.981C251.971 801.097 251.99 801.212 252.03 801.322C252.89 803.732 252.645 806.067 251.295 808.327C250.895 808.987 250.725 808.907 250.785 808.087L250.8 807.712C250.82 807.472 250.73 807.482 250.53 807.742C248.49 810.372 248.45 812.842 250.41 815.152L234.36 819.442C232.53 818.802 230.655 818.592 228.735 818.812C214.5 820.417 193.2 803.617 196.995 788.572C199.395 779.017 205.98 769.537 215.79 765.832C216.33 765.632 216.465 765.782 216.195 766.282C215.005 768.482 215.225 770.052 216.855 770.992Z" fill="#E8D9C2"/>
<path d="M886.365 819.592C879.575 816.362 872.235 814.732 864.345 814.702C864.025 812.182 862.89 810.027 860.94 808.237C860.789 808.096 860.689 807.907 860.657 807.699C860.624 807.49 860.661 807.274 860.76 807.082C861.65 805.452 861.81 803.787 861.24 802.087C880.35 798.367 902.114 798.262 905.129 774.247L905.25 766.942C913.8 771.572 918.895 778.802 920.535 788.632C921.465 794.152 920.955 799.672 917.745 804.502C910.625 815.172 900.165 820.202 886.365 819.592Z" fill="#E6DEC7"/>
<path d="M659.355 877.432C660.895 881.502 661.455 885.137 661.035 888.337C659.55 899.767 650.175 906.982 639.705 910.177C619.915 916.217 600.035 915.312 580.065 907.462C573.215 904.872 567.29 900.777 562.29 895.177C562.16 895.034 562.014 894.922 561.868 894.853C561.722 894.784 561.582 894.761 561.465 894.787C561.295 894.837 561.135 894.937 560.985 895.087C560.875 894.867 560.685 894.727 560.415 894.667C560.249 894.63 560.06 894.659 559.868 894.749C559.677 894.839 559.492 894.988 559.335 895.177C544.935 912.142 517.785 916.072 496.425 912.352C488.875 911.032 482.895 908.122 478.485 903.622C477.195 902.317 477.015 899.032 474.24 901.087C470.325 896.122 467.835 887.872 470.88 881.872C476.175 871.402 496.485 878.572 503.205 879.397C514.38 880.777 527.025 877.672 535.92 871.957C547.065 864.772 548.04 854.572 548.31 840.952C548.49 832.362 548.665 827.677 548.835 826.897C552.63 809.197 581.235 809.767 584.475 827.527C586.44 838.387 581.385 853.792 586.575 863.917C592.035 874.567 606.225 879.712 617.325 880.732C628.665 881.767 650.715 870.892 659.355 877.432Z" fill="#2E2E44"/>
<path d="M864.345 814.702C872.235 814.732 879.575 816.362 886.365 819.592C893.645 824.752 898.175 831.172 899.955 838.852C903.615 854.647 901.59 876.982 888.87 888.607C877.11 899.347 854.49 901.582 842.745 888.772C829.305 874.117 829.92 839.527 843.225 824.947C848.535 819.127 855.575 815.712 864.345 814.702Z" fill="#F19BBF"/>
<path d="M250.41 815.152C270.59 816.092 282.525 826.537 286.215 846.487C288.57 859.282 286.215 876.322 277.365 886.837C270.815 891.607 263.565 894.887 255.615 896.677C211.545 903.922 201.84 838.087 234.36 819.442L250.41 815.152Z" fill="#F19BBF"/>
<path d="M128.49 921.337L129.3 922.777C132.95 931.987 138.055 940.287 144.615 947.677C145.35 948.502 146.175 948.562 146.235 947.212C187.575 999.502 247.8 1031.83 310.8 1051.84C387.09 1076.06 467.235 1085.84 547.035 1087.46C557.085 1087.67 567.08 1087.62 577.02 1087.3C630.61 1085.57 683.745 1079.61 736.425 1069.43C800.745 1056.98 862.155 1034.38 916.755 995.857C934.62 983.257 952.875 966.937 966.3 951.322C968.93 948.262 975.705 939.382 986.625 924.682C987.855 923.032 992.445 919.792 989.145 926.272C984.765 934.867 981.39 943.882 976.275 951.682C940.935 1005.49 888.675 1047.64 827.175 1069.07C791.185 1081.62 752.195 1091.27 710.205 1098.01C701.34 1099.43 690.99 1102.22 681.765 1103.3C659.495 1105.92 634.12 1108.22 605.64 1110.19C594.27 1110.98 568.755 1111.03 529.095 1110.35C526.695 1110.31 524.175 1110.16 521.535 1109.89C511.32 1108.84 501.15 1109.3 490.89 1108.04C482.955 1107.07 471.78 1107.19 462.315 1106.06C446.97 1104.23 431.1 1103.09 416.4 1100.5C383.58 1094.68 351.045 1088.02 319.125 1078.31C318.903 1078.24 318.668 1078.24 318.458 1078.32C318.249 1078.39 318.077 1078.52 317.97 1078.7C317.74 1079.08 317.6 1079.48 317.55 1079.9C277.58 1068.61 240.485 1049.85 206.265 1023.62C193.505 1013.83 182.975 1004.59 174.675 995.902C154.275 972.847 137.865 949.897 125.28 922.237C126.56 921.267 127.63 920.967 128.49 921.337Z" fill="#C9C0B1"/>
<path d="M804.884 13.2332C774.985 -2.66166 743.544 -5.12882 716.889 10.7215C690.233 26.5719 687.35 55.8209 695.732 62.1512C704.115 68.4816 718.322 66.6345 726.967 64.0546C733.344 62.1512 724.02 47.1434 753.236 44.8641C782.453 42.5848 790.119 51.2875 794.678 64.0546C799.236 76.8217 783.748 93.4074 773.508 108.099C764.339 121.255 754.394 125.52 745.823 139.018C733.33 158.691 731.542 176.203 726.967 199.855C724.642 211.873 724.966 224.643 737.903 227.828C749.867 230.773 764.123 224.305 768.155 211.873C770.642 204.206 769.905 174.803 783.074 155.513C792.302 141.996 805.525 134.582 816.788 122.414C832.052 105.922 842.192 98.7196 843.164 76.5668C844.369 49.1228 832.734 28.039 804.884 13.2332Z" fill="#2E2E44"/>
<path d="M765.55 274.837C765.55 291.406 752.118 304.837 735.55 304.837C718.981 304.837 705.55 291.406 705.55 274.837C705.55 258.269 718.981 244.837 735.55 244.837C752.118 244.837 765.55 258.269 765.55 274.837Z" fill="#2E2E44"/>
</svg>
